<?xml version="1.0" encoding="UTF-8"?>
<!DOCTYPE svg PUBLIC "-//W3C//DTD SVG 1.1//EN" "http://www.w3.org/Graphics/SVG/1.1/DTD/svg11.dtd">
<svg xmlns="http://www.w3.org/2000/svg" version="1.1" width="500px" height="500px" style="shape-rendering:geometricPrecision; text-rendering:geometricPrecision; image-rendering:optimizeQuality; fill-rule:evenodd; clip-rule:evenodd" xmlns:xlink="http://www.w3.org/1999/xlink">
<g><path style="opacity:0.995" fill="#4c4c4c" d="M 217.5,115.5 C 218.23,117.045 219.563,117.878 221.5,118C 220.5,118.333 219.5,118.667 218.5,119C 220.402,119.199 221.902,120.033 223,121.5C 226.067,120.028 229.233,118.695 232.5,117.5C 233.647,119.765 233.814,122.098 233,124.5C 231.374,124.854 229.541,124.854 227.5,124.5C 227.177,128.226 227.511,131.893 228.5,135.5C 229.167,136.167 229.833,136.833 230.5,137.5C 242.996,137.092 255.329,137.092 267.5,137.5C 268.057,139.235 268.39,140.902 268.5,142.5C 268,142.833 267.5,143.167 267,143.5C 265.946,142.518 265.446,141.351 265.5,140C 263.09,138.133 260.756,138.133 258.5,140C 259.821,141.545 259.488,142.711 257.5,143.5C 254.401,141.364 251.068,141.03 247.5,142.5C 250.092,143.917 252.759,144.917 255.5,145.5C 211.152,142.425 166.818,139.092 122.5,135.5C 118.439,135.318 114.605,135.985 111,137.5C 109.333,136.833 107.667,136.167 106,135.5C 103.573,136.888 100.906,137.555 98,137.5C 93.1632,136.221 88.3299,136.221 83.5,137.5C 80.8232,137.251 78.4899,136.251 76.5,134.5C 74.8849,135.154 73.2182,135.654 71.5,136C 73.8333,136.333 76.1667,136.667 78.5,137C 73.5338,137.146 68.7005,137.979 64,139.5C 61.9091,139.421 59.7424,139.087 57.5,138.5C 56.7025,138.957 56.3691,139.624 56.5,140.5C 56.1667,140.5 55.8333,140.5 55.5,140.5C 52.3752,139.521 49.0419,139.187 45.5,139.5C 45.2749,143.056 46.1082,143.39 48,140.5C 49.8114,141.078 51.6447,141.578 53.5,142C 51.5426,144.089 49.3759,144.923 47,144.5C 46.4054,145.899 46.5721,147.232 47.5,148.5C 47.1543,149.696 46.6543,149.696 46,148.5C 45.8297,157.676 45.3297,166.676 44.5,175.5C 44.5,163.167 44.5,150.833 44.5,138.5C 42.8333,138.5 41.1667,138.5 39.5,138.5C 39.2108,134.894 39.5442,131.394 40.5,128C 86.0053,122.695 131.505,117.528 177,112.5C 190.535,113.168 204.035,114.168 217.5,115.5 Z"/></g>
<g><path style="opacity:0.999" fill="#494949" d="M 217.5,115.5 C 282.555,118.676 347.555,122.343 412.5,126.5C 419.279,127.983 426.279,128.65 433.5,128.5C 439.5,128.5 445.5,128.5 451.5,128.5C 452.609,129.29 453.942,129.79 455.5,130C 454.552,130.483 453.552,130.649 452.5,130.5C 450.188,131.32 447.854,132.153 445.5,133C 448.412,133.845 449.412,135.512 448.5,138C 449,138.5 449.5,139 450,139.5C 450.741,138.359 451.575,138.359 452.5,139.5C 453.281,140.729 453.781,142.062 454,143.5C 454.667,165.5 454.667,187.5 454,209.5C 453.29,208.027 452.124,207.36 450.5,207.5C 450.5,211.5 450.5,215.5 450.5,219.5C 450.167,219.5 449.833,219.5 449.5,219.5C 449.113,205.266 449.78,191.099 451.5,177C 449.835,173.259 450.169,169.759 452.5,166.5C 450.129,159.097 449.129,151.43 449.5,143.5C 444.732,143.517 440.066,144.184 435.5,145.5C 435.501,142.005 434.001,141.672 431,144.5C 429.513,143.747 429.346,142.914 430.5,142C 427.895,140.979 425.228,140.145 422.5,139.5C 412.235,142.386 401.569,144.553 390.5,146C 386.046,146.921 382.046,148.421 378.5,150.5C 372.296,151.177 366.129,152.177 360,153.5C 330.538,151.104 301.038,149.104 271.5,147.5C 266.331,146.619 260.998,145.952 255.5,145.5C 252.759,144.917 250.092,143.917 247.5,142.5C 251.068,141.03 254.401,141.364 257.5,143.5C 259.488,142.711 259.821,141.545 258.5,140C 260.756,138.133 263.09,138.133 265.5,140C 265.446,141.351 265.946,142.518 267,143.5C 267.5,143.167 268,142.833 268.5,142.5C 268.39,140.902 268.057,139.235 267.5,137.5C 255.329,137.092 242.996,137.092 230.5,137.5C 229.833,136.833 229.167,136.167 228.5,135.5C 227.511,131.893 227.177,128.226 227.5,124.5C 229.541,124.854 231.374,124.854 233,124.5C 233.814,122.098 233.647,119.765 232.5,117.5C 229.233,118.695 226.067,120.028 223,121.5C 221.902,120.033 220.402,119.199 218.5,119C 219.5,118.667 220.5,118.333 221.5,118C 219.563,117.878 218.23,117.045 217.5,115.5 Z"/></g>
<g><path style="opacity:0.604" fill="#8d8d8d" d="M 412.5,126.5 C 419.7,126.578 426.7,127.245 433.5,128.5C 426.279,128.65 419.279,127.983 412.5,126.5 Z"/></g>
<g><path style="opacity:1" fill="#7b7b7b" d="M 451.5,128.5 C 457.18,127.157 459.847,129.324 459.5,135C 459.453,137.295 458.787,139.129 457.5,140.5C 458.345,137.486 458.345,134.152 457.5,130.5C 455.684,131.735 454.017,131.735 452.5,130.5C 453.552,130.649 454.552,130.483 455.5,130C 453.942,129.79 452.609,129.29 451.5,128.5 Z"/></g>
<g><path style="opacity:0.998" fill="#3d3d3d" d="M 255.5,145.5 C 260.998,145.952 266.331,146.619 271.5,147.5C 271.082,148.222 270.416,148.722 269.5,149C 270.706,150.018 270.373,150.518 268.5,150.5C 265.937,150.263 265.937,149.763 268.5,149C 266.987,146.977 265.654,147.144 264.5,149.5C 260.251,148.124 255.918,147.624 251.5,148C 252.167,148.333 252.833,148.667 253.5,149C 248.004,149.518 242.67,150.685 237.5,152.5C 234.961,151.798 232.794,150.465 231,148.5C 231.077,149.738 230.911,150.738 230.5,151.5C 214.429,151.345 198.096,151.012 181.5,150.5C 172.774,150.591 164.107,149.924 155.5,148.5C 152.705,148.453 150.039,148.953 147.5,150C 148.793,150.49 150.127,150.657 151.5,150.5C 151.286,154.257 152.286,154.924 154.5,152.5C 156.776,153.213 159.109,153.713 161.5,154C 158.833,155.333 158.833,156.667 161.5,158C 160.833,158.333 160.167,158.667 159.5,159C 161.942,161.371 163.776,164.204 165,167.5C 165.667,168.167 166.333,168.833 167,169.5C 167.893,168.289 168.726,168.289 169.5,169.5C 168.975,170.192 168.308,170.692 167.5,171C 172.541,172.008 172.208,172.508 166.5,172.5C 166.5,180.5 166.5,188.5 166.5,196.5C 165.507,188.35 165.174,180.017 165.5,171.5C 133.543,168.856 101.709,165.523 70,161.5C 69.5357,162.094 69.369,162.761 69.5,163.5C 67.055,161.133 64.055,160.133 60.5,160.5C 60.5,154.167 60.5,147.833 60.5,141.5C 61.552,141.649 62.552,141.483 63.5,141C 61.1902,140.503 58.8568,140.337 56.5,140.5C 56.3691,139.624 56.7025,138.957 57.5,138.5C 59.7424,139.087 61.9091,139.421 64,139.5C 68.7005,137.979 73.5338,137.146 78.5,137C 76.1667,136.667 73.8333,136.333 71.5,136C 73.2182,135.654 74.8849,135.154 76.5,134.5C 78.4899,136.251 80.8232,137.251 83.5,137.5C 88.3299,136.221 93.1632,136.221 98,137.5C 100.906,137.555 103.573,136.888 106,135.5C 107.667,136.167 109.333,136.833 111,137.5C 114.605,135.985 118.439,135.318 122.5,135.5C 166.818,139.092 211.152,142.425 255.5,145.5 Z"/></g>
<g><path style="opacity:1" fill="#353535" d="M 392.5,180.5 C 385.465,182.677 378.465,185.01 371.5,187.5C 370.503,194.803 370.169,202.137 370.5,209.5C 369.691,207.708 369.191,205.708 369,203.5C 368.727,205.101 368.227,206.601 367.5,208C 365.687,208.614 365.353,208.281 366.5,207C 364.928,203.583 363.761,203.749 363,207.5C 360.21,225.788 359.377,244.121 360.5,262.5C 357.15,262.665 353.817,262.498 350.5,262C 349.289,260.887 349.289,259.72 350.5,258.5C 346.268,252.558 344.434,245.891 345,238.5C 343.251,234.411 341.751,230.244 340.5,226C 340.706,224.634 341.04,223.301 341.5,222C 340.089,214.573 339.423,207.073 339.5,199.5C 340.117,199.611 340.617,199.944 341,200.5C 341.333,202.833 341.667,205.167 342,207.5C 342.333,204.833 342.667,202.167 343,199.5C 344.256,204.345 345.756,209.178 347.5,214C 347.355,214.772 347.022,215.439 346.5,216C 349.555,218.076 350.555,220.742 349.5,224C 352.14,227.05 354.474,227.05 356.5,224C 353.89,220.858 354.89,219.358 359.5,219.5C 360.214,207.771 361.714,196.438 364,185.5C 365,190.833 366,190.833 367,185.5C 368.364,186.258 369.531,185.758 370.5,184C 369.383,180.927 369.216,177.76 370,174.5C 372.011,178.002 373.344,178.002 374,174.5C 375.465,175.369 376.631,174.869 377.5,173C 376.293,171.7 375.626,170.2 375.5,168.5C 376.5,168.5 377.5,168.5 378.5,168.5C 378.297,166.61 378.963,165.11 380.5,164C 383.975,163.624 386.975,162.291 389.5,160C 387.5,159.667 385.5,159.333 383.5,159C 384.451,158.282 384.617,157.449 384,156.5C 378.186,157.07 372.353,157.403 366.5,157.5C 365.459,155.009 364.626,155.009 364,157.5C 356.174,153.035 348.007,152.368 339.5,155.5C 338.167,155.333 336.833,155.167 335.5,155C 342.118,154.18 342.118,153.68 335.5,153.5C 324.501,155.922 313.334,156.589 302,155.5C 299.736,157.164 297.403,157.497 295,156.5C 293.968,158.027 292.801,159.36 291.5,160.5C 289.5,160.5 287.5,160.5 285.5,160.5C 255.713,157.038 225.713,154.538 195.5,153C 190.664,152.32 185.997,151.486 181.5,150.5C 198.096,151.012 214.429,151.345 230.5,151.5C 230.911,150.738 231.077,149.738 231,148.5C 232.794,150.465 234.961,151.798 237.5,152.5C 242.67,150.685 248.004,149.518 253.5,149C 252.833,148.667 252.167,148.333 251.5,148C 255.918,147.624 260.251,148.124 264.5,149.5C 265.654,147.144 266.987,146.977 268.5,149C 265.937,149.763 265.937,150.263 268.5,150.5C 270.373,150.518 270.706,150.018 269.5,149C 270.416,148.722 271.082,148.222 271.5,147.5C 301.038,149.104 330.538,151.104 360,153.5C 366.129,152.177 372.296,151.177 378.5,150.5C 385.394,149.006 392.394,148.173 399.5,148C 396.879,147.094 397.046,146.594 400,146.5C 400.833,146.667 401.667,146.833 402.5,147C 401.167,147.667 401.167,148.333 402.5,149C 405.525,149.133 408.192,150.133 410.5,152C 413.157,152.175 415.824,152.008 418.5,151.5C 418.297,153.39 418.963,154.89 420.5,156C 423.651,155.988 426.318,156.988 428.5,159C 427.5,160.667 426.167,162 424.5,163C 426.313,162.954 427.979,163.12 429.5,163.5C 428.975,164.192 428.308,164.692 427.5,165C 422.486,164.495 418.319,165.995 415,169.5C 414,168.167 413,168.167 412,169.5C 411.125,167.487 409.791,167.487 408,169.5C 407.667,169.167 407.333,168.833 407,168.5C 403,171.167 399,173.833 395,176.5C 394.667,176.167 394.333,175.833 394,175.5C 392.731,176.905 392.231,178.571 392.5,180.5 Z"/></g>
<g><path style="opacity:1" fill="#3b3b3b" d="M 56.5,150.5 C 56.3462,182.006 55.6795,213.339 54.5,244.5C 54.8537,240.363 54.3537,236.363 53,232.5C 51.7508,234.992 50.5842,234.825 49.5,232C 50.0219,231.439 50.3552,230.772 50.5,230C 49.4502,221.894 48.6169,221.727 48,229.5C 47.0565,222.843 46.2232,216.176 45.5,209.5C 46.0916,203.378 46.0916,197.212 45.5,191C 45.096,184.571 46.096,178.404 48.5,172.5C 48.1667,171.833 47.8333,171.167 47.5,170.5C 47.8174,166.383 48.8174,162.549 50.5,159C 49.4464,157.612 49.2797,156.112 50,154.5C 52.7151,154.463 54.3818,152.797 55,149.5C 55.3826,150.056 55.8826,150.389 56.5,150.5 Z"/></g>
<g><path style="opacity:1" fill="#363636" d="M 151.5,150.5 C 157.978,150.596 164.312,151.596 170.5,153.5C 171.293,153.069 172.127,152.735 173,152.5C 176.386,153.087 179.72,153.754 183,154.5C 183.414,154.043 183.914,153.709 184.5,153.5C 210.562,156.385 236.895,158.885 263.5,161C 266.656,160.947 269.156,162.114 271,164.5C 273.795,163.217 276.628,163.217 279.5,164.5C 277.577,165.308 275.577,165.808 273.5,166C 274.955,168.016 276.955,168.849 279.5,168.5C 279.351,169.552 279.517,170.552 280,171.5C 281.388,170.446 282.888,170.28 284.5,171C 289.529,172.677 294.529,174.51 299.5,176.5C 300.554,176.32 301.554,175.987 302.5,175.5C 304.955,176.929 307.455,178.262 310,179.5C 312.879,180.047 315.879,180.047 319,179.5C 319.17,181.715 319.837,183.715 321,185.5C 321.333,184.833 321.667,184.167 322,183.5C 323,184.833 324,184.833 325,183.5C 326.218,185.019 327.718,186.186 329.5,187C 327.292,187.191 325.292,187.691 323.5,188.5C 312.008,187.312 300.675,185.979 289.5,184.5C 288.828,182.332 287.328,180.999 285,180.5C 279.945,179.269 274.945,179.269 270,180.5C 269.544,179.256 270.044,178.423 271.5,178C 269.567,177.749 267.734,177.249 266,176.5C 265.692,177.308 265.192,177.975 264.5,178.5C 263.304,178.154 263.304,177.654 264.5,177C 260.833,174.268 258.666,175.101 258,179.5C 257.5,178.5 257,177.5 256.5,176.5C 252.955,175.209 249.455,175.209 246,176.5C 245.167,173 243,170.833 239.5,170C 233.708,170.093 228.208,169.259 223,167.5C 221.512,169.82 219.679,169.987 217.5,168C 218.5,167.667 219.5,167.333 220.5,167C 219.833,166.833 219.167,166.667 218.5,166.5C 213.652,166.531 208.652,166.698 203.5,167C 200.972,167.514 198.805,168.68 197,170.5C 196.333,166.5 195.667,166.5 195,170.5C 194.667,169.833 194.333,169.167 194,168.5C 193.5,169.667 192.667,170.5 191.5,171C 191.833,171.333 192.167,171.667 192.5,172C 191.256,172.456 190.423,171.956 190,170.5C 188.955,171.373 188.122,172.373 187.5,173.5C 177.834,171.984 174.834,171.984 178.5,173.5C 178.933,193.533 178.599,206.866 177.5,213.5C 176.5,213.5 175.5,213.5 174.5,213.5C 174.66,211.801 174.494,210.134 174,208.5C 173.667,210.833 173.333,213.167 173,215.5C 172.667,212.833 172.333,210.167 172,207.5C 171,210.167 170,210.167 169,207.5C 168.667,211.833 168.333,216.167 168,220.5C 167.827,214.652 167.327,208.985 166.5,203.5C 166.5,201.167 166.5,198.833 166.5,196.5C 166.5,188.5 166.5,180.5 166.5,172.5C 172.208,172.508 172.541,172.008 167.5,171C 168.308,170.692 168.975,170.192 169.5,169.5C 168.726,168.289 167.893,168.289 167,169.5C 166.333,168.833 165.667,168.167 165,167.5C 163.776,164.204 161.942,161.371 159.5,159C 160.167,158.667 160.833,158.333 161.5,158C 158.833,156.667 158.833,155.333 161.5,154C 159.109,153.713 156.776,153.213 154.5,152.5C 152.286,154.924 151.286,154.257 151.5,150.5 Z"/></g>
<g><path style="opacity:1" fill="#2f2f2f" d="M 181.5,150.5 C 185.997,151.486 190.664,152.32 195.5,153C 225.713,154.538 255.713,157.038 285.5,160.5C 283.473,160.338 281.473,160.505 279.5,161C 284.423,162.991 289.423,163.491 294.5,162.5C 305.494,164.938 316.494,166.438 327.5,167C 326.39,169.737 326.223,172.571 327,175.5C 327.725,173.842 328.892,173.342 330.5,174C 330.421,175.907 330.754,177.907 331.5,180C 332.5,180.5 333.5,181 334.5,181.5C 335.768,180.572 337.101,180.405 338.5,181C 341.482,183.191 341.815,185.524 339.5,188C 340.931,188.465 342.097,189.299 343,190.5C 346.552,189.028 348.218,190.362 348,194.5C 350.699,197.627 353.699,197.627 357,194.5C 357.841,185.889 358.841,185.222 360,192.5C 361.215,187.949 361.881,183.282 362,178.5C 363.461,176.706 363.628,174.706 362.5,172.5C 362.486,170.407 363.152,168.574 364.5,167C 361.711,166.759 359.044,166.092 356.5,165C 358.167,164.667 359.833,164.333 361.5,164C 360.167,163 360.167,162 361.5,161C 359.939,160.812 359.272,161.645 359.5,163.5C 356.801,163.534 354.301,162.867 352,161.5C 346.547,162.145 341.88,163.145 338,164.5C 322.432,163.848 306.932,162.515 291.5,160.5C 292.801,159.36 293.968,158.027 295,156.5C 297.403,157.497 299.736,157.164 302,155.5C 313.334,156.589 324.501,155.922 335.5,153.5C 342.118,153.68 342.118,154.18 335.5,155C 336.833,155.167 338.167,155.333 339.5,155.5C 348.007,152.368 356.174,153.035 364,157.5C 364.626,155.009 365.459,155.009 366.5,157.5C 372.353,157.403 378.186,157.07 384,156.5C 384.617,157.449 384.451,158.282 383.5,159C 385.5,159.333 387.5,159.667 389.5,160C 386.975,162.291 383.975,163.624 380.5,164C 378.963,165.11 378.297,166.61 378.5,168.5C 377.5,168.5 376.5,168.5 375.5,168.5C 375.626,170.2 376.293,171.7 377.5,173C 376.631,174.869 375.465,175.369 374,174.5C 373.344,178.002 372.011,178.002 370,174.5C 369.216,177.76 369.383,180.927 370.5,184C 369.531,185.758 368.364,186.258 367,185.5C 366,190.833 365,190.833 364,185.5C 361.714,196.438 360.214,207.771 359.5,219.5C 354.89,219.358 353.89,220.858 356.5,224C 354.474,227.05 352.14,227.05 349.5,224C 350.555,220.742 349.555,218.076 346.5,216C 347.022,215.439 347.355,214.772 347.5,214C 345.756,209.178 344.256,204.345 343,199.5C 342.667,202.167 342.333,204.833 342,207.5C 341.667,205.167 341.333,202.833 341,200.5C 340.617,199.944 340.117,199.611 339.5,199.5C 339.81,196.287 339.477,193.287 338.5,190.5C 333.694,189.407 328.694,188.741 323.5,188.5C 325.292,187.691 327.292,187.191 329.5,187C 327.718,186.186 326.218,185.019 325,183.5C 324,184.833 323,184.833 322,183.5C 321.667,184.167 321.333,184.833 321,185.5C 319.837,183.715 319.17,181.715 319,179.5C 315.879,180.047 312.879,180.047 310,179.5C 307.455,178.262 304.955,176.929 302.5,175.5C 301.554,175.987 300.554,176.32 299.5,176.5C 294.529,174.51 289.529,172.677 284.5,171C 282.888,170.28 281.388,170.446 280,171.5C 279.517,170.552 279.351,169.552 279.5,168.5C 276.955,168.849 274.955,168.016 273.5,166C 275.577,165.808 277.577,165.308 279.5,164.5C 276.628,163.217 273.795,163.217 271,164.5C 269.156,162.114 266.656,160.947 263.5,161C 236.895,158.885 210.562,156.385 184.5,153.5C 183.914,153.709 183.414,154.043 183,154.5C 179.72,153.754 176.386,153.087 173,152.5C 172.127,152.735 171.293,153.069 170.5,153.5C 164.312,151.596 157.978,150.596 151.5,150.5C 150.127,150.657 148.793,150.49 147.5,150C 150.039,148.953 152.705,148.453 155.5,148.5C 164.107,149.924 172.774,150.591 181.5,150.5 Z"/></g>
<g><path style="opacity:1" fill="#292929" d="M 285.5,160.5 C 287.5,160.5 289.5,160.5 291.5,160.5C 306.932,162.515 322.432,163.848 338,164.5C 341.88,163.145 346.547,162.145 352,161.5C 354.301,162.867 356.801,163.534 359.5,163.5C 359.272,161.645 359.939,160.812 361.5,161C 360.167,162 360.167,163 361.5,164C 359.833,164.333 358.167,164.667 356.5,165C 359.044,166.092 361.711,166.759 364.5,167C 363.152,168.574 362.486,170.407 362.5,172.5C 363.628,174.706 363.461,176.706 362,178.5C 361.881,183.282 361.215,187.949 360,192.5C 358.841,185.222 357.841,185.889 357,194.5C 353.699,197.627 350.699,197.627 348,194.5C 348.218,190.362 346.552,189.028 343,190.5C 342.097,189.299 340.931,188.465 339.5,188C 341.815,185.524 341.482,183.191 338.5,181C 337.101,180.405 335.768,180.572 334.5,181.5C 333.5,181 332.5,180.5 331.5,180C 330.754,177.907 330.421,175.907 330.5,174C 328.892,173.342 327.725,173.842 327,175.5C 326.223,172.571 326.39,169.737 327.5,167C 316.494,166.438 305.494,164.938 294.5,162.5C 289.423,163.491 284.423,162.991 279.5,161C 281.473,160.505 283.473,160.338 285.5,160.5 Z"/></g>
<g><path style="opacity:0.993" fill="#3d3d3d" d="M 289.5,184.5 C 281.476,184.054 273.476,183.387 265.5,182.5C 264.077,181.551 262.577,180.551 261,179.5C 258.901,180.287 256.734,180.62 254.5,180.5C 251.5,180.5 248.5,180.5 245.5,180.5C 245.082,179.778 244.416,179.278 243.5,179C 240.183,178.502 236.85,178.335 233.5,178.5C 219.439,177.633 205.439,176.3 191.5,174.5C 190.432,173.566 189.099,173.232 187.5,173.5C 188.122,172.373 188.955,171.373 190,170.5C 190.423,171.956 191.256,172.456 192.5,172C 192.167,171.667 191.833,171.333 191.5,171C 192.667,170.5 193.5,169.667 194,168.5C 194.333,169.167 194.667,169.833 195,170.5C 195.667,166.5 196.333,166.5 197,170.5C 198.805,168.68 200.972,167.514 203.5,167C 208.652,166.698 213.652,166.531 218.5,166.5C 219.167,166.667 219.833,166.833 220.5,167C 219.5,167.333 218.5,167.667 217.5,168C 219.679,169.987 221.512,169.82 223,167.5C 228.208,169.259 233.708,170.093 239.5,170C 243,170.833 245.167,173 246,176.5C 249.455,175.209 252.955,175.209 256.5,176.5C 257,177.5 257.5,178.5 258,179.5C 258.666,175.101 260.833,174.268 264.5,177C 263.304,177.654 263.304,178.154 264.5,178.5C 265.192,177.975 265.692,177.308 266,176.5C 267.734,177.249 269.567,177.749 271.5,178C 270.044,178.423 269.544,179.256 270,180.5C 274.945,179.269 279.945,179.269 285,180.5C 287.328,180.999 288.828,182.332 289.5,184.5 Z"/></g>
<g><path style="opacity:1" fill="#3c3c3c" d="M 449.5,219.5 C 449.665,222.85 449.498,226.183 449,229.5C 448.667,225.833 448.333,222.167 448,218.5C 445.281,217.556 442.448,217.223 439.5,217.5C 439.657,216.127 439.49,214.793 439,213.5C 438.489,215.878 437.822,218.212 437,220.5C 436.722,217.222 437.222,214.055 438.5,211C 437.285,208.904 436.451,209.071 436,211.5C 433.667,209.022 433.501,206.689 435.5,204.5C 434.369,203.396 433.535,203.729 433,205.5C 432.802,203.618 432.302,201.952 431.5,200.5C 431.055,189.824 430.388,179.157 429.5,168.5C 417.235,172.804 404.902,176.804 392.5,180.5C 392.231,178.571 392.731,176.905 394,175.5C 394.333,175.833 394.667,176.167 395,176.5C 399,173.833 403,171.167 407,168.5C 407.333,168.833 407.667,169.167 408,169.5C 409.791,167.487 411.125,167.487 412,169.5C 413,168.167 414,168.167 415,169.5C 418.319,165.995 422.486,164.495 427.5,165C 428.308,164.692 428.975,164.192 429.5,163.5C 427.979,163.12 426.313,162.954 424.5,163C 426.167,162 427.5,160.667 428.5,159C 426.318,156.988 423.651,155.988 420.5,156C 418.963,154.89 418.297,153.39 418.5,151.5C 415.824,152.008 413.157,152.175 410.5,152C 408.192,150.133 405.525,149.133 402.5,149C 401.167,148.333 401.167,147.667 402.5,147C 401.667,146.833 400.833,146.667 400,146.5C 397.046,146.594 396.879,147.094 399.5,148C 392.394,148.173 385.394,149.006 378.5,150.5C 382.046,148.421 386.046,146.921 390.5,146C 401.569,144.553 412.235,142.386 422.5,139.5C 425.228,140.145 427.895,140.979 430.5,142C 429.346,142.914 429.513,143.747 431,144.5C 434.001,141.672 435.501,142.005 435.5,145.5C 440.066,144.184 444.732,143.517 449.5,143.5C 449.129,151.43 450.129,159.097 452.5,166.5C 450.169,169.759 449.835,173.259 451.5,177C 449.78,191.099 449.113,205.266 449.5,219.5 Z"/></g>
<g><path style="opacity:0.671" fill="#6c6c6c" d="M 233.5,178.5 C 236.85,178.335 240.183,178.502 243.5,179C 244.416,179.278 245.082,179.778 245.5,180.5C 241.316,180.149 237.316,179.482 233.5,178.5 Z"/></g>
<g><path style="opacity:0.901" fill="#717171" d="M 265.5,182.5 C 261.64,182.192 257.974,181.525 254.5,180.5C 256.734,180.62 258.901,180.287 261,179.5C 262.577,180.551 264.077,181.551 265.5,182.5 Z"/></g>
<g><path style="opacity:0.998" fill="#393939" d="M 55.5,140.5 C 55.8333,140.5 56.1667,140.5 56.5,140.5C 58.8568,140.337 61.1902,140.503 63.5,141C 62.552,141.483 61.552,141.649 60.5,141.5C 60.5,147.833 60.5,154.167 60.5,160.5C 64.055,160.133 67.055,161.133 69.5,163.5C 70.6597,175.326 70.8263,187.326 70,199.5C 67.4007,238.551 64.9007,277.551 62.5,316.5C 61.046,325.293 60.3793,334.293 60.5,343.5C 58.3375,346.42 55.3375,348.087 51.5,348.5C 53.259,314.194 54.259,279.528 54.5,244.5C 55.6795,213.339 56.3462,182.006 56.5,150.5C 56.7471,147.061 56.4137,143.728 55.5,140.5 Z"/></g>
<g><path style="opacity:0.997" fill="#454545" d="M 431.5,200.5 C 432.302,201.952 432.802,203.618 433,205.5C 433.535,203.729 434.369,203.396 435.5,204.5C 433.501,206.689 433.667,209.022 436,211.5C 436.451,209.071 437.285,208.904 438.5,211C 437.222,214.055 436.722,217.222 437,220.5C 437.822,218.212 438.489,215.878 439,213.5C 439.49,214.793 439.657,216.127 439.5,217.5C 442.448,217.223 445.281,217.556 448,218.5C 448.333,222.167 448.667,225.833 449,229.5C 449.498,226.183 449.665,222.85 449.5,219.5C 449.833,219.5 450.167,219.5 450.5,219.5C 450.299,263.84 450.632,308.173 451.5,352.5C 450.167,352.5 448.833,352.5 447.5,352.5C 447.167,352.5 446.833,352.5 446.5,352.5C 447.29,351.206 448.29,350.039 449.5,349C 448.833,347.667 447.833,346.667 446.5,346C 447.308,345.692 447.975,345.192 448.5,344.5C 447.635,344.436 446.635,344.103 445.5,343.5C 444.749,342.624 444.249,341.624 444,340.5C 443.751,341.624 443.251,342.624 442.5,343.5C 440.441,338.615 439.108,333.615 438.5,328.5C 436.269,285.827 433.936,243.16 431.5,200.5 Z"/></g>
<g><path style="opacity:0.993" fill="#464646" d="M 55.5,140.5 C 56.4137,143.728 56.7471,147.061 56.5,150.5C 55.8826,150.389 55.3826,150.056 55,149.5C 54.3818,152.797 52.7151,154.463 50,154.5C 49.2797,156.112 49.4464,157.612 50.5,159C 48.8174,162.549 47.8174,166.383 47.5,170.5C 47.8333,171.167 48.1667,171.833 48.5,172.5C 46.096,178.404 45.096,184.571 45.5,191C 46.0916,197.212 46.0916,203.378 45.5,209.5C 46.2232,216.176 47.0565,222.843 48,229.5C 48.6169,221.727 49.4502,221.894 50.5,230C 50.3552,230.772 50.0219,231.439 49.5,232C 50.5842,234.825 51.7508,234.992 53,232.5C 54.3537,236.363 54.8537,240.363 54.5,244.5C 54.259,279.528 53.259,314.194 51.5,348.5C 48.1922,349.026 46.0255,347.693 45,344.5C 44.5,288.168 44.3333,231.834 44.5,175.5C 45.3297,166.676 45.8297,157.676 46,148.5C 46.6543,149.696 47.1543,149.696 47.5,148.5C 46.5721,147.232 46.4054,145.899 47,144.5C 49.3759,144.923 51.5426,144.089 53.5,142C 51.6447,141.578 49.8114,141.078 48,140.5C 46.1082,143.39 45.2749,143.056 45.5,139.5C 49.0419,139.187 52.3752,139.521 55.5,140.5 Z"/></g>
<g><path style="opacity:1" fill="#404040" d="M 338.5,190.5 C 339.477,193.287 339.81,196.287 339.5,199.5C 339.423,207.073 340.089,214.573 341.5,222C 341.04,223.301 340.706,224.634 340.5,226C 341.751,230.244 343.251,234.411 345,238.5C 344.434,245.891 346.268,252.558 350.5,258.5C 349.289,259.72 349.289,260.887 350.5,262C 353.817,262.498 357.15,262.665 360.5,262.5C 359.377,244.121 360.21,225.788 363,207.5C 363.761,203.749 364.928,203.583 366.5,207C 365.353,208.281 365.687,208.614 367.5,208C 368.227,206.601 368.727,205.101 369,203.5C 369.191,205.708 369.691,207.708 370.5,209.5C 370.826,218.349 370.493,227.016 369.5,235.5C 368.732,234.737 368.232,233.737 368,232.5C 367.737,237.017 366.737,241.351 365,245.5C 364.08,245.93 363.247,246.264 362.5,246.5C 363.022,247.607 363.355,248.774 363.5,250C 362.009,255.387 361.176,260.887 361,266.5C 360.5,278.829 360.333,291.162 360.5,303.5C 359.09,344.562 358.756,385.562 359.5,426.5C 358.626,427.525 357.459,428.192 356,428.5C 352.017,427.592 348.184,426.258 344.5,424.5C 341.05,346.537 339.05,268.537 338.5,190.5 Z"/></g>
<g><path style="opacity:0.995" fill="#4d4d4d" d="M 187.5,173.5 C 189.099,173.232 190.432,173.566 191.5,174.5C 190.5,174.5 189.5,174.5 188.5,174.5C 186.926,194.798 185.926,215.131 185.5,235.5C 184.676,231.688 184.176,227.688 184,223.5C 183.971,226.367 183.138,228.867 181.5,231C 182.639,236.416 182.806,241.916 182,247.5C 178.731,249.64 177.897,252.473 179.5,256C 178.251,269.317 177.251,282.651 176.5,296C 177.252,296.671 177.586,297.504 177.5,298.5C 174.43,299.66 171.596,298.993 169,296.5C 168.185,265.497 167.352,234.497 166.5,203.5C 167.327,208.985 167.827,214.652 168,220.5C 168.333,216.167 168.667,211.833 169,207.5C 170,210.167 171,210.167 172,207.5C 172.333,210.167 172.667,212.833 173,215.5C 173.333,213.167 173.667,210.833 174,208.5C 174.494,210.134 174.66,211.801 174.5,213.5C 175.5,213.5 176.5,213.5 177.5,213.5C 178.599,206.866 178.933,193.533 178.5,173.5C 174.834,171.984 177.834,171.984 187.5,173.5 Z"/></g>
<g><path style="opacity:0.994" fill="#5c5c5c" d="M 185.5,235.5 C 185.069,255.847 184.236,276.18 183,296.5C 181.416,297.861 179.582,298.528 177.5,298.5C 177.586,297.504 177.252,296.671 176.5,296C 177.251,282.651 178.251,269.317 179.5,256C 177.897,252.473 178.731,249.64 182,247.5C 182.806,241.916 182.639,236.416 181.5,231C 183.138,228.867 183.971,226.367 184,223.5C 184.176,227.688 184.676,231.688 185.5,235.5 Z"/></g>
<g><path style="opacity:0.981" fill="#4e4e4e" d="M 369.5,235.5 C 369.211,254.834 368.878,274.168 368.5,293.5C 367.674,297.982 367.174,302.649 367,307.5C 366.667,304.167 366.333,300.833 366,297.5C 365.479,305.834 364.813,306.167 364,298.5C 362.974,303.785 362.307,309.118 362,314.5C 361.823,310.644 361.323,306.977 360.5,303.5C 360.333,291.162 360.5,278.829 361,266.5C 361.176,260.887 362.009,255.387 363.5,250C 363.355,248.774 363.022,247.607 362.5,246.5C 363.247,246.264 364.08,245.93 365,245.5C 366.737,241.351 367.737,237.017 368,232.5C 368.232,233.737 368.732,234.737 369.5,235.5 Z"/></g>
<g><path style="opacity:1" fill="#616161" d="M 452.5,130.5 C 454.017,131.735 455.684,131.735 457.5,130.5C 458.345,134.152 458.345,137.486 457.5,140.5C 455.835,210.162 454.835,280.162 454.5,350.5C 452.7,353.454 450.367,354.121 447.5,352.5C 448.833,352.5 450.167,352.5 451.5,352.5C 450.632,308.173 450.299,263.84 450.5,219.5C 450.5,215.5 450.5,211.5 450.5,207.5C 452.124,207.36 453.29,208.027 454,209.5C 454.667,187.5 454.667,165.5 454,143.5C 453.781,142.062 453.281,140.729 452.5,139.5C 451.575,138.359 450.741,138.359 450,139.5C 449.5,139 449,138.5 448.5,138C 449.412,135.512 448.412,133.845 445.5,133C 447.854,132.153 450.188,131.32 452.5,130.5 Z"/></g>
<g><path style="opacity:0.991" fill="#595959" d="M 368.5,293.5 C 366.649,335.818 365.149,378.152 364,420.5C 363.434,423.229 361.934,425.229 359.5,426.5C 358.756,385.562 359.09,344.562 360.5,303.5C 361.323,306.977 361.823,310.644 362,314.5C 362.307,309.118 362.974,303.785 364,298.5C 364.813,306.167 365.479,305.834 366,297.5C 366.333,300.833 366.667,304.167 367,307.5C 367.174,302.649 367.674,297.982 368.5,293.5 Z"/></g>
<g><path style="opacity:0.533" fill="#7b7b7b" d="M 62.5,316.5 C 62.439,325.694 61.7723,334.694 60.5,343.5C 60.3793,334.293 61.046,325.293 62.5,316.5 Z"/></g>
<g><path style="opacity:0.977" fill="#515151" d="M 438.5,328.5 C 439.108,333.615 440.441,338.615 442.5,343.5C 443.251,342.624 443.751,341.624 444,340.5C 444.249,341.624 444.749,342.624 445.5,343.5C 446.635,344.103 447.635,344.436 448.5,344.5C 447.975,345.192 447.308,345.692 446.5,346C 447.833,346.667 448.833,347.667 449.5,349C 448.29,350.039 447.29,351.206 446.5,352.5C 444.16,351.914 441.993,350.914 440,349.5C 439.108,342.524 438.608,335.524 438.5,328.5 Z"/></g>
</svg>
