<?xml version="1.0" encoding="UTF-8"?>
<!DOCTYPE svg PUBLIC "-//W3C//DTD SVG 1.1//EN" "http://www.w3.org/Graphics/SVG/1.1/DTD/svg11.dtd">
<svg xmlns="http://www.w3.org/2000/svg" version="1.1" width="500px" height="500px" style="shape-rendering:geometricPrecision; text-rendering:geometricPrecision; image-rendering:optimizeQuality; fill-rule:evenodd; clip-rule:evenodd" xmlns:xlink="http://www.w3.org/1999/xlink">
<g><path style="opacity:0.784" fill="#b0b4a3" d="M 173.5,88.5 C 173.158,89.3382 172.492,89.6716 171.5,89.5C 170.91,88.234 170.41,86.9007 170,85.5C 168.644,86.3802 167.144,86.7135 165.5,86.5C 165.5,85.5 165.5,84.5 165.5,83.5C 164.209,83.7373 163.209,83.404 162.5,82.5C 163.822,82.67 164.989,82.3366 166,81.5C 166.219,82.938 166.719,84.2713 167.5,85.5C 168.221,83.314 168.887,81.1474 169.5,79C 168.383,77.1079 166.716,76.2746 164.5,76.5C 164.768,78.099 164.434,79.4324 163.5,80.5C 163.5,78.8333 163.5,77.1667 163.5,75.5C 167.128,74.9787 167.294,73.6454 164,71.5C 162.584,72.5733 161.25,72.5733 160,71.5C 159.544,70.2559 160.044,69.4226 161.5,69C 161.167,68.6667 160.833,68.3333 160.5,68C 162.891,67.7132 165.224,67.2132 167.5,66.5C 168.086,66.7093 168.586,67.0426 169,67.5C 169,69.5 169,71.5 169,73.5C 170.913,75.0284 172.413,76.8618 173.5,79C 173.067,80.928 172.4,82.7613 171.5,84.5C 171.668,86.1705 172.335,87.5039 173.5,88.5 Z"/></g>
<g><path style="opacity:1" fill="#6e7957" d="M 162.5,82.5 C 162.328,81.5084 162.662,80.8417 163.5,80.5C 164.434,79.4324 164.768,78.099 164.5,76.5C 166.716,76.2746 168.383,77.1079 169.5,79C 168.887,81.1474 168.221,83.314 167.5,85.5C 166.719,84.2713 166.219,82.938 166,81.5C 164.989,82.3366 163.822,82.67 162.5,82.5 Z"/></g>
<g><path style="opacity:1" fill="#959b82" d="M 195.5,91.5 C 194.833,91.5 194.167,91.5 193.5,91.5C 192.348,90.1664 191.348,88.6664 190.5,87C 192.167,84.8333 193.833,82.6667 195.5,80.5C 197.382,81.0933 199.215,81.7599 201,82.5C 201.333,82.1667 201.667,81.8333 202,81.5C 200.886,83.6691 201.386,85.5024 203.5,87C 201.588,88.2002 200.255,89.8669 199.5,92C 198.181,92.195 196.847,92.0283 195.5,91.5 Z"/></g>
<g><path style="opacity:0.961" fill="#8d9481" d="M 176.5,98.5 C 175.833,98.5 175.167,98.5 174.5,98.5C 170.925,99.893 169.925,98.7264 171.5,95C 170.552,94.5172 169.552,94.3505 168.5,94.5C 167.916,91.715 168.916,90.0483 171.5,89.5C 172.492,89.6716 173.158,89.3382 173.5,88.5C 174.635,86.7868 176.302,86.1201 178.5,86.5C 178.67,87.8221 178.337,88.9887 177.5,90C 182.087,90.9572 182.42,92.4572 178.5,94.5C 177.828,95.9492 177.161,97.2825 176.5,98.5 Z"/></g>
<g><path style="opacity:0.459" fill="#dadad7" d="M 193.5,91.5 C 194.167,91.5 194.833,91.5 195.5,91.5C 192.715,95.4579 189.715,99.2912 186.5,103C 187.056,103.383 187.389,103.883 187.5,104.5C 186.5,104.5 185.5,104.5 184.5,104.5C 187.085,99.9092 190.085,95.5758 193.5,91.5 Z"/></g>
<g><path style="opacity:1" fill="#76786b" d="M 184.5,104.5 C 185.5,104.5 186.5,104.5 187.5,104.5C 190.656,104.529 192.322,106.196 192.5,109.5C 190.088,110.949 188.088,110.616 186.5,108.5C 185.687,107.347 184.687,107.347 183.5,108.5C 182.702,108.043 182.369,107.376 182.5,106.5C 182.5,105.167 183.167,104.5 184.5,104.5 Z"/></g>
<g><path style="opacity:0.58" fill="#bbc0af" d="M 151.5,116.5 C 151.33,117.822 151.663,118.989 152.5,120C 151.584,120.374 150.75,120.874 150,121.5C 147.741,120.464 145.408,120.464 143,121.5C 142.167,121.167 141.333,120.833 140.5,120.5C 141.309,118.929 141.643,117.262 141.5,115.5C 144.308,115.307 146.975,114.64 149.5,113.5C 150.449,114.152 151.615,114.486 153,114.5C 154.658,114.325 155.991,113.658 157,112.5C 157.483,113.448 157.649,114.448 157.5,115.5C 155.265,115.205 153.265,115.539 151.5,116.5 Z"/></g>
<g><path style="opacity:0.494" fill="#caccc2" d="M 144.5,124.5 C 144.5,125.167 144.5,125.833 144.5,126.5C 144.567,128.401 144.233,130.234 143.5,132C 143.836,133.03 144.503,133.53 145.5,133.5C 143.406,135.994 141.406,135.994 139.5,133.5C 140.434,132.432 140.768,131.099 140.5,129.5C 143.167,129.167 143.167,128.833 140.5,128.5C 139.778,127.449 138.778,126.782 137.5,126.5C 136.252,124.351 134.752,122.351 133,120.5C 132.261,122.221 131.427,123.887 130.5,125.5C 129.914,125.291 129.414,124.957 129,124.5C 127.895,122.399 126.729,120.399 125.5,118.5C 125.453,117 126.119,116 127.5,115.5C 129.39,117.578 131.724,118.911 134.5,119.5C 136.833,122.5 139.5,125.167 142.5,127.5C 143.176,126.398 143.842,125.398 144.5,124.5 Z"/></g>
<g><path style="opacity:1" fill="#8c9475" d="M 214.5,130.5 C 214.662,128.473 214.495,126.473 214,124.5C 212.446,126.927 211.279,126.927 210.5,124.5C 209.889,121.039 211.056,118.372 214,116.5C 215.667,118.628 217.834,119.961 220.5,120.5C 220.12,122.021 219.954,123.687 220,125.5C 218.245,126.67 217.245,128.337 217,130.5C 216.23,131.598 215.397,131.598 214.5,130.5 Z"/></g>
<g><path style="opacity:1" fill="#757c5f" d="M 149.5,123.5 C 151.552,124.053 151.885,125.053 150.5,126.5C 149.073,128.148 148.24,130.148 148,132.5C 147.576,129.975 146.41,127.975 144.5,126.5C 144.5,125.833 144.5,125.167 144.5,124.5C 145.919,123.549 147.585,123.216 149.5,123.5 Z"/></g>
<g><path style="opacity:0.353" fill="#dbddd7" d="M 174.5,98.5 C 175.167,98.5 175.833,98.5 176.5,98.5C 176.635,101.774 177.635,104.774 179.5,107.5C 180.417,106.873 181.417,106.539 182.5,106.5C 182.369,107.376 182.702,108.043 183.5,108.5C 184.687,107.347 185.687,107.347 186.5,108.5C 185.027,109.072 183.693,109.905 182.5,111C 182.833,111.333 183.167,111.667 183.5,112C 182.213,113.41 181.046,114.91 180,116.5C 177.435,126.684 175.935,137.017 175.5,147.5C 177.262,147.357 178.929,147.691 180.5,148.5C 181.103,145.172 182.77,144.172 185.5,145.5C 185.548,146.507 184.548,146.84 182.5,146.5C 182.5,147.5 182.5,148.5 182.5,149.5C 180.876,149.36 179.71,150.027 179,151.5C 178.517,150.552 178.351,149.552 178.5,148.5C 177.178,148.33 176.011,148.663 175,149.5C 173.841,142.222 172.841,142.889 172,151.5C 171.196,150.196 170.029,149.529 168.5,149.5C 166.823,150.187 165.156,150.854 163.5,151.5C 163.062,151.565 162.728,151.399 162.5,151C 164.061,150.059 165.395,148.892 166.5,147.5C 165.675,146.614 164.675,146.281 163.5,146.5C 164.568,145.566 165.901,145.232 167.5,145.5C 167.5,146.5 167.5,147.5 167.5,148.5C 169.103,148.688 170.437,148.188 171.5,147C 169.143,142.268 166.977,137.434 165,132.5C 163.125,133.623 160.958,133.623 158.5,132.5C 159.288,128.43 159.455,124.43 159,120.5C 157.682,117.059 155.182,115.725 151.5,116.5C 153.265,115.539 155.265,115.205 157.5,115.5C 157.649,114.448 157.483,113.448 157,112.5C 155.991,113.658 154.658,114.325 153,114.5C 151.615,114.486 150.449,114.152 149.5,113.5C 152.471,113.573 155.471,112.573 158.5,110.5C 159.795,111.098 161.128,111.598 162.5,112C 160.939,112.941 159.605,114.108 158.5,115.5C 164.015,124.169 168.848,133.169 173,142.5C 175.605,132.81 177.438,122.976 178.5,113C 177.462,108.057 176.129,103.224 174.5,98.5 Z"/></g>
<g><path style="opacity:1" fill="#979c87" d="M 137.5,126.5 C 138.778,126.782 139.778,127.449 140.5,128.5C 140.5,128.833 140.5,129.167 140.5,129.5C 140.768,131.099 140.434,132.432 139.5,133.5C 136.045,132.872 134.878,130.872 136,127.5C 136.383,126.944 136.883,126.611 137.5,126.5 Z"/></g>
<g><path style="opacity:0.537" fill="#d4d7cd" d="M 210.5,124.5 C 211.279,126.927 212.446,126.927 214,124.5C 214.495,126.473 214.662,128.473 214.5,130.5C 211.876,130.077 210.209,131.41 209.5,134.5C 208.295,136.138 206.962,136.471 205.5,135.5C 207.448,133.211 209.448,130.878 211.5,128.5C 209.62,127.286 209.287,125.952 210.5,124.5 Z"/></g>
<g><path style="opacity:1" fill="#c0c7b3" d="M 149.5,123.5 C 150.849,122.203 152.182,122.37 153.5,124C 152.452,125.756 152.452,127.59 153.5,129.5C 152.176,130.006 151.509,131.339 151.5,133.5C 152.5,133.5 153.5,133.5 154.5,133.5C 153.908,136.127 153.575,138.794 153.5,141.5C 157.35,141.701 158.35,143.534 156.5,147C 157.416,147.278 158.082,147.778 158.5,148.5C 157.5,148.5 156.5,148.5 155.5,148.5C 154.504,148.414 153.671,148.748 153,149.5C 152.355,148.354 151.522,147.354 150.5,146.5C 151.229,143.681 151.229,140.681 150.5,137.5C 148.271,139.099 147.938,141.099 149.5,143.5C 145.639,144.598 145.639,145.431 149.5,146C 148.62,147.356 148.286,148.856 148.5,150.5C 145.977,149.263 143.977,147.43 142.5,145C 143.509,143.832 144.509,142.665 145.5,141.5C 141.821,141.516 141.654,140.183 145,137.5C 145.414,137.957 145.914,138.291 146.5,138.5C 147.452,136.955 147.785,135.288 147.5,133.5C 148.79,134.058 149.623,135.058 150,136.5C 149.187,133.161 149.354,129.828 150.5,126.5C 151.885,125.053 151.552,124.053 149.5,123.5 Z"/></g>
<g><path style="opacity:1" fill="#9ba385" d="M 144.5,126.5 C 146.41,127.975 147.576,129.975 148,132.5C 148.24,130.148 149.073,128.148 150.5,126.5C 149.354,129.828 149.187,133.161 150,136.5C 149.623,135.058 148.79,134.058 147.5,133.5C 146.833,133.5 146.167,133.5 145.5,133.5C 144.503,133.53 143.836,133.03 143.5,132C 144.233,130.234 144.567,128.401 144.5,126.5 Z"/></g>
<g><path style="opacity:0.698" fill="#aab196" d="M 220.5,137.5 C 221.315,138.429 222.148,139.429 223,140.5C 223.74,141.749 223.573,142.749 222.5,143.5C 222.119,142.069 221.119,141.236 219.5,141C 220.337,139.989 220.67,138.822 220.5,137.5 Z"/></g>
<g><path style="opacity:0.996" fill="#555d41" d="M 220.5,137.5 C 220.67,138.822 220.337,139.989 219.5,141C 221.119,141.236 222.119,142.069 222.5,143.5C 221.178,143.67 220.011,143.337 219,142.5C 218.59,143.901 218.09,145.234 217.5,146.5C 215.952,146.179 215.285,145.179 215.5,143.5C 216.338,143.158 216.672,142.492 216.5,141.5C 217.309,139.987 217.476,138.32 217,136.5C 218.011,137.337 219.178,137.67 220.5,137.5 Z"/></g>
<g><path style="opacity:0.784" fill="#a1a396" d="M 222.5,143.5 C 220.856,144.316 219.69,145.65 219,147.5C 218.617,146.944 218.117,146.611 217.5,146.5C 218.09,145.234 218.59,143.901 219,142.5C 220.011,143.337 221.178,143.67 222.5,143.5 Z"/></g>
<g><path style="opacity:0.341" fill="#c9cbc0" d="M 215.5,143.5 C 215.285,145.179 215.952,146.179 217.5,146.5C 216.791,147.404 215.791,147.737 214.5,147.5C 214.232,145.901 214.566,144.568 215.5,143.5 Z"/></g>
<g><path style="opacity:1" fill="#879276" d="M 155.5,148.5 C 154.89,149.391 154.557,150.391 154.5,151.5C 152.5,151.167 150.5,150.833 148.5,150.5C 148.286,148.856 148.62,147.356 149.5,146C 145.639,145.431 145.639,144.598 149.5,143.5C 147.938,141.099 148.271,139.099 150.5,137.5C 151.229,140.681 151.229,143.681 150.5,146.5C 151.522,147.354 152.355,148.354 153,149.5C 153.671,148.748 154.504,148.414 155.5,148.5 Z"/></g>
<g><path style="opacity:0.827" fill="#9fa694" d="M 163.5,146.5 C 164.675,146.281 165.675,146.614 166.5,147.5C 165.395,148.892 164.061,150.059 162.5,151C 162.728,151.399 163.062,151.565 163.5,151.5C 163.44,152.043 163.107,152.376 162.5,152.5C 161.614,151.675 161.281,150.675 161.5,149.5C 160.209,149.737 159.209,149.404 158.5,148.5C 160.514,148.608 162.18,147.942 163.5,146.5 Z"/></g>
<g><path style="opacity:1" fill="#676f4f" d="M 191.5,153.5 C 191.5,153.833 191.5,154.167 191.5,154.5C 189.876,154.36 188.71,155.027 188,156.5C 187.586,156.043 187.086,155.709 186.5,155.5C 185.227,156.257 185.227,156.923 186.5,157.5C 186.768,159.099 186.434,160.432 185.5,161.5C 184.532,159.393 184.198,157.059 184.5,154.5C 181.421,154.74 178.421,154.407 175.5,153.5C 175.167,153.833 174.833,154.167 174.5,154.5C 175.05,156.657 175.717,158.657 176.5,160.5C 176.5,160.833 176.5,161.167 176.5,161.5C 175.833,161.833 175.167,162.167 174.5,162.5C 173.609,163.11 172.609,163.443 171.5,163.5C 171.5,163.167 171.5,162.833 171.5,162.5C 171.851,160.131 172.018,157.797 172,155.5C 170.308,157.245 168.475,157.578 166.5,156.5C 166.709,155.914 167.043,155.414 167.5,155C 165.899,154.727 164.399,154.227 163,153.5C 161.164,155.131 161.664,155.798 164.5,155.5C 164.325,157.621 164.659,159.621 165.5,161.5C 166.114,165.135 166.448,168.802 166.5,172.5C 165.596,171.791 165.263,170.791 165.5,169.5C 165.573,167.973 164.906,166.973 163.5,166.5C 161.81,165.897 160.31,164.897 159,163.5C 158.292,164.381 157.458,165.047 156.5,165.5C 155.391,165.443 154.391,165.11 153.5,164.5C 153.5,162.167 153.5,159.833 153.5,157.5C 155.199,157.66 156.866,157.494 158.5,157C 158.167,156.667 157.833,156.333 157.5,156C 159.037,154.89 159.703,153.39 159.5,151.5C 157.833,151.5 156.167,151.5 154.5,151.5C 154.557,150.391 154.89,149.391 155.5,148.5C 156.5,148.5 157.5,148.5 158.5,148.5C 159.209,149.404 160.209,149.737 161.5,149.5C 161.281,150.675 161.614,151.675 162.5,152.5C 163.107,152.376 163.44,152.043 163.5,151.5C 165.156,150.854 166.823,150.187 168.5,149.5C 170.029,149.529 171.196,150.196 172,151.5C 172.841,142.889 173.841,142.222 175,149.5C 176.011,148.663 177.178,148.33 178.5,148.5C 178.351,149.552 178.517,150.552 179,151.5C 179.71,150.027 180.876,149.36 182.5,149.5C 182.5,148.5 182.5,147.5 182.5,146.5C 184.548,146.84 185.548,146.507 185.5,145.5C 184.699,143.958 184.366,142.292 184.5,140.5C 187.041,140.85 189.374,140.85 191.5,140.5C 192.496,140.586 193.329,140.252 194,139.5C 194.273,141.101 194.773,142.601 195.5,144C 194.048,145.958 193.715,147.958 194.5,150C 193.551,150.617 192.718,150.451 192,149.5C 191.51,150.793 191.343,152.127 191.5,153.5 Z"/></g>
<g><path style="opacity:1" fill="#9da28d" d="M 209.5,134.5 C 210.089,137.734 212.089,139.067 215.5,138.5C 215.5,137.5 215.5,136.5 215.5,135.5C 217.553,135.402 219.22,136.069 220.5,137.5C 219.178,137.67 218.011,137.337 217,136.5C 217.476,138.32 217.309,139.987 216.5,141.5C 216.672,142.492 216.338,143.158 215.5,143.5C 215.44,142.957 215.107,142.624 214.5,142.5C 213.614,143.325 213.281,144.325 213.5,145.5C 211.409,145.318 209.409,145.652 207.5,146.5C 204.992,145.603 202.826,144.27 201,142.5C 199.365,142.878 197.865,143.544 196.5,144.5C 197.167,145.167 197.833,145.833 198.5,146.5C 196.829,148.51 196.162,150.843 196.5,153.5C 194.64,152.929 192.973,152.929 191.5,153.5C 191.343,152.127 191.51,150.793 192,149.5C 192.718,150.451 193.551,150.617 194.5,150C 193.715,147.958 194.048,145.958 195.5,144C 194.773,142.601 194.273,141.101 194,139.5C 193.329,140.252 192.496,140.586 191.5,140.5C 192.287,138.896 193.62,138.229 195.5,138.5C 195.238,139.978 195.571,141.311 196.5,142.5C 198.193,140.973 200.027,139.64 202,138.5C 202.483,137.552 202.649,136.552 202.5,135.5C 203.5,135.5 204.5,135.5 205.5,135.5C 206.962,136.471 208.295,136.138 209.5,134.5 Z"/></g>
<g><path style="opacity:1" fill="#5d673d" d="M 216.5,141.5 C 215.167,141.5 213.833,141.5 212.5,141.5C 212.5,142.5 212.5,143.5 212.5,144.5C 207.086,144.138 205.753,141.804 208.5,137.5C 211.308,138.821 213.975,140.154 216.5,141.5 Z"/></g>
<g><path style="opacity:0.769" fill="#d1d7c5" d="M 148.5,150.5 C 150.5,150.833 152.5,151.167 154.5,151.5C 156.167,151.5 157.833,151.5 159.5,151.5C 159.703,153.39 159.037,154.89 157.5,156C 157.833,156.333 158.167,156.667 158.5,157C 156.866,157.494 155.199,157.66 153.5,157.5C 153.5,159.833 153.5,162.167 153.5,164.5C 152.686,162.369 152.186,160.036 152,157.5C 149.684,156.478 149.184,154.978 150.5,153C 149.619,152.292 148.953,151.458 148.5,150.5 Z M 153.5,155.5 C 153.272,153.645 153.939,152.812 155.5,153C 154.934,153.995 154.267,154.828 153.5,155.5 Z"/></g>
<g><path style="opacity:0.776" fill="#b0b3a5" d="M 185.5,161.5 C 185.44,162.043 185.107,162.376 184.5,162.5C 183.526,160.257 183.192,157.924 183.5,155.5C 181.167,156.833 178.833,156.833 176.5,155.5C 176.5,157.167 176.5,158.833 176.5,160.5C 175.717,158.657 175.05,156.657 174.5,154.5C 174.833,154.167 175.167,153.833 175.5,153.5C 178.421,154.407 181.421,154.74 184.5,154.5C 184.198,157.059 184.532,159.393 185.5,161.5 Z"/></g>
<g><path style="opacity:1" fill="#a4aa8b" d="M 191.5,154.5 C 191.504,158.33 189.838,159.33 186.5,157.5C 185.227,156.923 185.227,156.257 186.5,155.5C 187.086,155.709 187.586,156.043 188,156.5C 188.71,155.027 189.876,154.36 191.5,154.5 Z"/></g>
<g><path style="opacity:1" fill="#d1ccbb" d="M 171.5,162.5 C 169.379,162.675 167.379,162.341 165.5,161.5C 164.659,159.621 164.325,157.621 164.5,155.5C 161.664,155.798 161.164,155.131 163,153.5C 164.399,154.227 165.899,154.727 167.5,155C 167.043,155.414 166.709,155.914 166.5,156.5C 168.475,157.578 170.308,157.245 172,155.5C 172.018,157.797 171.851,160.131 171.5,162.5 Z"/></g>
<g><path style="opacity:1" fill="#a18c7a" d="M 165.5,161.5 C 167.379,162.341 169.379,162.675 171.5,162.5C 171.5,162.833 171.5,163.167 171.5,163.5C 170.343,168.127 169.176,172.794 168,177.5C 167.802,175.618 167.302,173.952 166.5,172.5C 166.448,168.802 166.114,165.135 165.5,161.5 Z"/></g>
<g><path style="opacity:1" fill="#c9bdb1" d="M 163.5,166.5 C 161.066,167.771 159.566,169.771 159,172.5C 158.667,171.167 158.333,169.833 158,168.5C 157.768,169.737 157.268,170.737 156.5,171.5C 156.5,169.5 156.5,167.5 156.5,165.5C 157.458,165.047 158.292,164.381 159,163.5C 160.31,164.897 161.81,165.897 163.5,166.5 Z"/></g>
<g><path style="opacity:1" fill="#987e6b" d="M 176.5,161.5 C 179.376,166.336 180.709,171.669 180.5,177.5C 180.5,178.167 180.5,178.833 180.5,179.5C 179.521,180.765 178.521,182.099 177.5,183.5C 174.746,183.103 171.746,182.77 168.5,182.5C 169.528,175.427 171.528,168.76 174.5,162.5C 175.167,162.167 175.833,161.833 176.5,161.5 Z"/></g>
<g><path style="opacity:1" fill="#a79280" d="M 163.5,166.5 C 164.906,166.973 165.573,167.973 165.5,169.5C 163.901,169.232 162.568,169.566 161.5,170.5C 160.212,172.035 160.212,173.701 161.5,175.5C 162.452,173.955 162.785,172.288 162.5,170.5C 163.488,172.437 164.488,174.437 165.5,176.5C 165.03,179.55 164.197,179.883 163,177.5C 159.127,182.01 156.961,181.343 156.5,175.5C 156.5,174.5 156.5,173.5 156.5,172.5C 156.5,172.167 156.5,171.833 156.5,171.5C 157.268,170.737 157.768,169.737 158,168.5C 158.333,169.833 158.667,171.167 159,172.5C 159.566,169.771 161.066,167.771 163.5,166.5 Z"/></g>
<g><path style="opacity:1" fill="#f7e7db" d="M 161.5,170.5 C 161.833,170.5 162.167,170.5 162.5,170.5C 162.785,172.288 162.452,173.955 161.5,175.5C 160.212,173.701 160.212,172.035 161.5,170.5 Z"/></g>
<g><path style="opacity:1" fill="#cac7c1" d="M 155.5,179.5 C 155.5,188.833 155.5,198.167 155.5,207.5C 154.549,206.081 154.216,204.415 154.5,202.5C 148.007,201.952 141.674,200.619 135.5,198.5C 135.5,199.833 135.5,201.167 135.5,202.5C 128.846,202.97 122.179,202.47 115.5,201C 119.163,197.914 118.163,196.581 112.5,197C 121.92,195.088 131.42,195.255 141,197.5C 141.833,197.167 142.667,196.833 143.5,196.5C 141.5,195.667 139.5,194.833 137.5,194C 139.5,193.667 141.5,193.333 143.5,193C 143.322,190.045 143.322,186.879 143.5,183.5C 137.824,183.334 132.157,183.501 126.5,184C 132.38,184.095 133.047,185.928 128.5,189.5C 126.638,188.41 124.805,187.41 123,186.5C 120.259,188.067 119.092,190.401 119.5,193.5C 116.753,193.813 114.086,193.48 111.5,192.5C 111.038,190.709 109.871,189.709 108,189.5C 105.149,190.088 102.315,190.755 99.5,191.5C 98.5836,191.457 97.9169,191.124 97.5,190.5C 96.9423,189.21 95.9423,188.377 94.5,188C 92.1667,187.667 89.8333,187.333 87.5,187C 86.5494,186.282 86.3828,185.449 87,184.5C 90.1109,181.792 93.6109,180.958 97.5,182C 96.0072,180.844 96.1739,180.01 98,179.5C 102.4,177.208 106.733,177.208 111,179.5C 113.363,178.045 115.863,177.545 118.5,178C 116.998,178.583 115.665,179.416 114.5,180.5C 119.377,182.616 124.377,182.783 129.5,181C 127.729,180.465 127.396,179.631 128.5,178.5C 131.205,179.958 133.705,179.625 136,177.5C 137.762,177.944 137.595,178.444 135.5,179C 137.246,179.471 138.913,180.138 140.5,181C 141.899,181.595 143.232,181.428 144.5,180.5C 147.658,180.826 150.492,181.826 153,183.5C 153.122,181.563 153.955,180.23 155.5,179.5 Z"/></g>
<g><path style="opacity:1" fill="#927763" d="M 161.5,170.5 C 162.568,169.566 163.901,169.232 165.5,169.5C 165.263,170.791 165.596,171.791 166.5,172.5C 166.876,179.327 166.043,185.994 164,192.5C 163.667,191.833 163.333,191.167 163,190.5C 162.578,192.355 162.078,194.189 161.5,196C 161.57,196.765 161.903,197.265 162.5,197.5C 162.539,198.756 162.039,199.756 161,200.5C 160.878,198.563 160.045,197.23 158.5,196.5C 157.69,190.854 157.024,185.187 156.5,179.5C 156.5,178.167 156.5,176.833 156.5,175.5C 156.961,181.343 159.127,182.01 163,177.5C 164.197,179.883 165.03,179.55 165.5,176.5C 164.488,174.437 163.488,172.437 162.5,170.5C 162.167,170.5 161.833,170.5 161.5,170.5 Z"/></g>
<g><path style="opacity:1" fill="#c9c6c0" d="M 155.5,207.5 C 155.675,209.621 155.341,211.621 154.5,213.5C 153.341,215.25 151.674,216.25 149.5,216.5C 146.796,216.67 145.129,218.003 144.5,220.5C 141.091,220.249 137.758,220.583 134.5,221.5C 134.167,221.167 133.833,220.833 133.5,220.5C 134.167,219.833 134.833,219.167 135.5,218.5C 132.833,217.833 130.167,217.167 127.5,216.5C 130.395,215.201 133.062,213.535 135.5,211.5C 133.172,210.276 130.839,210.276 128.5,211.5C 127.614,210.675 127.281,209.675 127.5,208.5C 135.5,208.167 135.5,207.833 127.5,207.5C 124.64,206.756 121.64,206.089 118.5,205.5C 114.892,206.593 111.225,206.76 107.5,206C 108.624,205.751 109.624,205.251 110.5,204.5C 104.669,203.278 98.8353,203.278 93,204.5C 89.937,204.065 89.7703,203.232 92.5,202C 87.3544,200.426 82.1877,200.26 77,201.5C 75.1026,201.104 73.6026,200.104 72.5,198.5C 71.1877,199.46 69.8544,199.294 68.5,198C 71.3093,196.757 74.1426,195.59 77,194.5C 80.4813,195.123 83.9813,195.623 87.5,196C 83.4851,198.107 83.8184,198.773 88.5,198C 89.4506,197.282 89.6172,196.449 89,195.5C 87.0126,194.782 85.1792,193.782 83.5,192.5C 84.6283,191.738 85.7949,191.071 87,190.5C 89.6696,192.005 91.8363,194.005 93.5,196.5C 98.4473,195.717 103.447,195.217 108.5,195C 104.819,193.806 100.986,192.972 97,192.5C 95.588,193.923 94.4213,193.756 93.5,192C 94.745,191.209 96.0783,190.709 97.5,190.5C 97.9169,191.124 98.5836,191.457 99.5,191.5C 102.315,190.755 105.149,190.088 108,189.5C 109.871,189.709 111.038,190.709 111.5,192.5C 114.086,193.48 116.753,193.813 119.5,193.5C 119.092,190.401 120.259,188.067 123,186.5C 124.805,187.41 126.638,188.41 128.5,189.5C 133.047,185.928 132.38,184.095 126.5,184C 132.157,183.501 137.824,183.334 143.5,183.5C 143.322,186.879 143.322,190.045 143.5,193C 141.5,193.333 139.5,193.667 137.5,194C 139.5,194.833 141.5,195.667 143.5,196.5C 142.667,196.833 141.833,197.167 141,197.5C 131.42,195.255 121.92,195.088 112.5,197C 118.163,196.581 119.163,197.914 115.5,201C 122.179,202.47 128.846,202.97 135.5,202.5C 135.5,201.167 135.5,199.833 135.5,198.5C 141.674,200.619 148.007,201.952 154.5,202.5C 154.216,204.415 154.549,206.081 155.5,207.5 Z"/></g>
<g><path style="opacity:1" fill="#d3d1ce" d="M 236.5,191.5 C 234.058,191.119 233.391,191.786 234.5,193.5C 232.124,194.817 230.457,194.15 229.5,191.5C 223.215,190.353 216.882,189.686 210.5,189.5C 210.5,192.167 210.5,194.833 210.5,197.5C 209.5,197.5 208.5,197.5 207.5,197.5C 205.639,195.255 204.639,192.588 204.5,189.5C 202.533,189.261 200.699,189.594 199,190.5C 196.61,189.276 194.11,188.776 191.5,189C 192.357,189.689 193.023,190.522 193.5,191.5C 191.777,193.868 191.11,196.534 191.5,199.5C 191.428,201.311 190.595,202.644 189,203.5C 187.128,202.932 185.295,202.265 183.5,201.5C 182.833,197.018 182.166,192.684 181.5,188.5C 181.296,185.482 180.963,182.482 180.5,179.5C 180.5,178.833 180.5,178.167 180.5,177.5C 181.224,179.218 181.891,181.052 182.5,183C 185.095,183.226 187.595,183.726 190,184.5C 191.512,183.743 192.846,182.743 194,181.5C 194.169,175.141 194.669,168.807 195.5,162.5C 198.937,160.922 202.104,161.255 205,163.5C 205.333,169.5 205.667,175.5 206,181.5C 207.833,183.333 209.667,185.167 211.5,187C 220.034,188.106 228.368,189.606 236.5,191.5 Z"/></g>
<g><path style="opacity:1" fill="#735947" d="M 174.5,162.5 C 171.528,168.76 169.528,175.427 168.5,182.5C 171.746,182.77 174.746,183.103 177.5,183.5C 178.521,182.099 179.521,180.765 180.5,179.5C 180.963,182.482 181.296,185.482 181.5,188.5C 181.5,191.5 181.5,194.5 181.5,197.5C 175.71,195.479 169.71,194.979 163.5,196C 162.944,196.383 162.611,196.883 162.5,197.5C 161.903,197.265 161.57,196.765 161.5,196C 162.078,194.189 162.578,192.355 163,190.5C 163.333,191.167 163.667,191.833 164,192.5C 166.043,185.994 166.876,179.327 166.5,172.5C 167.302,173.952 167.802,175.618 168,177.5C 169.176,172.794 170.343,168.127 171.5,163.5C 172.609,163.443 173.609,163.11 174.5,162.5 Z"/></g>
<g><path style="opacity:1" fill="#9e928a" d="M 155.5,179.5 C 155.833,179.5 156.167,179.5 156.5,179.5C 157.024,185.187 157.69,190.854 158.5,196.5C 157.032,201.714 156.365,207.047 156.5,212.5C 156.158,213.338 155.492,213.672 154.5,213.5C 155.341,211.621 155.675,209.621 155.5,207.5C 155.5,198.167 155.5,188.833 155.5,179.5 Z"/></g>
<g><path style="opacity:1" fill="#cdcbc6" d="M 156.5,172.5 C 156.5,173.5 156.5,174.5 156.5,175.5C 156.5,176.833 156.5,178.167 156.5,179.5C 156.167,179.5 155.833,179.5 155.5,179.5C 153.955,180.23 153.122,181.563 153,183.5C 150.492,181.826 147.658,180.826 144.5,180.5C 143.232,181.428 141.899,181.595 140.5,181C 138.913,180.138 137.246,179.471 135.5,179C 137.595,178.444 137.762,177.944 136,177.5C 133.705,179.625 131.205,179.958 128.5,178.5C 127.396,179.631 127.729,180.465 129.5,181C 124.377,182.783 119.377,182.616 114.5,180.5C 115.665,179.416 116.998,178.583 118.5,178C 115.863,177.545 113.363,178.045 111,179.5C 106.733,177.208 102.4,177.208 98,179.5C 96.1739,180.01 96.0072,180.844 97.5,182C 93.6109,180.958 90.1109,181.792 87,184.5C 86.3828,185.449 86.5494,186.282 87.5,187C 89.8333,187.333 92.1667,187.667 94.5,188C 95.9423,188.377 96.9423,189.21 97.5,190.5C 96.0783,190.709 94.745,191.209 93.5,192C 94.4213,193.756 95.588,193.923 97,192.5C 100.986,192.972 104.819,193.806 108.5,195C 103.447,195.217 98.4473,195.717 93.5,196.5C 91.8363,194.005 89.6696,192.005 87,190.5C 85.7949,191.071 84.6283,191.738 83.5,192.5C 85.1792,193.782 87.0126,194.782 89,195.5C 89.6172,196.449 89.4506,197.282 88.5,198C 83.8184,198.773 83.4851,198.107 87.5,196C 83.9813,195.623 80.4813,195.123 77,194.5C 74.1426,195.59 71.3093,196.757 68.5,198C 69.8544,199.294 71.1877,199.46 72.5,198.5C 73.6026,200.104 75.1026,201.104 77,201.5C 82.1877,200.26 87.3544,200.426 92.5,202C 89.7703,203.232 89.937,204.065 93,204.5C 98.8353,203.278 104.669,203.278 110.5,204.5C 109.624,205.251 108.624,205.751 107.5,206C 111.225,206.76 114.892,206.593 118.5,205.5C 121.64,206.089 124.64,206.756 127.5,207.5C 126.849,208.091 126.182,208.757 125.5,209.5C 123.5,209.167 121.5,208.833 119.5,208.5C 118.281,209.263 117.281,210.263 116.5,211.5C 110.619,209.182 104.619,208.849 98.5,210.5C 98.6882,212.103 98.1882,213.437 97,214.5C 94.482,212.972 92.3153,213.306 90.5,215.5C 92.1667,216.167 93.8333,216.833 95.5,217.5C 91.2948,219.523 86.9615,219.856 82.5,218.5C 90.497,214.227 89.997,213.561 81,216.5C 80.0546,216.095 79.3879,215.428 79,214.5C 78.8038,216.286 77.9705,217.619 76.5,218.5C 72.792,218.856 69.1253,218.189 65.5,216.5C 65.1667,216.833 64.8333,217.167 64.5,217.5C 66.8557,219.69 69.3557,221.69 72,223.5C 74.3806,222.565 76.8806,222.232 79.5,222.5C 79.5,223.5 79.5,224.5 79.5,225.5C 76.3148,225.02 73.4815,225.686 71,227.5C 66.0649,226.639 60.8983,226.472 55.5,227C 58.1667,227.333 60.8333,227.667 63.5,228C 60.1844,229.733 55.5178,231.233 49.5,232.5C 47.0654,230.948 45.0654,231.281 43.5,233.5C 29.126,231.446 14.7926,229.113 0.5,226.5C 4.42629,223.193 8.75962,220.36 13.5,218C 43.8635,203.319 74.1968,188.319 104.5,173C 121.52,174.391 138.52,176.224 155.5,178.5C 155.205,176.265 155.539,174.265 156.5,172.5 Z"/></g>
<g><path style="opacity:0.999" fill="#bab7b1" d="M 275.5,197.5 C 308.367,201.689 341.034,206.356 373.5,211.5C 370.421,211.74 367.421,211.407 364.5,210.5C 357.84,214.606 350.84,215.273 343.5,212.5C 338.043,213.486 332.877,215.153 328,217.5C 327.667,216.833 327.333,216.167 327,215.5C 325.542,216.747 324.042,216.747 322.5,215.5C 321.094,216.951 319.594,218.284 318,219.5C 317.683,217.699 317.016,217.366 316,218.5C 314.581,217.54 313.081,216.707 311.5,216C 310.167,215.333 310.167,214.667 311.5,214C 305.453,213.501 305.12,212.167 310.5,210C 304.148,205.876 297.148,204.543 289.5,206C 293.131,206.206 293.465,207.373 290.5,209.5C 289.325,208.145 288.325,208.312 287.5,210C 288,210.5 288.5,211 289,211.5C 291.585,210.742 294.418,210.242 297.5,210C 299.307,211.602 301.307,212.936 303.5,214C 303.381,215.281 303.881,216.448 305,217.5C 306.868,216.328 308.702,216.495 310.5,218C 309.29,219.039 308.29,220.206 307.5,221.5C 306.262,220.588 304.928,220.421 303.5,221C 304.167,221.333 304.833,221.667 305.5,222C 303.295,224.54 300.795,226.707 298,228.5C 297.5,228 297,227.5 296.5,227C 291.547,226.005 286.547,225.338 281.5,225C 277.243,222.365 272.576,220.865 267.5,220.5C 265.866,220.968 264.7,221.968 264,223.5C 256.139,220.038 248.306,220.038 240.5,223.5C 237.869,221.995 238.203,221.329 241.5,221.5C 241.5,219.833 241.5,218.167 241.5,216.5C 239.214,216.405 237.214,215.738 235.5,214.5C 237.861,214.674 240.194,215.007 242.5,215.5C 242.5,216.833 242.5,218.167 242.5,219.5C 247.69,219.441 252.857,219.775 258,220.5C 260.352,220.695 262.352,220.028 264,218.5C 264.561,219.022 265.228,219.355 266,219.5C 267.243,217.237 269.076,216.403 271.5,217C 270.027,217.71 269.36,218.876 269.5,220.5C 272.537,220.552 275.204,219.552 277.5,217.5C 275.795,214.879 273.628,214.212 271,215.5C 270.333,214.167 269.667,212.833 269,211.5C 267.246,213.25 265.079,213.917 262.5,213.5C 262.018,210.549 260.352,208.382 257.5,207C 259,206.5 260.5,206 262,205.5C 265,205.786 268.166,205.786 271.5,205.5C 271.62,202.795 270.62,202.128 268.5,203.5C 267.069,203.023 265.736,202.357 264.5,201.5C 267.034,201.434 269.534,201.434 272,201.5C 272.5,201 273,200.5 273.5,200C 270.768,199.587 268.101,198.92 265.5,198C 268.817,197.502 272.15,197.335 275.5,197.5 Z"/></g>
<g><path style="opacity:1" fill="#c3c0bb" d="M 236.5,191.5 C 249.715,192.958 262.715,194.958 275.5,197.5C 272.15,197.335 268.817,197.502 265.5,198C 268.101,198.92 270.768,199.587 273.5,200C 273,200.5 272.5,201 272,201.5C 269.534,201.434 267.034,201.434 264.5,201.5C 265.736,202.357 267.069,203.023 268.5,203.5C 270.62,202.128 271.62,202.795 271.5,205.5C 268.166,205.786 265,205.786 262,205.5C 260.5,206 259,206.5 257.5,207C 260.352,208.382 262.018,210.549 262.5,213.5C 265.079,213.917 267.246,213.25 269,211.5C 269.667,212.833 270.333,214.167 271,215.5C 273.628,214.212 275.795,214.879 277.5,217.5C 275.204,219.552 272.537,220.552 269.5,220.5C 269.36,218.876 270.027,217.71 271.5,217C 269.076,216.403 267.243,217.237 266,219.5C 265.228,219.355 264.561,219.022 264,218.5C 262.352,220.028 260.352,220.695 258,220.5C 252.857,219.775 247.69,219.441 242.5,219.5C 242.5,218.167 242.5,216.833 242.5,215.5C 240.194,215.007 237.861,214.674 235.5,214.5C 233.102,214.741 231.102,214.074 229.5,212.5C 229.586,211.504 229.252,210.671 228.5,210C 226.866,209.506 225.199,209.34 223.5,209.5C 219.146,208.914 214.812,208.248 210.5,207.5C 207.101,205.868 203.434,204.702 199.5,204C 203.185,203.086 202.852,202.419 198.5,202C 200.577,201.808 202.577,201.308 204.5,200.5C 200.826,199.767 197.159,199.101 193.5,198.5C 192.817,198.863 192.15,199.196 191.5,199.5C 191.11,196.534 191.777,193.868 193.5,191.5C 193.023,190.522 192.357,189.689 191.5,189C 194.11,188.776 196.61,189.276 199,190.5C 200.699,189.594 202.533,189.261 204.5,189.5C 204.639,192.588 205.639,195.255 207.5,197.5C 208.5,197.5 209.5,197.5 210.5,197.5C 210.5,194.833 210.5,192.167 210.5,189.5C 216.882,189.686 223.215,190.353 229.5,191.5C 230.457,194.15 232.124,194.817 234.5,193.5C 233.391,191.786 234.058,191.119 236.5,191.5 Z"/></g>
<g><path style="opacity:1" fill="#55433b" d="M 181.5,197.5 C 181.768,199.099 181.434,200.432 180.5,201.5C 176.015,203.053 171.348,203.886 166.5,204C 165.816,205.693 164.816,207.193 163.5,208.5C 165.475,209.749 165.809,211.249 164.5,213C 161.739,213.722 159.073,213.555 156.5,212.5C 156.365,207.047 157.032,201.714 158.5,196.5C 160.045,197.23 160.878,198.563 161,200.5C 162.039,199.756 162.539,198.756 162.5,197.5C 162.611,196.883 162.944,196.383 163.5,196C 169.71,194.979 175.71,195.479 181.5,197.5 Z"/></g>
<g><path style="opacity:1" fill="#c8c5bf" d="M 127.5,207.5 C 135.5,207.833 135.5,208.167 127.5,208.5C 127.281,209.675 127.614,210.675 128.5,211.5C 130.839,210.276 133.172,210.276 135.5,211.5C 133.062,213.535 130.395,215.201 127.5,216.5C 130.167,217.167 132.833,217.833 135.5,218.5C 134.833,219.167 134.167,219.833 133.5,220.5C 133.833,220.833 134.167,221.167 134.5,221.5C 137.758,220.583 141.091,220.249 144.5,220.5C 143.278,226.95 145.945,230.617 152.5,231.5C 152.365,233.554 153.032,235.221 154.5,236.5C 154.5,237.5 154.5,238.5 154.5,239.5C 152.406,238.758 150.239,238.091 148,237.5C 144.418,238.445 140.918,239.778 137.5,241.5C 134.465,242.061 131.465,242.727 128.5,243.5C 125.103,241.836 121.436,241.003 117.5,241C 119.167,240.667 120.833,240.333 122.5,240C 121.376,239.751 120.376,239.251 119.5,238.5C 121.423,237.692 123.423,237.192 125.5,237C 126.641,236.259 126.641,235.425 125.5,234.5C 128.321,233.158 128.154,232.492 125,232.5C 123.145,233.244 121.479,234.244 120,235.5C 117.484,234.227 114.984,234.227 112.5,235.5C 110.614,234.07 108.947,232.403 107.5,230.5C 105.608,229.527 103.608,228.86 101.5,228.5C 97.0609,230.138 92.3943,230.971 87.5,231C 90.1667,231.333 92.8333,231.667 95.5,232C 94.1354,233.682 92.6354,233.849 91,232.5C 90.8333,232.833 90.6667,233.167 90.5,233.5C 93.3617,234.306 93.8617,235.639 92,237.5C 89.3253,237.487 86.492,237.153 83.5,236.5C 81.3659,236.515 79.3659,237.015 77.5,238C 80.1909,238.156 82.5242,238.989 84.5,240.5C 70.5779,238.902 56.9112,236.569 43.5,233.5C 45.0654,231.281 47.0654,230.948 49.5,232.5C 55.5178,231.233 60.1844,229.733 63.5,228C 60.8333,227.667 58.1667,227.333 55.5,227C 60.8983,226.472 66.0649,226.639 71,227.5C 73.4815,225.686 76.3148,225.02 79.5,225.5C 79.5,224.5 79.5,223.5 79.5,222.5C 76.8806,222.232 74.3806,222.565 72,223.5C 69.3557,221.69 66.8557,219.69 64.5,217.5C 64.8333,217.167 65.1667,216.833 65.5,216.5C 69.1253,218.189 72.792,218.856 76.5,218.5C 77.9705,217.619 78.8038,216.286 79,214.5C 79.3879,215.428 80.0546,216.095 81,216.5C 89.997,213.561 90.497,214.227 82.5,218.5C 86.9615,219.856 91.2948,219.523 95.5,217.5C 93.8333,216.833 92.1667,216.167 90.5,215.5C 92.3153,213.306 94.482,212.972 97,214.5C 98.1882,213.437 98.6882,212.103 98.5,210.5C 104.619,208.849 110.619,209.182 116.5,211.5C 117.281,210.263 118.281,209.263 119.5,208.5C 121.5,208.833 123.5,209.167 125.5,209.5C 126.182,208.757 126.849,208.091 127.5,207.5 Z"/></g>
<g><path style="opacity:1" fill="#43312a" d="M 180.5,201.5 C 180.895,205.185 181.062,208.852 181,212.5C 179.649,214.019 178.149,215.352 176.5,216.5C 178.188,217.521 179.521,218.855 180.5,220.5C 180.38,221.586 179.713,222.253 178.5,222.5C 173.827,221.713 169.16,220.88 164.5,220C 162.973,218.968 161.64,217.801 160.5,216.5C 160.189,215.522 159.522,214.855 158.5,214.5C 155.218,215.948 152.052,217.615 149,219.5C 148.5,219.333 148,219.167 147.5,219C 148.381,218.292 149.047,217.458 149.5,216.5C 151.674,216.25 153.341,215.25 154.5,213.5C 155.492,213.672 156.158,213.338 156.5,212.5C 159.073,213.555 161.739,213.722 164.5,213C 165.809,211.249 165.475,209.749 163.5,208.5C 164.816,207.193 165.816,205.693 166.5,204C 171.348,203.886 176.015,203.053 180.5,201.5 Z"/></g>
<g><path style="opacity:1" fill="#4d4e4a" d="M 210.5,207.5 C 214.812,208.248 219.146,208.914 223.5,209.5C 219.349,211.255 215.016,211.588 210.5,210.5C 210.5,209.5 210.5,208.5 210.5,207.5 Z"/></g>
<g><path style="opacity:1" fill="#989490" d="M 181.5,188.5 C 182.166,192.684 182.833,197.018 183.5,201.5C 185.295,202.265 187.128,202.932 189,203.5C 190.595,202.644 191.428,201.311 191.5,199.5C 192.15,199.196 192.817,198.863 193.5,198.5C 197.159,199.101 200.826,199.767 204.5,200.5C 202.577,201.308 200.577,201.808 198.5,202C 202.852,202.419 203.185,203.086 199.5,204C 203.434,204.702 207.101,205.868 210.5,207.5C 210.5,208.5 210.5,209.5 210.5,210.5C 210.5,210.833 210.5,211.167 210.5,211.5C 206.378,211.34 202.044,211.34 197.5,211.5C 197.5,212.833 197.5,214.167 197.5,215.5C 199.527,215.338 201.527,215.505 203.5,216C 201.292,216.191 199.292,216.691 197.5,217.5C 197.773,219.451 197.107,220.951 195.5,222C 191.08,222.768 186.747,222.602 182.5,221.5C 181.833,221.167 181.167,220.833 180.5,220.5C 179.521,218.855 178.188,217.521 176.5,216.5C 178.149,215.352 179.649,214.019 181,212.5C 181.062,208.852 180.895,205.185 180.5,201.5C 181.434,200.432 181.768,199.099 181.5,197.5C 181.5,194.5 181.5,191.5 181.5,188.5 Z"/></g>
<g><path style="opacity:1" fill="#7e7e7a" d="M 223.5,209.5 C 225.199,209.34 226.866,209.506 228.5,210C 229.252,210.671 229.586,211.504 229.5,212.5C 228.733,213.172 228.066,214.005 227.5,215C 228.423,217.041 228.756,219.208 228.5,221.5C 226.801,221.34 225.134,221.506 223.5,222C 218.787,226.663 213.453,230.663 207.5,234C 203.642,234.81 199.976,234.643 196.5,233.5C 205.903,234.248 213.237,230.748 218.5,223C 223.161,221.557 225.494,218.723 225.5,214.5C 217.944,219.44 210.278,224.107 202.5,228.5C 200.15,227.89 200.483,227.556 203.5,227.5C 203.993,225.194 204.326,222.861 204.5,220.5C 205.552,220.649 206.552,220.483 207.5,220C 207.619,218.855 207.952,217.688 208.5,216.5C 209.968,215.221 210.635,213.554 210.5,211.5C 210.5,211.167 210.5,210.833 210.5,210.5C 215.016,211.588 219.349,211.255 223.5,209.5 Z"/></g>
<g><path style="opacity:1" fill="#b9b7b0" d="M 373.5,211.5 C 397.356,214.438 421.023,217.772 444.5,221.5C 440.196,222.638 435.862,223.971 431.5,225.5C 433.816,226.932 436.316,227.932 439,228.5C 441.861,228.092 442.028,228.925 439.5,231C 443.084,232.073 446.75,232.74 450.5,233C 450.833,233.333 451.167,233.667 451.5,234C 447.55,235.206 443.55,236.206 439.5,237C 442.167,237.333 444.833,237.667 447.5,238C 432.259,239.366 417.093,241.199 402,243.5C 394.574,241.907 387.074,240.574 379.5,239.5C 376.86,238.555 374.194,238.388 371.5,239C 372.552,237.284 371.886,236.284 369.5,236C 370.953,233.886 372.953,232.552 375.5,232C 371.623,231.846 368.123,233.013 365,235.5C 364.167,235.333 363.333,235.167 362.5,235C 363.672,234.581 364.672,233.915 365.5,233C 362.718,232.055 360.051,231.888 357.5,232.5C 355.293,230.486 352.627,229.486 349.5,229.5C 348.602,228.842 347.602,228.176 346.5,227.5C 346.887,226.28 347.72,225.613 349,225.5C 351.935,227.192 355.102,227.858 358.5,227.5C 358.275,225.284 359.108,223.617 361,222.5C 367.741,222.835 374.574,223.335 381.5,224C 380.328,223.581 379.328,222.915 378.5,222C 373.485,221.392 368.819,220.559 364.5,219.5C 365.628,218.738 366.795,218.071 368,217.5C 373.184,219.095 373.684,218.261 369.5,215C 371.544,214.502 372.878,213.335 373.5,211.5 Z"/></g>
<g><path style="opacity:1" fill="#d2cec8" d="M 210.5,211.5 C 210.635,213.554 209.968,215.221 208.5,216.5C 204.881,217.244 201.215,217.577 197.5,217.5C 199.292,216.691 201.292,216.191 203.5,216C 201.527,215.505 199.527,215.338 197.5,215.5C 197.5,214.167 197.5,212.833 197.5,211.5C 202.044,211.34 206.378,211.34 210.5,211.5 Z"/></g>
<g><path style="opacity:1" fill="#b4b1ab" d="M 373.5,211.5 C 372.878,213.335 371.544,214.502 369.5,215C 373.684,218.261 373.184,219.095 368,217.5C 366.795,218.071 365.628,218.738 364.5,219.5C 368.819,220.559 373.485,221.392 378.5,222C 379.328,222.915 380.328,223.581 381.5,224C 374.574,223.335 367.741,222.835 361,222.5C 359.108,223.617 358.275,225.284 358.5,227.5C 355.102,227.858 351.935,227.192 349,225.5C 347.72,225.613 346.887,226.28 346.5,227.5C 347.602,228.176 348.602,228.842 349.5,229.5C 343.224,230.696 336.89,231.696 330.5,232.5C 327,229.917 323.5,229.917 320,232.5C 319.154,230.153 317.654,228.32 315.5,227C 311.5,226.667 307.5,226.333 303.5,226C 305.041,224.629 306.375,223.129 307.5,221.5C 308.29,220.206 309.29,219.039 310.5,218C 308.702,216.495 306.868,216.328 305,217.5C 303.881,216.448 303.381,215.281 303.5,214C 301.307,212.936 299.307,211.602 297.5,210C 294.418,210.242 291.585,210.742 289,211.5C 288.5,211 288,210.5 287.5,210C 288.325,208.312 289.325,208.145 290.5,209.5C 293.465,207.373 293.131,206.206 289.5,206C 297.148,204.543 304.148,205.876 310.5,210C 305.12,212.167 305.453,213.501 311.5,214C 310.167,214.667 310.167,215.333 311.5,216C 313.081,216.707 314.581,217.54 316,218.5C 317.016,217.366 317.683,217.699 318,219.5C 319.594,218.284 321.094,216.951 322.5,215.5C 324.042,216.747 325.542,216.747 327,215.5C 327.333,216.167 327.667,216.833 328,217.5C 332.877,215.153 338.043,213.486 343.5,212.5C 350.84,215.273 357.84,214.606 364.5,210.5C 367.421,211.407 370.421,211.74 373.5,211.5 Z"/></g>
<g><path style="opacity:1" fill="#e3dfe1" d="M 181.5,214.5 C 182.496,214.414 183.329,214.748 184,215.5C 184.798,217.259 184.631,218.926 183.5,220.5C 181.717,218.977 181.051,216.977 181.5,214.5 Z"/></g>
<g><path style="opacity:1" fill="#737370" d="M 160.5,216.5 C 159.478,219.522 157.478,221.522 154.5,222.5C 151.833,222.167 149.167,221.833 146.5,221.5C 146.158,220.662 145.492,220.328 144.5,220.5C 145.129,218.003 146.796,216.67 149.5,216.5C 149.047,217.458 148.381,218.292 147.5,219C 148,219.167 148.5,219.333 149,219.5C 152.052,217.615 155.218,215.948 158.5,214.5C 159.522,214.855 160.189,215.522 160.5,216.5 Z"/></g>
<g><path style="opacity:1" fill="#b3b1ab" d="M 444.5,221.5 C 462.978,223.434 481.311,226.101 499.5,229.5C 499.5,230.833 499.5,232.167 499.5,233.5C 499.167,233.5 498.833,233.5 498.5,233.5C 498.649,232.448 498.483,231.448 498,230.5C 494.39,236.077 490.557,241.41 486.5,246.5C 483.731,246.469 481.231,247.136 479,248.5C 476.046,248.406 475.879,247.906 478.5,247C 477.552,246.517 476.552,246.351 475.5,246.5C 475.351,242.877 474.184,242.543 472,245.5C 470.739,245.241 469.739,244.574 469,243.5C 468.781,244.938 468.281,246.271 467.5,247.5C 466.808,246.975 466.308,246.308 466,245.5C 462.894,248.027 463.061,249.86 466.5,251C 463.443,251.256 460.443,251.756 457.5,252.5C 456.914,252.291 456.414,251.957 456,251.5C 455.691,252.766 455.191,253.933 454.5,255C 456.376,256.017 458.376,256.851 460.5,257.5C 458.268,260.363 455.268,261.696 451.5,261.5C 446.422,260.165 441.422,258.831 436.5,257.5C 433.258,257.783 432.924,258.617 435.5,260C 434.584,260.278 433.918,260.778 433.5,261.5C 427.585,260.208 421.585,259.374 415.5,259C 415.966,253.509 414.133,253.009 410,257.5C 409.692,256.692 409.192,256.025 408.5,255.5C 407.232,256.428 405.899,256.595 404.5,256C 407.063,255.237 407.063,254.737 404.5,254.5C 402.181,255.064 399.847,255.564 397.5,256C 398.712,257.107 398.379,257.607 396.5,257.5C 396.144,256.13 395.31,255.13 394,254.5C 392.211,255.409 390.377,255.576 388.5,255C 389.833,254.333 389.833,253.667 388.5,253C 383.799,252.625 379.299,252.458 375,252.5C 371.017,254.103 366.85,254.77 362.5,254.5C 362.611,253.883 362.944,253.383 363.5,253C 362.167,252.667 360.833,252.333 359.5,252C 376.779,249.188 376.779,245.854 359.5,242C 366.524,241.919 373.524,242.419 380.5,243.5C 380.567,242.041 380.234,240.708 379.5,239.5C 387.074,240.574 394.574,241.907 402,243.5C 417.093,241.199 432.259,239.366 447.5,238C 444.833,237.667 442.167,237.333 439.5,237C 443.55,236.206 447.55,235.206 451.5,234C 451.167,233.667 450.833,233.333 450.5,233C 446.75,232.74 443.084,232.073 439.5,231C 442.028,228.925 441.861,228.092 439,228.5C 436.316,227.932 433.816,226.932 431.5,225.5C 435.862,223.971 440.196,222.638 444.5,221.5 Z"/></g>
<g><path style="opacity:1" fill="#484943" d="M 160.5,216.5 C 161.64,217.801 162.973,218.968 164.5,220C 169.16,220.88 173.827,221.713 178.5,222.5C 179.713,222.253 180.38,221.586 180.5,220.5C 181.167,220.833 181.833,221.167 182.5,221.5C 181.659,223.379 181.325,225.379 181.5,227.5C 172.317,226.138 163.317,224.472 154.5,222.5C 157.478,221.522 159.478,219.522 160.5,216.5 Z"/></g>
<g><path style="opacity:1" fill="#6b6a67" d="M 208.5,216.5 C 207.952,217.688 207.619,218.855 207.5,220C 206.552,220.483 205.552,220.649 204.5,220.5C 204.326,222.861 203.993,225.194 203.5,227.5C 200.483,227.556 200.15,227.89 202.5,228.5C 201.207,229.158 199.707,229.492 198,229.5C 192.533,228.506 187.033,227.84 181.5,227.5C 181.325,225.379 181.659,223.379 182.5,221.5C 186.747,222.602 191.08,222.768 195.5,222C 197.107,220.951 197.773,219.451 197.5,217.5C 201.215,217.577 204.881,217.244 208.5,216.5 Z"/></g>
<g><path style="opacity:1" fill="#32302c" d="M 196.5,233.5 C 180.636,231.734 164.969,228.9 149.5,225C 148.167,224 146.833,223 145.5,222C 145.728,221.601 146.062,221.435 146.5,221.5C 149.167,221.833 151.833,222.167 154.5,222.5C 163.317,224.472 172.317,226.138 181.5,227.5C 187.033,227.84 192.533,228.506 198,229.5C 199.707,229.492 201.207,229.158 202.5,228.5C 210.278,224.107 217.944,219.44 225.5,214.5C 225.494,218.723 223.161,221.557 218.5,223C 213.237,230.748 205.903,234.248 196.5,233.5 Z"/></g>
<g><path style="opacity:1" fill="#a39d94" d="M -0.5,226.5 C -0.166667,226.5 0.166667,226.5 0.5,226.5C 14.7926,229.113 29.126,231.446 43.5,233.5C 56.9112,236.569 70.5779,238.902 84.5,240.5C 84.5,240.833 84.5,241.167 84.5,241.5C 82.2856,241.291 80.619,242.124 79.5,244C 80.4138,245.406 81.0805,246.906 81.5,248.5C 55.4585,244.325 29.4585,239.825 3.5,235C 1.86698,234.52 0.533646,233.687 -0.5,232.5C -0.5,230.5 -0.5,228.5 -0.5,226.5 Z"/></g>
<g><path style="opacity:1" fill="#afaba4" d="M 229.5,212.5 C 231.102,214.074 233.102,214.741 235.5,214.5C 237.214,215.738 239.214,216.405 241.5,216.5C 241.5,218.167 241.5,219.833 241.5,221.5C 238.203,221.329 237.869,221.995 240.5,223.5C 248.306,220.038 256.139,220.038 264,223.5C 264.7,221.968 265.866,220.968 267.5,220.5C 272.576,220.865 277.243,222.365 281.5,225C 286.547,225.338 291.547,226.005 296.5,227C 297,227.5 297.5,228 298,228.5C 300.795,226.707 303.295,224.54 305.5,222C 304.833,221.667 304.167,221.333 303.5,221C 304.928,220.421 306.262,220.588 307.5,221.5C 306.375,223.129 305.041,224.629 303.5,226C 307.5,226.333 311.5,226.667 315.5,227C 317.654,228.32 319.154,230.153 320,232.5C 323.5,229.917 327,229.917 330.5,232.5C 336.89,231.696 343.224,230.696 349.5,229.5C 352.627,229.486 355.293,230.486 357.5,232.5C 360.051,231.888 362.718,232.055 365.5,233C 364.672,233.915 363.672,234.581 362.5,235C 363.333,235.167 364.167,235.333 365,235.5C 368.123,233.013 371.623,231.846 375.5,232C 372.953,232.552 370.953,233.886 369.5,236C 371.886,236.284 372.552,237.284 371.5,239C 374.194,238.388 376.86,238.555 379.5,239.5C 380.234,240.708 380.567,242.041 380.5,243.5C 373.524,242.419 366.524,241.919 359.5,242C 376.779,245.854 376.779,249.188 359.5,252C 360.833,252.333 362.167,252.667 363.5,253C 362.944,253.383 362.611,253.883 362.5,254.5C 355.577,256.368 348.911,255.701 342.5,252.5C 341.109,253.645 339.776,253.645 338.5,252.5C 339.59,251.391 339.59,250.391 338.5,249.5C 337.205,250.098 335.872,250.598 334.5,251C 334.833,251.333 335.167,251.667 335.5,252C 331.055,253.379 326.721,253.045 322.5,251C 323.925,249.286 323.592,247.953 321.5,247C 317.086,246.688 312.92,245.522 309,243.5C 307.2,244.378 305.367,245.045 303.5,245.5C 300.359,244.679 297.025,244.179 293.5,244C 290.224,241.298 286.557,240.798 282.5,242.5C 281.707,241.645 282.04,240.811 283.5,240C 275.483,239.011 267.483,238.345 259.5,238C 261.125,237.147 261.458,236.147 260.5,235C 253.967,232.991 247.3,231.491 240.5,230.5C 238.527,231.331 236.527,231.498 234.5,231C 236.904,230.492 237.571,229.325 236.5,227.5C 234.998,228.083 233.665,228.916 232.5,230C 232.833,230.333 233.167,230.667 233.5,231C 228.811,231.291 224.144,231.291 219.5,231C 217.883,232.092 216.883,233.592 216.5,235.5C 209.977,236.009 203.644,237.343 197.5,239.5C 195.5,239.333 193.5,239.167 191.5,239C 191.833,238.667 192.167,238.333 192.5,238C 188.611,237.185 185.278,238.185 182.5,241C 182.957,241.414 183.291,241.914 183.5,242.5C 181.429,245.109 180.429,248.109 180.5,251.5C 180.649,253.32 181.316,254.82 182.5,256C 180.618,256.198 178.952,256.698 177.5,257.5C 170.695,256.249 164.028,254.915 157.5,253.5C 157.699,251.412 159.199,249.745 162,248.5C 163.049,249.517 164.216,249.684 165.5,249C 164.383,247.108 162.716,246.275 160.5,246.5C 160.023,242.207 158.023,238.873 154.5,236.5C 153.032,235.221 152.365,233.554 152.5,231.5C 145.945,230.617 143.278,226.95 144.5,220.5C 145.492,220.328 146.158,220.662 146.5,221.5C 146.062,221.435 145.728,221.601 145.5,222C 146.833,223 148.167,224 149.5,225C 164.969,228.9 180.636,231.734 196.5,233.5C 199.976,234.643 203.642,234.81 207.5,234C 213.453,230.663 218.787,226.663 223.5,222C 225.134,221.506 226.801,221.34 228.5,221.5C 228.756,219.208 228.423,217.041 227.5,215C 228.066,214.005 228.733,213.172 229.5,212.5 Z"/></g>
<g><path style="opacity:1" fill="#c5c1bb" d="M 154.5,236.5 C 158.023,238.873 160.023,242.207 160.5,246.5C 162.716,246.275 164.383,247.108 165.5,249C 164.216,249.684 163.049,249.517 162,248.5C 159.199,249.745 157.699,251.412 157.5,253.5C 133.144,249.607 108.81,245.607 84.5,241.5C 84.5,241.167 84.5,240.833 84.5,240.5C 82.5242,238.989 80.1909,238.156 77.5,238C 79.3659,237.015 81.3659,236.515 83.5,236.5C 86.492,237.153 89.3253,237.487 92,237.5C 93.8617,235.639 93.3617,234.306 90.5,233.5C 90.6667,233.167 90.8333,232.833 91,232.5C 92.6354,233.849 94.1354,233.682 95.5,232C 92.8333,231.667 90.1667,231.333 87.5,231C 92.3943,230.971 97.0609,230.138 101.5,228.5C 103.608,228.86 105.608,229.527 107.5,230.5C 108.947,232.403 110.614,234.07 112.5,235.5C 114.984,234.227 117.484,234.227 120,235.5C 121.479,234.244 123.145,233.244 125,232.5C 128.154,232.492 128.321,233.158 125.5,234.5C 126.641,235.425 126.641,236.259 125.5,237C 123.423,237.192 121.423,237.692 119.5,238.5C 120.376,239.251 121.376,239.751 122.5,240C 120.833,240.333 119.167,240.667 117.5,241C 121.436,241.003 125.103,241.836 128.5,243.5C 131.465,242.727 134.465,242.061 137.5,241.5C 140.918,239.778 144.418,238.445 148,237.5C 150.239,238.091 152.406,238.758 154.5,239.5C 154.5,238.5 154.5,237.5 154.5,236.5 Z"/></g>
<g><path style="opacity:1" fill="#bebbb5" d="M 223.5,233.5 C 225.978,232.836 228.645,232.503 231.5,232.5C 236.116,232.611 240.449,233.611 244.5,235.5C 245.772,235.43 246.938,235.097 248,234.5C 251.25,237.333 254.583,237.666 258,235.5C 258.49,236.793 258.657,238.127 258.5,239.5C 259.552,239.351 260.552,239.517 261.5,240C 253.994,241.804 254.494,243.304 263,244.5C 263.5,244.333 264,244.167 264.5,244C 260.436,242.425 260.603,241.258 265,240.5C 266.713,241.137 266.879,242.137 265.5,243.5C 266.325,244.386 267.325,244.719 268.5,244.5C 268.5,243.167 268.5,241.833 268.5,240.5C 271.102,242.068 273.769,243.735 276.5,245.5C 275.019,246.48 273.685,247.647 272.5,249C 275.689,248.842 278.189,247.342 280,244.5C 285.378,244.781 291.211,245.281 297.5,246C 296.667,246.833 295.833,247.667 295,248.5C 292.248,247.142 291.748,247.809 293.5,250.5C 291.894,252.59 291.394,254.924 292,257.5C 293.716,258.552 294.716,257.886 295,255.5C 295.667,256.833 296.667,257.833 298,258.5C 299.494,257.253 300.994,257.253 302.5,258.5C 301.104,260.791 299.271,261.125 297,259.5C 295.403,260.885 293.57,261.551 291.5,261.5C 291.657,262.873 291.49,264.207 291,265.5C 289.167,266.667 287.333,267.833 285.5,269C 286.167,269.333 286.833,269.667 287.5,270C 281.755,271.727 276.089,272.56 270.5,272.5C 261.607,271.782 252.94,270.449 244.5,268.5C 245.552,268.649 246.552,268.483 247.5,268C 242.167,267.333 242.167,266.667 247.5,266C 247.167,265.667 246.833,265.333 246.5,265C 247.939,262.775 249.606,260.775 251.5,259C 248.806,257.81 246.139,257.644 243.5,258.5C 244.729,259.281 246.062,259.781 247.5,260C 245.863,260.601 244.197,261.101 242.5,261.5C 237.429,260.484 236.762,258.651 240.5,256C 243.308,255.981 245.641,254.981 247.5,253C 243.651,249.538 239.985,249.705 236.5,253.5C 234.649,251.816 232.982,249.983 231.5,248C 227.847,246.438 224.18,244.938 220.5,243.5C 223.749,240.753 226.749,240.92 229.5,244C 232.833,244.667 236.167,244.667 239.5,244C 238.5,243.667 237.5,243.333 236.5,243C 240.5,242.667 244.5,242.333 248.5,242C 245.724,240.221 246.057,239.221 249.5,239C 245.644,238.133 241.977,236.8 238.5,235C 233.566,233.84 228.566,233.34 223.5,233.5 Z"/></g>
<g><path style="opacity:1" fill="#b9b6b0" d="M 303.5,245.5 C 306.36,246.244 309.36,246.911 312.5,247.5C 312.986,250.484 313.986,252.484 315.5,253.5C 315.392,254.442 315.059,255.275 314.5,256C 317.359,256.553 320.192,256.386 323,255.5C 325.021,255.673 326.854,256.34 328.5,257.5C 328.167,258.5 327.5,259.167 326.5,259.5C 324.161,258.276 321.828,258.276 319.5,259.5C 325.876,260.321 332.21,261.321 338.5,262.5C 345.195,261.702 351.529,260.035 357.5,257.5C 357.5,258.5 357.5,259.5 357.5,260.5C 356.178,260.67 355.011,260.337 354,259.5C 353.426,261.492 352.259,262.992 350.5,264C 350.833,264.333 351.167,264.667 351.5,265C 349.5,265.167 347.5,265.333 345.5,265.5C 343.036,265.41 340.87,264.743 339,263.5C 337.491,264.09 335.991,264.756 334.5,265.5C 335.025,266.192 335.692,266.692 336.5,267C 336.167,267.333 335.833,267.667 335.5,268C 336.624,268.249 337.624,268.749 338.5,269.5C 335.715,269.931 333.048,269.931 330.5,269.5C 331.991,271.012 333.824,272.012 336,272.5C 336.617,273.449 336.451,274.282 335.5,275C 337.579,275.808 339.579,275.641 341.5,274.5C 340.975,273.808 340.308,273.308 339.5,273C 342.863,272.374 346.196,272.041 349.5,272C 347.355,272.743 347.189,273.576 349,274.5C 351.392,274.609 353.892,274.442 356.5,274C 355.91,275.509 355.244,277.009 354.5,278.5C 351.677,274.886 348.677,274.886 345.5,278.5C 347.435,279.213 347.768,280.213 346.5,281.5C 338.883,280.689 331.216,279.356 323.5,277.5C 323.33,278.822 323.663,279.989 324.5,281C 323.906,281.464 323.239,281.631 322.5,281.5C 313.472,280.326 304.472,278.993 295.5,277.5C 286.982,276.14 278.649,274.473 270.5,272.5C 276.089,272.56 281.755,271.727 287.5,270C 286.833,269.667 286.167,269.333 285.5,269C 287.333,267.833 289.167,266.667 291,265.5C 291.49,264.207 291.657,262.873 291.5,261.5C 293.57,261.551 295.403,260.885 297,259.5C 299.271,261.125 301.104,260.791 302.5,258.5C 300.994,257.253 299.494,257.253 298,258.5C 296.667,257.833 295.667,256.833 295,255.5C 294.716,257.886 293.716,258.552 292,257.5C 291.394,254.924 291.894,252.59 293.5,250.5C 291.748,247.809 292.248,247.142 295,248.5C 295.833,247.667 296.667,246.833 297.5,246C 291.211,245.281 285.378,244.781 280,244.5C 278.189,247.342 275.689,248.842 272.5,249C 273.685,247.647 275.019,246.48 276.5,245.5C 273.769,243.735 271.102,242.068 268.5,240.5C 268.5,241.833 268.5,243.167 268.5,244.5C 267.325,244.719 266.325,244.386 265.5,243.5C 266.879,242.137 266.713,241.137 265,240.5C 260.603,241.258 260.436,242.425 264.5,244C 264,244.167 263.5,244.333 263,244.5C 254.494,243.304 253.994,241.804 261.5,240C 260.552,239.517 259.552,239.351 258.5,239.5C 258.657,238.127 258.49,236.793 258,235.5C 254.583,237.666 251.25,237.333 248,234.5C 246.938,235.097 245.772,235.43 244.5,235.5C 240.449,233.611 236.116,232.611 231.5,232.5C 228.645,232.503 225.978,232.836 223.5,233.5C 221.409,234.865 219.076,235.532 216.5,235.5C 216.883,233.592 217.883,232.092 219.5,231C 224.144,231.291 228.811,231.291 233.5,231C 233.167,230.667 232.833,230.333 232.5,230C 233.665,228.916 234.998,228.083 236.5,227.5C 237.571,229.325 236.904,230.492 234.5,231C 236.527,231.498 238.527,231.331 240.5,230.5C 247.3,231.491 253.967,232.991 260.5,235C 261.458,236.147 261.125,237.147 259.5,238C 267.483,238.345 275.483,239.011 283.5,240C 282.04,240.811 281.707,241.645 282.5,242.5C 286.557,240.798 290.224,241.298 293.5,244C 297.025,244.179 300.359,244.679 303.5,245.5 Z"/></g>
<g><path style="opacity:0.998" fill="#82807b" d="M 498.5,233.5 C 498.66,235.199 498.494,236.866 498,238.5C 490.968,249.255 483.468,259.588 475.5,269.5C 475.07,266.138 476.07,263.305 478.5,261C 478.272,260.601 477.938,260.435 477.5,260.5C 479.991,255.522 482.991,250.855 486.5,246.5C 490.557,241.41 494.39,236.077 498,230.5C 498.483,231.448 498.649,232.448 498.5,233.5 Z"/></g>
<g><path style="opacity:1" fill="#b6b3ad" d="M 362.5,254.5 C 366.85,254.77 371.017,254.103 375,252.5C 379.299,252.458 383.799,252.625 388.5,253C 389.833,253.667 389.833,254.333 388.5,255C 390.377,255.576 392.211,255.409 394,254.5C 395.31,255.13 396.144,256.13 396.5,257.5C 395.188,257.824 394.355,258.491 394,259.5C 393.5,259.333 393,259.167 392.5,259C 393.711,258.107 393.711,257.274 392.5,256.5C 390.161,257.724 387.828,257.724 385.5,256.5C 387.891,255.191 387.891,254.191 385.5,253.5C 383.354,254.894 381.021,255.56 378.5,255.5C 379.725,265.52 378.725,265.854 375.5,256.5C 373.801,256.34 372.134,256.506 370.5,257C 369.226,258.221 367.726,259.054 366,259.5C 363.88,258.541 361.713,258.374 359.5,259C 360.641,259.741 360.641,260.575 359.5,261.5C 360.025,262.192 360.692,262.692 361.5,263C 358.761,263.912 356.428,265.412 354.5,267.5C 356.415,270.151 357.915,269.817 359,266.5C 359.348,270.661 361.348,271.995 365,270.5C 367.369,271.927 367.869,273.761 366.5,276C 362.763,277.315 359.097,278.815 355.5,280.5C 354.252,279.96 353.085,279.293 352,278.5C 350.814,280.677 348.981,281.677 346.5,281.5C 347.768,280.213 347.435,279.213 345.5,278.5C 348.677,274.886 351.677,274.886 354.5,278.5C 355.244,277.009 355.91,275.509 356.5,274C 353.892,274.442 351.392,274.609 349,274.5C 347.189,273.576 347.355,272.743 349.5,272C 346.196,272.041 342.863,272.374 339.5,273C 340.308,273.308 340.975,273.808 341.5,274.5C 339.579,275.641 337.579,275.808 335.5,275C 336.451,274.282 336.617,273.449 336,272.5C 333.824,272.012 331.991,271.012 330.5,269.5C 333.048,269.931 335.715,269.931 338.5,269.5C 337.624,268.749 336.624,268.249 335.5,268C 335.833,267.667 336.167,267.333 336.5,267C 335.692,266.692 335.025,266.192 334.5,265.5C 335.991,264.756 337.491,264.09 339,263.5C 340.87,264.743 343.036,265.41 345.5,265.5C 347.5,265.333 349.5,265.167 351.5,265C 351.167,264.667 350.833,264.333 350.5,264C 352.259,262.992 353.426,261.492 354,259.5C 355.011,260.337 356.178,260.67 357.5,260.5C 357.5,259.5 357.5,258.5 357.5,257.5C 351.529,260.035 345.195,261.702 338.5,262.5C 332.21,261.321 325.876,260.321 319.5,259.5C 321.828,258.276 324.161,258.276 326.5,259.5C 327.5,259.167 328.167,258.5 328.5,257.5C 326.854,256.34 325.021,255.673 323,255.5C 320.192,256.386 317.359,256.553 314.5,256C 315.059,255.275 315.392,254.442 315.5,253.5C 313.986,252.484 312.986,250.484 312.5,247.5C 309.36,246.911 306.36,246.244 303.5,245.5C 305.367,245.045 307.2,244.378 309,243.5C 312.92,245.522 317.086,246.688 321.5,247C 323.592,247.953 323.925,249.286 322.5,251C 326.721,253.045 331.055,253.379 335.5,252C 335.167,251.667 334.833,251.333 334.5,251C 335.872,250.598 337.205,250.098 338.5,249.5C 339.59,250.391 339.59,251.391 338.5,252.5C 339.776,253.645 341.109,253.645 342.5,252.5C 348.911,255.701 355.577,256.368 362.5,254.5 Z"/></g>
<g><path style="opacity:1" fill="#c5c1bb" d="M 223.5,233.5 C 228.566,233.34 233.566,233.84 238.5,235C 241.977,236.8 245.644,238.133 249.5,239C 246.057,239.221 245.724,240.221 248.5,242C 244.5,242.333 240.5,242.667 236.5,243C 237.5,243.333 238.5,243.667 239.5,244C 236.167,244.667 232.833,244.667 229.5,244C 226.749,240.92 223.749,240.753 220.5,243.5C 224.18,244.938 227.847,246.438 231.5,248C 232.982,249.983 234.649,251.816 236.5,253.5C 239.985,249.705 243.651,249.538 247.5,253C 245.641,254.981 243.308,255.981 240.5,256C 236.762,258.651 237.429,260.484 242.5,261.5C 244.197,261.101 245.863,260.601 247.5,260C 246.062,259.781 244.729,259.281 243.5,258.5C 246.139,257.644 248.806,257.81 251.5,259C 249.606,260.775 247.939,262.775 246.5,265C 246.833,265.333 247.167,265.667 247.5,266C 242.167,266.667 242.167,267.333 247.5,268C 246.552,268.483 245.552,268.649 244.5,268.5C 231.184,266.37 217.851,264.37 204.5,262.5C 195.723,260.313 186.723,258.646 177.5,257.5C 178.952,256.698 180.618,256.198 182.5,256C 181.316,254.82 180.649,253.32 180.5,251.5C 180.429,248.109 181.429,245.109 183.5,242.5C 183.291,241.914 182.957,241.414 182.5,241C 185.278,238.185 188.611,237.185 192.5,238C 192.167,238.333 191.833,238.667 191.5,239C 193.5,239.167 195.5,239.333 197.5,239.5C 203.644,237.343 209.977,236.009 216.5,235.5C 219.076,235.532 221.409,234.865 223.5,233.5 Z"/></g>
<g><path style="opacity:1" fill="#b2afa8" d="M 486.5,246.5 C 482.991,250.855 479.991,255.522 477.5,260.5C 472.833,266.5 468.167,272.5 463.5,278.5C 460.976,277.2 458.309,277.2 455.5,278.5C 457.335,279.428 457.668,280.594 456.5,282C 452.074,282.791 447.741,282.457 443.5,281C 444,280.5 444.5,280 445,279.5C 447.518,281.028 449.685,280.694 451.5,278.5C 445.195,276.604 438.861,275.104 432.5,274C 440.814,274.58 449.147,274.913 457.5,275C 451.885,273.881 446.218,272.881 440.5,272C 444.099,270.986 447.765,270.153 451.5,269.5C 451.291,268.914 450.957,268.414 450.5,268C 454.86,267.372 455.36,265.872 452,263.5C 451.684,264.634 450.851,265.634 449.5,266.5C 447.181,265.936 444.847,265.436 442.5,265C 444.9,264.814 447.234,264.314 449.5,263.5C 444.337,261.735 439.004,261.068 433.5,261.5C 433.918,260.778 434.584,260.278 435.5,260C 432.924,258.617 433.258,257.783 436.5,257.5C 441.422,258.831 446.422,260.165 451.5,261.5C 455.268,261.696 458.268,260.363 460.5,257.5C 458.376,256.851 456.376,256.017 454.5,255C 455.191,253.933 455.691,252.766 456,251.5C 456.414,251.957 456.914,252.291 457.5,252.5C 460.443,251.756 463.443,251.256 466.5,251C 463.061,249.86 462.894,248.027 466,245.5C 466.308,246.308 466.808,246.975 467.5,247.5C 468.281,246.271 468.781,244.938 469,243.5C 469.739,244.574 470.739,245.241 472,245.5C 474.184,242.543 475.351,242.877 475.5,246.5C 476.552,246.351 477.552,246.517 478.5,247C 475.879,247.906 476.046,248.406 479,248.5C 481.231,247.136 483.731,246.469 486.5,246.5 Z"/></g>
<g><path style="opacity:1" fill="#928b82" d="M 84.5,241.5 C 108.81,245.607 133.144,249.607 157.5,253.5C 164.028,254.915 170.695,256.249 177.5,257.5C 186.723,258.646 195.723,260.313 204.5,262.5C 203.328,263.705 201.995,263.705 200.5,262.5C 200.167,263.167 199.833,263.833 199.5,264.5C 196.049,263.04 195.383,263.373 197.5,265.5C 197.291,266.086 196.957,266.586 196.5,267C 198.135,267.54 199.468,267.04 200.5,265.5C 203.865,267.567 207.532,268.9 211.5,269.5C 211.137,270.183 210.804,270.85 210.5,271.5C 199.833,269.833 189.167,268.167 178.5,266.5C 174.382,265.291 170.049,264.624 165.5,264.5C 150.328,261.555 135.162,258.555 120,255.5C 119.617,256.056 119.117,256.389 118.5,256.5C 118.389,255.883 118.056,255.383 117.5,255C 113.168,254.417 108.835,253.917 104.5,253.5C 104.5,255.5 104.5,257.5 104.5,259.5C 103.532,257.393 103.198,255.059 103.5,252.5C 95.9293,251.796 88.5959,250.462 81.5,248.5C 81.0805,246.906 80.4138,245.406 79.5,244C 80.619,242.124 82.2856,241.291 84.5,241.5 Z"/></g>
<g><path style="opacity:0.991" fill="#393838" d="M 165.5,264.5 C 170.049,264.624 174.382,265.291 178.5,266.5C 178.712,290.848 178.212,315.182 177,339.5C 160.642,353.606 144.142,367.606 127.5,381.5C 126.244,381.539 125.244,381.039 124.5,380C 124.519,377.031 124.686,373.865 125,370.5C 125.374,368.509 126.207,366.842 127.5,365.5C 127.998,368.487 128.498,371.487 129,374.5C 141.846,363.982 154.346,353.149 166.5,342C 163.237,341.131 162.904,339.797 165.5,338C 164.663,336.989 164.33,335.822 164.5,334.5C 164.253,311.151 164.586,287.818 165.5,264.5 Z"/></g>
<g><path style="opacity:1" fill="#7d766d" d="M 204.5,262.5 C 217.851,264.37 231.184,266.37 244.5,268.5C 252.94,270.449 261.607,271.782 270.5,272.5C 278.649,274.473 286.982,276.14 295.5,277.5C 298.296,279.426 300.963,281.592 303.5,284C 301.965,284.496 300.465,284.33 299,283.5C 298.05,284.022 297.216,284.689 296.5,285.5C 294.371,284.586 292.204,283.586 290,282.5C 288.317,283.176 288.15,284.176 289.5,285.5C 263.086,281.153 236.753,276.487 210.5,271.5C 210.804,270.85 211.137,270.183 211.5,269.5C 207.532,268.9 203.865,267.567 200.5,265.5C 199.468,267.04 198.135,267.54 196.5,267C 196.957,266.586 197.291,266.086 197.5,265.5C 195.383,263.373 196.049,263.04 199.5,264.5C 199.833,263.833 200.167,263.167 200.5,262.5C 201.995,263.705 203.328,263.705 204.5,262.5 Z"/></g>
<g><path style="opacity:1" fill="#b6b3ac" d="M 433.5,261.5 C 439.004,261.068 444.337,261.735 449.5,263.5C 447.234,264.314 444.9,264.814 442.5,265C 444.847,265.436 447.181,265.936 449.5,266.5C 450.851,265.634 451.684,264.634 452,263.5C 455.36,265.872 454.86,267.372 450.5,268C 450.957,268.414 451.291,268.914 451.5,269.5C 447.765,270.153 444.099,270.986 440.5,272C 446.218,272.881 451.885,273.881 457.5,275C 449.147,274.913 440.814,274.58 432.5,274C 438.861,275.104 445.195,276.604 451.5,278.5C 449.685,280.694 447.518,281.028 445,279.5C 444.5,280 444,280.5 443.5,281C 447.741,282.457 452.074,282.791 456.5,282C 457.668,280.594 457.335,279.428 455.5,278.5C 458.309,277.2 460.976,277.2 463.5,278.5C 458.192,286.149 452.859,293.815 447.5,301.5C 446.333,301.833 445.167,302.167 444,302.5C 403.299,295.856 362.799,288.856 322.5,281.5C 323.239,281.631 323.906,281.464 324.5,281C 323.663,279.989 323.33,278.822 323.5,277.5C 331.216,279.356 338.883,280.689 346.5,281.5C 348.473,282.163 350.639,282.496 353,282.5C 355.707,282.372 358.207,281.705 360.5,280.5C 360.06,281.953 360.726,283.119 362.5,284C 361.672,284.915 360.672,285.581 359.5,286C 362.505,287.199 365.671,288.032 369,288.5C 373.876,286.304 378.876,285.637 384,286.5C 385.5,286 387,285.5 388.5,285C 387.5,284.667 386.5,284.333 385.5,284C 387.473,283.505 389.473,283.338 391.5,283.5C 391.966,285.201 391.966,286.701 391.5,288C 392.833,288.667 394.167,289.333 395.5,290C 394.5,290.333 393.5,290.667 392.5,291C 395.549,292.057 398.549,292.224 401.5,291.5C 403.713,293.719 405.88,293.386 408,290.5C 410.432,291.45 412.932,291.45 415.5,290.5C 415.5,289.167 415.5,287.833 415.5,286.5C 421.956,286.554 428.29,285.72 434.5,284C 430.485,281.667 430.819,280.001 435.5,279C 431.082,278.624 426.749,279.124 422.5,280.5C 420.118,278.929 417.451,278.096 414.5,278C 413.289,277.107 413.289,276.274 414.5,275.5C 415.833,275.167 417.167,274.833 418.5,274.5C 417.624,273.749 416.624,273.249 415.5,273C 417.135,271.252 419.135,270.085 421.5,269.5C 420.624,268.749 419.624,268.249 418.5,268C 419.167,267.667 419.833,267.333 420.5,267C 418.933,265.924 417.266,265.091 415.5,264.5C 413.87,265.421 412.203,266.255 410.5,267C 411.167,267.667 411.833,268.333 412.5,269C 406.825,269.464 406.492,270.131 411.5,271C 409.187,271.662 406.854,272.162 404.5,272.5C 404.719,273.675 404.386,274.675 403.5,275.5C 400.853,275.929 398.853,277.262 397.5,279.5C 397.167,279 396.833,278.5 396.5,278C 397.167,276.333 397.833,274.667 398.5,273C 397.99,271.174 397.156,271.007 396,272.5C 395.727,270.899 395.227,269.399 394.5,268C 392.5,267.333 390.5,266.667 388.5,266C 389.833,265.333 389.833,264.667 388.5,264C 389.833,263.333 391.167,263.333 392.5,264C 394.491,265.158 396.158,266.658 397.5,268.5C 399.332,267.752 400.999,266.752 402.5,265.5C 398.689,264.262 398.689,263.596 402.5,263.5C 402.5,262.5 402.5,261.5 402.5,260.5C 400.5,260.5 398.5,260.5 396.5,260.5C 396.5,259.5 396.5,258.5 396.5,257.5C 398.379,257.607 398.712,257.107 397.5,256C 399.847,255.564 402.181,255.064 404.5,254.5C 407.063,254.737 407.063,255.237 404.5,256C 405.899,256.595 407.232,256.428 408.5,255.5C 409.192,256.025 409.692,256.692 410,257.5C 414.133,253.009 415.966,253.509 415.5,259C 421.585,259.374 427.585,260.208 433.5,261.5 Z"/></g>
<g><path style="opacity:1" fill="#bbb8b1" d="M 396.5,257.5 C 396.5,258.5 396.5,259.5 396.5,260.5C 398.5,260.5 400.5,260.5 402.5,260.5C 402.5,261.5 402.5,262.5 402.5,263.5C 398.689,263.596 398.689,264.262 402.5,265.5C 400.999,266.752 399.332,267.752 397.5,268.5C 396.158,266.658 394.491,265.158 392.5,264C 391.167,263.333 389.833,263.333 388.5,264C 389.833,264.667 389.833,265.333 388.5,266C 390.5,266.667 392.5,267.333 394.5,268C 395.227,269.399 395.727,270.899 396,272.5C 397.156,271.007 397.99,271.174 398.5,273C 397.833,274.667 397.167,276.333 396.5,278C 396.833,278.5 397.167,279 397.5,279.5C 398.853,277.262 400.853,275.929 403.5,275.5C 404.386,274.675 404.719,273.675 404.5,272.5C 406.854,272.162 409.187,271.662 411.5,271C 406.492,270.131 406.825,269.464 412.5,269C 411.833,268.333 411.167,267.667 410.5,267C 412.203,266.255 413.87,265.421 415.5,264.5C 417.266,265.091 418.933,265.924 420.5,267C 419.833,267.333 419.167,267.667 418.5,268C 419.624,268.249 420.624,268.749 421.5,269.5C 419.135,270.085 417.135,271.252 415.5,273C 416.624,273.249 417.624,273.749 418.5,274.5C 417.167,274.833 415.833,275.167 414.5,275.5C 413.289,276.274 413.289,277.107 414.5,278C 417.451,278.096 420.118,278.929 422.5,280.5C 426.749,279.124 431.082,278.624 435.5,279C 430.819,280.001 430.485,281.667 434.5,284C 428.29,285.72 421.956,286.554 415.5,286.5C 415.5,287.833 415.5,289.167 415.5,290.5C 412.932,291.45 410.432,291.45 408,290.5C 405.88,293.386 403.713,293.719 401.5,291.5C 398.549,292.224 395.549,292.057 392.5,291C 393.5,290.667 394.5,290.333 395.5,290C 394.167,289.333 392.833,288.667 391.5,288C 391.966,286.701 391.966,285.201 391.5,283.5C 389.473,283.338 387.473,283.505 385.5,284C 386.5,284.333 387.5,284.667 388.5,285C 387,285.5 385.5,286 384,286.5C 378.876,285.637 373.876,286.304 369,288.5C 365.671,288.032 362.505,287.199 359.5,286C 360.672,285.581 361.672,284.915 362.5,284C 360.726,283.119 360.06,281.953 360.5,280.5C 358.207,281.705 355.707,282.372 353,282.5C 350.639,282.496 348.473,282.163 346.5,281.5C 348.981,281.677 350.814,280.677 352,278.5C 353.085,279.293 354.252,279.96 355.5,280.5C 359.097,278.815 362.763,277.315 366.5,276C 367.869,273.761 367.369,271.927 365,270.5C 361.348,271.995 359.348,270.661 359,266.5C 357.915,269.817 356.415,270.151 354.5,267.5C 356.428,265.412 358.761,263.912 361.5,263C 360.692,262.692 360.025,262.192 359.5,261.5C 360.641,260.575 360.641,259.741 359.5,259C 361.713,258.374 363.88,258.541 366,259.5C 367.726,259.054 369.226,258.221 370.5,257C 372.134,256.506 373.801,256.34 375.5,256.5C 378.725,265.854 379.725,265.52 378.5,255.5C 381.021,255.56 383.354,254.894 385.5,253.5C 387.891,254.191 387.891,255.191 385.5,256.5C 387.828,257.724 390.161,257.724 392.5,256.5C 393.711,257.274 393.711,258.107 392.5,259C 393,259.167 393.5,259.333 394,259.5C 394.355,258.491 395.188,257.824 396.5,257.5 Z"/></g>
<g><path style="opacity:1" fill="#68625a" d="M 477.5,260.5 C 477.938,260.435 478.272,260.601 478.5,261C 476.07,263.305 475.07,266.138 475.5,269.5C 466.224,283.869 456.557,298.036 446.5,312C 427.199,308.95 407.866,305.783 388.5,302.5C 388.768,304.099 388.434,305.432 387.5,306.5C 387.5,304.833 387.5,303.167 387.5,301.5C 383.158,301.261 378.824,300.927 374.5,300.5C 374.802,303.059 374.468,305.393 373.5,307.5C 373.5,304.833 373.5,302.167 373.5,299.5C 365.558,298.611 357.725,297.277 350,295.5C 349.829,302.679 349.329,309.679 348.5,316.5C 348.5,309.5 348.5,302.5 348.5,295.5C 343.769,294.817 339.102,293.817 334.5,292.5C 333.833,309.662 333.167,326.662 332.5,343.5C 332.5,326.5 332.5,309.5 332.5,292.5C 318.149,290.275 303.816,287.942 289.5,285.5C 288.15,284.176 288.317,283.176 290,282.5C 292.204,283.586 294.371,284.586 296.5,285.5C 297.216,284.689 298.05,284.022 299,283.5C 300.465,284.33 301.965,284.496 303.5,284C 300.963,281.592 298.296,279.426 295.5,277.5C 304.472,278.993 313.472,280.326 322.5,281.5C 362.799,288.856 403.299,295.856 444,302.5C 445.167,302.167 446.333,301.833 447.5,301.5C 452.859,293.815 458.192,286.149 463.5,278.5C 468.167,272.5 472.833,266.5 477.5,260.5 Z"/></g>
<g><path style="opacity:1" fill="#3a3939" d="M 118.5,256.5 C 122.006,292.407 125.006,328.407 127.5,364.5C 127.5,364.833 127.5,365.167 127.5,365.5C 126.207,366.842 125.374,368.509 125,370.5C 124.686,373.865 124.519,377.031 124.5,380C 125.244,381.039 126.244,381.539 127.5,381.5C 123.078,383.09 118.912,382.424 115,379.5C 113.562,365.183 112.395,350.85 111.5,336.5C 111.666,331.821 111.499,327.155 111,322.5C 110.768,321.263 110.268,320.263 109.5,319.5C 107.473,299.532 105.806,279.532 104.5,259.5C 104.5,257.5 104.5,255.5 104.5,253.5C 108.835,253.917 113.168,254.417 117.5,255C 118.056,255.383 118.389,255.883 118.5,256.5 Z"/></g>
<g><path style="opacity:0.996" fill="#2c2c2c" d="M 348.5,316.5 C 348.666,339.844 348.333,363.177 347.5,386.5C 346.468,397.594 346.801,408.594 348.5,419.5C 350.542,416.961 353.042,414.961 356,413.5C 356.464,414.094 356.631,414.761 356.5,415.5C 352.876,421.236 348.876,426.736 344.5,432C 340.35,432.131 336.35,431.298 332.5,429.5C 331.602,400.838 331.602,372.171 332.5,343.5C 333.167,326.662 333.833,309.662 334.5,292.5C 339.102,293.817 343.769,294.817 348.5,295.5C 348.5,302.5 348.5,309.5 348.5,316.5 Z"/></g>
<g><path style="opacity:0.995" fill="#2c2c2c" d="M 387.5,306.5 C 387.07,316.851 386.403,327.185 385.5,337.5C 384.778,337.082 384.278,336.416 384,335.5C 383.076,350.5 382.242,365.5 381.5,380.5C 376.603,389.061 370.937,397.061 364.5,404.5C 360.565,404.082 360.065,403.082 363,401.5C 364.039,399.254 365.206,397.087 366.5,395C 365.5,394.667 364.5,394.333 363.5,394C 364.227,392.601 364.727,391.101 365,389.5C 365.333,390.167 365.667,390.833 366,391.5C 367.062,389.792 368.229,389.126 369.5,389.5C 368.313,388.481 367.313,387.314 366.5,386C 366.737,383.712 366.737,381.212 366.5,378.5C 368.07,376.149 368.903,373.482 369,370.5C 370.39,349.483 371.89,328.483 373.5,307.5C 374.468,305.393 374.802,303.059 374.5,300.5C 378.824,300.927 383.158,301.261 387.5,301.5C 387.5,303.167 387.5,304.833 387.5,306.5 Z"/></g>
<g><path style="opacity:0.823" fill="#696969" d="M 109.5,319.5 C 110.268,320.263 110.768,321.263 111,322.5C 111.499,327.155 111.666,331.821 111.5,336.5C 110.482,331.016 109.816,325.349 109.5,319.5 Z"/></g>
<g><path style="opacity:0.952" fill="#595959" d="M 385.5,337.5 C 384.652,352.023 383.319,366.356 381.5,380.5C 382.242,365.5 383.076,350.5 384,335.5C 384.278,336.416 384.778,337.082 385.5,337.5 Z"/></g>
<g><path style="opacity:0.993" fill="#525152" d="M 164.5,334.5 C 164.33,335.822 164.663,336.989 165.5,338C 162.904,339.797 163.237,341.131 166.5,342C 154.346,353.149 141.846,363.982 129,374.5C 128.498,371.487 127.998,368.487 127.5,365.5C 127.5,365.167 127.5,364.833 127.5,364.5C 139.833,354.5 152.167,344.5 164.5,334.5 Z"/></g>
<g><path style="opacity:0.999" fill="#383838" d="M 366.5,378.5 C 366.737,381.212 366.737,383.712 366.5,386C 367.313,387.314 368.313,388.481 369.5,389.5C 368.229,389.126 367.062,389.792 366,391.5C 365.667,390.833 365.333,390.167 365,389.5C 364.727,391.101 364.227,392.601 363.5,394C 364.5,394.333 365.5,394.667 366.5,395C 365.206,397.087 364.039,399.254 363,401.5C 360.065,403.082 360.565,404.082 364.5,404.5C 362.565,408.707 359.898,412.373 356.5,415.5C 356.631,414.761 356.464,414.094 356,413.5C 353.042,414.961 350.542,416.961 348.5,419.5C 346.801,408.594 346.468,397.594 347.5,386.5C 347.334,391.844 347.501,397.177 348,402.5C 354.03,394.315 360.197,386.315 366.5,378.5 Z"/></g>
</svg>
