<?xml version="1.0" encoding="UTF-8"?>
<!DOCTYPE svg PUBLIC "-//W3C//DTD SVG 1.1//EN" "http://www.w3.org/Graphics/SVG/1.1/DTD/svg11.dtd">
<svg xmlns="http://www.w3.org/2000/svg" version="1.1" width="500px" height="500px" style="shape-rendering:geometricPrecision; text-rendering:geometricPrecision; image-rendering:optimizeQuality; fill-rule:evenodd; clip-rule:evenodd" xmlns:xlink="http://www.w3.org/1999/xlink">
<g><path style="opacity:0.78" fill="#5f5f54" d="M 211.5,138.5 C 213.948,137.527 216.615,137.194 219.5,137.5C 222.641,138.321 225.975,138.821 229.5,139C 225.514,139.499 221.514,139.666 217.5,139.5C 216.833,139.5 216.167,139.5 215.5,139.5C 214.292,138.766 212.959,138.433 211.5,138.5 Z"/></g>
<g><path style="opacity:1" fill="#d5d2c6" d="M 215.5,139.5 C 216.167,139.5 216.833,139.5 217.5,139.5C 222.316,140.326 227.316,140.826 232.5,141C 228.848,141.499 225.182,141.665 221.5,141.5C 221.343,142.873 221.51,144.207 222,145.5C 222.333,145.167 222.667,144.833 223,144.5C 224.067,145.191 225.234,145.691 226.5,146C 225.692,146.308 225.025,146.808 224.5,147.5C 225.891,147.109 226.891,147.942 227.5,150C 226.638,152.734 225.805,152.901 225,150.5C 224.333,153.167 223.667,153.167 223,150.5C 222,150.833 221,151.167 220,151.5C 219.416,155.095 218.582,158.595 217.5,162C 218.715,164.096 219.549,163.929 220,161.5C 222.568,165.615 221.401,167.948 216.5,168.5C 217.791,169.527 217.791,170.527 216.5,171.5C 214.712,171.785 213.045,171.452 211.5,170.5C 214.917,166.689 215.251,162.689 212.5,158.5C 214.401,157.065 214.734,155.398 213.5,153.5C 214.025,152.808 214.692,152.308 215.5,152C 214.341,147.881 214.341,143.714 215.5,139.5 Z"/></g>
<g><path style="opacity:0.114" fill="#5d5a50" d="M 256.5,170.5 C 262.5,169.167 268.5,169.167 274.5,170.5C 269.833,170.833 265.167,171.167 260.5,171.5C 259.167,171.167 257.833,170.833 256.5,170.5 Z"/></g>
<g><path style="opacity:1" fill="#dededc" d="M 211.5,138.5 C 212.959,138.433 214.292,138.766 215.5,139.5C 214.341,143.714 214.341,147.881 215.5,152C 214.692,152.308 214.025,152.808 213.5,153.5C 214.734,155.398 214.401,157.065 212.5,158.5C 215.251,162.689 214.917,166.689 211.5,170.5C 213.045,171.452 214.712,171.785 216.5,171.5C 216.5,171.833 216.5,172.167 216.5,172.5C 214.876,172.36 213.71,173.027 213,174.5C 212.692,173.692 212.192,173.025 211.5,172.5C 209.885,173.154 208.218,173.654 206.5,174C 207.672,174.419 208.672,175.085 209.5,176C 208.167,177.333 208.167,178.667 209.5,180C 207.875,180.853 207.542,181.853 208.5,183C 207.23,183.9 206.23,185.066 205.5,186.5C 204.274,185.637 202.94,185.637 201.5,186.5C 200.353,182.354 200.186,178.02 201,173.5C 203.171,169.156 205.837,165.156 209,161.5C 209.981,153.704 210.814,146.038 211.5,138.5 Z"/></g>
<g><path style="opacity:1" fill="#9f9c91" d="M 239.5,153.5 C 239.963,157.473 241.463,161.14 244,164.5C 246.444,166.556 248.277,169.056 249.5,172C 250.448,172.483 251.448,172.649 252.5,172.5C 249.829,174.934 246.996,177.267 244,179.5C 242.454,182.592 240.954,185.592 239.5,188.5C 238.116,187.199 236.616,187.199 235,188.5C 232.593,191.2 231.76,194.2 232.5,197.5C 232.043,198.298 231.376,198.631 230.5,198.5C 229.7,193.874 231.034,190.04 234.5,187C 233.833,186.667 233.167,186.333 232.5,186C 233.563,184.812 234.897,184.312 236.5,184.5C 236.5,183.167 236.5,181.833 236.5,180.5C 238.199,180.66 239.866,180.494 241.5,180C 240.5,179.667 239.5,179.333 238.5,179C 239.833,178.333 239.833,177.667 238.5,177C 240.715,176.83 242.715,176.163 244.5,175C 241.978,174.501 239.478,174.668 237,175.5C 236.167,175.167 235.333,174.833 234.5,174.5C 234.846,173.304 235.346,173.304 236,174.5C 236.667,173.167 237.667,172.167 239,171.5C 241.314,171.736 243.48,171.736 245.5,171.5C 242.291,170.213 239.125,170.213 236,171.5C 235.251,170.365 235.417,169.365 236.5,168.5C 237.425,167.359 238.259,167.359 239,168.5C 239.374,167.584 239.874,166.75 240.5,166C 239.128,164.758 238.128,163.258 237.5,161.5C 239.229,159.149 239.896,156.482 239.5,153.5 Z"/></g>
<g><path style="opacity:1" fill="#c6c5c4" d="M 256.5,170.5 C 257.833,170.833 259.167,171.167 260.5,171.5C 262.893,172.21 265.393,172.877 268,173.5C 268.5,191.164 268.667,208.83 268.5,226.5C 270.292,226.634 271.958,226.301 273.5,225.5C 276.414,225.195 279.081,225.195 281.5,225.5C 278.155,227.217 274.489,227.884 270.5,227.5C 267.15,227.665 263.817,227.498 260.5,227C 262.764,226.764 264.931,226.264 267,225.5C 267.079,216.173 266.912,206.84 266.5,197.5C 266.666,189.826 266.5,182.159 266,174.5C 263.175,187.38 262.342,200.38 263.5,213.5C 263.816,217.525 263.983,221.525 264,225.5C 262.003,217.642 261.17,209.642 261.5,201.5C 261.543,192.753 262.043,184.086 263,175.5C 261.25,178.246 260.25,181.246 260,184.5C 259.667,195.833 259.333,207.167 259,218.5C 257.956,216.285 257.29,213.952 257,211.5C 256.832,203.479 256.332,195.479 255.5,187.5C 253.192,196.208 252.858,205.042 254.5,214C 254.199,218.447 253.699,218.281 253,213.5C 250.017,200.923 251.517,188.923 257.5,177.5C 257.154,176.304 256.654,176.304 256,177.5C 252.424,182.225 250.424,187.558 250,193.5C 249.486,200.872 249.486,208.206 250,215.5C 248.104,207.987 247.104,200.32 247,192.5C 246.667,193.5 246.333,194.5 246,195.5C 245.607,200.869 245.441,206.035 245.5,211C 247.459,213.316 247.459,215.316 245.5,217C 247.924,217.923 249.924,219.423 251.5,221.5C 250.975,222.192 250.308,222.692 249.5,223C 250.646,223.645 251.646,224.478 252.5,225.5C 254.875,225.118 257.208,225.618 259.5,227C 256.518,227.498 253.518,227.665 250.5,227.5C 250.5,226.833 250.167,226.5 249.5,226.5C 248.92,224.251 247.587,222.585 245.5,221.5C 242.46,217.725 240.46,213.392 239.5,208.5C 238.217,201.841 238.217,195.174 239.5,188.5C 240.954,185.592 242.454,182.592 244,179.5C 246.996,177.267 249.829,174.934 252.5,172.5C 253.287,170.896 254.62,170.229 256.5,170.5 Z"/></g>
<g><path style="opacity:1" fill="#b9b4a6" d="M 239.5,153.5 C 239.896,156.482 239.229,159.149 237.5,161.5C 238.128,163.258 239.128,164.758 240.5,166C 239.874,166.75 239.374,167.584 239,168.5C 238.259,167.359 237.425,167.359 236.5,168.5C 235.417,169.365 235.251,170.365 236,171.5C 239.125,170.213 242.291,170.213 245.5,171.5C 243.48,171.736 241.314,171.736 239,171.5C 237.667,172.167 236.667,173.167 236,174.5C 235.346,173.304 234.846,173.304 234.5,174.5C 235.333,174.833 236.167,175.167 237,175.5C 239.478,174.668 241.978,174.501 244.5,175C 242.715,176.163 240.715,176.83 238.5,177C 239.833,177.667 239.833,178.333 238.5,179C 239.5,179.333 240.5,179.667 241.5,180C 239.866,180.494 238.199,180.66 236.5,180.5C 236.5,181.833 236.5,183.167 236.5,184.5C 234.897,184.312 233.563,184.812 232.5,186C 233.167,186.333 233.833,186.667 234.5,187C 231.034,190.04 229.7,193.874 230.5,198.5C 234.029,204.126 233.696,209.293 229.5,214C 224.672,214.606 224.672,215.939 229.5,218C 226.52,218.49 224.187,219.99 222.5,222.5C 223.376,223.251 224.376,223.751 225.5,224C 221.848,224.499 218.182,224.665 214.5,224.5C 214.721,223.265 215.388,222.265 216.5,221.5C 216.291,220.914 215.957,220.414 215.5,220C 217.833,219.667 220.167,219.333 222.5,219C 218.411,218.531 216.078,216.198 215.5,212C 219.966,211.399 221.299,209.065 219.5,205C 219.755,203.674 220.422,202.674 221.5,202C 218.997,201.871 216.997,200.871 215.5,199C 216.833,198.667 218.167,198.333 219.5,198C 218.151,197.228 217.318,196.061 217,194.5C 216.667,195.167 216.333,195.833 216,196.5C 215.5,195.333 214.667,194.5 213.5,194C 214.5,193.667 215.5,193.333 216.5,193C 214.423,192.808 212.423,192.308 210.5,191.5C 209.754,190.264 209.421,188.93 209.5,187.5C 212.187,187.664 214.854,187.497 217.5,187C 217.167,186.667 216.833,186.333 216.5,186C 218.992,184.751 218.825,183.584 216,182.5C 215.667,182.833 215.333,183.167 215,183.5C 213.933,182.809 212.766,182.309 211.5,182C 216.167,181.333 220.833,181.333 225.5,182C 224.269,183.183 224.269,184.349 225.5,185.5C 226.308,185.192 226.975,184.692 227.5,184C 226.475,181.929 225.642,179.762 225,177.5C 224.517,178.448 224.351,179.448 224.5,180.5C 222.799,180.034 221.299,180.034 220,180.5C 219.51,179.207 219.343,177.873 219.5,176.5C 215.814,176.87 214.814,175.537 216.5,172.5C 216.5,172.167 216.5,171.833 216.5,171.5C 217.791,170.527 217.791,169.527 216.5,168.5C 221.401,167.948 222.568,165.615 220,161.5C 219.549,163.929 218.715,164.096 217.5,162C 218.582,158.595 219.416,155.095 220,151.5C 221,151.167 222,150.833 223,150.5C 223.667,153.167 224.333,153.167 225,150.5C 225.805,152.901 226.638,152.734 227.5,150C 226.891,147.942 225.891,147.109 224.5,147.5C 225.025,146.808 225.692,146.308 226.5,146C 225.234,145.691 224.067,145.191 223,144.5C 222.667,144.833 222.333,145.167 222,145.5C 221.51,144.207 221.343,142.873 221.5,141.5C 225.182,141.665 228.848,141.499 232.5,141C 227.316,140.826 222.316,140.326 217.5,139.5C 221.514,139.666 225.514,139.499 229.5,139C 225.975,138.821 222.641,138.321 219.5,137.5C 223.375,137.644 227.208,137.31 231,136.5C 234.008,136.746 236.674,137.746 239,139.5C 239.499,144.155 239.666,148.821 239.5,153.5 Z"/></g>
<g><path style="opacity:1" fill="#acadae" d="M 274.5,170.5 C 282.43,172.765 287.764,177.765 290.5,185.5C 290.802,188.373 291.469,191.039 292.5,193.5C 292.878,195.646 293.212,197.813 293.5,200C 292.859,206.357 291.526,212.524 289.5,218.5C 287.491,219.056 285.491,220.389 283.5,222.5C 284.588,220.417 285.588,218.251 286.5,216C 286.167,215.833 285.833,215.667 285.5,215.5C 284.506,219.481 283.506,219.481 282.5,215.5C 283.417,214.029 284.417,212.529 285.5,211C 284.833,210.333 284.167,209.667 283.5,209C 285.198,202.925 284.698,197.092 282,191.5C 281.809,197.083 281.309,202.583 280.5,208C 281.423,210.048 280.923,211.881 279,213.5C 278.723,205.464 278.057,197.464 277,189.5C 277.508,201.216 276.008,212.549 272.5,223.5C 272.863,224.183 273.196,224.85 273.5,225.5C 271.958,226.301 270.292,226.634 268.5,226.5C 268.667,208.83 268.5,191.164 268,173.5C 265.393,172.877 262.893,172.21 260.5,171.5C 265.167,171.167 269.833,170.833 274.5,170.5 Z"/></g>
<g><path style="opacity:1" fill="#b7b8b7" d="M 297.5,172.5 C 298.873,172.343 300.207,172.51 301.5,173C 298.686,175.902 297.853,179.402 299,183.5C 301.848,184.433 302.014,185.933 299.5,188C 299.957,188.414 300.291,188.914 300.5,189.5C 297.942,190.225 295.608,190.225 293.5,189.5C 297.646,184.835 298.646,179.502 296.5,173.5C 296.5,172.833 296.833,172.5 297.5,172.5 Z"/></g>
<g><path style="opacity:1" fill="#a2a3a3" d="M 266.5,197.5 C 265.062,202.756 264.062,208.089 263.5,213.5C 262.342,200.38 263.175,187.38 266,174.5C 266.5,182.159 266.666,189.826 266.5,197.5 Z"/></g>
<g><path style="opacity:0.941" fill="#e8e4e0" d="M 208.5,223.5 C 207.596,222.791 207.263,221.791 207.5,220.5C 207.192,216.64 206.525,212.974 205.5,209.5C 205.784,207.585 205.451,205.919 204.5,204.5C 203.631,202.283 203.298,199.95 203.5,197.5C 203.192,195.076 203.526,192.743 204.5,190.5C 205.167,190.833 205.833,191.167 206.5,191.5C 208.069,194.808 209.735,197.975 211.5,201C 209.808,202.401 209.141,204.234 209.5,206.5C 210.5,206.5 211.5,206.5 212.5,206.5C 212.286,208.144 212.62,209.644 213.5,211C 210.258,211.283 209.924,212.117 212.5,213.5C 211.61,214.711 211.61,216.045 212.5,217.5C 212.101,219.197 211.601,220.863 211,222.5C 210.329,223.252 209.496,223.586 208.5,223.5 Z"/></g>
<g><path style="opacity:1" fill="#3e3b3a" d="M 306.5,215.5 C 310.634,216.485 314.968,216.818 319.5,216.5C 319.5,217.167 319.5,217.833 319.5,218.5C 318.559,220.466 317.559,222.466 316.5,224.5C 317.77,225.288 318.77,226.288 319.5,227.5C 316.813,227.664 314.146,227.497 311.5,227C 312.641,226.259 312.641,225.425 311.5,224.5C 310.167,224.167 308.833,223.833 307.5,223.5C 305.895,224.624 303.562,225.29 300.5,225.5C 297.638,225.23 294.972,224.396 292.5,223C 291.947,221.122 290.947,219.622 289.5,218.5C 291.526,212.524 292.859,206.357 293.5,200C 293.212,197.813 292.878,195.646 292.5,193.5C 296.373,191.57 300.706,190.903 305.5,191.5C 305.174,199.684 305.508,207.684 306.5,215.5 Z"/></g>
<g><path style="opacity:1" fill="#908f8d" d="M 263.5,213.5 C 264.062,208.089 265.062,202.756 266.5,197.5C 266.912,206.84 267.079,216.173 267,225.5C 264.931,226.264 262.764,226.764 260.5,227C 263.817,227.498 267.15,227.665 270.5,227.5C 265.169,228.34 259.669,229.006 254,229.5C 252.319,229.392 251.152,228.725 250.5,227.5C 253.518,227.665 256.518,227.498 259.5,227C 257.208,225.618 254.875,225.118 252.5,225.5C 251.646,224.478 250.646,223.645 249.5,223C 250.308,222.692 250.975,222.192 251.5,221.5C 249.924,219.423 247.924,217.923 245.5,217C 247.459,215.316 247.459,213.316 245.5,211C 245.441,206.035 245.607,200.869 246,195.5C 246.333,194.5 246.667,193.5 247,192.5C 247.104,200.32 248.104,207.987 250,215.5C 249.486,208.206 249.486,200.872 250,193.5C 250.424,187.558 252.424,182.225 256,177.5C 256.654,176.304 257.154,176.304 257.5,177.5C 251.517,188.923 250.017,200.923 253,213.5C 253.699,218.281 254.199,218.447 254.5,214C 252.858,205.042 253.192,196.208 255.5,187.5C 256.332,195.479 256.832,203.479 257,211.5C 257.29,213.952 257.956,216.285 259,218.5C 259.333,207.167 259.667,195.833 260,184.5C 260.25,181.246 261.25,178.246 263,175.5C 262.043,184.086 261.543,192.753 261.5,201.5C 261.17,209.642 262.003,217.642 264,225.5C 263.983,221.525 263.816,217.525 263.5,213.5 Z"/></g>
<g><path style="opacity:1" fill="#cec9bc" d="M 216.5,172.5 C 214.814,175.537 215.814,176.87 219.5,176.5C 219.343,177.873 219.51,179.207 220,180.5C 221.299,180.034 222.799,180.034 224.5,180.5C 224.351,179.448 224.517,178.448 225,177.5C 225.642,179.762 226.475,181.929 227.5,184C 226.975,184.692 226.308,185.192 225.5,185.5C 224.269,184.349 224.269,183.183 225.5,182C 220.833,181.333 216.167,181.333 211.5,182C 212.766,182.309 213.933,182.809 215,183.5C 215.333,183.167 215.667,182.833 216,182.5C 218.825,183.584 218.992,184.751 216.5,186C 216.833,186.333 217.167,186.667 217.5,187C 214.854,187.497 212.187,187.664 209.5,187.5C 209.421,188.93 209.754,190.264 210.5,191.5C 212.423,192.308 214.423,192.808 216.5,193C 215.5,193.333 214.5,193.667 213.5,194C 214.667,194.5 215.5,195.333 216,196.5C 216.333,195.833 216.667,195.167 217,194.5C 217.318,196.061 218.151,197.228 219.5,198C 218.167,198.333 216.833,198.667 215.5,199C 216.997,200.871 218.997,201.871 221.5,202C 220.422,202.674 219.755,203.674 219.5,205C 221.299,209.065 219.966,211.399 215.5,212C 216.078,216.198 218.411,218.531 222.5,219C 220.167,219.333 217.833,219.667 215.5,220C 215.957,220.414 216.291,220.914 216.5,221.5C 215.388,222.265 214.721,223.265 214.5,224.5C 212.265,224.795 210.265,224.461 208.5,223.5C 209.496,223.586 210.329,223.252 211,222.5C 211.601,220.863 212.101,219.197 212.5,217.5C 211.61,216.045 211.61,214.711 212.5,213.5C 209.924,212.117 210.258,211.283 213.5,211C 212.62,209.644 212.286,208.144 212.5,206.5C 211.5,206.5 210.5,206.5 209.5,206.5C 209.141,204.234 209.808,202.401 211.5,201C 209.735,197.975 208.069,194.808 206.5,191.5C 205.833,191.167 205.167,190.833 204.5,190.5C 203.526,192.743 203.192,195.076 203.5,197.5C 202.313,194.054 201.646,190.387 201.5,186.5C 202.94,185.637 204.274,185.637 205.5,186.5C 206.23,185.066 207.23,183.9 208.5,183C 207.542,181.853 207.875,180.853 209.5,180C 208.167,178.667 208.167,177.333 209.5,176C 208.672,175.085 207.672,174.419 206.5,174C 208.218,173.654 209.885,173.154 211.5,172.5C 212.192,173.025 212.692,173.692 213,174.5C 213.71,173.027 214.876,172.36 216.5,172.5 Z"/></g>
<g><path style="opacity:1" fill="#5b5b5b" d="M 297.5,172.5 C 301.298,171.517 305.298,171.183 309.5,171.5C 309.335,175.182 309.501,178.848 310,182.5C 311.145,183.636 312.312,184.636 313.5,185.5C 306.856,185.532 306.856,187.032 313.5,190C 311.406,191.352 309.073,191.852 306.5,191.5C 306.5,199.5 306.5,207.5 306.5,215.5C 305.508,207.684 305.174,199.684 305.5,191.5C 300.706,190.903 296.373,191.57 292.5,193.5C 291.469,191.039 290.802,188.373 290.5,185.5C 292.829,186.749 294.662,186.082 296,183.5C 295.76,179.992 295.927,176.659 296.5,173.5C 298.646,179.502 297.646,184.835 293.5,189.5C 295.608,190.225 297.942,190.225 300.5,189.5C 300.291,188.914 299.957,188.414 299.5,188C 302.014,185.933 301.848,184.433 299,183.5C 297.853,179.402 298.686,175.902 301.5,173C 300.207,172.51 298.873,172.343 297.5,172.5 Z"/></g>
<g><path style="opacity:1" fill="#827b6c" d="M 239.5,188.5 C 238.217,195.174 238.217,201.841 239.5,208.5C 238.883,208.389 238.383,208.056 238,207.5C 236.996,210.962 235.83,214.296 234.5,217.5C 238.838,217.622 239.172,217.955 235.5,218.5C 235.5,219.5 235.5,220.5 235.5,221.5C 234.127,221.343 232.793,221.51 231.5,222C 230.402,222.77 230.402,223.603 231.5,224.5C 228.833,224.833 226.167,225.167 223.5,225.5C 220.287,225.81 217.287,225.477 214.5,224.5C 218.182,224.665 221.848,224.499 225.5,224C 224.376,223.751 223.376,223.251 222.5,222.5C 224.187,219.99 226.52,218.49 229.5,218C 224.672,215.939 224.672,214.606 229.5,214C 233.696,209.293 234.029,204.126 230.5,198.5C 231.376,198.631 232.043,198.298 232.5,197.5C 231.76,194.2 232.593,191.2 235,188.5C 236.616,187.199 238.116,187.199 239.5,188.5 Z"/></g>
<g><path style="opacity:0.467" fill="#504138" d="M 204.5,204.5 C 205.451,205.919 205.784,207.585 205.5,209.5C 189.993,209.22 174.66,208.553 159.5,207.5C 173.636,207.328 187.636,207.662 201.5,208.5C 203.915,208.281 204.915,206.948 204.5,204.5 Z"/></g>
<g><path style="opacity:0.96" fill="#876754" d="M 154.5,207.5 C 156.167,207.5 157.833,207.5 159.5,207.5C 174.66,208.553 189.993,209.22 205.5,209.5C 206.525,212.974 207.192,216.64 207.5,220.5C 206.596,221.209 206.263,222.209 206.5,223.5C 196.198,222.6 185.865,222.267 175.5,222.5C 184.007,222.091 192.507,220.758 201,218.5C 203,217.833 203,217.167 201,216.5C 188.715,218.23 176.548,218.563 164.5,217.5C 157.86,215.794 150.86,214.794 143.5,214.5C 142.109,215.645 140.776,215.645 139.5,214.5C 139.709,213.914 140.043,213.414 140.5,213C 145.5,212.667 150.5,212.333 155.5,212C 148.178,210.94 140.844,209.94 133.5,209C 140.679,208.829 147.679,208.329 154.5,207.5 Z"/></g>
<g><path style="opacity:1" fill="#888788" d="M 283.5,222.5 C 283.068,223.71 282.401,224.71 281.5,225.5C 279.081,225.195 276.414,225.195 273.5,225.5C 273.196,224.85 272.863,224.183 272.5,223.5C 276.008,212.549 277.508,201.216 277,189.5C 278.057,197.464 278.723,205.464 279,213.5C 280.923,211.881 281.423,210.048 280.5,208C 281.309,202.583 281.809,197.083 282,191.5C 284.698,197.092 285.198,202.925 283.5,209C 284.167,209.667 284.833,210.333 285.5,211C 284.417,212.529 283.417,214.029 282.5,215.5C 283.506,219.481 284.506,219.481 285.5,215.5C 285.833,215.667 286.167,215.833 286.5,216C 285.588,218.251 284.588,220.417 283.5,222.5 Z"/></g>
<g><path style="opacity:0.49" fill="#554a49" d="M 318.5,190.5 C 319.739,197.131 320.739,203.798 321.5,210.5C 322.729,211.281 324.062,211.781 325.5,212C 333.677,212.171 341.677,212.671 349.5,213.5C 339.917,213.182 330.417,213.515 321,214.5C 320.768,213.263 320.268,212.263 319.5,211.5C 318.997,204.792 318.163,198.126 317,191.5C 313.984,188.081 314.484,187.748 318.5,190.5 Z"/></g>
<g><path style="opacity:1" fill="#706c6d" d="M 271.5,203.5 C 273.023,210.823 272.523,218.156 270,225.5C 269.396,218.086 269.896,210.753 271.5,203.5 Z"/></g>
<g><path style="opacity:1" fill="#8e8d90" d="M 313.5,185.5 C 316.167,186.167 317.833,187.833 318.5,190.5C 314.484,187.748 313.984,188.081 317,191.5C 318.163,198.126 318.997,204.792 319.5,211.5C 319.5,213.167 319.5,214.833 319.5,216.5C 314.968,216.818 310.634,216.485 306.5,215.5C 306.5,207.5 306.5,199.5 306.5,191.5C 309.073,191.852 311.406,191.352 313.5,190C 306.856,187.032 306.856,185.532 313.5,185.5 Z"/></g>
<g><path style="opacity:1" fill="#a5856f" d="M 154.5,207.5 C 147.679,208.329 140.679,208.829 133.5,209C 140.844,209.94 148.178,210.94 155.5,212C 150.5,212.333 145.5,212.667 140.5,213C 140.043,213.414 139.709,213.914 139.5,214.5C 140.776,215.645 142.109,215.645 143.5,214.5C 150.86,214.794 157.86,215.794 164.5,217.5C 152.273,216.766 140.273,217.932 128.5,221C 130.167,221.333 131.833,221.667 133.5,222C 131.377,223.194 129.043,223.86 126.5,224C 127.337,225.011 127.67,226.178 127.5,227.5C 124.951,226.491 122.285,225.658 119.5,225C 119.833,224.667 120.167,224.333 120.5,224C 105.394,223.923 90.3937,223.089 75.5,221.5C 80.3445,220.735 85.3445,220.068 90.5,219.5C 94.7118,222.325 96.3785,220.992 95.5,215.5C 94.1667,215.5 92.8333,215.5 91.5,215.5C 103.231,212.069 115.231,209.235 127.5,207C 136.578,206.196 145.578,206.363 154.5,207.5 Z"/></g>
<g><path style="opacity:1" fill="#a3795b" d="M 175.5,222.5 C 178.008,224.237 181.008,225.07 184.5,225C 192.5,225.333 200.5,225.667 208.5,226C 212.185,226.914 211.852,227.581 207.5,228C 208.056,228.383 208.389,228.883 208.5,229.5C 206.255,229.459 205.588,228.625 206.5,227C 205,226.833 203.5,226.667 202,226.5C 197.835,227.953 193.501,228.953 189,229.5C 181.257,228.944 173.757,227.61 166.5,225.5C 164.167,225.833 161.833,226.167 159.5,226.5C 164.739,228.27 169.073,230.27 172.5,232.5C 157.481,231.109 142.481,229.443 127.5,227.5C 127.67,226.178 127.337,225.011 126.5,224C 129.043,223.86 131.377,223.194 133.5,222C 131.833,221.667 130.167,221.333 128.5,221C 140.273,217.932 152.273,216.766 164.5,217.5C 176.548,218.563 188.715,218.23 201,216.5C 203,217.167 203,217.833 201,218.5C 192.507,220.758 184.007,222.091 175.5,222.5 Z"/></g>
<g><path style="opacity:1" fill="#595248" d="M 239.5,208.5 C 240.46,213.392 242.46,217.725 245.5,221.5C 241.196,223.762 236.529,224.762 231.5,224.5C 230.402,223.603 230.402,222.77 231.5,222C 232.793,221.51 234.127,221.343 235.5,221.5C 235.5,220.5 235.5,219.5 235.5,218.5C 239.172,217.955 238.838,217.622 234.5,217.5C 235.83,214.296 236.996,210.962 238,207.5C 238.383,208.056 238.883,208.389 239.5,208.5 Z"/></g>
<g><path style="opacity:1" fill="#936d54" d="M 467.5,226.5 C 468.263,227.268 469.263,227.768 470.5,228C 469.663,229.011 469.33,230.178 469.5,231.5C 465.5,232.167 461.5,232.833 457.5,233.5C 443.521,235.008 429.521,236.675 415.5,238.5C 413.629,237.203 411.629,236.203 409.5,235.5C 412.898,235.82 416.232,235.487 419.5,234.5C 420.77,233.712 421.77,232.712 422.5,231.5C 436.14,232.137 449.807,232.137 463.5,231.5C 463.5,230.167 463.5,228.833 463.5,227.5C 455.542,226.597 447.542,226.264 439.5,226.5C 436.126,224.675 432.459,223.342 428.5,222.5C 427.396,221.369 427.729,220.535 429.5,220C 417.765,219.06 406.098,219.56 394.5,221.5C 392.833,221.333 391.167,221.167 389.5,221C 389.957,220.586 390.291,220.086 390.5,219.5C 385.206,218.534 379.873,217.867 374.5,217.5C 369.553,218.771 364.553,219.771 359.5,220.5C 353.377,219.364 347.377,218.364 341.5,217.5C 351.46,216.502 361.46,215.835 371.5,215.5C 402.148,216.891 432.815,218.058 463.5,219C 457.771,219.672 457.437,220.672 462.5,222C 459.441,222.645 456.441,223.478 453.5,224.5C 458.137,225.43 462.804,226.097 467.5,226.5 Z"/></g>
<g><path style="opacity:1" fill="#b88560" d="M 334.5,216.5 C 336.717,217.369 339.05,217.702 341.5,217.5C 347.377,218.364 353.377,219.364 359.5,220.5C 364.553,219.771 369.553,218.771 374.5,217.5C 379.873,217.867 385.206,218.534 390.5,219.5C 390.291,220.086 389.957,220.586 389.5,221C 391.167,221.167 392.833,221.333 394.5,221.5C 406.098,219.56 417.765,219.06 429.5,220C 427.729,220.535 427.396,221.369 428.5,222.5C 432.459,223.342 436.126,224.675 439.5,226.5C 437.105,227.766 434.438,228.432 431.5,228.5C 424.524,226.233 417.357,225.9 410,227.5C 401.162,226.547 392.329,225.547 383.5,224.5C 377.228,224.652 370.895,224.819 364.5,225C 363.328,225.419 362.328,226.085 361.5,227C 363.434,227.012 365.434,226.845 367.5,226.5C 368.833,226.833 370.167,227.167 371.5,227.5C 371.291,228.086 370.957,228.586 370.5,229C 387.841,229.79 405.174,230.623 422.5,231.5C 421.77,232.712 420.77,233.712 419.5,234.5C 416.232,235.487 412.898,235.82 409.5,235.5C 404.167,235.167 404.167,234.833 409.5,234.5C 409.5,233.5 409.5,232.5 409.5,231.5C 401.833,231.5 394.167,231.5 386.5,231.5C 374.486,230.081 362.153,229.415 349.5,229.5C 349.5,228.5 349.5,227.5 349.5,226.5C 354.041,227.231 358.041,226.231 361.5,223.5C 348.795,222.777 336.128,221.777 323.5,220.5C 323.5,219.167 323.5,217.833 323.5,216.5C 327.167,216.5 330.833,216.5 334.5,216.5 Z"/></g>
<g><path style="opacity:1" fill="#735b4d" d="M 319.5,211.5 C 320.268,212.263 320.768,213.263 321,214.5C 330.417,213.515 339.917,213.182 349.5,213.5C 396.155,215.282 442.822,216.782 489.5,218C 491.058,218.21 492.391,218.71 493.5,219.5C 489.814,221.263 485.814,222.43 481.5,223C 477.371,225.943 472.704,227.11 467.5,226.5C 462.804,226.097 458.137,225.43 453.5,224.5C 456.441,223.478 459.441,222.645 462.5,222C 457.437,220.672 457.771,219.672 463.5,219C 432.815,218.058 402.148,216.891 371.5,215.5C 361.46,215.835 351.46,216.502 341.5,217.5C 339.05,217.702 336.717,217.369 334.5,216.5C 330.354,215.353 326.02,215.186 321.5,216C 320.934,216.995 320.267,217.828 319.5,218.5C 319.5,217.833 319.5,217.167 319.5,216.5C 319.5,214.833 319.5,213.167 319.5,211.5 Z"/></g>
<g><path style="opacity:1" fill="#a07758" d="M 334.5,216.5 C 330.833,216.5 327.167,216.5 323.5,216.5C 323.5,217.833 323.5,219.167 323.5,220.5C 336.128,221.777 348.795,222.777 361.5,223.5C 358.041,226.231 354.041,227.231 349.5,226.5C 349.5,227.5 349.5,228.5 349.5,229.5C 362.153,229.415 374.486,230.081 386.5,231.5C 383.188,231.943 379.855,232.276 376.5,232.5C 367.582,230.897 358.582,230.23 349.5,230.5C 345.731,230.244 342.064,230.577 338.5,231.5C 332.388,229.244 326.055,227.911 319.5,227.5C 318.77,226.288 317.77,225.288 316.5,224.5C 317.559,222.466 318.559,220.466 319.5,218.5C 320.267,217.828 320.934,216.995 321.5,216C 326.02,215.186 330.354,215.353 334.5,216.5 Z"/></g>
<g><path style="opacity:1" fill="#a1897b" d="M 91.5,215.5 C 92.8333,215.5 94.1667,215.5 95.5,215.5C 96.3785,220.992 94.7118,222.325 90.5,219.5C 85.3445,220.068 80.3445,220.735 75.5,221.5C 68.6115,222.831 61.6115,223.998 54.5,225C 55,225.5 55.5,226 56,226.5C 58.62,225.077 61.12,225.243 63.5,227C 61.5,227.333 59.5,227.667 57.5,228C 62.3275,228.884 66.9942,228.384 71.5,226.5C 75.9178,228.717 80.5845,230.05 85.5,230.5C 85.5,231.5 85.5,232.5 85.5,233.5C 90.1667,233.833 94.8333,234.167 99.5,234.5C 99.5,233.5 99.5,232.5 99.5,231.5C 102.574,231.873 105.574,232.539 108.5,233.5C 101.151,235.878 93.4848,236.878 85.5,236.5C 59.5024,235.43 33.5024,234.43 7.5,233.5C 7.61071,232.883 7.94404,232.383 8.5,232C 36.1411,226.339 63.8078,220.839 91.5,215.5 Z"/></g>
<g><path style="opacity:1" fill="#544337" d="M 289.5,218.5 C 290.947,219.622 291.947,221.122 292.5,223C 294.972,224.396 297.638,225.23 300.5,225.5C 303.562,225.29 305.895,224.624 307.5,223.5C 308.833,223.833 310.167,224.167 311.5,224.5C 312.641,225.425 312.641,226.259 311.5,227C 314.146,227.497 316.813,227.664 319.5,227.5C 319.244,229.776 317.91,230.943 315.5,231C 305.193,230.881 295.026,230.714 285,230.5C 284.5,231 284,231.5 283.5,232C 271.893,233.288 260.56,232.455 249.5,229.5C 237.836,228.397 226.169,228.397 214.5,229.5C 212.5,229.5 210.5,229.5 208.5,229.5C 208.389,228.883 208.056,228.383 207.5,228C 211.852,227.581 212.185,226.914 208.5,226C 200.5,225.667 192.5,225.333 184.5,225C 181.008,225.07 178.008,224.237 175.5,222.5C 185.865,222.267 196.198,222.6 206.5,223.5C 206.263,222.209 206.596,221.209 207.5,220.5C 207.263,221.791 207.596,222.791 208.5,223.5C 210.265,224.461 212.265,224.795 214.5,224.5C 217.287,225.477 220.287,225.81 223.5,225.5C 228.413,227.007 233.579,227.674 239,227.5C 242.683,227.499 246.183,227.165 249.5,226.5C 250.167,226.5 250.5,226.833 250.5,227.5C 251.152,228.725 252.319,229.392 254,229.5C 259.669,229.006 265.169,228.34 270.5,227.5C 274.489,227.884 278.155,227.217 281.5,225.5C 282.401,224.71 283.068,223.71 283.5,222.5C 285.491,220.389 287.491,219.056 289.5,218.5 Z"/></g>
<g><path style="opacity:1" fill="#35291e" d="M 245.5,221.5 C 247.587,222.585 248.92,224.251 249.5,226.5C 246.183,227.165 242.683,227.499 239,227.5C 233.579,227.674 228.413,227.007 223.5,225.5C 226.167,225.167 228.833,224.833 231.5,224.5C 236.529,224.762 241.196,223.762 245.5,221.5 Z"/></g>
<g><path style="opacity:1" fill="#c9986e" d="M 439.5,226.5 C 447.542,226.264 455.542,226.597 463.5,227.5C 463.5,228.833 463.5,230.167 463.5,231.5C 449.807,232.137 436.14,232.137 422.5,231.5C 405.174,230.623 387.841,229.79 370.5,229C 370.957,228.586 371.291,228.086 371.5,227.5C 370.167,227.167 368.833,226.833 367.5,226.5C 365.434,226.845 363.434,227.012 361.5,227C 362.328,226.085 363.328,225.419 364.5,225C 370.895,224.819 377.228,224.652 383.5,224.5C 392.329,225.547 401.162,226.547 410,227.5C 417.357,225.9 424.524,226.233 431.5,228.5C 434.438,228.432 437.105,227.766 439.5,226.5 Z"/></g>
<g><path style="opacity:1" fill="#b48f75" d="M 75.5,221.5 C 90.3937,223.089 105.394,223.923 120.5,224C 120.167,224.333 119.833,224.667 119.5,225C 122.285,225.658 124.951,226.491 127.5,227.5C 142.481,229.443 157.481,231.109 172.5,232.5C 174.698,232.875 176.698,233.542 178.5,234.5C 169.057,234.867 159.724,234.2 150.5,232.5C 136.494,231.5 122.494,231.833 108.5,233.5C 105.574,232.539 102.574,231.873 99.5,231.5C 99.5,232.5 99.5,233.5 99.5,234.5C 94.8333,234.167 90.1667,233.833 85.5,233.5C 85.5,232.5 85.5,231.5 85.5,230.5C 80.5845,230.05 75.9178,228.717 71.5,226.5C 66.9942,228.384 62.3275,228.884 57.5,228C 59.5,227.667 61.5,227.333 63.5,227C 61.12,225.243 58.62,225.077 56,226.5C 55.5,226 55,225.5 54.5,225C 61.6115,223.998 68.6115,222.831 75.5,221.5 Z"/></g>
<g><path style="opacity:1" fill="#b18360" d="M 208.5,229.5 C 210.5,229.5 212.5,229.5 214.5,229.5C 225.008,230.38 235.674,230.547 246.5,230C 248.002,230.583 249.335,231.416 250.5,232.5C 247.978,233.303 245.978,234.636 244.5,236.5C 241.615,236.194 238.948,236.527 236.5,237.5C 227.507,236.926 218.674,237.593 210,239.5C 199.938,235.188 189.438,233.522 178.5,234.5C 176.698,233.542 174.698,232.875 172.5,232.5C 169.073,230.27 164.739,228.27 159.5,226.5C 161.833,226.167 164.167,225.833 166.5,225.5C 173.757,227.61 181.257,228.944 189,229.5C 193.501,228.953 197.835,227.953 202,226.5C 203.5,226.667 205,226.833 206.5,227C 205.588,228.625 206.255,229.459 208.5,229.5 Z"/></g>
<g><path style="opacity:1" fill="#866551" d="M 345.5,237.5 C 337.53,239.189 329.363,240.522 321,241.5C 312.461,240.723 303.961,240.39 295.5,240.5C 293.885,241.154 292.218,241.654 290.5,242C 290.833,242.333 291.167,242.667 291.5,243C 286.719,243.699 286.553,244.199 291,244.5C 294.071,243.693 297.238,243.86 300.5,245C 307.826,245.5 315.159,245.666 322.5,245.5C 310.329,246.564 297.995,246.564 285.5,245.5C 282.371,244.087 279.038,242.92 275.5,242C 277.5,241.667 279.5,241.333 281.5,241C 280.833,240.667 280.167,240.333 279.5,240C 283.258,238.161 286.924,236.161 290.5,234C 299.855,233.628 309.189,232.962 318.5,232C 321.318,230.191 324.152,230.357 327,232.5C 328.366,232.294 329.699,231.96 331,231.5C 332.66,232.829 334.493,233.829 336.5,234.5C 337.711,235.274 337.711,236.107 336.5,237C 339.482,237.498 342.482,237.665 345.5,237.5 Z"/></g>
<g><path style="opacity:1" fill="#856653" d="M 150.5,232.5 C 159.724,234.2 169.057,234.867 178.5,234.5C 189.438,233.522 199.938,235.188 210,239.5C 218.674,237.593 227.507,236.926 236.5,237.5C 234.811,238.304 233.145,239.304 231.5,240.5C 231.709,241.086 232.043,241.586 232.5,242C 226.833,242.667 221.167,242.667 215.5,242C 219.414,241.103 219.248,240.603 215,240.5C 207.193,241.382 199.36,241.715 191.5,241.5C 191.082,240.778 190.416,240.278 189.5,240C 190.5,239.667 191.5,239.333 192.5,239C 192.167,238.667 191.833,238.333 191.5,238C 180.057,235.476 168.39,234.81 156.5,236C 157.823,236.816 158.489,237.983 158.5,239.5C 153.968,239.818 149.634,239.485 145.5,238.5C 147.282,237.28 149.282,236.614 151.5,236.5C 151.567,235.041 151.234,233.708 150.5,232.5 Z"/></g>
<g><path style="opacity:1" fill="#917e77" d="M 493.5,219.5 C 494.706,221.437 494.373,223.104 492.5,224.5C 467.397,234.081 442.73,244.414 418.5,255.5C 418.5,254.167 418.5,252.833 418.5,251.5C 422.021,251.17 425.021,249.67 427.5,247C 430.854,246.545 434.187,246.045 437.5,245.5C 437.715,243.821 437.048,242.821 435.5,242.5C 442.967,239.898 450.3,236.898 457.5,233.5C 461.5,232.833 465.5,232.167 469.5,231.5C 469.33,230.178 469.663,229.011 470.5,228C 469.263,227.768 468.263,227.268 467.5,226.5C 472.704,227.11 477.371,225.943 481.5,223C 485.814,222.43 489.814,221.263 493.5,219.5 Z"/></g>
<g><path style="opacity:1" fill="#755a49" d="M 319.5,227.5 C 326.055,227.911 332.388,229.244 338.5,231.5C 338.11,233.39 339.11,234.89 341.5,236C 348.833,236.667 356.167,236.667 363.5,236C 365.291,235.585 366.624,234.585 367.5,233C 361.366,232.088 355.366,231.255 349.5,230.5C 358.582,230.23 367.582,230.897 376.5,232.5C 379.855,232.276 383.188,231.943 386.5,231.5C 394.167,231.5 401.833,231.5 409.5,231.5C 409.5,232.5 409.5,233.5 409.5,234.5C 404.167,234.833 404.167,235.167 409.5,235.5C 411.629,236.203 413.629,237.203 415.5,238.5C 402.466,237.019 389.466,235.352 376.5,233.5C 373.803,233.703 371.136,234.036 368.5,234.5C 368.5,235.5 368.5,236.5 368.5,237.5C 360.833,237.5 353.167,237.5 345.5,237.5C 342.482,237.665 339.482,237.498 336.5,237C 337.711,236.107 337.711,235.274 336.5,234.5C 334.493,233.829 332.66,232.829 331,231.5C 329.699,231.96 328.366,232.294 327,232.5C 324.152,230.357 321.318,230.191 318.5,232C 309.189,232.962 299.855,233.628 290.5,234C 286.924,236.161 283.258,238.161 279.5,240C 280.167,240.333 280.833,240.667 281.5,241C 279.5,241.333 277.5,241.667 275.5,242C 279.038,242.92 282.371,244.087 285.5,245.5C 280.139,245.115 274.806,244.449 269.5,243.5C 268.5,243.833 267.5,244.167 266.5,244.5C 269.107,245.318 271.774,245.818 274.5,246C 267.471,246.238 260.471,246.738 253.5,247.5C 246.164,246.743 238.831,245.91 231.5,245C 240.827,244.245 250.16,243.578 259.5,243C 260.167,242.333 260.833,241.667 261.5,241C 264.167,240.667 266.833,240.333 269.5,240C 266.167,239.667 262.833,239.333 259.5,239C 254.742,236.28 249.742,235.446 244.5,236.5C 245.978,234.636 247.978,233.303 250.5,232.5C 249.335,231.416 248.002,230.583 246.5,230C 235.674,230.547 225.008,230.38 214.5,229.5C 226.169,228.397 237.836,228.397 249.5,229.5C 260.56,232.455 271.893,233.288 283.5,232C 284,231.5 284.5,231 285,230.5C 295.026,230.714 305.193,230.881 315.5,231C 317.91,230.943 319.244,229.776 319.5,227.5 Z"/></g>
<g><path style="opacity:1" fill="#53463c" d="M 349.5,230.5 C 355.366,231.255 361.366,232.088 367.5,233C 366.624,234.585 365.291,235.585 363.5,236C 356.167,236.667 348.833,236.667 341.5,236C 339.11,234.89 338.11,233.39 338.5,231.5C 342.064,230.577 345.731,230.244 349.5,230.5 Z"/></g>
<g><path style="opacity:1" fill="#513c31" d="M 7.5,233.5 C 33.5024,234.43 59.5024,235.43 85.5,236.5C 97.6639,237.445 109.997,238.111 122.5,238.5C 114.817,239.348 107.15,240.348 99.5,241.5C 73.9969,240.636 48.4969,239.636 23,238.5C 17.3229,238.501 11.8229,238.834 6.5,239.5C 5.41383,239.38 4.74716,238.713 4.5,237.5C 4.56132,235.347 5.56132,234.014 7.5,233.5 Z"/></g>
<g><path style="opacity:1" fill="#7a6459" d="M 150.5,232.5 C 151.234,233.708 151.567,235.041 151.5,236.5C 149.282,236.614 147.282,237.28 145.5,238.5C 137.833,238.5 130.167,238.5 122.5,238.5C 109.997,238.111 97.6639,237.445 85.5,236.5C 93.4848,236.878 101.151,235.878 108.5,233.5C 122.494,231.833 136.494,231.5 150.5,232.5 Z"/></g>
<g><path style="opacity:1" fill="#6b5750" d="M 191.5,241.5 C 180.433,241.026 169.433,240.359 158.5,239.5C 158.489,237.983 157.823,236.816 156.5,236C 168.39,234.81 180.057,235.476 191.5,238C 191.833,238.333 192.167,238.667 192.5,239C 191.5,239.333 190.5,239.667 189.5,240C 190.416,240.278 191.082,240.778 191.5,241.5 Z"/></g>
<g><path style="opacity:1" fill="#624b44" d="M 415.5,238.5 C 429.521,236.675 443.521,235.008 457.5,233.5C 450.3,236.898 442.967,239.898 435.5,242.5C 418.22,240.753 400.887,239.753 383.5,239.5C 378.68,238.513 373.68,237.847 368.5,237.5C 368.5,236.5 368.5,235.5 368.5,234.5C 371.136,234.036 373.803,233.703 376.5,233.5C 389.466,235.352 402.466,237.019 415.5,238.5 Z"/></g>
<g><path style="opacity:1" fill="#272727" d="M 92.5,252.5 C 76.8309,252.028 61.1642,251.861 45.5,252C 40.3606,253.735 35.694,256.235 31.5,259.5C 30.0002,260.588 28.6669,261.921 27.5,263.5C 26.8038,266.556 25.9704,269.556 25,272.5C 24.6667,272.167 24.3333,271.833 24,271.5C 22.8551,297.035 23.0217,322.702 24.5,348.5C 20.8184,349.662 20.1518,348.829 22.5,346C 21.9747,345.308 21.3081,344.808 20.5,344.5C 19.7022,346.078 19.2022,347.744 19,349.5C 15.3963,352.975 14.563,357.142 16.5,362C 16.1377,363.225 15.6377,364.391 15,365.5C 14.6667,365.167 14.3333,364.833 14,364.5C 13.5034,366.81 13.3367,369.143 13.5,371.5C 12.5139,341.751 11.5139,312.084 10.5,282.5C 11.3302,272.675 11.8302,262.675 12,252.5C 12.2511,250.567 12.7511,248.734 13.5,247C 12.9026,245.111 12.5693,243.278 12.5,241.5C 13.0253,240.808 13.6919,240.308 14.5,240C 23.4836,240.099 32.4836,240.432 41.5,241C 42.459,242.464 43.7923,243.297 45.5,243.5C 47.1047,242.57 48.6047,242.57 50,243.5C 51.0086,242.342 52.3419,241.675 54,241.5C 59.207,241.611 64.5403,242.278 70,243.5C 72.9549,242.5 75.4549,242.833 77.5,244.5C 84.1047,244.403 90.7714,244.069 97.5,243.5C 99.5,244 101.5,244.5 103.5,245C 102.646,246.022 101.646,246.855 100.5,247.5C 99.1585,245.995 97.4918,245.328 95.5,245.5C 96.0148,249.831 94.3482,251.331 90.5,250C 91.756,250.417 92.4226,251.25 92.5,252.5 Z"/></g>
<g><path style="opacity:1" fill="#654e40" d="M 285.5,245.5 C 297.995,246.564 310.329,246.564 322.5,245.5C 328.897,245.729 335.231,246.396 341.5,247.5C 341.389,248.117 341.056,248.617 340.5,249C 342.246,249.471 343.913,250.138 345.5,251C 363.666,251.711 381.666,252.544 399.5,253.5C 385.496,253.667 371.496,253.5 357.5,253C 280.86,249.263 204.193,246.096 127.5,243.5C 118.352,242.344 109.019,241.677 99.5,241.5C 107.15,240.348 114.817,239.348 122.5,238.5C 130.167,238.5 137.833,238.5 145.5,238.5C 149.634,239.485 153.968,239.818 158.5,239.5C 169.433,240.359 180.433,241.026 191.5,241.5C 199.36,241.715 207.193,241.382 215,240.5C 219.248,240.603 219.414,241.103 215.5,242C 221.167,242.667 226.833,242.667 232.5,242C 232.043,241.586 231.709,241.086 231.5,240.5C 233.145,239.304 234.811,238.304 236.5,237.5C 238.948,236.527 241.615,236.194 244.5,236.5C 249.742,235.446 254.742,236.28 259.5,239C 262.833,239.333 266.167,239.667 269.5,240C 266.833,240.333 264.167,240.667 261.5,241C 260.833,241.667 260.167,242.333 259.5,243C 250.16,243.578 240.827,244.245 231.5,245C 238.831,245.91 246.164,246.743 253.5,247.5C 260.471,246.738 267.471,246.238 274.5,246C 271.774,245.818 269.107,245.318 266.5,244.5C 267.5,244.167 268.5,243.833 269.5,243.5C 274.806,244.449 280.139,245.115 285.5,245.5 Z"/></g>
<g><path style="opacity:1" fill="#b48262" d="M 345.5,237.5 C 353.167,237.5 360.833,237.5 368.5,237.5C 373.68,237.847 378.68,238.513 383.5,239.5C 388.136,240.056 392.802,241.056 397.5,242.5C 398.442,242.392 399.275,242.059 400,241.5C 404.414,242.303 408.914,242.803 413.5,243C 406.461,243.463 399.628,244.63 393,246.5C 381.179,247.29 369.346,247.623 357.5,247.5C 352.167,247.5 346.833,247.5 341.5,247.5C 335.231,246.396 328.897,245.729 322.5,245.5C 315.159,245.666 307.826,245.5 300.5,245C 297.238,243.86 294.071,243.693 291,244.5C 286.553,244.199 286.719,243.699 291.5,243C 291.167,242.667 290.833,242.333 290.5,242C 292.218,241.654 293.885,241.154 295.5,240.5C 303.961,240.39 312.461,240.723 321,241.5C 329.363,240.522 337.53,239.189 345.5,237.5 Z"/></g>
<g><path style="opacity:0.914" fill="#2d2e2f" d="M 130.5,245.5 C 160.889,245.65 191.222,246.984 221.5,249.5C 225.529,248.482 229.529,248.815 233.5,250.5C 237.799,249.458 242.132,249.291 246.5,250C 244.299,251.043 241.966,251.877 239.5,252.5C 247.479,253.332 255.479,253.832 263.5,254C 260.456,254.359 260.122,255.026 262.5,256C 264.866,256.562 267.199,256.396 269.5,255.5C 272.094,256.384 274.594,257.384 277,258.5C 278.667,258.167 280.333,257.833 282,257.5C 285.663,258.771 289.163,260.104 292.5,261.5C 248.489,259.74 204.489,257.74 160.5,255.5C 160.389,254.883 160.056,254.383 159.5,254C 156.629,253.882 153.962,253.216 151.5,252C 162.326,253.372 173.159,253.872 184,253.5C 186.167,253.167 188.333,252.833 190.5,252.5C 191.815,251.105 191.481,250.105 189.5,249.5C 176.963,250.498 164.463,249.832 152,247.5C 148.431,247.286 145.098,247.953 142,249.5C 140,246.833 138,246.833 136,249.5C 134.215,248.76 132.382,248.093 130.5,247.5C 129.227,246.743 129.227,246.077 130.5,245.5 Z"/></g>
<g><path style="opacity:1" fill="#9c735e" d="M 383.5,239.5 C 400.887,239.753 418.22,240.753 435.5,242.5C 437.048,242.821 437.715,243.821 437.5,245.5C 434.187,246.045 430.854,246.545 427.5,247C 425.021,249.67 422.021,251.17 418.5,251.5C 414.946,250.751 411.28,249.918 407.5,249C 408.167,248.667 408.833,248.333 409.5,248C 392.001,248.357 374.668,248.19 357.5,247.5C 369.346,247.623 381.179,247.29 393,246.5C 399.628,244.63 406.461,243.463 413.5,243C 408.914,242.803 404.414,242.303 400,241.5C 399.275,242.059 398.442,242.392 397.5,242.5C 392.802,241.056 388.136,240.056 383.5,239.5 Z"/></g>
<g><path style="opacity:1" fill="#7f5d48" d="M 341.5,247.5 C 346.833,247.5 352.167,247.5 357.5,247.5C 374.668,248.19 392.001,248.357 409.5,248C 408.833,248.333 408.167,248.667 407.5,249C 411.28,249.918 414.946,250.751 418.5,251.5C 418.5,252.833 418.5,254.167 418.5,255.5C 418.167,255.5 417.833,255.5 417.5,255.5C 411.65,254.704 405.65,254.037 399.5,253.5C 381.666,252.544 363.666,251.711 345.5,251C 343.913,250.138 342.246,249.471 340.5,249C 341.056,248.617 341.389,248.117 341.5,247.5 Z"/></g>
<g><path style="opacity:0.944" fill="#363434" d="M 127.5,243.5 C 204.193,246.096 280.86,249.263 357.5,253C 371.496,253.5 385.496,253.667 399.5,253.5C 405.65,254.037 411.65,254.704 417.5,255.5C 417.449,257.57 418.115,259.403 419.5,261C 418.531,272.461 418.198,283.961 418.5,295.5C 417.67,286.676 417.17,277.676 417,268.5C 416.667,269.833 416.333,271.167 416,272.5C 415.667,271.833 415.333,271.167 415,270.5C 414.667,273.5 414.333,276.5 414,279.5C 413.138,277.913 412.471,276.246 412,274.5C 411.233,278.558 411.4,282.558 412.5,286.5C 411.675,287.386 410.675,287.719 409.5,287.5C 409.5,286.5 409.5,285.5 409.5,284.5C 408.178,284.33 407.011,284.663 406,285.5C 405.024,276.52 404.191,267.52 403.5,258.5C 402.501,268.478 402.168,278.478 402.5,288.5C 399.745,284.566 396.745,280.733 393.5,277C 390.5,274.667 387.5,272.333 384.5,270C 382.043,268.438 379.376,267.438 376.5,267C 348.516,264.538 320.516,262.705 292.5,261.5C 289.163,260.104 285.663,258.771 282,257.5C 280.333,257.833 278.667,258.167 277,258.5C 274.594,257.384 272.094,256.384 269.5,255.5C 267.199,256.396 264.866,256.562 262.5,256C 260.122,255.026 260.456,254.359 263.5,254C 255.479,253.832 247.479,253.332 239.5,252.5C 241.966,251.877 244.299,251.043 246.5,250C 242.132,249.291 237.799,249.458 233.5,250.5C 229.529,248.815 225.529,248.482 221.5,249.5C 191.222,246.984 160.889,245.65 130.5,245.5C 129.5,244.833 128.5,244.167 127.5,243.5 Z"/></g>
<g><path style="opacity:1" fill="#636261" d="M 492.5,224.5 C 490.956,226.847 490.289,229.514 490.5,232.5C 492.313,296.326 493.647,359.993 494.5,423.5C 493.67,414.342 493.17,405.009 493,395.5C 492,394.167 491,392.833 490,391.5C 489.501,387.179 489.334,382.846 489.5,378.5C 488.885,331.158 487.885,283.824 486.5,236.5C 481.753,238.037 477.087,239.87 472.5,242C 471.619,242.708 470.953,243.542 470.5,244.5C 455.404,250.88 440.404,257.547 425.5,264.5C 425.167,275.167 424.833,285.833 424.5,296.5C 425.32,336.811 425.987,376.811 426.5,416.5C 425.671,408.343 425.171,400.01 425,391.5C 422.804,389.159 421.304,386.492 420.5,383.5C 419.755,373.852 419.422,364.185 419.5,354.5C 419.728,334.817 419.395,315.15 418.5,295.5C 418.198,283.961 418.531,272.461 419.5,261C 418.115,259.403 417.449,257.57 417.5,255.5C 417.833,255.5 418.167,255.5 418.5,255.5C 442.73,244.414 467.397,234.081 492.5,224.5 Z"/></g>
<g><path style="opacity:0.982" fill="#212121" d="M 142.5,398.5 C 142.389,399.117 142.056,399.617 141.5,400C 136.968,400.9 132.801,400.067 129,397.5C 128.5,386.839 128.333,376.172 128.5,365.5C 128.859,342.976 128.193,320.643 126.5,298.5C 126.149,285.046 125.649,271.379 125,257.5C 122.957,255.523 120.457,254.523 117.5,254.5C 117.586,253.504 117.252,252.671 116.5,252C 112.543,251.45 111.376,249.616 113,246.5C 113.333,247.167 113.667,247.833 114,248.5C 115.953,249.307 118.786,249.307 122.5,248.5C 125.29,251.129 128.457,253.129 132,254.5C 132.414,254.043 132.914,253.709 133.5,253.5C 135.444,254.189 137.444,254.689 139.5,255C 137.254,262.867 136.92,270.867 138.5,279C 137.936,281.526 137.269,284.026 136.5,286.5C 137.162,313.007 137.829,339.507 138.5,366C 137.262,370.575 137.595,375.075 139.5,379.5C 138.714,385.809 138.714,392.143 139.5,398.5C 140.5,398.5 141.5,398.5 142.5,398.5 Z"/></g>
<g><path style="opacity:0.212" fill="#462d1e" d="M 149.5,255.5 C 147.856,255.286 146.356,255.62 145,256.5C 145.037,267.335 145.537,278.168 146.5,289C 146.453,291.295 145.787,293.129 144.5,294.5C 143.519,281.509 143.019,268.509 143,255.5C 145.274,254.189 147.44,254.189 149.5,255.5 Z"/></g>
<g><path style="opacity:0.996" fill="#2d2c2a" d="M 99.5,241.5 C 109.019,241.677 118.352,242.344 127.5,243.5C 128.5,244.167 129.5,244.833 130.5,245.5C 129.227,246.077 129.227,246.743 130.5,247.5C 132.382,248.093 134.215,248.76 136,249.5C 138,246.833 140,246.833 142,249.5C 145.098,247.953 148.431,247.286 152,247.5C 164.463,249.832 176.963,250.498 189.5,249.5C 191.481,250.105 191.815,251.105 190.5,252.5C 188.333,252.833 186.167,253.167 184,253.5C 173.159,253.872 162.326,253.372 151.5,252C 153.962,253.216 156.629,253.882 159.5,254C 160.056,254.383 160.389,254.883 160.5,255.5C 156.833,255.5 153.167,255.5 149.5,255.5C 147.44,254.189 145.274,254.189 143,255.5C 143.019,268.509 143.519,281.509 144.5,294.5C 145.042,328.176 145.542,361.843 146,395.5C 145.28,397.056 144.113,398.056 142.5,398.5C 141.5,398.5 140.5,398.5 139.5,398.5C 138.714,392.143 138.714,385.809 139.5,379.5C 137.595,375.075 137.262,370.575 138.5,366C 137.829,339.507 137.162,313.007 136.5,286.5C 137.269,284.026 137.936,281.526 138.5,279C 136.92,270.867 137.254,262.867 139.5,255C 137.444,254.689 135.444,254.189 133.5,253.5C 132.914,253.709 132.414,254.043 132,254.5C 128.457,253.129 125.29,251.129 122.5,248.5C 118.786,249.307 115.953,249.307 114,248.5C 113.667,247.833 113.333,247.167 113,246.5C 111.376,249.616 112.543,251.45 116.5,252C 117.252,252.671 117.586,253.504 117.5,254.5C 108.993,254.14 100.66,253.473 92.5,252.5C 92.4226,251.25 91.756,250.417 90.5,250C 94.3482,251.331 96.0148,249.831 95.5,245.5C 97.4918,245.328 99.1585,245.995 100.5,247.5C 101.646,246.855 102.646,246.022 103.5,245C 101.5,244.5 99.5,244 97.5,243.5C 90.7714,244.069 84.1047,244.403 77.5,244.5C 75.4549,242.833 72.9549,242.5 70,243.5C 64.5403,242.278 59.207,241.611 54,241.5C 52.3419,241.675 51.0086,242.342 50,243.5C 48.6047,242.57 47.1047,242.57 45.5,243.5C 43.7923,243.297 42.459,242.464 41.5,241C 32.4836,240.432 23.4836,240.099 14.5,240C 13.6919,240.308 13.0253,240.808 12.5,241.5C 12.5693,243.278 12.9026,245.111 13.5,247C 12.7511,248.734 12.2511,250.567 12,252.5C 11.8302,262.675 11.3302,272.675 10.5,282.5C 10.5,269.167 10.5,255.833 10.5,242.5C 8.38115,242.532 7.04782,241.532 6.5,239.5C 11.8229,238.834 17.3229,238.501 23,238.5C 48.4969,239.636 73.9969,240.636 99.5,241.5 Z"/></g>
<g><path style="opacity:0.995" fill="#31302f" d="M 418.5,295.5 C 419.395,315.15 419.728,334.817 419.5,354.5C 418.883,354.389 418.383,354.056 418,353.5C 416.354,361.32 416.188,369.153 417.5,377C 416.313,380.474 414.646,380.974 412.5,378.5C 411.402,381.753 410.736,385.086 410.5,388.5C 415.561,389.484 415.394,390.818 410,392.5C 409.204,388.245 409.371,384.079 410.5,380C 409.975,379.308 409.308,378.808 408.5,378.5C 407.833,383.317 407.166,387.983 406.5,392.5C 405.358,361.029 404.524,329.363 404,297.5C 403.498,294.487 402.998,291.487 402.5,288.5C 402.168,278.478 402.501,268.478 403.5,258.5C 404.191,267.52 405.024,276.52 406,285.5C 407.011,284.663 408.178,284.33 409.5,284.5C 409.5,285.5 409.5,286.5 409.5,287.5C 410.675,287.719 411.675,287.386 412.5,286.5C 411.4,282.558 411.233,278.558 412,274.5C 412.471,276.246 413.138,277.913 414,279.5C 414.333,276.5 414.667,273.5 415,270.5C 415.333,271.167 415.667,271.833 416,272.5C 416.333,271.167 416.667,269.833 417,268.5C 417.17,277.676 417.67,286.676 418.5,295.5 Z"/></g>
<g><path style="opacity:1" fill="#2e2e2d" d="M 489.5,378.5 C 488.674,374.018 488.174,369.351 488,364.5C 487.581,365.672 486.915,366.672 486,367.5C 485.496,348.869 484.663,348.869 483.5,367.5C 482.914,367.709 482.414,368.043 482,368.5C 481.502,365.518 481.335,362.518 481.5,359.5C 480.5,359.5 479.5,359.5 478.5,359.5C 478.299,365.509 477.966,371.509 477.5,377.5C 476.113,335.335 474.946,293.001 474,250.5C 473.436,248.113 472.27,246.113 470.5,244.5C 470.953,243.542 471.619,242.708 472.5,242C 477.087,239.87 481.753,238.037 486.5,236.5C 487.885,283.824 488.885,331.158 489.5,378.5 Z"/></g>
<g><path style="opacity:0.122" fill="#554a44" d="M 126.5,298.5 C 128.193,320.643 128.859,342.976 128.5,365.5C 127.229,343.344 126.562,321.011 126.5,298.5 Z"/></g>
<g><path style="opacity:0.998" fill="#252424" d="M 24.5,348.5 C 24.0471,368.162 24.8804,387.828 27,407.5C 27.1816,404.774 27.6816,402.107 28.5,399.5C 30.1323,404.859 29.4657,409.859 26.5,414.5C 27.6184,417.155 27.6184,419.822 26.5,422.5C 28.5988,421.769 30.5988,421.769 32.5,422.5C 32.1667,423.167 31.8333,423.833 31.5,424.5C 31.8457,425.696 32.3457,425.696 33,424.5C 34.0976,432.464 34.5976,440.464 34.5,448.5C 28.2504,454.646 21.917,454.979 15.5,449.5C 15.7778,440.447 15.4444,431.447 14.5,422.5C 13.5149,405.577 13.1816,388.577 13.5,371.5C 13.3367,369.143 13.5034,366.81 14,364.5C 14.3333,364.833 14.6667,365.167 15,365.5C 15.6377,364.391 16.1377,363.225 16.5,362C 14.563,357.142 15.3963,352.975 19,349.5C 19.2022,347.744 19.7022,346.078 20.5,344.5C 21.3081,344.808 21.9747,345.308 22.5,346C 20.1518,348.829 20.8184,349.662 24.5,348.5 Z"/></g>
<g><path style="opacity:0.998" fill="#30302f" d="M 31.5,259.5 C 31.9031,287.237 32.5697,314.903 33.5,342.5C 32.2412,361.852 32.5745,381.185 34.5,400.5C 35.1,416.467 35.1,432.467 34.5,448.5C 34.5976,440.464 34.0976,432.464 33,424.5C 32.3457,425.696 31.8457,425.696 31.5,424.5C 31.8333,423.833 32.1667,423.167 32.5,422.5C 30.5988,421.769 28.5988,421.769 26.5,422.5C 27.6184,419.822 27.6184,417.155 26.5,414.5C 29.4657,409.859 30.1323,404.859 28.5,399.5C 27.6816,402.107 27.1816,404.774 27,407.5C 24.8804,387.828 24.0471,368.162 24.5,348.5C 23.0217,322.702 22.8551,297.035 24,271.5C 24.3333,271.833 24.6667,272.167 25,272.5C 25.9704,269.556 26.8038,266.556 27.5,263.5C 28.6669,261.921 30.0002,260.588 31.5,259.5 Z"/></g>
<g><path style="opacity:0.204" fill="#74736f" d="M 33.5,342.5 C 33.6049,361.838 33.9382,381.172 34.5,400.5C 32.5745,381.185 32.2412,361.852 33.5,342.5 Z"/></g>
<g><path style="opacity:1" fill="#2e2d2d" d="M 489.5,378.5 C 489.334,382.846 489.501,387.179 490,391.5C 491,392.833 492,394.167 493,395.5C 493.17,405.009 493.67,414.342 494.5,423.5C 492.618,430.142 488.285,432.308 481.5,430C 480.421,429.044 479.255,428.211 478,427.5C 477.5,410.837 477.333,394.17 477.5,377.5C 477.966,371.509 478.299,365.509 478.5,359.5C 479.5,359.5 480.5,359.5 481.5,359.5C 481.335,362.518 481.502,365.518 482,368.5C 482.414,368.043 482.914,367.709 483.5,367.5C 484.663,348.869 485.496,348.869 486,367.5C 486.915,366.672 487.581,365.672 488,364.5C 488.174,369.351 488.674,374.018 489.5,378.5 Z"/></g>
<g><path style="opacity:1" fill="#2d2d2c" d="M 419.5,354.5 C 419.422,364.185 419.755,373.852 420.5,383.5C 421.029,419.194 422.029,454.861 423.5,490.5C 423.389,491.117 423.056,491.617 422.5,492C 419.5,492.667 416.5,492.667 413.5,492C 412.944,491.617 412.611,491.117 412.5,490.5C 412.179,488.952 411.179,488.285 409.5,488.5C 409.358,476.317 408.692,464.317 407.5,452.5C 406.984,432.684 406.65,412.684 406.5,392.5C 407.166,387.983 407.833,383.317 408.5,378.5C 409.308,378.808 409.975,379.308 410.5,380C 409.371,384.079 409.204,388.245 410,392.5C 415.394,390.818 415.561,389.484 410.5,388.5C 410.736,385.086 411.402,381.753 412.5,378.5C 414.646,380.974 416.313,380.474 417.5,377C 416.188,369.153 416.354,361.32 418,353.5C 418.383,354.056 418.883,354.389 419.5,354.5 Z"/></g>
<g><path style="opacity:1" fill="#3b3a3a" d="M 420.5,383.5 C 421.304,386.492 422.804,389.159 425,391.5C 425.171,400.01 425.671,408.343 426.5,416.5C 426.5,421.167 426.5,425.833 426.5,430.5C 426.353,448.845 426.686,467.179 427.5,485.5C 426.136,487.191 424.803,488.858 423.5,490.5C 422.029,454.861 421.029,419.194 420.5,383.5 Z"/></g>
<g><path style="opacity:0.412" fill="#5f5e5c" d="M 14.5,422.5 C 15.4444,431.447 15.7778,440.447 15.5,449.5C 14.7925,441.142 14.1258,432.642 13.5,424C 13.5699,423.235 13.9033,422.735 14.5,422.5 Z"/></g>
<g><path style="opacity:0.451" fill="#777570" d="M 426.5,430.5 C 427.279,446.336 427.946,462.336 428.5,478.5C 428.497,481.025 428.163,483.359 427.5,485.5C 426.686,467.179 426.353,448.845 426.5,430.5 Z"/></g>
<g><path style="opacity:0.161" fill="#676560" d="M 407.5,452.5 C 408.692,464.317 409.358,476.317 409.5,488.5C 411.179,488.285 412.179,488.952 412.5,490.5C 411.292,489.766 409.959,489.433 408.5,489.5C 408.008,477.172 407.675,464.839 407.5,452.5 Z"/></g>
</svg>
