<?xml version="1.0" encoding="UTF-8"?>
<svg version="1.1" xmlns="http://www.w3.org/2000/svg" width="700" height="700">
<path d="M0 0 C0.95997193 -0.00410527 1.91994386 -0.00821054 2.90900585 -0.0124402 C6.14467845 -0.02380199 9.38018138 -0.02086305 12.61587048 -0.01802826 C14.95167127 -0.02319432 17.2874703 -0.0292203 19.62326688 -0.03603506 C25.38187312 -0.05050043 31.14043493 -0.05558106 36.89905802 -0.05669317 C43.79622306 -0.05852076 50.6933538 -0.07185695 57.59050408 -0.08538682 C74.26318318 -0.11751201 90.93585862 -0.12931485 107.6085631 -0.13888432 C115.49803257 -0.14355662 123.38749912 -0.15076206 131.27696632 -0.15827507 C158.28946103 -0.1839492 185.30195411 -0.20538521 212.31446075 -0.21228027 C214.01032196 -0.21272354 215.70618316 -0.21316711 217.40204437 -0.21361098 C219.1019864 -0.21405226 220.80192842 -0.21449322 222.50187045 -0.21493387 C225.91220017 -0.21581897 229.32252989 -0.2167132 232.73285961 -0.21761322 C234.00120572 -0.21794139 234.00120572 -0.21794139 235.29517499 -0.2182762 C262.69899985 -0.22553388 290.10271878 -0.25735928 317.50650309 -0.30399395 C346.48634275 -0.35322037 375.46612189 -0.38062743 404.44600457 -0.38301611 C407.62935779 -0.38335901 410.81271099 -0.38378986 413.99606419 -0.38428497 C415.17179149 -0.38445228 415.17179149 -0.38445228 416.37127086 -0.38462297 C428.96991314 -0.38692156 441.56844651 -0.40894533 454.16705205 -0.43805908 C466.83966408 -0.46683657 479.51213696 -0.47323643 492.18477271 -0.45717913 C499.04649404 -0.44906856 505.90788228 -0.45040611 512.769557 -0.47929382 C519.05752832 -0.50480139 525.34486038 -0.50235142 531.632831 -0.4781124 C533.90146338 -0.4742034 536.17014128 -0.48033257 538.43870977 -0.49780113 C551.88687388 -0.5947566 562.29317219 0.54228329 574.55878735 6.26285553 C577.11338022 7.34515136 579.68017186 8.39546309 582.24628735 9.45035553 C586.19897892 11.13640376 590.02477052 12.79859515 593.55878735 15.26285553 C594.59361963 18.36735238 594.68557735 20.50610231 594.68818188 23.7609024 C594.69284214 25.46826569 594.69284214 25.46826569 594.69759655 27.21012115 C594.69561764 28.454711 594.69363873 29.69930084 594.69159985 30.98160553 C594.69364674 32.93453522 594.69364674 32.93453522 594.69573498 34.92691803 C594.698549 38.4706667 594.69413457 42.01437062 594.68756008 45.5581131 C594.68379685 47.7573019 594.68172459 49.95648646 594.68009472 52.1556778 C594.66243095 72.36107437 594.50370845 92.56067548 594.12128735 112.76285553 C594.10172985 113.86347321 594.08217236 114.96409088 594.06202221 116.09806061 C594.00578228 119.16357035 593.94218382 122.228814 593.8751936 125.29410553 C593.85847103 126.19822174 593.84174847 127.10233795 593.82451916 128.03385162 C593.67472699 134.14691589 593.67472699 134.14691589 592.55878735 135.26285553 C590.03998217 135.42274044 587.54536468 135.52219778 585.0236311 135.57926178 C584.27038052 135.60004288 583.51712994 135.62082397 582.74105358 135.6422348 C580.32622745 135.70780978 577.91128936 135.76665174 575.49628735 135.82535553 C573.86281206 135.86853323 572.22934824 135.91214726 570.59589672 135.9562149 C566.58364271 136.06349915 562.57127571 136.16474374 558.55878735 136.26285553 C558.22878735 137.25285553 557.89878735 138.24285553 557.55878735 139.26285553 C551.64291932 140.11904273 545.91902403 140.40567613 539.94637871 140.39148998 C539.0043761 140.39324302 538.06237348 140.39499606 537.09182534 140.39680222 C533.93550879 140.40145392 530.77923848 140.39899886 527.62292004 140.3965683 C525.33713869 140.39843666 523.05135766 140.40073747 520.76557714 140.40343362 C514.48436982 140.40955442 508.20317581 140.40941771 501.9219662 140.40823925 C495.84394067 140.40805626 489.76592015 140.41254618 483.68789646 140.41685213 C469.7240126 140.42651863 455.76013241 140.42933607 441.7962456 140.42990919 C431.01747482 140.43036871 420.23870549 140.43242689 409.45993519 140.43560982 C406.35757886 140.43650734 403.25522252 140.43739716 400.15286618 140.4382847 C398.99602187 140.43861627 398.99602187 140.43861627 397.81580697 140.43895454 C376.12734911 140.44510744 354.43889174 140.44905521 332.75043297 140.44861126 C331.93291503 140.44859568 331.11539709 140.4485801 330.27310587 140.44856405 C326.12952462 140.44848094 321.98594338 140.4483819 317.84236213 140.44827934 C317.0194188 140.4482594 316.19647548 140.44823945 315.34859448 140.4482189 C313.68440612 140.44817847 312.02021776 140.44813667 310.3560294 140.44809351 C284.44159481 140.44748023 258.52717328 140.45499759 232.61274242 140.46866608 C203.50546497 140.48401226 174.39819611 140.49263327 145.29091436 140.49170285 C142.1901298 140.49162822 139.08934524 140.49157952 135.98856068 140.49154854 C135.22505273 140.49153688 134.46154479 140.49152523 133.67490024 140.49151322 C121.36865618 140.4914824 109.06242343 140.49787791 96.75618274 140.5064808 C84.40121383 140.51493951 72.04626155 140.51596119 59.69129135 140.50937148 C52.99329195 140.50599197 46.29533881 140.50610075 39.59734058 140.51472473 C33.47442805 140.5225276 27.3515898 140.52122267 21.22867922 140.5124406 C19.00546077 140.51089184 16.78223695 140.51277282 14.55902483 140.51830067 C11.5532547 140.52528348 8.54775085 140.52012856 5.54199028 140.5117445 C4.22643747 140.51919677 4.22643747 140.51919677 2.88430783 140.52679959 C-3.09876811 140.49115189 -3.09876811 140.49115189 -6.44121265 138.26285553 C-6.44121265 137.60285553 -6.44121265 136.94285553 -6.44121265 136.26285553 C-7.40011402 136.26809235 -8.35901539 136.27332916 -9.34697437 136.27872467 C-12.89904824 136.29680232 -16.45111803 136.30829768 -20.00322437 136.31778717 C-21.54164278 136.32282105 -23.0800564 136.32964861 -24.61845875 136.33829498 C-26.82761791 136.35040192 -29.03671391 136.35609322 -31.24590015 136.36051178 C-32.2803577 136.36825371 -32.2803577 136.36825371 -33.33571339 136.37615204 C-38.21346924 136.37672724 -38.21346924 136.37672724 -40.44121265 135.26285553 C-40.93226893 132.83847998 -41.2760849 130.52231226 -41.53813648 128.06949615 C-41.62206811 127.3134333 -41.70599974 126.55737045 -41.79247475 125.77839661 C-42.7864435 115.99124377 -42.81777146 106.18503316 -42.8904314 96.35660553 C-42.91175035 94.29495332 -42.93372048 92.23330776 -42.9563036 90.17166901 C-43.00132149 85.88569014 -43.04021561 81.59971648 -43.07426929 77.31363678 C-43.11802888 71.83878038 -43.17480811 66.36415373 -43.23581696 60.88946533 C-43.2821081 56.64631575 -43.32284212 52.40312732 -43.36178493 48.15990448 C-43.38072657 46.14100025 -43.40106708 44.12210861 -43.42287731 42.10323334 C-43.45224818 39.28340967 -43.47443665 36.46361704 -43.49467945 33.6437149 C-43.50448338 32.82381073 -43.5142873 32.00390656 -43.52438831 31.1591568 C-43.58447139 19.88249716 -43.58447139 19.88249716 -42.44121265 15.26285553 C-40.02715015 13.31754303 -40.02715015 13.31754303 -36.81621265 12.13785553 C-35.06437672 11.44562897 -35.06437672 11.44562897 -33.27715015 10.73941803 C-32.6542107 10.50513092 -32.03127125 10.27084381 -31.38945484 10.02945709 C-27.99538851 8.69394728 -24.72946671 7.08720204 -21.44121265 5.51285553 C-19.11464977 4.41314632 -16.78147752 3.3336371 -14.44121265 2.26285553 C-13.74261735 1.90701716 -13.04402205 1.55117879 -12.32425719 1.18455744 C-8.20056069 -0.13377771 -4.30437744 -0.01704748 0 0 Z M11.55878735 25.26285553 C11.55878735 29.55285553 11.55878735 33.84285553 11.55878735 38.26285553 C30.13629348 38.28610502 48.71379544 38.30390128 67.29131317 38.3146677 C75.9191319 38.31980185 84.54694136 38.32678897 93.17475414 38.33829498 C100.70361198 38.34833056 108.2324631 38.35472985 115.76132745 38.35694402 C119.73972925 38.35823622 123.71811186 38.36122579 127.69650745 38.36858559 C143.67284481 38.39704053 159.61417499 38.41650153 175.55878735 37.26285553 C175.55878735 33.30285553 175.55878735 29.34285553 175.55878735 25.26285553 C121.43878735 25.26285553 67.31878735 25.26285553 11.55878735 25.26285553 Z M191.55878735 25.26285553 C190.68919652 28.74121883 190.49471267 30.16902434 190.99628735 33.51285553 C191.18191235 34.75035553 191.36753735 35.98785553 191.55878735 37.26285553 C206.65216687 37.39493325 221.74555994 37.5253775 236.83896923 37.65400696 C243.85105064 37.71380142 250.86312709 37.77409025 257.8751936 37.83560944 C294.32582667 38.17557561 294.32582667 38.17557561 330.77753735 38.32535553 C331.97813793 38.32765167 333.17873852 38.32994781 334.41572094 38.33231354 C343.15682055 38.32422352 351.84734842 37.9975552 360.55878735 37.26285553 C360.55878735 33.30285553 360.55878735 29.34285553 360.55878735 25.26285553 C304.78878735 25.26285553 249.01878735 25.26285553 191.55878735 25.26285553 Z M377.55878735 25.26285553 C377.55878735 29.22285553 377.55878735 33.18285553 377.55878735 37.26285553 C380.19806335 38.58249353 382.16368909 38.38875886 385.12046337 38.38983917 C386.89473957 38.39406891 386.89473957 38.39406891 388.70485973 38.39838409 C390.00968807 38.39635986 391.31451641 38.39433563 392.658885 38.39225006 C394.04206927 38.39360469 395.42525317 38.39538497 396.80843639 38.39756012 C400.57580998 38.40213308 404.34315629 38.40034388 408.11053038 38.39718103 C412.06287777 38.39464966 416.01522282 38.3969978 419.9675703 38.3985672 C426.62070159 38.4003896 433.2738218 38.39798386 439.92695141 38.39322662 C447.58268973 38.38781513 455.23840129 38.38952354 462.89413893 38.39505303 C469.48376143 38.39961973 476.07337594 38.4002165 482.66299951 38.39761436 C486.59041078 38.39606698 490.51780957 38.39581443 494.44521999 38.39915085 C498.153574 38.40208033 501.86189435 38.3999626 505.57024479 38.39425659 C507.55193443 38.39234207 509.53362698 38.39524157 511.51531506 38.39838409 C520.5644585 38.37750837 529.53741475 37.91223069 538.55878735 37.26285553 C538.55878735 33.30285553 538.55878735 29.34285553 538.55878735 25.26285553 C485.42878735 25.26285553 432.29878735 25.26285553 377.55878735 25.26285553 Z " fill="#745740" transform="translate(77.44121265411377,406.73714447021484)"/>
<path d="M0 0 C49.79406649 -0.02258323 99.58813176 -0.04049708 149.38220235 -0.05106533 C155.25423192 -0.05231611 161.12626147 -0.05361043 166.99829102 -0.05493164 C168.75189311 -0.05532511 168.75189311 -0.05532511 170.54092152 -0.05572652 C189.49686986 -0.06008371 208.45281518 -0.06797153 227.40876173 -0.0771528 C246.84384964 -0.08648797 266.27893597 -0.09205532 285.71402603 -0.09408849 C297.71682138 -0.09546401 309.71960819 -0.09981611 321.72240091 -0.10791647 C329.94123056 -0.11318225 338.16005577 -0.11480468 346.37888699 -0.11350138 C351.12826666 -0.11285773 355.87763139 -0.11387846 360.62700844 -0.11920547 C364.96754406 -0.12403867 369.30805455 -0.12433918 373.64859129 -0.12089889 C375.22598812 -0.12047312 376.80338646 -0.12176953 378.38078027 -0.12488318 C380.5107385 -0.12884597 382.64060373 -0.12676416 384.77056026 -0.12304783 C385.95794574 -0.12342755 387.14533121 -0.12380727 388.36869806 -0.1241985 C391 0 391 0 392 1 C392 22.78 392 44.56 392 67 C262.97 67 133.94 67 1 67 C0.67 44.89 0.34 22.78 0 0 Z " fill="#CAAA89" transform="translate(59,465)"/>
<path d="M0 0 C0.95997193 -0.00410527 1.91994386 -0.00821054 2.90900585 -0.0124402 C6.14467845 -0.02380199 9.38018138 -0.02086305 12.61587048 -0.01802826 C14.95167127 -0.02319432 17.2874703 -0.0292203 19.62326688 -0.03603506 C25.38187312 -0.05050043 31.14043493 -0.05558106 36.89905802 -0.05669317 C43.79622306 -0.05852076 50.6933538 -0.07185695 57.59050408 -0.08538682 C74.26318318 -0.11751201 90.93585862 -0.12931485 107.6085631 -0.13888432 C115.49803257 -0.14355662 123.38749912 -0.15076206 131.27696632 -0.15827507 C158.28946103 -0.1839492 185.30195411 -0.20538521 212.31446075 -0.21228027 C214.01032196 -0.21272354 215.70618316 -0.21316711 217.40204437 -0.21361098 C219.1019864 -0.21405226 220.80192842 -0.21449322 222.50187045 -0.21493387 C225.91220017 -0.21581897 229.32252989 -0.2167132 232.73285961 -0.21761322 C234.00120572 -0.21794139 234.00120572 -0.21794139 235.29517499 -0.2182762 C262.69899985 -0.22553388 290.10271878 -0.25735928 317.50650309 -0.30399395 C346.48634275 -0.35322037 375.46612189 -0.38062743 404.44600457 -0.38301611 C407.62935779 -0.38335901 410.81271099 -0.38378986 413.99606419 -0.38428497 C415.17179149 -0.38445228 415.17179149 -0.38445228 416.37127086 -0.38462297 C428.96991314 -0.38692156 441.56844651 -0.40894533 454.16705205 -0.43805908 C466.83966408 -0.46683657 479.51213696 -0.47323643 492.18477271 -0.45717913 C499.04649404 -0.44906856 505.90788228 -0.45040611 512.769557 -0.47929382 C519.05752832 -0.50480139 525.34486038 -0.50235142 531.632831 -0.4781124 C533.90146338 -0.4742034 536.17014128 -0.48033257 538.43870977 -0.49780113 C551.88687388 -0.5947566 562.29317219 0.54228329 574.55878735 6.26285553 C577.11338022 7.34515136 579.68017186 8.39546309 582.24628735 9.45035553 C586.19897892 11.13640376 590.02477052 12.79859515 593.55878735 15.26285553 C594.59361963 18.36735238 594.68557735 20.50610231 594.68818188 23.7609024 C594.69284214 25.46826569 594.69284214 25.46826569 594.69759655 27.21012115 C594.69561764 28.454711 594.69363873 29.69930084 594.69159985 30.98160553 C594.69364674 32.93453522 594.69364674 32.93453522 594.69573498 34.92691803 C594.698549 38.4706667 594.69413457 42.01437062 594.68756008 45.5581131 C594.68379685 47.7573019 594.68172459 49.95648646 594.68009472 52.1556778 C594.66243095 72.36107437 594.50370845 92.56067548 594.12128735 112.76285553 C594.10172985 113.86347321 594.08217236 114.96409088 594.06202221 116.09806061 C594.00578228 119.16357035 593.94218382 122.228814 593.8751936 125.29410553 C593.85847103 126.19822174 593.84174847 127.10233795 593.82451916 128.03385162 C593.67472699 134.14691589 593.67472699 134.14691589 592.55878735 135.26285553 C589.96725628 135.42281719 587.39926715 135.52224249 584.8048811 135.57926178 C583.64171116 135.61043343 583.64171116 135.61043343 582.45504284 135.6422348 C579.96888427 135.70781355 577.4826169 135.76665352 574.99628735 135.82535553 C573.3146353 135.86853286 571.63299441 135.91214689 569.95136547 135.9562149 C565.82061864 136.06350332 561.68976199 136.16474685 557.55878735 136.26285553 C557.55878735 135.60285553 557.55878735 134.94285553 557.55878735 134.26285553 C568.77878735 134.26285553 579.99878735 134.26285553 591.55878735 134.26285553 C591.22878735 119.74285553 590.89878735 105.22285553 590.55878735 90.26285553 C590.39378735 95.06848053 590.22878735 99.87410553 590.05878735 104.82535553 C590.00658031 106.32783844 589.95437328 107.83032135 589.90058422 109.37833405 C589.85997875 110.5790152 589.81937328 111.77969635 589.77753735 113.01676178 C589.71469555 114.84702911 589.71469555 114.84702911 589.65058422 116.71427155 C589.5595789 120.23225666 589.54299829 123.74386954 589.55878735 127.26285553 C584.17362254 129.05791047 578.23524947 128.26285553 572.55878735 128.26285553 C572.55878735 93.28285553 572.55878735 58.30285553 572.55878735 22.26285553 C561.99878735 22.26285553 551.43878735 22.26285553 540.55878735 22.26285553 C540.55878735 28.20285553 540.55878735 34.14285553 540.55878735 40.26285553 C485.77878735 40.26285553 430.99878735 40.26285553 374.55878735 40.26285553 C374.55878735 34.32285553 374.55878735 28.38285553 374.55878735 22.26285553 C368.61878735 22.75785553 368.61878735 22.75785553 362.55878735 23.26285553 C362.22878735 28.87285553 361.89878735 34.48285553 361.55878735 40.26285553 C304.79878735 40.26285553 248.03878735 40.26285553 189.55878735 40.26285553 C189.22878735 34.65285553 188.89878735 29.04285553 188.55878735 23.26285553 C184.92878735 23.26285553 181.29878735 23.26285553 177.55878735 23.26285553 C177.22878735 28.87285553 176.89878735 34.48285553 176.55878735 40.26285553 C121.44878735 40.26285553 66.33878735 40.26285553 9.55878735 40.26285553 C9.22878735 34.65285553 8.89878735 29.04285553 8.55878735 23.26285553 C-1.01121265 22.93285553 -10.58121265 22.60285553 -20.44121265 22.26285553 C-20.44121265 57.57285553 -20.44121265 92.88285553 -20.44121265 129.26285553 C-16.15121265 129.26285553 -11.86121265 129.26285553 -7.44121265 129.26285553 C-7.44121265 130.25285553 -7.44121265 131.24285553 -7.44121265 132.26285553 C-6.45121265 132.92285553 -5.46121265 133.58285553 -4.44121265 134.26285553 C-4.44121265 135.58285553 -4.44121265 136.90285553 -4.44121265 138.26285553 C-3.27395684 138.26209609 -2.10670103 138.26133665 -0.90407383 138.26055419 C50.51462479 138.22723131 101.93332432 138.19637368 153.35203075 138.17816925 C154.51887927 138.17775508 154.51887927 138.17775508 155.70930048 138.17733254 C172.61329014 138.17134736 189.51727993 138.16580691 206.42126989 138.16072487 C214.71043589 138.1582301 222.99960186 138.155637 231.28876781 138.15299225 C232.11365946 138.15273073 232.93855111 138.15246921 233.78843948 138.15219977 C260.54746324 138.14367015 287.30647857 138.12864238 314.06549723 138.11026109 C341.55342585 138.09141329 369.04134981 138.07908869 396.52928478 138.07502555 C400.40771156 138.0744492 404.28613833 138.07379793 408.16456509 138.07310104 C408.92792931 138.0729662 409.69129353 138.07283135 410.47778999 138.07269242 C422.78839241 138.0703248 435.09898045 138.06103743 447.409577 138.04919146 C459.77222409 138.03744203 472.13485686 138.03291327 484.49750935 138.03585277 C491.20140666 138.03724431 497.90525647 138.03510182 504.60914898 138.02444458 C510.73664332 138.01477421 516.86406644 138.0141798 522.99156393 138.02105774 C525.21769658 138.02190889 527.44383353 138.0193194 529.66995762 138.01308917 C532.67736203 138.00515637 535.68450345 138.00933162 538.69190311 138.01675987 C539.57224777 138.01150585 540.45259243 138.00625182 541.35961419 138.00083858 C547.33049575 138.03456393 547.33049575 138.03456393 549.55878735 140.26285553 C496.87982002 140.29707864 444.20085173 140.32892164 391.52187634 140.34754181 C390.74270565 140.34781792 389.96353496 140.34809404 389.16075303 140.34837852 C372.22889811 140.35436378 355.29704308 140.35990422 338.36518786 140.36498619 C330.06228936 140.36748095 321.75939088 140.37007404 313.45649242 140.37271881 C312.21710883 140.37311109 312.21710883 140.37311109 310.95268718 140.37351129 C284.15215139 140.38204004 257.35162402 140.39706717 230.55109334 140.41544997 C203.01921905 140.43430019 175.48734943 140.44662294 147.9554688 140.45068551 C144.07033547 140.45126185 140.18520216 140.45191313 136.30006886 140.45261002 C135.53538891 140.45274486 134.77070896 140.45287971 133.9828569 140.45301864 C121.65385531 140.45538574 109.3248681 140.46467171 96.99587238 140.4765196 C84.61304426 140.48827249 72.23023044 140.49279692 59.84739693 140.48985828 C53.13324954 140.48846729 46.419147 140.49060382 39.7050066 140.50126648 C33.56697424 140.51094356 27.42901297 140.5115268 21.29097746 140.50465332 C19.06213524 140.50380283 16.83328873 140.50638668 14.60445508 140.51262189 C11.59099353 140.52056671 8.5777937 140.51637183 5.56433678 140.50895119 C4.68501479 140.51420521 3.8056928 140.51945924 2.89972469 140.52487248 C-3.09877526 140.49114713 -3.09877526 140.49114713 -6.44121265 138.26285553 C-6.44121265 137.60285553 -6.44121265 136.94285553 -6.44121265 136.26285553 C-7.40011402 136.26809235 -8.35901539 136.27332916 -9.34697437 136.27872467 C-12.89904824 136.29680232 -16.45111803 136.30829768 -20.00322437 136.31778717 C-21.54164278 136.32282105 -23.0800564 136.32964861 -24.61845875 136.33829498 C-26.82761791 136.35040192 -29.03671391 136.35609322 -31.24590015 136.36051178 C-32.2803577 136.36825371 -32.2803577 136.36825371 -33.33571339 136.37615204 C-38.21346924 136.37672724 -38.21346924 136.37672724 -40.44121265 135.26285553 C-40.93226893 132.83847998 -41.2760849 130.52231226 -41.53813648 128.06949615 C-41.62206811 127.3134333 -41.70599974 126.55737045 -41.79247475 125.77839661 C-42.7864435 115.99124377 -42.81777146 106.18503316 -42.8904314 96.35660553 C-42.91175035 94.29495332 -42.93372048 92.23330776 -42.9563036 90.17166901 C-43.00132149 85.88569014 -43.04021561 81.59971648 -43.07426929 77.31363678 C-43.11802888 71.83878038 -43.17480811 66.36415373 -43.23581696 60.88946533 C-43.2821081 56.64631575 -43.32284212 52.40312732 -43.36178493 48.15990448 C-43.38072657 46.14100025 -43.40106708 44.12210861 -43.42287731 42.10323334 C-43.45224818 39.28340967 -43.47443665 36.46361704 -43.49467945 33.6437149 C-43.50448338 32.82381073 -43.5142873 32.00390656 -43.52438831 31.1591568 C-43.58447139 19.88249716 -43.58447139 19.88249716 -42.44121265 15.26285553 C-40.02715015 13.31754303 -40.02715015 13.31754303 -36.81621265 12.13785553 C-35.06437672 11.44562897 -35.06437672 11.44562897 -33.27715015 10.73941803 C-32.6542107 10.50513092 -32.03127125 10.27084381 -31.38945484 10.02945709 C-27.99538851 8.69394728 -24.72946671 7.08720204 -21.44121265 5.51285553 C-19.11464977 4.41314632 -16.78147752 3.3336371 -14.44121265 2.26285553 C-13.74261735 1.90701716 -13.04402205 1.55117879 -12.32425719 1.18455744 C-8.20056069 -0.13377771 -4.30437744 -0.01704748 0 0 Z M11.55878735 25.26285553 C11.55878735 29.55285553 11.55878735 33.84285553 11.55878735 38.26285553 C30.13629348 38.28610502 48.71379544 38.30390128 67.29131317 38.3146677 C75.9191319 38.31980185 84.54694136 38.32678897 93.17475414 38.33829498 C100.70361198 38.34833056 108.2324631 38.35472985 115.76132745 38.35694402 C119.73972925 38.35823622 123.71811186 38.36122579 127.69650745 38.36858559 C143.67284481 38.39704053 159.61417499 38.41650153 175.55878735 37.26285553 C175.55878735 33.30285553 175.55878735 29.34285553 175.55878735 25.26285553 C121.43878735 25.26285553 67.31878735 25.26285553 11.55878735 25.26285553 Z M191.55878735 25.26285553 C190.68919652 28.74121883 190.49471267 30.16902434 190.99628735 33.51285553 C191.18191235 34.75035553 191.36753735 35.98785553 191.55878735 37.26285553 C206.65216687 37.39493325 221.74555994 37.5253775 236.83896923 37.65400696 C243.85105064 37.71380142 250.86312709 37.77409025 257.8751936 37.83560944 C294.32582667 38.17557561 294.32582667 38.17557561 330.77753735 38.32535553 C331.97813793 38.32765167 333.17873852 38.32994781 334.41572094 38.33231354 C343.15682055 38.32422352 351.84734842 37.9975552 360.55878735 37.26285553 C360.55878735 33.30285553 360.55878735 29.34285553 360.55878735 25.26285553 C304.78878735 25.26285553 249.01878735 25.26285553 191.55878735 25.26285553 Z M377.55878735 25.26285553 C377.55878735 29.22285553 377.55878735 33.18285553 377.55878735 37.26285553 C380.19806335 38.58249353 382.16368909 38.38875886 385.12046337 38.38983917 C386.89473957 38.39406891 386.89473957 38.39406891 388.70485973 38.39838409 C390.00968807 38.39635986 391.31451641 38.39433563 392.658885 38.39225006 C394.04206927 38.39360469 395.42525317 38.39538497 396.80843639 38.39756012 C400.57580998 38.40213308 404.34315629 38.40034388 408.11053038 38.39718103 C412.06287777 38.39464966 416.01522282 38.3969978 419.9675703 38.3985672 C426.62070159 38.4003896 433.2738218 38.39798386 439.92695141 38.39322662 C447.58268973 38.38781513 455.23840129 38.38952354 462.89413893 38.39505303 C469.48376143 38.39961973 476.07337594 38.4002165 482.66299951 38.39761436 C486.59041078 38.39606698 490.51780957 38.39581443 494.44521999 38.39915085 C498.153574 38.40208033 501.86189435 38.3999626 505.57024479 38.39425659 C507.55193443 38.39234207 509.53362698 38.39524157 511.51531506 38.39838409 C520.5644585 38.37750837 529.53741475 37.91223069 538.55878735 37.26285553 C538.55878735 33.30285553 538.55878735 29.34285553 538.55878735 25.26285553 C485.42878735 25.26285553 432.29878735 25.26285553 377.55878735 25.26285553 Z " fill="#C7A582" transform="translate(77.44121265411377,406.73714447021484)"/>
<path d="M0 0 C64.35 0 128.7 0 195 0 C195 22.11 195 44.22 195 67 C130.65 67 66.3 67 0 67 C0 44.89 0 22.78 0 0 Z " fill="#CEB194" transform="translate(452,465)"/>
<path d="M0 0 C64.35 0 128.7 0 195 0 C195 21.78 195 43.56 195 66 C130.65 66 66.3 66 0 66 C0 44.22 0 22.44 0 0 Z " fill="#CBAE90" transform="translate(256,466)"/>
<path d="M0 0 C0.95997193 -0.00410527 1.91994386 -0.00821054 2.90900585 -0.0124402 C6.14467845 -0.02380199 9.38018138 -0.02086305 12.61587048 -0.01802826 C14.95167127 -0.02319432 17.2874703 -0.0292203 19.62326688 -0.03603506 C25.38187312 -0.05050043 31.14043493 -0.05558106 36.89905802 -0.05669317 C43.79622306 -0.05852076 50.6933538 -0.07185695 57.59050408 -0.08538682 C74.26318318 -0.11751201 90.93585862 -0.12931485 107.6085631 -0.13888432 C115.49803257 -0.14355662 123.38749912 -0.15076206 131.27696632 -0.15827507 C158.28946103 -0.1839492 185.30195411 -0.20538521 212.31446075 -0.21228027 C214.01032196 -0.21272354 215.70618316 -0.21316711 217.40204437 -0.21361098 C219.1019864 -0.21405226 220.80192842 -0.21449322 222.50187045 -0.21493387 C225.91220017 -0.21581897 229.32252989 -0.2167132 232.73285961 -0.21761322 C234.00120572 -0.21794139 234.00120572 -0.21794139 235.29517499 -0.2182762 C262.69899985 -0.22553388 290.10271878 -0.25735928 317.50650309 -0.30399395 C346.48634275 -0.35322037 375.46612189 -0.38062743 404.44600457 -0.38301611 C407.62935779 -0.38335901 410.81271099 -0.38378986 413.99606419 -0.38428497 C415.17179149 -0.38445228 415.17179149 -0.38445228 416.37127086 -0.38462297 C428.96991314 -0.38692156 441.56844651 -0.40894533 454.16705205 -0.43805908 C466.83966408 -0.46683657 479.51213696 -0.47323643 492.18477271 -0.45717913 C499.04649404 -0.44906856 505.90788228 -0.45040611 512.769557 -0.47929382 C519.05752832 -0.50480139 525.34486038 -0.50235142 531.632831 -0.4781124 C533.90146338 -0.4742034 536.17014128 -0.48033257 538.43870977 -0.49780113 C551.80032984 -0.59413265 562.4106486 0.56466044 574.55878735 6.26285553 C576.08527693 6.88084263 577.6145468 7.49209498 579.1486311 8.09098053 C580.80572094 8.79480865 580.80572094 8.79480865 582.49628735 9.51285553 C583.63968578 9.99238678 584.78308422 10.47191803 585.9611311 10.96598053 C588.55878735 12.26285553 588.55878735 12.26285553 589.55878735 14.26285553 C588.87505834 14.26193374 588.19132933 14.26101194 587.48688126 14.26006222 C570.6318852 14.23770463 553.77689401 14.22129985 536.92188644 14.21104336 C528.77000478 14.20594803 520.61813327 14.19901199 512.46625805 14.18741608 C479.06150642 14.14082119 445.6796108 14.09921415 412.28751659 15.15982819 C390.31601052 15.76691595 390.31601052 15.76691595 379.53583813 14.45426178 C377.28045234 14.2359088 375.23137235 14.33461435 372.99628735 14.70035553 C371.86191235 14.88598053 370.72753735 15.07160553 369.55878735 15.26285553 C369.55878735 14.60285553 369.55878735 13.94285553 369.55878735 13.26285553 C368.95940003 13.33354185 368.36001272 13.40422817 367.74246216 13.4770565 C361.47218338 14.16701806 355.30555938 14.40590368 349.00092602 14.39225006 C347.97358191 14.39398539 346.94623781 14.39572071 345.88776207 14.39750862 C342.41741063 14.40191006 338.9471083 14.3989005 335.4767561 14.39566803 C332.91040058 14.39660593 330.34404516 14.39785795 327.77768993 14.39939117 C321.37414388 14.4021138 314.97061386 14.39849588 308.56707025 14.39291954 C303.24768806 14.38845768 297.92831165 14.38703753 292.60892773 14.38718414 C247.38202395 14.38673261 202.15622074 14.22082794 156.92993607 13.9969648 C149.94317182 13.96245486 142.95640184 13.92917765 135.96963128 13.8959737 C130.3647695 13.86930433 124.75990889 13.84239247 119.15504842 13.81545094 C117.75177102 13.80870729 116.3484936 13.80197099 114.94521613 13.79524204 C98.08639373 13.71435899 81.22763052 13.62742943 64.3689107 13.52730846 C52.92810378 13.45942143 41.48728213 13.39846026 30.04640269 13.34391212 C23.74758317 13.31354574 17.44883173 13.27951626 11.1500845 13.23655701 C5.31903865 13.19679136 -0.5119798 13.16626793 -6.34311426 13.14303374 C-8.46924386 13.13286851 -10.59536009 13.11921866 -12.72144282 13.10182214 C-15.6124274 13.07864752 -18.50320003 13.06791333 -21.39426136 13.06031036 C-22.23114109 13.05059369 -23.06802082 13.04087702 -23.93026054 13.03086591 C-28.53655988 13.0338265 -32.07336709 13.63289953 -36.44121265 15.26285553 C-38.81621265 14.88785553 -38.81621265 14.88785553 -40.44121265 14.26285553 C-39.82117359 13.98312897 -39.20113453 13.7034024 -38.5623064 13.41519928 C-32.23682986 10.55170117 -25.93700515 7.63802068 -19.65776539 4.67472076 C-17.92372046 3.8604515 -16.18265409 3.06118376 -14.44121265 2.26285553 C-13.74116716 1.90629206 -13.04112166 1.54972859 -12.31986266 1.18236017 C-8.19826803 -0.13416854 -4.30187551 -0.01703758 0 0 Z " fill="#D4B99E" transform="translate(77.44121265411377,406.73714447021484)"/>
<path d="M0 0 C0.33 0 0.66 0 1 0 C1 19.8 1 39.6 1 60 C-10.22 60 -21.44 60 -33 60 C-33 61.65 -33 63.3 -33 65 C-39.625 66.125 -39.625 66.125 -43 65 C-46.00424857 64.89969762 -48.9854313 64.85783412 -51.98993206 64.8613348 C-53.39309777 64.85707147 -53.39309777 64.85707147 -54.82461026 64.85272202 C-57.98868831 64.84433781 -61.15272991 64.8431039 -64.31681824 64.84178162 C-66.59629809 64.8372188 -68.87577711 64.8322192 -71.15525514 64.82681805 C-77.44214399 64.81319559 -83.72902742 64.80580673 -90.0159272 64.79939139 C-96.09227355 64.79222471 -102.16860915 64.7803996 -108.24494811 64.76867336 C-120.67840701 64.74484093 -133.11186906 64.72564597 -145.54533958 64.70907402 C-157.85993062 64.69264544 -170.17451576 64.67416793 -182.4890995 64.65294075 C-183.63668531 64.65096434 -183.63668531 64.65096434 -184.80745466 64.648948 C-188.69263263 64.64224612 -192.57781053 64.6355075 -196.46298841 64.62875474 C-223.99737393 64.58096382 -251.53176495 64.53778681 -279.06616211 64.49731445 C-305.81909587 64.45798022 -332.57202507 64.41656149 -359.32495117 64.37231445 C-360.5614376 64.37027066 -360.5614376 64.37027066 -361.82290355 64.36818558 C-370.10094151 64.35450046 -378.3789794 64.3407729 -386.65701725 64.32701423 C-403.52104434 64.29898604 -420.38507189 64.27124118 -437.24909973 64.2436676 C-438.02451775 64.2423994 -438.79993576 64.2411312 -439.59885129 64.23982458 C-491.3992268 64.15513736 -543.19961267 64.07707621 -595 64 C-595.103125 63.38125 -595.20625 62.7625 -595.3125 62.125 C-595.87525373 59.63473516 -595.87525373 59.63473516 -599 58 C-599 57.34 -599 56.68 -599 56 C-602.96 55.67 -606.92 55.34 -611 55 C-611 54.67 -611 54.34 -611 54 C-409.7 53.67 -208.4 53.34 -1 53 C-1.33 50.69 -1.66 48.38 -2 46 C-2.02542402 43.77209632 -1.995227 41.54297615 -1.9140625 39.31640625 C-1.87079834 38.06553223 -1.82753418 36.8146582 -1.78295898 35.52587891 C-1.73083252 34.21796387 -1.67870605 32.91004883 -1.625 31.5625 C-1.57529642 30.21273909 -1.52589964 28.86296685 -1.47680664 27.51318359 C-1.13369676 18.33192155 -0.68789895 9.16222852 0 0 Z " fill="#A58363" transform="translate(668,481)"/>
<path d="M0 0 C9.9 0 19.8 0 30 0 C30 34.32 30 68.64 30 104 C-164.7 104 -359.4 104 -560 104 C-560 103.67 -560 103.34 -560 103 C-366.29 102.67 -172.58 102.34 27 102 C27.33 79.56 27.66 57.12 28 34 C21.07 33.67 14.14 33.34 7 33 C7 32.34 7 31.68 7 31 C3.64557336 31.1401998 0.29153225 31.28818428 -3.0625 31.4375 C-4.00544922 31.47681641 -4.94839844 31.51613281 -5.91992188 31.55664062 C-9.94911208 31.7391475 -13.86082953 31.97955449 -17.85546875 32.56640625 C-20.86252463 32.98104377 -23.25898433 32.91385123 -26.25 32.5 C-29.46730047 32.06036888 -30.84924082 31.94974694 -34 33 C-36.48531609 33.27991615 -38.94527305 33.50828905 -41.4375 33.6875 C-42.10587891 33.74744141 -42.77425781 33.80738281 -43.46289062 33.86914062 C-47.33201679 34.14906749 -49.65848516 33.91666976 -53 32 C-55.18989856 31.68647047 -55.18989856 31.68647047 -57.4375 31.75 C-58.17871094 31.74484375 -58.91992188 31.7396875 -59.68359375 31.734375 C-62.03566615 31.87755873 -62.03566615 31.87755873 -64.10913086 33.00219727 C-67.93890168 34.32406817 -71.56969675 34.26687788 -75.5703125 34.23046875 C-76.40601776 34.23001053 -77.24172302 34.22955231 -78.10275269 34.2290802 C-79.87629613 34.22606267 -81.64983704 34.2181913 -83.42333984 34.20581055 C-86.06748453 34.18788981 -88.71127047 34.18529897 -91.35546875 34.18554688 C-100.94095503 34.16413218 -110.47787801 33.9186508 -120.04251099 33.25834656 C-123.36612811 33.04512135 -125.80677908 32.93559303 -129 34 C-135.69230769 33.30769231 -135.69230769 33.30769231 -137 32 C-140.07605342 31.86017939 -142.74133154 31.94121171 -145.75 32.625 C-146.86375 32.810625 -146.86375 32.810625 -148 33 C-148.66 32.34 -149.32 31.68 -150 31 C-150 30.01 -150 29.02 -150 28 C-150.66 28 -151.32 28 -152 28 C-152.33 28.99 -152.66 29.98 -153 31 C-154.41655793 31.0272415 -155.83327045 31.04650467 -157.25 31.0625 C-158.03890625 31.07410156 -158.8278125 31.08570313 -159.640625 31.09765625 C-162 31 -162 31 -166 30 C-166 27.03 -166 24.06 -166 21 C-165.00778033 21.00138269 -165.00778033 21.00138269 -163.99551582 21.00279331 C-147.77167167 21.02504402 -131.54783246 21.04150564 -115.32397652 21.05181217 C-107.47769746 21.05693099 -99.63142869 21.06388762 -91.78515625 21.07543945 C-84.93266538 21.08552321 -78.08018198 21.09188535 -71.2276839 21.09408849 C-67.61179291 21.09537281 -63.99592325 21.09830905 -60.38003922 21.10573006 C-46.2980249 21.13333078 -32.22383359 21.07713478 -18.14794922 20.61889648 C-17.04611361 20.58842004 -15.94427799 20.55794359 -14.80905342 20.52654362 C-13.80640387 20.48829188 -12.80375431 20.45004015 -11.77072144 20.41062927 C-10.89327208 20.37982993 -10.01582272 20.34903059 -9.11178398 20.31729794 C-6.78549781 20.18162684 -6.78549781 20.18162684 -5 18 C-3.68 18 -2.36 18 -1 18 C-0.67 12.06 -0.34 6.12 0 0 Z " fill="#503A2A" transform="translate(619,430)"/>
<path d="M0 0 C9.57 0 19.14 0 29 0 C29.020625 3.09375 29.04125 6.1875 29.0625 9.375 C29.071604 10.34872559 29.08070801 11.32245117 29.09008789 12.32568359 C29.09258545 13.09219238 29.09508301 13.85870117 29.09765625 14.6484375 C29.10551147 15.82672119 29.10551147 15.82672119 29.11352539 17.02880859 C29 19 29 19 28 21 C28.84827173 20.83669724 29.69654346 20.67339449 30.5705204 20.50514317 C34.06931626 19.9897901 37.33665261 19.89304641 40.87167358 19.91770935 C41.53833562 19.92093848 42.20499765 19.92416761 42.89186156 19.92749459 C45.11205008 19.93949966 47.33211068 19.95888645 49.55224609 19.97827148 C51.14916715 19.98842171 52.74609117 19.99811457 54.34301758 20.00738525 C58.66901153 20.03379176 62.99493614 20.06658627 67.3208766 20.10053515 C71.84521039 20.13495212 76.36958123 20.16348387 80.89395142 20.19264221 C89.45736476 20.24872416 98.02073173 20.31009228 106.58409464 20.37336355 C116.33492798 20.44515089 126.08579839 20.51103917 135.83667636 20.57643402 C155.89116574 20.71106271 175.94559706 20.85309275 196 21 C196 24.3 196 27.6 196 31 C195.01 31 194.02 31 193 31 C192.67 31.99 192.34 32.98 192 34 C190.80458493 33.99861731 190.80458493 33.99861731 189.58502007 33.99720669 C170.04672807 33.97496458 150.50843866 33.95849843 130.97013664 33.94818783 C121.52093929 33.9430671 112.07175046 33.93610664 102.62255859 33.92456055 C94.37101488 33.91448283 86.11947736 33.90811602 77.86792767 33.90591151 C73.51302709 33.90462622 69.15814418 33.90168325 64.80324936 33.89426994 C48.11359965 33.8670341 31.43692187 33.91156806 14.75439453 34.44360352 C13.48585066 34.48245887 12.21730679 34.52131422 10.91032219 34.56134701 C9.18476443 34.62355859 9.18476443 34.62355859 7.42434692 34.68702698 C5.91692271 34.74108121 5.91692271 34.74108121 4.37904549 34.79622746 C1.9846273 34.85383171 1.9846273 34.85383171 0 36 C0 24.12 0 12.24 0 0 Z " fill="#503A29" transform="translate(58,430)"/>
<path d="M0 0 C1.19882812 -0.00515625 2.39765625 -0.0103125 3.6328125 -0.015625 C6.65870687 0.2322796 8.33825761 0.65980328 10.875 2.25 C10.545 3.24 10.215 4.23 9.875 5.25 C10.81859375 5.15460938 11.7621875 5.05921875 12.734375 4.9609375 C21.15478005 4.23387441 28.55359149 4.37497127 36.875 6.25 C36.545 6.91 36.215 7.57 35.875 8.25 C26.305 7.92 16.735 7.59 6.875 7.25 C6.875 42.56 6.875 77.87 6.875 114.25 C11.165 114.25 15.455 114.25 19.875 114.25 C19.875 115.24 19.875 116.23 19.875 117.25 C20.865 117.91 21.855 118.57 22.875 119.25 C22.875 120.57 22.875 121.89 22.875 123.25 C24.04225581 123.24924056 25.20951162 123.24848112 26.41213882 123.24769866 C77.83083745 123.21437578 129.24953698 123.18351815 180.66824341 123.16531372 C181.83509192 123.16489955 181.83509192 123.16489955 183.02551313 123.16447701 C199.9295028 123.15849183 216.83349258 123.15295138 233.73748254 123.14786934 C242.02664854 123.14537457 250.31581451 123.14278147 258.60498047 123.14013672 C259.42987212 123.1398752 260.25476377 123.13961368 261.10465213 123.13934424 C287.86367589 123.13081462 314.62269123 123.11578685 341.38170988 123.09740556 C368.8696385 123.07855776 396.35756246 123.06623316 423.84549744 123.06217002 C427.72392422 123.06159367 431.60235098 123.0609424 435.48077774 123.06024551 C436.24414196 123.06011067 437.00750618 123.05997582 437.79400265 123.05983689 C450.10460507 123.05746927 462.41519311 123.0481819 474.72578965 123.03633593 C487.08843674 123.0245865 499.45106951 123.02005774 511.813722 123.02299725 C518.51761931 123.02438878 525.22146912 123.02224629 531.92536163 123.01158905 C538.05285597 123.00191868 544.1802791 123.00132427 550.30777659 123.00820221 C552.53390924 123.00905336 554.76004618 123.00646387 556.98617028 123.00023364 C559.99357469 122.99230084 563.0007161 122.99647609 566.00811577 123.00390434 C567.32863275 122.9960233 567.32863275 122.9960233 568.67582685 122.98798305 C574.6467084 123.0217084 574.6467084 123.0217084 576.875 125.25 C524.19603268 125.28422312 471.51706439 125.31606611 418.83808899 125.33468628 C418.0589183 125.33496239 417.27974761 125.33523851 416.47696569 125.33552299 C399.54511077 125.34150825 382.61325573 125.34704869 365.68140052 125.35213066 C357.37850201 125.35462542 349.07560354 125.35721851 340.77270508 125.35986328 C339.53332148 125.36025556 339.53332148 125.36025556 338.26889983 125.36065576 C311.46836405 125.36918451 284.66783668 125.38421164 257.86730599 125.40259444 C230.33543171 125.42144466 202.80356208 125.43376741 175.27168145 125.43782998 C171.38654813 125.43840632 167.50141482 125.4390576 163.61628151 125.43975449 C162.85160156 125.43988933 162.08692162 125.44002418 161.29906955 125.44016311 C148.97006797 125.44253021 136.64108075 125.45181618 124.31208504 125.46366407 C111.92925692 125.47541696 99.54644309 125.47994139 87.16360959 125.47700275 C80.44946219 125.47561176 73.73535966 125.47774829 67.02121925 125.48841095 C60.8831869 125.49808803 54.74522562 125.49867127 48.60719011 125.49179779 C46.3783479 125.4909473 44.14950138 125.49353115 41.92066773 125.49976636 C38.90720618 125.50771118 35.89400635 125.5035163 32.88054943 125.49609566 C32.00122744 125.50134968 31.12190545 125.50660371 30.21593735 125.51201695 C24.21743739 125.4782916 24.21743739 125.4782916 20.875 123.25 C20.875 122.59 20.875 121.93 20.875 121.25 C19.91086182 121.25523682 18.94672363 121.26047363 17.95336914 121.26586914 C14.38827436 121.28392118 10.82318364 121.29543274 7.25805664 121.30493164 C5.71280234 121.3099714 4.16755284 121.3168032 2.62231445 121.32543945 C0.40574971 121.33752076 -1.81075218 121.34323173 -4.02734375 121.34765625 C-5.06954323 121.35539818 -5.06954323 121.35539818 -6.13279724 121.36329651 C-7.7972933 121.36349277 -9.46165499 121.31189129 -11.125 121.25 C-12.125 120.25 -12.125 120.25 -12.24525452 117.73802185 C-12.24303391 116.62105423 -12.24081329 115.50408661 -12.23852539 114.35327148 C-12.23844986 113.09203964 -12.23837433 111.8308078 -12.23829651 110.53135681 C-12.2331891 109.14460206 -12.22797309 107.75784771 -12.22265625 106.37109375 C-12.22079201 104.96004791 -12.21936814 103.54900143 -12.21836853 102.13795471 C-12.21454379 98.41759465 -12.2047139 94.6972734 -12.19366455 90.97692871 C-12.18344948 87.18319219 -12.17887071 83.38944942 -12.17382812 79.59570312 C-12.16309158 72.14711769 -12.1460157 64.69856428 -12.125 57.25 C-10.64 56.755 -10.64 56.755 -9.125 56.25 C-9.125 51.3 -9.125 46.35 -9.125 41.25 C-10.115 40.92 -11.105 40.59 -12.125 40.25 C-11.65126953 39.17878906 -11.65126953 39.17878906 -11.16796875 38.0859375 C-7.73217592 28.74366936 -9.26257769 17.96220196 -10.125 8.25 C-11.115 7.92 -12.105 7.59 -13.125 7.25 C-13.125 5.6 -13.125 3.95 -13.125 2.25 C-8.60825636 0.50960337 -4.83208948 -0.02087296 0 0 Z " fill="#B79B80" transform="translate(50.125,421.75)"/>
<path d="M0 0 C1.65 0 3.3 0 5 0 C5.33 5.94 5.66 11.88 6 18 C63.09 18 120.18 18 179 18 C179 12.06 179 6.12 179 0 C181.31 0 183.62 0 186 0 C186 9.57 186 19.14 186 29 C181.55007426 30.77997029 179.56288469 31.21222719 175 31 C174.67 30.01 174.34 29.02 174 28 C170.53058454 28.45822468 167.32604951 28.89131683 164 30 C158.44685132 30.95015852 152.92985999 31.30189807 147.3125 31.5625 C146.43343994 31.60568359 145.55437988 31.64886719 144.64868164 31.69335938 C138.83125524 31.96281833 133.03877125 32.07119131 127.21484375 31.9375 C124.82350039 31.89808766 124.82350039 31.89808766 122 33 C120.515 32.505 120.515 32.505 119 32 C117.12686336 31.90661782 115.25045638 31.87005157 113.375 31.875 C112.39273438 31.87242187 111.41046875 31.86984375 110.3984375 31.8671875 C108.04774989 31.72994035 108.04774989 31.72994035 107 33 C104.05583505 33.25205271 101.13833005 33.42803805 98.1875 33.5546875 C97.22682617 33.59673309 96.26615234 33.63877869 95.27636719 33.68209839 C81.44512869 34.21519075 67.60190384 34.15050194 53.76269531 34.13037109 C49.75294769 34.12459544 45.74326589 34.128019 41.73352051 34.13394356 C38.61079409 34.1375581 35.48808333 34.13640782 32.36535645 34.13381577 C30.88545727 34.13315304 29.40555664 34.13395179 27.92565918 34.13629532 C25.86967169 34.13884534 23.81379198 34.13495184 21.7578125 34.12939453 C20.01201904 34.12820114 20.01201904 34.12820114 18.23095703 34.12698364 C15 34 15 34 12.07763672 33.49191284 C8.20282873 32.78955833 8.20282873 32.78955833 1 33 C0.67 22.11 0.34 11.22 0 0 Z " fill="#5A4230" transform="translate(260,430)"/>
<path d="M0 0 C0.95766424 -0.00295142 1.91532848 -0.00590285 2.90201285 -0.00894371 C6.14183585 -0.01767177 9.38162329 -0.01921872 12.6214571 -0.02082157 C14.95553066 -0.02555005 17.28960339 -0.03070062 19.62367517 -0.03623921 C25.38576488 -0.04871371 31.14784756 -0.05644125 36.90994766 -0.06213799 C43.80967405 -0.06919144 50.709387 -0.08194991 57.60910481 -0.09468719 C75.08338053 -0.12655926 92.55766516 -0.14637948 110.03196022 -0.16397271 C114.76578943 -0.16874042 119.49961837 -0.17374914 124.23344731 -0.17877793 C153.62105806 -0.20982932 183.00867107 -0.23644608 212.39629364 -0.25319672 C219.20688792 -0.25713394 226.01748216 -0.26114578 232.82807636 -0.2652216 C234.09727113 -0.2659741 234.09727113 -0.2659741 235.3921062 -0.2667418 C262.80929278 -0.28315019 290.22638997 -0.32159173 317.6435326 -0.3725087 C345.83289586 -0.42476422 374.02221153 -0.4575164 402.21162421 -0.46477425 C406.1958438 -0.4658028 410.18006331 -0.46703912 414.1642828 -0.46839428 C414.948394 -0.46865232 415.73250521 -0.46891035 416.54037736 -0.46917621 C429.14471403 -0.47386596 441.74893273 -0.49877959 454.3532253 -0.53114571 C467.03279642 -0.56322929 479.71223509 -0.57313385 492.39184197 -0.56071376 C499.25760475 -0.55458207 506.12303096 -0.55794073 512.98873615 -0.5888834 C519.28048026 -0.61628161 525.57159373 -0.61571906 531.8633521 -0.59337295 C534.13339337 -0.5901553 536.40347714 -0.59698711 538.67344787 -0.61517017 C552.04003135 -0.71570503 562.65262203 0.43789503 574.804883 6.1398077 C576.33136254 6.75781964 577.86063075 7.36907714 579.39472675 7.9679327 C581.0518166 8.67176083 581.0518166 8.67176083 582.742383 9.3898077 C583.88578144 9.86933895 585.02917988 10.3488702 586.20722675 10.8429327 C588.804883 12.1398077 588.804883 12.1398077 589.804883 14.1398077 C534.694883 13.8098077 479.584883 13.4798077 422.804883 13.1398077 C423.134883 12.1498077 423.464883 11.1598077 423.804883 10.1398077 C424.36659828 10.14072949 424.92831356 10.14165129 425.50705051 10.14260101 C439.31983166 10.16490626 453.13260956 10.18127469 466.94540501 10.19161987 C473.62578508 10.19672665 480.30615049 10.20379013 486.98652363 10.21524715 C493.45754084 10.22627313 499.92854553 10.23212534 506.39957142 10.23468494 C508.84375168 10.23650429 511.28793142 10.24005477 513.73210621 10.24553776 C526.92200954 10.27389532 540.09980722 10.15656641 553.28437519 9.75870419 C555.07715837 9.71298952 555.07715837 9.71298952 556.9061594 9.66635132 C558.56734869 9.60897372 558.56734869 9.60897372 560.26209736 9.55043697 C561.72606009 9.50423796 561.72606009 9.50423796 563.21959782 9.45710564 C565.84486435 9.1349007 567.54167808 8.47335477 569.804883 7.1398077 C569.041758 7.0160577 568.278633 6.8923077 567.492383 6.7648077 C564.804883 6.1398077 564.804883 6.1398077 561.804883 4.1398077 C559.17651045 3.9382995 556.65312244 3.85458948 554.02381611 3.8613348 C552.81461398 3.85264567 552.81461398 3.85264567 551.58098352 3.84378099 C548.85186596 3.8266684 546.12291728 3.82388891 543.39375019 3.82096004 C541.42156223 3.81164912 539.44937815 3.80148371 537.4771986 3.79053593 C532.01500789 3.76287747 526.55284355 3.7479358 521.09060049 3.735116 C515.15177722 3.71916471 509.21300203 3.69213636 503.27421284 3.66678524 C491.50515128 3.61859794 479.73607393 3.58214515 467.96696055 3.54988599 C458.32761359 3.52337201 448.68828821 3.49255117 439.04896259 3.45920467 C356.69101573 3.1759392 274.33269892 3.06510426 151.13581085 3.01841152 C142.11078257 3.01659465 133.08575491 3.01434575 124.06072712 3.01083279 C104.96430491 3.00345576 85.86789081 2.99873969 66.77146733 3.00404572 C65.14787714 3.00448899 63.52428695 3.00492794 61.90069675 3.00536251 C61.10428987 3.00557657 60.30788299 3.00579063 59.48734256 3.00601117 C53.93939329 3.00725796 48.391448 3.00602156 42.84349918 3.00368404 C36.19268198 3.00091648 29.54187649 3.00157226 22.89106059 3.00685582 C19.53055217 3.00943894 16.17007962 3.00991618 12.80956888 3.00713325 C9.18674045 3.00441381 5.56396876 3.00781556 1.94114399 3.01282406 C0.88933614 3.01059353 -0.16247171 3.00836301 -1.24615252 3.00606489 C-6.00984411 3.01890008 -10.51187419 3.13960403 -15.195117 4.1398077 C-10.85154335 -0.61743962 -6.06854204 -0.00615709 0 0 Z " fill="#ECE4D4" transform="translate(77.19511699676514,406.86019229888916)"/>
<path d="M0 0 C6.33333333 0 12.66666667 0 19 0 C19.40548049 51.97643794 19.40548049 51.97643794 17.71142578 77.07299805 C17.0854274 86.40327987 16.88780976 95.65392941 17 105 C11.61483519 106.79505494 5.67646212 106 0 106 C0 71.02 0 36.04 0 0 Z " fill="#BA9875" transform="translate(650,429)"/>
<path d="M0 0 C184.8 0 369.6 0 560 0 C560 0.99 560 1.98 560 3 C375.2 3 190.4 3 0 3 C0 2.01 0 1.02 0 0 Z " fill="#55402A" transform="translate(73,541)"/>
<path d="M0 0 C107.25 0 214.5 0 325 0 C325 1.32 325 2.64 325 4 C217.42 4 109.84 4 -1 4 C-1 3.67 -1 3.34 -1 3 C1.97 3 4.94 3 8 3 C8 2.34 8 1.68 8 1 C5.36 1 2.72 1 0 1 C0 0.67 0 0.34 0 0 Z " fill="#BB9775" transform="translate(228,536)"/>
<path d="M0 0 C0.33 0 0.66 0 1 0 C1 19.8 1 39.6 1 60 C-10.22 60 -21.44 60 -33 60 C-33 61.65 -33 63.3 -33 65 C-39.625 66.125 -39.625 66.125 -43 65 C-46.00424857 64.89969762 -48.9854313 64.85783412 -51.98993206 64.8613348 C-53.39309777 64.85707147 -53.39309777 64.85707147 -54.82461026 64.85272202 C-57.98868831 64.84433781 -61.15272991 64.8431039 -64.31681824 64.84178162 C-66.59629809 64.8372188 -68.87577711 64.8322192 -71.15525514 64.82681805 C-77.44214399 64.81319559 -83.72902742 64.80580673 -90.0159272 64.79939139 C-96.09227355 64.79222471 -102.16860915 64.7803996 -108.24494811 64.76867336 C-120.67840701 64.74484093 -133.11186906 64.72564597 -145.54533958 64.70907402 C-157.85993062 64.69264544 -170.17451576 64.67416793 -182.4890995 64.65294075 C-183.63668531 64.65096434 -183.63668531 64.65096434 -184.80745466 64.648948 C-188.69263263 64.64224612 -192.57781053 64.6355075 -196.46298841 64.62875474 C-223.99737393 64.58096382 -251.53176495 64.53778681 -279.06616211 64.49731445 C-305.81909587 64.45798022 -332.57202507 64.41656149 -359.32495117 64.37231445 C-360.5614376 64.37027066 -360.5614376 64.37027066 -361.82290355 64.36818558 C-370.10094151 64.35450046 -378.3789794 64.3407729 -386.65701725 64.32701423 C-403.52104434 64.29898604 -420.38507189 64.27124118 -437.24909973 64.2436676 C-438.02451775 64.2423994 -438.79993576 64.2411312 -439.59885129 64.23982458 C-491.3992268 64.15513736 -543.19961267 64.07707621 -595 64 C-595 63.67 -595 63.34 -595 63 C-410.2 63 -225.4 63 -35 63 C-35 61.68 -35 60.36 -35 59 C-61.4 59 -87.8 59 -115 59 C-115.33 58.01 -115.66 57.02 -116 56 C-113.90092602 53.90092602 -109.25950585 54.8245621 -106.35961914 54.81054688 C-105.45204361 54.80225357 -104.54446808 54.79396027 -103.60939026 54.78541565 C-101.62815698 54.76796155 -99.64690244 54.75280962 -97.66563606 54.73963928 C-94.51429538 54.7186108 -91.36305709 54.69157524 -88.21177673 54.66296387 C-81.49539128 54.60313292 -74.77895564 54.55124134 -68.0625 54.5 C-60.3343983 54.4404619 -52.60634376 54.37758265 -44.87832451 54.30812073 C-41.80236704 54.28192874 -38.72640411 54.2608669 -35.65040588 54.2401123 C-24.07208375 54.14700602 -12.55357297 53.76883399 -1 53 C-1.16422455 51.91295273 -1.3284491 50.82590546 -1.49765015 49.70591736 C-1.98054367 46.14353257 -2.04481375 42.90328 -1.9140625 39.31640625 C-1.87079834 38.06553223 -1.82753418 36.8146582 -1.78295898 35.52587891 C-1.73083252 34.21796387 -1.67870605 32.91004883 -1.625 31.5625 C-1.57529642 30.21273909 -1.52589964 28.86296685 -1.47680664 27.51318359 C-1.13369676 18.33192155 -0.68789895 9.16222852 0 0 Z " fill="#9E8A76" transform="translate(668,481)"/>
<path d="M0 0 C1.50046875 0.00386719 1.50046875 0.00386719 3.03125 0.0078125 C4.0315625 0.00523437 5.031875 0.00265625 6.0625 0 C8.53125 0.1328125 8.53125 0.1328125 9.53125 1.1328125 C9.53125 6.7428125 9.53125 12.3528125 9.53125 18.1328125 C66.29125 18.1328125 123.05125 18.1328125 181.53125 18.1328125 C181.53125 18.4628125 181.53125 18.7928125 181.53125 19.1328125 C124.44125 19.1328125 67.35125 19.1328125 8.53125 19.1328125 C6.93712716 15.94456682 7.42950265 12.50384588 7.46875 9.0078125 C7.47326172 8.25371094 7.47777344 7.49960937 7.48242188 6.72265625 C7.49421501 4.85934123 7.51215058 2.99606695 7.53125 1.1328125 C6.21125 1.4628125 4.89125 1.7928125 3.53125 2.1328125 C3.53125 12.6928125 3.53125 23.2528125 3.53125 34.1328125 C6.83125 33.8028125 10.13125 33.4728125 13.53125 33.1328125 C14.85125 33.7928125 16.17125 34.4528125 17.53125 35.1328125 C9.28125 35.1328125 1.03125 35.1328125 -7.46875 35.1328125 C-7.13875 34.1428125 -6.80875 33.1528125 -6.46875 32.1328125 C-5.47875 32.1328125 -4.48875 32.1328125 -3.46875 32.1328125 C-3.46875 28.8328125 -3.46875 25.5328125 -3.46875 22.1328125 C-5.70674126 22.37964027 -5.70674126 22.37964027 -7.98994446 22.63145447 C-15.37018852 23.29733835 -22.72898216 23.22210944 -30.12963867 23.15454102 C-31.6780366 23.14437616 -33.22643769 23.13468496 -34.77484131 23.12542725 C-38.94558871 23.0991669 -43.11626087 23.06634462 -47.28695083 23.03227735 C-51.65777098 22.99771352 -56.02863107 22.96927722 -60.39949036 22.94017029 C-68.66170391 22.8842291 -76.92386745 22.82283647 -85.18602687 22.75944895 C-94.59840741 22.68750505 -104.01082777 22.6216937 -113.42325628 22.55637848 C-132.77180606 22.4219776 -152.12029299 22.27993715 -171.46875 22.1328125 C-171.13875 20.8128125 -170.80875 19.4928125 -170.46875 18.1328125 C-115.35875 18.1328125 -60.24875 18.1328125 -3.46875 18.1328125 C-3.46875 12.5228125 -3.46875 6.9128125 -3.46875 1.1328125 C-2.46875 0.1328125 -2.46875 0.1328125 0 0 Z " fill="#634E3D" transform="translate(257.46875,428.8671875)"/>
<path d="M0 0 C56.76 0 113.52 0 172 0 C172 5.94 172 11.88 172 18 C115.24 18 58.48 18 0 18 C0 12.06 0 6.12 0 0 Z M2 3 C1.13040918 6.4783633 0.93592532 7.90616881 1.4375 11.25 C1.623125 12.4875 1.80875 13.725 2 15 C17.09337952 15.13207772 32.1867726 15.26252197 47.28018188 15.39115143 C54.29226329 15.45094589 61.30433974 15.51123472 68.31640625 15.57275391 C104.76703932 15.91272008 104.76703932 15.91272008 141.21875 16.0625 C142.41935059 16.06479614 143.61995117 16.06709229 144.85693359 16.06945801 C153.59803321 16.06136799 162.28856108 15.73469967 171 15 C171 11.04 171 7.08 171 3 C115.23 3 59.46 3 2 3 Z " fill="#D1C3B6" transform="translate(267,429)"/>
<path d="M0 0 C9.57 0 19.14 0 29 0 C29 0.33 29 0.66 29 1 C19.76 1 10.52 1 1 1 C1.11996562 6.05387093 1.24264819 11.10752295 1.37231445 16.16113281 C1.41559016 17.87984305 1.45727041 19.59859424 1.49731445 21.31738281 C1.55519565 23.789839 1.61883836 26.26209047 1.68359375 28.734375 C1.70030624 29.50118591 1.71701874 30.26799683 1.73423767 31.05804443 C1.83171219 34.57893935 2.14008412 37.56033649 3 41 C3 61.79 3 82.58 3 104 C294.555 104.495 294.555 104.495 592 105 C592 70.68 592 36.36 592 1 C582.1 1 572.2 1 562 1 C562 6.28 562 11.56 562 17 C561.67 17 561.34 17 561 17 C561 11.39 561 5.78 561 0 C571.56 0 582.12 0 593 0 C593 34.98 593 69.96 593 106 C397.31 106 201.62 106 0 106 C0 71.02 0 36.04 0 0 Z " fill="#6F5037" transform="translate(57,429)"/>
<path d="M0 0 C54.45 0 108.9 0 165 0 C165 5.94 165 11.88 165 18 C110.22 18 55.44 18 -1 18 C-1 3 -1 3 0 0 Z M2 3 C2 6.96 2 10.92 2 15 C4.639276 16.319638 6.60490175 16.12590333 9.56167603 16.12698364 C11.33595222 16.13121338 11.33595222 16.13121338 13.14607239 16.13552856 C14.45090073 16.13350433 15.75572906 16.1314801 17.10009766 16.12939453 C18.48328192 16.13074916 19.86646583 16.13252944 21.24964905 16.13470459 C25.01702264 16.13927755 28.78436894 16.13748835 32.55174303 16.1343255 C36.50409042 16.13179413 40.45643547 16.13414227 44.40878296 16.13571167 C51.06191425 16.13753407 57.71503446 16.13512833 64.36816406 16.13037109 C72.02390238 16.12495961 79.67961394 16.12666801 87.33535159 16.1321975 C93.92497408 16.1367642 100.5145886 16.13736097 107.10421216 16.13475883 C111.03162343 16.13321145 114.95902222 16.1329589 118.88643265 16.13629532 C122.59478666 16.1392248 126.303107 16.13710707 130.01145744 16.13140106 C131.99314708 16.12948654 133.97483964 16.13238604 135.95652771 16.13552856 C145.00567116 16.11465284 153.97862741 15.64937516 163 15 C163 11.04 163 7.08 163 3 C109.87 3 56.74 3 2 3 Z " fill="#C9BDB1" transform="translate(453,429)"/>
<path d="M0 0 C55.11 0 110.22 0 167 0 C167 5.61 167 11.22 167 17 C111.89 17 56.78 17 0 17 C0 11.39 0 5.78 0 0 Z M2 2 C2 6.29 2 10.58 2 15 C20.57750613 15.02324949 39.15500809 15.04104575 57.73252583 15.05181217 C66.36034455 15.05694632 74.98815402 15.06393344 83.6159668 15.07543945 C91.14482463 15.08547503 98.67367576 15.09187432 106.2025401 15.09408849 C110.18094191 15.09538069 114.15932452 15.09837026 118.13772011 15.10573006 C134.11405746 15.134185 150.05538765 15.153646 166 14 C166 10.04 166 6.08 166 2 C111.88 2 57.76 2 2 2 Z " fill="#E0D8C9" transform="translate(87,430)"/>
<path d="M0 0 C129.03 0 258.06 0 391 0 C391 0.33 391 0.66 391 1 C326.98 1 262.96 1 197 1 C196.67 22.78 196.34 44.56 196 67 C131.65 67 67.3 67 1 67 C0.67 44.89 0.34 22.78 0 0 Z M15 3 C11.14654251 3.20643522 7.69166634 3.18133323 4 2 C-1.86357838 22.52252431 2 44.65625254 2 66 C65.69 66 129.38 66 195 66 C195 44.55 195 23.1 195 1 C172.12153152 0.95487892 149.24309897 0.91802585 126.36459732 0.89637566 C115.74207213 0.88605658 105.11957652 0.87198418 94.49707031 0.84912109 C85.24009804 0.82920656 75.98314719 0.81628816 66.72615409 0.81182301 C61.82320998 0.80921235 56.92032715 0.80306303 52.01740265 0.78853989 C47.40460715 0.77498657 42.7918983 0.7707728 38.17908478 0.77378464 C36.48434987 0.77323347 34.78961213 0.76924264 33.09489441 0.76158905 C30.78404205 0.75166297 28.47351839 0.75402249 26.16265869 0.75949097 C24.86846134 0.75764738 23.57426399 0.75580379 22.24084854 0.75390434 C19.13587033 0.98968261 17.64582875 1.51104567 15 3 Z " fill="#A18165" transform="translate(59,465)"/>
<path d="M0 0 C0.66 0 1.32 0 2 0 C2 20.79 2 41.58 2 63 C-192.7 63 -387.4 63 -588 63 C-588 62.67 -588 62.34 -588 62 C-394.29 61.67 -200.58 61.34 -1 61 C-0.67 40.87 -0.34 20.74 0 0 Z " fill="#482912" transform="translate(647,471)"/>
<path d="M0 0 C3.96 0 7.92 0 12 0 C12 5.94 12 11.88 12 18 C66.78 18 121.56 18 178 18 C176.68 18.66 175.36 19.32 174 20 C173.67 20.33 173.34 20.66 173 21 C170.92439194 21.09683581 168.84542796 21.12186902 166.76756287 21.12025452 C166.10925651 21.12110894 165.45095016 21.12196337 164.77269512 21.12284368 C162.55082894 21.1245003 160.32903705 21.11897418 158.10717773 21.11352539 C156.52084352 21.11324353 154.93450918 21.11340123 153.34817505 21.1139679 C149.02811278 21.11425592 144.70807803 21.10835837 140.38802218 21.10139394 C135.87831685 21.09516125 131.36861095 21.09455667 126.85890198 21.09336853 C118.31305626 21.09025496 109.76722326 21.08204124 101.22138315 21.07201904 C91.49482367 21.06085869 81.76826358 21.05534765 72.04169929 21.05032361 C52.02779241 21.03985864 32.01389701 21.02225871 12 21 C12 24.3 12 27.6 12 31 C10.35 31 8.7 31 7 31 C7 25.06 7 19.12 7 13 C8.32 13.33 9.64 13.66 11 14 C11 12.02 11 10.04 11 8 C10.34 8 9.68 8 9 8 C9 7.34 9 6.68 9 6 C8.34 6 7.68 6 7 6 C7 4.68 7 3.36 7 2 C8.32 1.67 9.64 1.34 11 1 C7.37 1 3.74 1 0 1 C0 0.67 0 0.34 0 0 Z " fill="#6C5747" transform="translate(440,429)"/>
<path d="M0 0 C0.66 0 1.32 0 2 0 C2.33 2.31 2.66 4.62 3 7 C3.99 7 4.98 7 6 7 C7.52508222 27.70615584 7.52508222 27.70615584 5.47265625 35.22265625 C4.8714992 37.17668583 4.8714992 37.17668583 5 40 C5.66 40.33 6.32 40.66 7 41 C7.0810206 43.10353495 7.13919907 45.20795952 7.1875 47.3125 C7.22230469 48.48425781 7.25710937 49.65601563 7.29296875 50.86328125 C7 54 7 54 5.50198364 55.3604126 C3.37427262 57.68305319 3.64414174 59.25739317 3.67529297 62.37011719 C3.67874725 63.46845886 3.68220154 64.56680054 3.6857605 65.69842529 C3.70438141 66.8859137 3.72300232 68.0734021 3.7421875 69.296875 C3.74880402 70.51900696 3.75542053 71.74113892 3.76223755 73.00030518 C3.78568912 76.91712319 3.82937976 80.83338263 3.875 84.75 C3.91011657 88.65226897 3.94094755 92.55450378 3.96633911 96.45684814 C3.98324446 98.88654821 4.00632686 101.31621515 4.03634644 103.74578857 C4.08498663 109.28314064 4.0110343 114.54929216 3 120 C2.67 120 2.34 120 2 120 C0.14170438 107.0066561 -0.35226869 94.20780721 -0.44921875 81.09375 C-0.47053769 79.03209779 -0.49250783 76.97045223 -0.51509094 74.90881348 C-0.56010884 70.62283461 -0.59900296 66.33686095 -0.63305664 62.05078125 C-0.67681623 56.57592485 -0.73359546 51.1012982 -0.7946043 45.6266098 C-0.84089545 41.38346022 -0.88162947 37.1402718 -0.92057228 32.89704895 C-0.93951392 30.87814472 -0.95985443 28.85925308 -0.98166466 26.84037781 C-1.01103552 24.02055414 -1.03322399 21.20076151 -1.0534668 18.38085938 C-1.06327072 17.5609552 -1.07307465 16.74105103 -1.08317566 15.89630127 C-1.11182049 10.520112 -0.67697797 5.3346255 0 0 Z " fill="#C2AD93" transform="translate(35,422)"/>
<path d="M0 0 C1.50046875 0.00386719 1.50046875 0.00386719 3.03125 0.0078125 C4.0315625 0.00523437 5.031875 0.00265625 6.0625 0 C8.53125 0.1328125 8.53125 0.1328125 9.53125 1.1328125 C9.53125 6.7428125 9.53125 12.3528125 9.53125 18.1328125 C66.29125 18.1328125 123.05125 18.1328125 181.53125 18.1328125 C181.53125 18.4628125 181.53125 18.7928125 181.53125 19.1328125 C124.44125 19.1328125 67.35125 19.1328125 8.53125 19.1328125 C6.93712716 15.94456682 7.42950265 12.50384588 7.46875 9.0078125 C7.47326172 8.25371094 7.47777344 7.49960937 7.48242188 6.72265625 C7.49421501 4.85934123 7.51215058 2.99606695 7.53125 1.1328125 C5.88125 1.1328125 4.23125 1.1328125 2.53125 1.1328125 C2.53125 2.7828125 2.53125 4.4328125 2.53125 6.1328125 C0.88125 6.4628125 -0.76875 6.7928125 -2.46875 7.1328125 C-2.46875 8.4528125 -2.46875 9.7728125 -2.46875 11.1328125 C-1.14875 10.8028125 0.17125 10.4728125 1.53125 10.1328125 C2.47262255 12.95693015 2.64850382 14.66199282 2.62890625 17.58203125 C2.62568359 18.42958984 2.62246094 19.27714844 2.61914062 20.15039062 C2.61076172 21.03146484 2.60238281 21.91253906 2.59375 22.8203125 C2.58923828 23.71298828 2.58472656 24.60566406 2.58007812 25.52539062 C2.56829983 27.72793237 2.55185164 29.93033849 2.53125 32.1328125 C1.21125 32.1328125 -0.10875 32.1328125 -1.46875 32.1328125 C-1.79875 31.8028125 -2.12875 31.4728125 -2.46875 31.1328125 C-2.46875 27.1728125 -2.46875 23.2128125 -2.46875 19.1328125 C-55.92875 19.1328125 -109.38875 19.1328125 -164.46875 19.1328125 C-164.46875 18.8028125 -164.46875 18.4728125 -164.46875 18.1328125 C-111.33875 18.1328125 -58.20875 18.1328125 -3.46875 18.1328125 C-3.46875 12.5228125 -3.46875 6.9128125 -3.46875 1.1328125 C-2.46875 0.1328125 -2.46875 0.1328125 0 0 Z " fill="#7D6959" transform="translate(257.46875,428.8671875)"/>
<path d="M0 0 C64.35 0 128.7 0 195 0 C195 22.11 195 44.22 195 67 C130.65 67 66.3 67 0 67 C0 66.67 0 66.34 0 66 C63.69 66 127.38 66 193 66 C193 56.43 193 46.86 193 37 C193.33 25.12 193.66 13.24 194 1 C130.31 1 66.62 1 1 1 C1.33 4.3 1.66 7.6 2 11 C2.99 11.33 3.98 11.66 5 12 C4.67 13.32 4.34 14.64 4 16 C3.01 16 2.02 16 1 16 C1 17.98 1 19.96 1 22 C0.67 22 0.34 22 0 22 C0 14.74 0 7.48 0 0 Z " fill="#AB8F76" transform="translate(452,465)"/>
<path d="M0 0 C47.19 0 94.38 0 143 0 C143 0.66 143 1.32 143 2 C143.69867188 1.83242188 144.39734375 1.66484375 145.1171875 1.4921875 C146.02726563 1.28851563 146.93734375 1.08484375 147.875 0.875 C148.77992188 0.66617187 149.68484375 0.45734375 150.6171875 0.2421875 C151.40351563 0.16226562 152.18984375 0.08234375 153 0 C153.99 0.99 153.99 0.99 155 2 C153 4 153 4 149.99154663 4.24723816 C148.04739365 4.24510063 148.04739365 4.24510063 146.06396484 4.24291992 C145.34692225 4.24479844 144.62987967 4.24667696 143.89110851 4.2486124 C141.49761152 4.25229095 139.10440855 4.24150531 136.7109375 4.23046875 C135.02758304 4.22957038 133.34422801 4.22944176 131.66087341 4.2300415 C127.16066124 4.22878547 122.66057961 4.21438042 118.16040421 4.19703293 C114.46141851 4.18437331 110.76243802 4.17954655 107.06343555 4.17440128 C86.14056759 4.1423398 65.21843128 4.06880976 44.30810547 3.26831055 C37.0555126 3.00182213 29.99315951 3.07774805 22.76391602 3.80859375 C19.41290584 4.04065735 16.30859023 3.73406629 12.99609375 3.25390625 C10.70502531 2.91982007 10.70502531 2.91982007 7.1875 3 C4.51851498 3 2.51704 2.8054528 0 2 C0 1.34 0 0.68 0 0 Z " fill="#CDB192" transform="translate(304,420)"/>
<path d="M0 0 C0.33 0 0.66 0 1 0 C1 6.27 1 12.54 1 19 C-9.12527934 21.25006208 -9.12527934 21.25006208 -12.72340393 21.28520203 C-13.54462738 21.29781067 -14.36585083 21.31041931 -15.21195984 21.32341003 C-16.07988663 21.32714127 -16.94781342 21.3308725 -17.84204102 21.3347168 C-18.78372131 21.34636871 -19.72540161 21.35802063 -20.69561768 21.37002563 C-23.79836344 21.40587246 -26.90102929 21.42788738 -30.00390625 21.44921875 C-32.20450963 21.47054068 -34.40510681 21.49251092 -36.60569763 21.51509094 C-41.23311344 21.5604711 -45.86052281 21.59922177 -50.48803711 21.63305664 C-56.29107519 21.67581566 -62.09385861 21.73280488 -67.89672279 21.79446125 C-89.77920045 22.02276401 -111.64889219 22.13740307 -133.52734375 21.5859375 C-134.3383359 21.56606466 -135.14932804 21.54619183 -135.98489571 21.52571678 C-148.0437111 21.21742874 -160.02654761 20.5113549 -172 19 C-172 18.67 -172 18.34 -172 18 C-115.24 18 -58.48 18 0 18 C0 12.06 0 6.12 0 0 Z " fill="#695344" transform="translate(439,430)"/>
<path d="M0 0 C56.43 0 112.86 0 171 0 C171 0.66 171 1.32 171 2 C115.23 2 59.46 2 2 2 C2 5.96 2 9.92 2 14 C41.6 14 81.2 14 122 14 C122 14.33 122 14.66 122 15 C81.74 15 41.48 15 0 15 C0 10.05 0 5.1 0 0 Z " fill="#FAF7EA" transform="translate(267,430)"/>
<path d="M0 0 C54.12 0.33 108.24 0.66 164 1 C164 5.95 164 10.9 164 16 C158.39 16 152.78 16 147 16 C147 15.67 147 15.34 147 15 C152.28 15 157.56 15 163 15 C163 11.04 163 7.08 163 3 C109.87 3 56.74 3 2 3 C2.33 6.96 2.66 10.92 3 15 C8.28 15 13.56 15 19 15 C19 15.66 19 16.32 19 17 C12.73 17 6.46 17 0 17 C0 11.39 0 5.78 0 0 Z " fill="#F5F0EA" transform="translate(453,429)"/>
<path d="M0 0 C18.46266266 -0.07002981 36.92529843 -0.12295856 55.38806629 -0.15543652 C63.96033475 -0.17091631 72.53252078 -0.19202699 81.10473633 -0.22631836 C88.57484306 -0.25618677 96.0448901 -0.27556691 103.51505488 -0.28226548 C107.47177467 -0.28618211 111.42832365 -0.2954096 115.38498878 -0.31719017 C119.1072803 -0.33751504 122.82933025 -0.34384199 126.55167198 -0.33932304 C128.57289073 -0.34054511 130.59408303 -0.35670813 132.61523438 -0.3732605 C133.81416824 -0.36913651 135.01310211 -0.36501251 136.24836731 -0.36076355 C137.29275876 -0.36352893 138.33715021 -0.36629431 139.41318989 -0.36914349 C142 0 142 0 145 3 C96.82 3 48.64 3 -1 3 C-0.67 2.01 -0.34 1.02 0 0 Z " fill="#DFC5AB" transform="translate(501,417)"/>
<path d="M0 0 C31.56791125 -0.09129243 63.13578488 -0.16206037 94.70379734 -0.20426132 C98.43249597 -0.20926402 102.16119434 -0.21444132 105.88989258 -0.21972656 C106.63219486 -0.2207758 107.37449715 -0.22182505 108.13929344 -0.22290608 C120.15129351 -0.24030118 132.16321685 -0.27183391 144.17517143 -0.30861118 C156.5047754 -0.34604557 168.83433924 -0.36824113 181.16399771 -0.37635398 C188.76926524 -0.38183659 196.37431584 -0.39913945 203.97951657 -0.43166587 C209.81572197 -0.45535181 215.65181662 -0.45781353 221.48807144 -0.45243073 C223.87895225 -0.45353037 226.26984133 -0.46147636 228.66067314 -0.4768219 C231.92898444 -0.49676903 235.19637307 -0.49192118 238.46470642 -0.48101807 C239.87865225 -0.49849512 239.87865225 -0.49849512 241.32116264 -0.51632524 C247.7634229 -0.45836942 252.30187132 1.10370066 258 4 C259.51496106 4.63146451 261.03525469 5.25041677 262.5625 5.8515625 C263.29597656 6.14546875 264.02945312 6.439375 264.78515625 6.7421875 C266.291377 7.34255062 267.79926105 7.93875391 269.30859375 8.53125 C274.88983154 10.77966309 274.88983154 10.77966309 276 13 C272.58268208 12.8899083 269.16644426 12.75932939 265.75 12.625 C264.78191406 12.5940625 263.81382812 12.563125 262.81640625 12.53125 C261.41455078 12.47324219 261.41455078 12.47324219 259.984375 12.4140625 C259.12553711 12.3826416 258.26669922 12.3512207 257.38183594 12.31884766 C254.8717972 11.98283796 253.18067672 11.25808272 251 10 C253 7 253 7 256 6 C254.8553125 5.814375 254.8553125 5.814375 253.6875 5.625 C251 5 251 5 248 3 C245.55488043 2.68897285 243.21370449 2.49373591 240.75843811 2.38783264 C240.01205584 2.35033466 239.26567356 2.31283669 238.49667364 2.27420241 C228.29224425 1.81108244 218.07776427 1.82227568 207.86499023 1.79467773 C205.58664786 1.78507666 203.30830719 1.77506536 201.02996826 1.76467896 C194.89688402 1.73786498 188.76379228 1.71672959 182.63068271 1.69667697 C176.2018594 1.67467076 169.77305861 1.6473543 163.34425354 1.62062073 C152.57073919 1.5765266 141.79721782 1.53565914 131.02368164 1.49731445 C119.93578183 1.45784193 108.84789228 1.41638835 97.76000977 1.37231445 C97.07448009 1.36959018 96.38895041 1.36686591 95.6826471 1.36405908 C92.2429273 1.35037768 88.80320765 1.33665778 85.36348808 1.32291877 C56.90901361 1.20931485 28.45451649 1.10249703 0 1 C0 0.67 0 0.34 0 0 Z " fill="#E2D5C4" transform="translate(391,408)"/>
<path d="M0 0 C39.93 0 79.86 0 121 0 C121 0.33 121 0.66 121 1 C120.37432129 1.01981934 119.74864258 1.03963867 119.10400391 1.06005859 C116.27723481 1.15514226 113.45122185 1.26488746 110.625 1.375 C109.64015625 1.4059375 108.6553125 1.436875 107.640625 1.46875 C106.22910156 1.52675781 106.22910156 1.52675781 104.7890625 1.5859375 C103.48509521 1.63306885 103.48509521 1.63306885 102.15478516 1.68115234 C99.79038206 1.81229433 99.79038206 1.81229433 98 4 C95.50857544 4.28520203 95.50857544 4.28520203 92.32861328 4.3347168 C90.54633835 4.36936287 90.54633835 4.36936287 88.72805786 4.40470886 C87.43850189 4.41939713 86.14894592 4.43408539 84.8203125 4.44921875 C83.50086639 4.47095657 82.18142029 4.4926944 80.82199097 4.51509094 C78.02607207 4.56052666 75.23016591 4.59930443 72.43408203 4.63305664 C68.85383859 4.67651753 65.27396368 4.73325417 61.69398689 4.7946043 C58.94023244 4.84085821 56.18641893 4.8816196 53.43255234 4.92057228 C51.47161287 4.94883962 49.5107227 4.98046239 47.54983521 5.01213074 C46.3553476 5.02577164 45.16085999 5.03941254 43.93017578 5.0534668 C42.87919708 5.06741989 41.82821838 5.08137299 40.74539185 5.0957489 C38 5 38 5 35.75436401 4.43415833 C33.90764964 3.77576563 33.90764964 3.77576563 32 5 C31.26563721 4.70367676 30.53127441 4.40735352 29.7746582 4.10205078 C26.61736802 2.84802457 23.99079735 2.59180646 20.60546875 2.3671875 C19.40341797 2.28339844 18.20136719 2.19960938 16.96289062 2.11328125 C15.71701172 2.03464844 14.47113281 1.95601563 13.1875 1.875 C11.92228516 1.78863281 10.65707031 1.70226562 9.35351562 1.61328125 C6.23609201 1.40153172 3.11836116 1.19737668 0 1 C0 0.67 0 0.34 0 0 Z " fill="#CFB499" transform="translate(536,420)"/>
<path d="M0 0 C1.9375 0.3125 1.9375 0.3125 4 1 C5.03483228 4.10449685 5.12679001 6.24324678 5.12939453 9.49804688 C5.13250137 10.63628906 5.13560822 11.77453125 5.1388092 12.94726562 C5.13683029 14.19185547 5.13485138 15.43644531 5.1328125 16.71875 C5.13417709 18.02070313 5.13554169 19.32265625 5.13694763 20.6640625 C5.13976166 24.20781117 5.13534723 27.75151509 5.12877274 31.29525757 C5.1250095 33.49444637 5.12293725 35.69363093 5.12130737 37.89282227 C5.1036436 58.09821884 4.94492111 78.29781995 4.5625 98.5 C4.5429425 99.60061768 4.52338501 100.70123535 4.50323486 101.83520508 C4.44699493 104.90071482 4.38339647 107.96595847 4.31640625 111.03125 C4.29968369 111.93536621 4.28296112 112.83948242 4.26573181 113.77099609 C4.11593964 119.88406036 4.11593964 119.88406036 3 121 C0.40846893 121.15996166 -2.1595202 121.25938697 -4.75390625 121.31640625 C-5.91707619 121.3475779 -5.91707619 121.3475779 -7.10374451 121.37937927 C-9.58990308 121.44495802 -12.07617045 121.50379799 -14.5625 121.5625 C-16.24415204 121.60567733 -17.92579294 121.64929136 -19.60742188 121.69335938 C-23.73816871 121.80064779 -27.86902536 121.90189132 -32 122 C-32 121.34 -32 120.68 -32 120 C-20.78 120 -9.56 120 2 120 C2 81.06 2 42.12 2 2 C1.34 2 0.68 2 0 2 C0 1.34 0 0.68 0 0 Z " fill="#EEE5D3" transform="translate(667,421)"/>
<path d="M0 0 C5.94 0 11.88 0 18 0 C14 3 14 3 10.75 2.6875 C9.8425 2.460625 8.935 2.23375 8 2 C7.67 2.66 7.34 3.32 7 4 C6.34 3.34 5.68 2.68 5 2 C4.01 2.495 4.01 2.495 3 3 C-1.05517502 23.2758751 1.36270588 44.32576483 1 65 C64.69 65 128.38 65 194 65 C194 65.33 194 65.66 194 66 C129.98 66 65.96 66 0 66 C0 44.22 0 22.44 0 0 Z " fill="#AD8F77" transform="translate(60,466)"/>
<path d="M0 0 C3.96 0 7.92 0 12 0 C12 5.94 12 11.88 12 18 C66.78 18 121.56 18 178 18 C178 18.33 178 18.66 178 19 C123.22 19 68.44 19 12 19 C12 22.96 12 26.92 12 31 C10.35 31 8.7 31 7 31 C7 25.06 7 19.12 7 13 C8.32 13.33 9.64 13.66 11 14 C11 12.02 11 10.04 11 8 C10.34 8 9.68 8 9 8 C9 7.34 9 6.68 9 6 C8.34 6 7.68 6 7 6 C7 4.68 7 3.36 7 2 C8.32 1.67 9.64 1.34 11 1 C7.37 1 3.74 1 0 1 C0 0.67 0 0.34 0 0 Z " fill="#7E6B5E" transform="translate(440,429)"/>
<path d="M0 0 C4.62 0 9.24 0 14 0 C14 5.94 14 11.88 14 18 C10.55464976 19.72267512 6.6359885 18.95492067 2.84765625 18.83984375 C-0.20445414 18.77006161 -0.20445414 18.77006161 -3 21 C-2.68289062 20.52046875 -2.36578125 20.0409375 -2.0390625 19.546875 C-0.52584233 15.83777894 -0.53308589 12.22190798 -0.375 8.25 C-0.33632812 7.45722656 -0.29765625 6.66445313 -0.2578125 5.84765625 C-0.163892 3.89880584 -0.08087178 1.94943549 0 0 Z " fill="#2E1B0C" transform="translate(72,430)"/>
<path d="M0 0 C29.37 0 58.74 0 89 0 C89 0.33 89 0.66 89 1 C79.1 1.495 79.1 1.495 69 2 C69 2.66 69 3.32 69 4 C49.2 4 29.4 4 9 4 C9.33 3.01 9.66 2.02 10 1 C6.7 1 3.4 1 0 1 C0 0.67 0 0.34 0 0 Z " fill="#C9AF95" transform="translate(199,410)"/>
<path d="M0 0 C2.97 0.33 5.94 0.66 9 1 C9 1.66 9 2.32 9 3 C9.66 3 10.32 3 11 3 C11.1875 5.875 11.1875 5.875 11 9 C10.01 9.66 9.02 10.32 8 11 C8 10.34 8 9.68 8 9 C-28.63 9 -65.26 9 -103 9 C-103 8.67 -103 8.34 -103 8 C-101.8572612 7.9845388 -101.8572612 7.9845388 -100.69143677 7.96876526 C-93.42720978 7.86980744 -86.16304748 7.76717602 -78.89892769 7.66066074 C-75.16652917 7.60605489 -71.43412254 7.55275239 -67.70166016 7.50268555 C-46.05652755 7.24251637 -46.05652755 7.24251637 -24.43823242 6.19897461 C-20.11082453 5.94854236 -15.81227397 5.96248718 -11.48046875 6.0625 C-7.42085605 5.96021055 -4.8029096 5.69440831 -1.6875 3 C0.10747849 1.30875187 0.10747849 1.30875187 0 0 Z " fill="#C8AB8D" transform="translate(658,420)"/>
<path d="M0 0 C0.66 0 1.32 0 2 0 C2 37.95 2 75.9 2 115 C1.67 115 1.34 115 1 115 C-0.22584948 103.88116638 -0.24015603 92.75510557 -0.3515625 81.58203125 C-0.37472816 79.51323706 -0.39811874 77.44444537 -0.42172241 75.37565613 C-0.46991889 71.05978895 -0.51488237 66.7439031 -0.55761719 62.42797852 C-0.61255222 56.91378522 -0.67641538 51.39973662 -0.74279213 45.88567066 C-0.79300064 41.6210661 -0.83806165 37.35641863 -0.88163376 33.09174156 C-0.90309168 31.05887712 -0.9262212 29.02602958 -0.9510994 26.99320412 C-0.98521829 24.14889654 -1.0122785 21.30460284 -1.03759766 18.46020508 C-1.04897263 17.63244568 -1.0603476 16.80468628 -1.07206726 15.95184326 C-1.11048249 10.554798 -0.6818059 5.35516785 0 0 Z " fill="#FDF3E6" transform="translate(35,422)"/>
<path d="M0 0 C6.38630311 -0.02549226 12.77259295 -0.04292633 19.15893555 -0.05493164 C21.32853689 -0.05994003 23.49813489 -0.06674863 25.66772461 -0.07543945 C28.79802274 -0.08765876 31.928276 -0.0932634 35.05859375 -0.09765625 C36.01833603 -0.10281754 36.97807831 -0.10797882 37.96690369 -0.11329651 C43.72653655 -0.11376923 49.28682284 0.26058746 55 1 C55.495 2.485 55.495 2.485 56 4 C53 4 53 4 51 3 C51 3.66 51 4.32 51 5 C49.33388095 5.042721 47.66617115 5.04063832 46 5 C45.505 4.505 45.505 4.505 45 4 C42.01126997 3.89828146 39.05114886 3.85929831 36.0625 3.875 C34.75406128 3.87790039 34.75406128 3.87790039 33.41918945 3.88085938 C28.39005483 3.91467184 23.48065688 4.14775464 18.48828125 4.77734375 C13.01324848 5.26726034 7.49173852 5.07121851 2 5 C3.32 4.34 4.64 3.68 6 3 C6 2.34 6 1.68 6 1 C4.02 1 2.04 1 0 1 C0 0.67 0 0.34 0 0 Z " fill="#C19E7A" transform="translate(163,421)"/>
<path d="M0 0 C0.78375 0.185625 1.5675 0.37125 2.375 0.5625 C4.97089775 1.25962266 4.97089775 1.25962266 7 0 C7.04942899 4.92959122 7.08573318 9.85903825 7.10986328 14.78881836 C7.11992237 16.46592725 7.13357122 18.14301861 7.15087891 19.82006836 C7.17513152 22.23035002 7.1864839 24.64039986 7.1953125 27.05078125 C7.20563507 27.80087967 7.21595764 28.55097809 7.22659302 29.32380676 C7.227408 33.10300779 7.15057067 34.77414399 5 38 C4.34 38 3.68 38 3 38 C1.91338967 34.08820283 2.12161465 32.52197254 4 29 C3.67 28.01 3.34 27.02 3 26 C2.91733514 24.08093083 2.89259337 22.15910526 2.90234375 20.23828125 C2.90556641 19.12001953 2.90878906 18.00175781 2.91210938 16.84960938 C2.92048828 15.68236328 2.92886719 14.51511719 2.9375 13.3125 C2.94201172 12.13365234 2.94652344 10.95480469 2.95117188 9.74023438 C2.96296727 6.82677211 2.9794273 3.91341137 3 1 C2.01 0.67 1.02 0.34 0 0 Z " fill="#C0A281" transform="translate(662,429)"/>
<path d="M0 0 C3.26197457 0.35304741 3.26197457 0.35304741 6.25 -0.84375 C7.87719482 -0.92518855 9.50751719 -0.9512802 11.13671875 -0.94140625 C12.07451172 -0.93818359 13.01230469 -0.93496094 13.97851562 -0.93164062 C15.44321289 -0.91907227 15.44321289 -0.91907227 16.9375 -0.90625 C17.92556641 -0.90173828 18.91363281 -0.89722656 19.93164062 -0.89257812 C22.37115474 -0.88079303 24.81054689 -0.86434011 27.25 -0.84375 C27.25 -0.18375 27.25 0.47625 27.25 1.15625 C31.21 1.15625 35.17 1.15625 39.25 1.15625 C39.25 1.48625 39.25 1.81625 39.25 2.15625 C17.47 2.15625 -4.31 2.15625 -26.75 2.15625 C-26.75 1.82625 -26.75 1.49625 -26.75 1.15625 C-25.39455078 1.06537109 -25.39455078 1.06537109 -24.01171875 0.97265625 C-22.24248047 0.84697266 -22.24248047 0.84697266 -20.4375 0.71875 C-18.67986328 0.59693359 -18.67986328 0.59693359 -16.88671875 0.47265625 C-10.87942225 -0.13331015 -6.18030158 -0.56652764 0 0 Z " fill="#6F543D" transform="translate(598.75,461.84375)"/>
<path d="M0 0 C3.96 0 7.92 0 12 0 C12.70902441 10.42811284 13.35081164 20.58835953 12 31 C10.35 31 8.7 31 7 31 C7 25.06 7 19.12 7 13 C8.32 13.33 9.64 13.66 11 14 C11 12.02 11 10.04 11 8 C10.34 8 9.68 8 9 8 C9 7.34 9 6.68 9 6 C8.34 6 7.68 6 7 6 C7 4.68 7 3.36 7 2 C8.32 1.67 9.64 1.34 11 1 C7.37 1 3.74 1 0 1 C0 0.67 0 0.34 0 0 Z " fill="#846B51" transform="translate(440,429)"/>
<path d="M0 0 C1.12350861 0.00565979 2.24701721 0.01131958 3.40457153 0.01715088 C6.98109141 0.039481 10.55659713 0.08967354 14.1328125 0.140625 C16.5624855 0.16069424 18.99217425 0.17894427 21.421875 0.1953125 C27.36753155 0.23933483 33.31259955 0.30621429 39.2578125 0.390625 C39.2578125 1.050625 39.2578125 1.710625 39.2578125 2.390625 C23.4178125 2.390625 7.5778125 2.390625 -8.7421875 2.390625 C-9.4021875 3.710625 -10.0621875 5.030625 -10.7421875 6.390625 C-13.3671875 7.140625 -13.3671875 7.140625 -15.7421875 7.390625 C-16.4021875 6.400625 -17.0621875 5.410625 -17.7421875 4.390625 C-12.18805502 -0.45143921 -7.14351288 -0.13597595 0 0 Z " fill="#C4B19E" transform="translate(79.7421875,408.609375)"/>
<path d="M0 0 C0.33 0 0.66 0 1 0 C1 10.56 1 21.12 1 32 C4.3 31.67 7.6 31.34 11 31 C12.32 31.66 13.64 32.32 15 33 C6.75 33 -1.5 33 -10 33 C-9.67 32.01 -9.34 31.02 -9 30 C-6.36 30 -3.72 30 -1 30 C-0.97104024 26.87501937 -0.95321517 23.7500731 -0.9375 20.625 C-0.92912109 19.73554688 -0.92074219 18.84609375 -0.91210938 17.9296875 C-0.90888672 17.07890625 -0.90566406 16.228125 -0.90234375 15.3515625 C-0.89710693 14.56604004 -0.89187012 13.78051758 -0.88647461 12.97119141 C-0.87426047 10.92227332 -0.87426047 10.92227332 -2 9 C-2.99 9 -3.98 9 -5 9 C-5 7.68 -5 6.36 -5 5 C-3.68 4.67 -2.36 4.34 -1 4 C-0.67 2.68 -0.34 1.36 0 0 Z " fill="#6C4F37" transform="translate(260,431)"/>
<path d="M0 0 C9.24 0 18.48 0 28 0 C28 1.65 28 3.3 28 5 C27.34 5 26.68 5 26 5 C25.67 4.01 25.34 3.02 25 2 C22.03 2 19.06 2 16 2 C14.82212188 5.00658808 14.82212188 5.00658808 15 8.375 C15 11.4628269 14.72279715 14.01846174 14 17 C12 15 12 15 11.83984375 12.72265625 C11.87207031 11.84480469 11.90429688 10.96695312 11.9375 10.0625 C12.04422257 6.91186403 12.0099955 5.02998649 11 2 C8.69 1.67 6.38 1.34 4 1 C3.67 2.65 3.34 4.3 3 6 C2.01 6.33 1.02 6.66 0 7 C0 4.69 0 2.38 0 0 Z " fill="#452C1A" transform="translate(620,430)"/>
<path d="M0 0 C1.32 0 2.64 0 4 0 C5.70804755 23.1902898 5.70804755 23.1902898 3 30 C2.34 30.66 1.68 31.32 1 32 C0.67 21.44 0.34 10.88 0 0 Z " fill="#C1A27D" transform="translate(37,429)"/>
<path d="M0 0 C4.62 0 9.24 0 14 0 C14 5.61 14 11.22 14 17 C11.85319865 12.70639731 11.87475841 11.35222258 12.375 6.75 C12.54128906 5.13351562 12.54128906 5.13351562 12.7109375 3.484375 C12.80632812 2.66453125 12.90171875 1.8446875 13 1 C9.7 1.66 6.4 2.32 3 3 C2.26606831 6.66965844 1.88637639 9.28499416 1.9375 12.90625 C1.94523437 13.81503906 1.95296875 14.72382813 1.9609375 15.66015625 C1.97382812 16.59730469 1.98671875 17.53445313 2 18.5 C2.02564681 20.36452334 2.04663079 22.22911781 2.0625 24.09375 C2.07410156 24.91552734 2.08570313 25.73730469 2.09765625 26.58398438 C1.99409692 29.14604211 1.56491415 31.50236776 1 34 C0.67 34 0.34 34 0 34 C0 22.78 0 11.56 0 0 Z " fill="#462E1A" transform="translate(58,430)"/>
<path d="M0 0 C11.55 0 23.1 0 35 0 C35.66 1.32 36.32 2.64 37 4 C35.58344207 4.0272415 34.16672955 4.04650467 32.75 4.0625 C31.56664062 4.07990234 31.56664062 4.07990234 30.359375 4.09765625 C28 4 28 4 25.828125 3.43359375 C23.91746296 2.77395385 23.91746296 2.77395385 22 4 C21.31550781 3.70351563 20.63101563 3.40703125 19.92578125 3.1015625 C16.00973117 1.6271618 12.33939589 1.5420503 8.1875 1.375 C7.00510742 1.31699219 7.00510742 1.31699219 5.79882812 1.2578125 C3.8662462 1.16411156 1.93315624 1.08099221 0 1 C0 0.67 0 0.34 0 0 Z " fill="#CBAE91" transform="translate(546,421)"/>
<path d="M0 0 C5.94 0 11.88 0 18 0 C14 3 14 3 10.75 2.6875 C9.8425 2.460625 8.935 2.23375 8 2 C7.67 2.66 7.34 3.32 7 4 C6.34 3.34 5.68 2.68 5 2 C4.01 2.495 4.01 2.495 3 3 C2.02259717 6.55910261 1.82120034 10.06221953 1.68359375 13.73828125 C1.64169922 14.80498047 1.59980469 15.87167969 1.55664062 16.97070312 C1.51732422 18.07349609 1.47800781 19.17628906 1.4375 20.3125 C1.39431641 21.43462891 1.35113281 22.55675781 1.30664062 23.71289062 C1.20085213 26.47514569 1.09876328 29.2374863 1 32 C0.67 32 0.34 32 0 32 C0 21.44 0 10.88 0 0 Z " fill="#B99877" transform="translate(60,466)"/>
<path d="M0 0 C1.98 0 3.96 0 6 0 C6.34615998 5.65394631 5.43425238 9.03006806 3 14 C2.34 14 1.68 14 1 14 C0.67 14.66 0.34 15.32 0 16 C0 10.72 0 5.44 0 0 Z " fill="#5C4437" transform="translate(440,430)"/>
<path d="M0 0 C6.93 0 13.86 0 21 0 C21 0.66 21 1.32 21 2 C24.96 2 28.92 2 33 2 C33 2.33 33 2.66 33 3 C9.20792079 3.24032403 9.20792079 3.24032403 2 2 C1.34 1.34 0.68 0.68 0 0 Z M-3 1 C0 2 0 2 0 2 Z " fill="#624932" transform="translate(605,461)"/>
<path d="M0 0 C1.65 0 3.3 0 5 0 C4.67 1.32 4.34 2.64 4 4 C4 3.01 4 2.02 4 1 C3.01 1 2.02 1 1 1 C1 2.32 1 3.64 1 5 C1.66 5 2.32 5 3 5 C3 5.66 3 6.32 3 7 C3.66 7 4.32 7 5 7 C5 8.98 5 10.96 5 13 C4.01 13 3.02 13 2 13 C1.67 17.62 1.34 22.24 1 27 C0.67 27 0.34 27 0 27 C0 18.09 0 9.18 0 0 Z " fill="#72563E" transform="translate(446,430)"/>
<path d="M0 0 C3.63 0 7.26 0 11 0 C11 5.61 11 11.22 11 17 C10.67 17 10.34 17 10 17 C10 11.72 10 6.44 10 1 C8.35 1 6.7 1 5 1 C5 2.65 5 4.3 5 6 C3.35 6.33 1.7 6.66 0 7 C0 4.69 0 2.38 0 0 Z " fill="#78604E" transform="translate(255,429)"/>
<path d="M0 0 C8.14865862 1.40494114 15.63053591 4.2747764 23 8 C23.33 8.66 23.66 9.32 24 10 C19.07253501 9.49026224 14.61803076 8.91479324 10 7 C9.67 6.34 9.34 5.68 9 5 C6.97536745 4.34786708 6.97536745 4.34786708 5 4 C5 3.34 5 2.68 5 2 C3.35 1.67 1.7 1.34 0 1 C0 0.67 0 0.34 0 0 Z " fill="#F0E7D9" transform="translate(643,411)"/>
<path d="M0 0 C0.66 0.33 1.32 0.66 2 1 C2.0810206 3.10353495 2.13919907 5.20795952 2.1875 7.3125 C2.22230469 8.48425781 2.25710937 9.65601563 2.29296875 10.86328125 C2 14 2 14 0.55078125 15.91796875 C-1 17 -1 17 -2 17 C-2.05383848 14.54137599 -2.09359038 12.0839245 -2.125 9.625 C-2.14175781 8.92632812 -2.15851562 8.22765625 -2.17578125 7.5078125 C-2.19344267 5.67102514 -2.10303261 3.83398037 -2 2 C-1.34 1.34 -0.68 0.68 0 0 Z " fill="#C3A481" transform="translate(40,462)"/>
<path d="M0 0 C0.66 0 1.32 0 2 0 C2.66 1.65 3.32 3.3 4 5 C3.26136719 4.98839844 2.52273438 4.97679687 1.76171875 4.96484375 C-5.22453848 4.90270423 -12.0562763 5.23455014 -19 6 C-18.67 5.01 -18.34 4.02 -18 3 C-9.585 2.505 -9.585 2.505 -1 2 C-0.67 1.34 -0.34 0.68 0 0 Z " fill="#6B4F3A" transform="translate(467,458)"/>
<path d="M0 0 C0.66 0.33 1.32 0.66 2 1 C2 8.26 2 15.52 2 23 C0.66666667 23 -0.66666667 23 -2 23 C-2.15346031 19.77733341 -2.13311793 17.35775445 -1 14.3125 C0.43796487 9.54924137 0.15819695 4.93926026 0 0 Z " fill="#BE9C7C" transform="translate(54,453)"/>
<path d="M0 0 C0.33 0.66 0.66 1.32 1 2 C-2.07906933 3.02635644 -4.09729671 3.07115249 -7.3125 3 C-11.33469271 2.95732422 -15.04986634 3.14591705 -19 4 C-19 3.34 -19 2.68 -19 2 C-12.61525071 -0.35929149 -6.72249999 -2.03665717 0 0 Z " fill="#BCA38A" transform="translate(56,420)"/>
<path d="M0 0 C0.33 0 0.66 0 1 0 C1 1.65 1 3.3 1 5 C1.7734375 4.98839844 2.546875 4.97679687 3.34375 4.96484375 C9.33936364 4.91290155 15.07302983 5.08815844 21 6 C21 6.33 21 6.66 21 7 C13.74 7 6.48 7 -1 7 C-1 1 -1 1 0 0 Z " fill="#AA8E74" transform="translate(39,534)"/>
<path d="M0 0 C4.62 0 9.24 0 14 0 C13.67 1.65 13.34 3.3 13 5 C12.34 4.01 11.68 3.02 11 2 C7.43230448 1.26393501 7.43230448 1.26393501 4 1 C3.67 2.65 3.34 4.3 3 6 C2.01 6.33 1.02 6.66 0 7 C0 4.69 0 2.38 0 0 Z " fill="#2F190B" transform="translate(620,430)"/>
<path d="M0 0 C1.16982422 -0.03867187 1.16982422 -0.03867187 2.36328125 -0.078125 C4.6875 0.25 4.6875 0.25 8.6875 3.25 C2.7475 3.25 -3.1925 3.25 -9.3125 3.25 C-7.9925 2.59 -6.6725 1.93 -5.3125 1.25 C-3.74272426 -0.31977574 -2.17053613 0.04262919 0 0 Z " fill="#6F543F" transform="translate(561.3125,460.75)"/>
<path d="M0 0 C2.10209857 3.15314785 2.2434761 3.86103081 2.1953125 7.44921875 C2.18886719 8.29677734 2.18242187 9.14433594 2.17578125 10.01757812 C2.15902344 10.89865234 2.14226562 11.77972656 2.125 12.6875 C2.11597656 13.58017578 2.10695313 14.47285156 2.09765625 15.39257812 C2.07409748 17.59532314 2.04120329 19.79752588 2 22 C1.01 22.33 0.02 22.66 -1 23 C-1 22.34 -1 21.68 -1 21 C-0.34 21 0.32 21 1 21 C1 15.39 1 9.78 1 4 C-0.32 4.33 -1.64 4.66 -3 5 C-3 3.68 -3 2.36 -3 1 C-2.01 0.67 -1.02 0.34 0 0 Z " fill="#7B5F4B" transform="translate(258,439)"/>
<path d="M0 0 C0.33 0 0.66 0 1 0 C1.33 3.3 1.66 6.6 2 10 C2.99 10.33 3.98 10.66 5 11 C4.67 12.32 4.34 13.64 4 15 C3.01 15 2.02 15 1 15 C1 16.98 1 18.96 1 21 C0.67 21 0.34 21 0 21 C0 14.07 0 7.14 0 0 Z " fill="#B09378" transform="translate(452,466)"/>
<path d="M0 0 C0 5.28 0 10.56 0 16 C-0.33 16 -0.66 16 -1 16 C-1 12.7 -1 9.4 -1 6 C-2.65 5.67 -4.3 5.34 -6 5 C-5.67 3.68 -5.34 2.36 -5 1 C-1.125 0 -1.125 0 0 0 Z " fill="#322218" transform="translate(86,430)"/>
<path d="M0 0 C1.65322266 0.01740234 1.65322266 0.01740234 3.33984375 0.03515625 C4.99693359 0.04869141 4.99693359 0.04869141 6.6875 0.0625 C7.54214844 0.07410156 8.39679688 0.08570313 9.27734375 0.09765625 C9.27734375 0.75765625 9.27734375 1.41765625 9.27734375 2.09765625 C7.94695926 2.44257075 6.61277314 2.77282207 5.27734375 3.09765625 C4.45234375 3.34515625 3.62734375 3.59265625 2.77734375 3.84765625 C0.27734375 4.09765625 0.27734375 4.09765625 -2.03515625 2.66015625 C-2.59203125 2.14453125 -3.14890625 1.62890625 -3.72265625 1.09765625 C-2.72265625 0.09765625 -2.72265625 0.09765625 0 0 Z " fill="#B99675" transform="translate(139.72265625,495.90234375)"/>
<path d="M0 0 C4.29 0 8.58 0 13 0 C13 0.33 13 0.66 13 1 C11.02 1 9.04 1 7 1 C7 1.66 7 2.32 7 3 C6.071875 3.185625 6.071875 3.185625 5.125 3.375 C2.80879168 3.87197356 2.80879168 3.87197356 1 6 C0.67 4.02 0.34 2.04 0 0 Z " fill="#BE9D78" transform="translate(61,502)"/>
<path d="M0 0 C0.66 0 1.32 0 2 0 C2 4.29 2 8.58 2 13 C-1 9 -1 9 -1.07421875 6.640625 C-0.94660156 5.85171875 -0.81898437 5.0628125 -0.6875 4.25 C-0.56761719 3.45078125 -0.44773438 2.6515625 -0.32421875 1.828125 C-0.21722656 1.22484375 -0.11023437 0.6215625 0 0 Z " fill="#EDDFD5" transform="translate(35,422)"/>
<path d="M0 0 C-2.58573776 3.23897677 -5.22622856 3.79301935 -9.1875 4.6875 C-10.27417969 4.93886719 -11.36085937 5.19023437 -12.48046875 5.44921875 C-13.31191406 5.63097656 -14.14335938 5.81273437 -15 6 C-12.74109621 3.48045346 -10.582103 2.12667267 -7.5 0.75 C-6.7265625 0.39421875 -5.953125 0.0384375 -5.15625 -0.328125 C-3 -1 -3 -1 0 0 Z " fill="#EEE6D7" transform="translate(62,412)"/>
<path d="M0 0 C-0.33 1.65 -0.66 3.3 -1 5 C-2.65 5.33 -4.3 5.66 -6 6 C-6.66 5.01 -7.32 4.02 -8 3 C-3.375 0 -3.375 0 0 0 Z " fill="#C5AB91" transform="translate(70,410)"/>
<path d="M0 0 C1.98 0 3.96 0 6 0 C5.5504955 1.31554985 5.09010284 2.62738358 4.625 3.9375 C4.36976563 4.66839844 4.11453125 5.39929688 3.8515625 6.15234375 C3 8 3 8 1 9 C0.67 6.03 0.34 3.06 0 0 Z " fill="#C1A07D" transform="translate(650,429)"/>
<path d="M0 0 C4.62 0 9.24 0 14 0 C14 0.99 14 1.98 14 3 C9.38 2.34 4.76 1.68 0 1 C0 0.67 0 0.34 0 0 Z " fill="#DABFA3" transform="translate(621,466)"/>
<path d="M0 0 C0.99 0.33 1.98 0.66 3 1 C3 2.32 3 3.64 3 5 C2.34 5 1.68 5 1 5 C1 8.63 1 12.26 1 16 C0.67 16 0.34 16 0 16 C0 10.72 0 5.44 0 0 Z " fill="#625145" transform="translate(440,430)"/>
<path d="M0 0 C0.33 0 0.66 0 1 0 C1 5.61 1 11.22 1 17 C-0.32 16.67 -1.64 16.34 -3 16 C-2.34 15.01 -1.68 14.02 -1 13 C-0.5396236 9.80193335 -0.5396236 9.80193335 -0.375 6.3125 C-0.30023437 5.13300781 -0.22546875 3.95351563 -0.1484375 2.73828125 C-0.09945312 1.83464844 -0.05046875 0.93101562 0 0 Z " fill="#56371D" transform="translate(648,517)"/>
<path d="M0 0 C0.66 0 1.32 0 2 0 C2 1.65 2 3.3 2 5 C2.66 5.33 3.32 5.66 4 6 C4 6.66 4 7.32 4 8 C3.01 8.495 3.01 8.495 2 9 C1.34 10.32 0.68 11.64 0 13 C0 8.71 0 4.42 0 0 Z " fill="#D4BAA0" transform="translate(257,516)"/>
<path d="M0 0 C1.3921875 0.0928125 1.3921875 0.0928125 2.8125 0.1875 C2.8125 1.1775 2.8125 2.1675 2.8125 3.1875 C-0.1575 3.1875 -3.1275 3.1875 -6.1875 3.1875 C-3.1875 0.1875 -3.1875 0.1875 0 0 Z " fill="#B69574" transform="translate(215.1875,478.8125)"/>
<path d="M0 0 C0.66 1.32 1.32 2.64 2 4 C0.68 4.33 -0.64 4.66 -2 5 C-2 4.34 -2 3.68 -2 3 C-3.32 3.33 -4.64 3.66 -6 4 C-6.33 3.34 -6.66 2.68 -7 2 C-2.25 0 -2.25 0 0 0 Z " fill="#59412D" transform="translate(252,457)"/>
<path d="M0 0 C2.97 0 5.94 0 9 0 C8.67 0.99 8.34 1.98 8 3 C5.125 3.1875 5.125 3.1875 2 3 C1.34 2.01 0.68 1.02 0 0 Z " fill="#DCC1A7" transform="translate(446,417)"/>
<path d="M0 0 C0.99 0 1.98 0 3 0 C3 1.65 3 3.3 3 5 C0.36 5 -2.28 5 -5 5 C-5 4.67 -5 4.34 -5 4 C-3.35 4 -1.7 4 0 4 C-0.33 3.01 -0.66 2.02 -1 1 C-0.67 0.67 -0.34 0.34 0 0 Z " fill="#D7B99D" transform="translate(447,478)"/>
<path d="M0 0 C1.2065625 0.0309375 1.2065625 0.0309375 2.4375 0.0625 C0.9375 2.0625 0.9375 2.0625 -1.5625 4.0625 C-4.32121627 4.42050135 -6.76347524 4.24910165 -9.5625 4.0625 C-9.5625 3.7325 -9.5625 3.4025 -9.5625 3.0625 C-8.1084375 2.5984375 -8.1084375 2.5984375 -6.625 2.125 C-0.53780864 0.01311728 -0.53780864 0.01311728 0 0 Z " fill="#533B29" transform="translate(272.5625,455.9375)"/>
<path d="M0 0 C2.97 0.33 5.94 0.66 9 1 C5.23312136 2.88343932 3.97041037 3.22057835 0 3 C0 2.01 0 1.02 0 0 Z " fill="#BB9C80" transform="translate(368,521)"/>
<path d="M0 0 C-0.33 1.32 -0.66 2.64 -1 4 C-3.97 3.505 -3.97 3.505 -7 3 C-7 2.34 -7 1.68 -7 1 C-4.50935112 0.31292445 -2.62113708 0 0 0 Z " fill="#D5BA9E" transform="translate(450,517)"/>
<path d="M0 0 C2 3 2 3 1.75 5.0625 C1 7 1 7 -1 9 C-1.09765625 2.84765625 -1.09765625 2.84765625 -1 1 C-0.67 0.67 -0.34 0.34 0 0 Z " fill="#563F2C" transform="translate(262,434)"/>
<path d="M0 0 C-0.66 1.32 -1.32 2.64 -2 4 C-3.98 4 -5.96 4 -8 4 C-5.57415142 1.34311822 -3.76063134 0 0 0 Z " fill="#C3AB93" transform="translate(61,414)"/>
<path d="M0 0 C0.33 0.99 0.66 1.98 1 3 C1.66 3 2.32 3 3 3 C2.67 5.31 2.34 7.62 2 10 C0 8 0 8 -0.1953125 6.0546875 C-0.13020833 4.03645833 -0.06510417 2.01822917 0 0 Z " fill="#392317" transform="translate(632,437)"/>
</svg>
