<?xml version="1.0" encoding="UTF-8"?>
<!DOCTYPE svg PUBLIC "-//W3C//DTD SVG 1.1//EN" "http://www.w3.org/Graphics/SVG/1.1/DTD/svg11.dtd">
<svg xmlns="http://www.w3.org/2000/svg" version="1.1" width="500px" height="500px" style="shape-rendering:geometricPrecision; text-rendering:geometricPrecision; image-rendering:optimizeQuality; fill-rule:evenodd; clip-rule:evenodd" xmlns:xlink="http://www.w3.org/1999/xlink">
<g><path style="opacity:0.999" fill="#626262" d="M 479.5,156.5 C 479.631,155.624 479.298,154.957 478.5,154.5C 470.462,158.347 462.129,161.514 453.5,164C 433.839,168.611 414.173,173.111 394.5,177.5C 393.262,177.19 393.262,176.69 394.5,176C 396.134,175.506 397.801,175.34 399.5,175.5C 399.33,174.178 399.663,173.011 400.5,172C 399.892,171.13 399.059,170.63 398,170.5C 396.14,172.201 393.973,173.201 391.5,173.5C 391.5,174.5 391.5,175.5 391.5,176.5C 387.681,176.249 384.014,176.082 380.5,176C 383.638,174.756 386.972,174.089 390.5,174C 388.285,172.956 385.952,172.29 383.5,172C 384.938,171.781 386.271,171.281 387.5,170.5C 385.704,169.859 384.204,168.859 383,167.5C 381.612,168.554 380.112,168.72 378.5,168C 379.5,167.667 380.5,167.333 381.5,167C 380.234,166.691 379.067,166.191 378,165.5C 375.883,167.543 373.55,167.876 371,166.5C 367.344,168.427 363.51,169.261 359.5,169C 359.833,168.667 360.167,168.333 360.5,168C 359.5,167.167 358.5,166.333 357.5,165.5C 360.9,164.091 364.233,162.591 367.5,161C 365.714,160.804 364.381,159.971 363.5,158.5C 366.705,153.729 366.039,149.729 361.5,146.5C 355.812,149.172 349.812,150.339 343.5,150C 347.211,148.936 350.877,147.603 354.5,146C 353.328,145.581 352.328,144.915 351.5,144C 353.5,143.667 355.5,143.333 357.5,143C 349.876,141.904 342.209,141.238 334.5,141C 333.601,139.764 332.434,138.93 331,138.5C 327.224,139.394 323.39,139.728 319.5,139.5C 319.5,138.5 319.5,137.5 319.5,136.5C 315.818,136.665 312.152,136.499 308.5,136C 312.361,135.431 312.361,134.598 308.5,133.5C 304.893,132.511 301.226,132.177 297.5,132.5C 351.663,128.355 405.663,130.855 459.5,140C 466.94,141.477 473.773,144.31 480,148.5C 482.091,151.413 481.924,154.08 479.5,156.5 Z"/></g>
<g><path style="opacity:0.999" fill="#5b5b5b" d="M 297.5,132.5 C 301.226,132.177 304.893,132.511 308.5,133.5C 312.361,134.598 312.361,135.431 308.5,136C 312.152,136.499 315.818,136.665 319.5,136.5C 319.5,137.5 319.5,138.5 319.5,139.5C 323.39,139.728 327.224,139.394 331,138.5C 332.434,138.93 333.601,139.764 334.5,141C 342.209,141.238 349.876,141.904 357.5,143C 355.5,143.333 353.5,143.667 351.5,144C 352.328,144.915 353.328,145.581 354.5,146C 350.877,147.603 347.211,148.936 343.5,150C 349.812,150.339 355.812,149.172 361.5,146.5C 366.039,149.729 366.705,153.729 363.5,158.5C 364.381,159.971 365.714,160.804 367.5,161C 364.233,162.591 360.9,164.091 357.5,165.5C 358.5,166.333 359.5,167.167 360.5,168C 360.167,168.333 359.833,168.667 359.5,169C 363.51,169.261 367.344,168.427 371,166.5C 373.55,167.876 375.883,167.543 378,165.5C 379.067,166.191 380.234,166.691 381.5,167C 380.5,167.333 379.5,167.667 378.5,168C 380.112,168.72 381.612,168.554 383,167.5C 384.204,168.859 385.704,169.859 387.5,170.5C 386.271,171.281 384.938,171.781 383.5,172C 385.952,172.29 388.285,172.956 390.5,174C 386.972,174.089 383.638,174.756 380.5,176C 384.014,176.082 387.681,176.249 391.5,176.5C 391.5,175.5 391.5,174.5 391.5,173.5C 393.973,173.201 396.14,172.201 398,170.5C 399.059,170.63 399.892,171.13 400.5,172C 399.663,173.011 399.33,174.178 399.5,175.5C 397.801,175.34 396.134,175.506 394.5,176C 393.262,176.69 393.262,177.19 394.5,177.5C 389.977,179.052 385.311,180.552 380.5,182C 359.612,187.305 338.612,192.139 317.5,196.5C 314.966,195.162 315.3,194.162 318.5,193.5C 319.833,193.833 321.167,194.167 322.5,194.5C 322.998,193.397 323.331,192.397 323.5,191.5C 325.806,191.646 328.139,191.979 330.5,192.5C 332.116,191.885 333.449,190.885 334.5,189.5C 335.446,189.987 336.446,190.32 337.5,190.5C 341.434,189.146 345.434,187.979 349.5,187C 347.166,186.661 344.832,186.828 342.5,187.5C 337.9,187.079 334.9,186.079 333.5,184.5C 333.64,186.124 332.973,187.29 331.5,188C 331.957,188.414 332.291,188.914 332.5,189.5C 330.833,190.833 329.167,190.833 327.5,189.5C 328.325,188.614 329.325,188.281 330.5,188.5C 331.744,183.892 329.744,181.725 324.5,182C 327.941,181.164 328.108,180.331 325,179.5C 322.463,179.7 320.796,181.033 320,183.5C 319.213,182.289 318.546,181.289 318,180.5C 302.225,185.878 286.058,189.045 269.5,190C 274.444,188.856 279.444,187.856 284.5,187C 282.167,186.667 279.833,186.333 277.5,186C 279.301,185.683 279.634,185.016 278.5,184C 282.211,183.561 285.878,183.894 289.5,185C 288.167,185.333 286.833,185.667 285.5,186C 292.387,185.931 299.053,184.597 305.5,182C 304.833,181.667 304.167,181.333 303.5,181C 305.392,180.027 307.392,179.36 309.5,179C 301.652,178.597 301.652,177.597 309.5,176C 306.136,175.273 302.803,174.44 299.5,173.5C 303.302,172.755 306.969,171.589 310.5,170C 307.043,170.357 303.709,170.524 300.5,170.5C 298.87,169.579 297.203,168.745 295.5,168C 298.763,167.936 301.763,167.102 304.5,165.5C 309.536,168.35 310.203,167.85 306.5,164C 307.263,163.056 308.263,162.556 309.5,162.5C 314.17,164.292 315.003,163.625 312,160.5C 310.853,161.458 309.853,161.125 309,159.5C 306.083,161.028 303.083,162.361 300,163.5C 296.211,163.623 292.377,163.623 288.5,163.5C 287.833,164.167 287.167,164.833 286.5,165.5C 284.885,164.846 283.218,164.346 281.5,164C 283.5,163.167 285.5,162.333 287.5,161.5C 284.625,160.694 281.958,160.36 279.5,160.5C 281.743,159.526 284.076,159.192 286.5,159.5C 286.174,156.689 285.341,154.022 284,151.5C 282.981,152.687 281.814,153.687 280.5,154.5C 271.679,153.18 262.846,153.18 254,154.5C 252.274,154.054 250.774,153.221 249.5,152C 250.167,151.667 250.833,151.333 251.5,151C 250.167,150.667 248.833,150.333 247.5,150C 242.167,150 236.833,150 231.5,150C 238.216,148.547 244.882,146.88 251.5,145C 247.082,142.48 242.415,141.813 237.5,143C 235.122,142.026 235.456,141.359 238.5,141C 237.207,140.51 235.873,140.343 234.5,140.5C 255.152,136.127 276.152,133.46 297.5,132.5 Z"/></g>
<g><path style="opacity:1" fill="#545454" d="M 234.5,140.5 C 235.873,140.343 237.207,140.51 238.5,141C 235.456,141.359 235.122,142.026 237.5,143C 242.415,141.813 247.082,142.48 251.5,145C 244.882,146.88 238.216,148.547 231.5,150C 236.833,150 242.167,150 247.5,150C 248.833,150.333 250.167,150.667 251.5,151C 250.833,151.333 250.167,151.667 249.5,152C 250.774,153.221 252.274,154.054 254,154.5C 262.846,153.18 271.679,153.18 280.5,154.5C 281.814,153.687 282.981,152.687 284,151.5C 285.341,154.022 286.174,156.689 286.5,159.5C 284.076,159.192 281.743,159.526 279.5,160.5C 281.958,160.36 284.625,160.694 287.5,161.5C 285.5,162.333 283.5,163.167 281.5,164C 283.218,164.346 284.885,164.846 286.5,165.5C 287.167,164.833 287.833,164.167 288.5,163.5C 292.377,163.623 296.211,163.623 300,163.5C 303.083,162.361 306.083,161.028 309,159.5C 309.853,161.125 310.853,161.458 312,160.5C 315.003,163.625 314.17,164.292 309.5,162.5C 308.263,162.556 307.263,163.056 306.5,164C 310.203,167.85 309.536,168.35 304.5,165.5C 301.763,167.102 298.763,167.936 295.5,168C 297.203,168.745 298.87,169.579 300.5,170.5C 303.709,170.524 307.043,170.357 310.5,170C 306.969,171.589 303.302,172.755 299.5,173.5C 302.803,174.44 306.136,175.273 309.5,176C 301.652,177.597 301.652,178.597 309.5,179C 307.392,179.36 305.392,180.027 303.5,181C 304.167,181.333 304.833,181.667 305.5,182C 299.053,184.597 292.387,185.931 285.5,186C 286.833,185.667 288.167,185.333 289.5,185C 285.878,183.894 282.211,183.561 278.5,184C 279.634,185.016 279.301,185.683 277.5,186C 279.833,186.333 282.167,186.667 284.5,187C 279.444,187.856 274.444,188.856 269.5,190C 286.058,189.045 302.225,185.878 318,180.5C 318.546,181.289 319.213,182.289 320,183.5C 320.796,181.033 322.463,179.7 325,179.5C 328.108,180.331 327.941,181.164 324.5,182C 329.744,181.725 331.744,183.892 330.5,188.5C 329.325,188.281 328.325,188.614 327.5,189.5C 329.167,190.833 330.833,190.833 332.5,189.5C 332.291,188.914 331.957,188.414 331.5,188C 332.973,187.29 333.64,186.124 333.5,184.5C 334.9,186.079 337.9,187.079 342.5,187.5C 344.832,186.828 347.166,186.661 349.5,187C 345.434,187.979 341.434,189.146 337.5,190.5C 336.446,190.32 335.446,189.987 334.5,189.5C 333.449,190.885 332.116,191.885 330.5,192.5C 328.139,191.979 325.806,191.646 323.5,191.5C 323.331,192.397 322.998,193.397 322.5,194.5C 321.167,194.167 319.833,193.833 318.5,193.5C 315.3,194.162 314.966,195.162 317.5,196.5C 314.833,197.5 312.167,198.5 309.5,199.5C 296.079,201.804 282.746,204.637 269.5,208C 256.908,210.108 244.241,211.608 231.5,212.5C 223.804,212.229 223.637,211.229 231,209.5C 232.249,211.992 233.416,211.825 234.5,209C 233.552,208.517 232.552,208.351 231.5,208.5C 231.351,207.448 231.517,206.448 232,205.5C 233.622,207.547 235.788,208.547 238.5,208.5C 242.155,207.918 245.822,207.418 249.5,207C 250.167,206 250.833,205 251.5,204C 248.998,202.663 246.998,200.829 245.5,198.5C 243.474,199.37 242.141,200.87 241.5,203C 239.464,203.454 237.63,204.287 236,205.5C 234.056,204.312 232.556,202.646 231.5,200.5C 228.442,202.141 225.108,202.974 221.5,203C 222.858,205.752 222.191,206.252 219.5,204.5C 218.051,205.28 216.551,205.946 215,206.5C 213.674,206.245 212.674,205.578 212,204.5C 211.592,206.41 210.425,207.41 208.5,207.5C 207.5,206.833 206.5,206.167 205.5,205.5C 204.833,205.833 204.167,206.167 203.5,206.5C 204.5,207.333 205.5,208.167 206.5,209C 205.833,209.167 205.167,209.333 204.5,209.5C 202.195,208.663 199.862,208.496 197.5,209C 198.214,207.657 197.88,206.324 196.5,205C 198.108,204.342 199.275,204.842 200,206.5C 201.688,205.675 201.855,204.675 200.5,203.5C 197.893,202.682 195.226,202.182 192.5,202C 194.203,201.255 195.87,200.421 197.5,199.5C 199.13,200.421 200.797,201.255 202.5,202C 201.476,203.367 201.976,204.2 204,204.5C 208.05,201.929 212.05,201.929 216,204.5C 217.088,201.508 216.421,200.508 214,201.5C 212.068,199.784 209.901,198.451 207.5,197.5C 208.729,196.719 210.062,196.219 211.5,196C 211.043,195.586 210.709,195.086 210.5,194.5C 219.757,192.786 229.09,191.619 238.5,191C 235.833,190.667 233.167,190.333 230.5,190C 228.713,187.266 226.713,184.766 224.5,182.5C 224.167,182.667 223.833,182.833 223.5,183C 225.229,184.789 225.896,186.956 225.5,189.5C 222.21,188.742 219.044,188.742 216,189.5C 212.505,190.034 209.338,191.367 206.5,193.5C 205.289,192.726 205.289,191.893 206.5,191C 204.833,189 203.167,189 201.5,191C 205.353,191.662 205.353,192.496 201.5,193.5C 199.666,192.246 197.666,191.579 195.5,191.5C 195.5,192.5 195.5,193.5 195.5,194.5C 192.753,194.813 190.086,194.48 187.5,193.5C 190.389,193.124 192.389,191.624 193.5,189C 195.657,188.922 197.657,188.755 199.5,188.5C 196.893,187.682 194.226,187.182 191.5,187C 190.542,185.853 190.875,184.853 192.5,184C 191.5,183.667 190.5,183.333 189.5,183C 192.833,182.333 196.167,182.333 199.5,183C 198.5,183.333 197.5,183.667 196.5,184C 200.167,184.667 203.833,184.667 207.5,184C 206.207,183.51 204.873,183.343 203.5,183.5C 204.092,180.873 204.425,178.206 204.5,175.5C 205.552,175.649 206.552,175.483 207.5,175C 205.608,174.027 203.608,173.36 201.5,173C 206.512,172.964 211.179,171.797 215.5,169.5C 212.777,168.389 209.944,167.722 207,167.5C 201.196,168.664 195.363,169.664 189.5,170.5C 189.081,171.672 188.415,172.672 187.5,173.5C 185.641,171.808 183.641,170.308 181.5,169C 182.711,168.107 182.711,167.274 181.5,166.5C 179.889,167.32 179.222,168.654 179.5,170.5C 175.989,169.854 172.489,169.521 169,169.5C 166.865,170.127 164.698,170.627 162.5,171C 167.45,171.832 167.116,172.666 161.5,173.5C 159.789,171.799 157.789,170.466 155.5,169.5C 153.167,168.167 150.833,168.167 148.5,169.5C 150.396,170.466 152.396,170.799 154.5,170.5C 154.5,171.5 154.5,172.5 154.5,173.5C 153.685,174.838 150.018,175.005 143.5,174C 145.5,174.667 147.5,175.333 149.5,176C 146.534,176.895 143.867,176.395 141.5,174.5C 138.998,175.683 136.665,176.349 134.5,176.5C 133.718,174.671 134.384,173.171 136.5,172C 136,171.833 135.5,171.667 135,171.5C 130.682,172.571 126.515,173.905 122.5,175.5C 119.375,174.455 116.541,175.122 114,177.5C 113.196,176.196 112.029,175.529 110.5,175.5C 108.845,176.228 107.179,176.395 105.5,176C 105.833,175.667 106.167,175.333 106.5,175C 102.731,174.234 102.898,173.401 107,172.5C 111.148,175.31 114.982,174.977 118.5,171.5C 120.516,172.706 122.516,172.706 124.5,171.5C 125.779,169.854 127.445,168.687 129.5,168C 128.167,167.667 126.833,167.333 125.5,167C 129.222,166.762 132.889,166.262 136.5,165.5C 139.076,166.883 138.742,167.717 135.5,168C 137.863,168.663 140.363,169.163 143,169.5C 144.067,168.809 145.234,168.309 146.5,168C 142.844,166.722 139.177,165.555 135.5,164.5C 135.5,162.833 135.5,161.167 135.5,159.5C 139.172,158.955 138.838,158.622 134.5,158.5C 167.596,151.883 200.93,145.883 234.5,140.5 Z"/></g>
<g><path style="opacity:1" fill="#4e4e4e" d="M 134.5,158.5 C 138.838,158.622 139.172,158.955 135.5,159.5C 135.5,161.167 135.5,162.833 135.5,164.5C 139.177,165.555 142.844,166.722 146.5,168C 145.234,168.309 144.067,168.809 143,169.5C 140.363,169.163 137.863,168.663 135.5,168C 138.742,167.717 139.076,166.883 136.5,165.5C 132.889,166.262 129.222,166.762 125.5,167C 126.833,167.333 128.167,167.667 129.5,168C 127.445,168.687 125.779,169.854 124.5,171.5C 122.516,172.706 120.516,172.706 118.5,171.5C 114.982,174.977 111.148,175.31 107,172.5C 102.898,173.401 102.731,174.234 106.5,175C 106.167,175.333 105.833,175.667 105.5,176C 107.179,176.395 108.845,176.228 110.5,175.5C 112.029,175.529 113.196,176.196 114,177.5C 116.541,175.122 119.375,174.455 122.5,175.5C 126.515,173.905 130.682,172.571 135,171.5C 135.5,171.667 136,171.833 136.5,172C 134.384,173.171 133.718,174.671 134.5,176.5C 136.665,176.349 138.998,175.683 141.5,174.5C 143.867,176.395 146.534,176.895 149.5,176C 147.5,175.333 145.5,174.667 143.5,174C 150.018,175.005 153.685,174.838 154.5,173.5C 154.5,172.5 154.5,171.5 154.5,170.5C 152.396,170.799 150.396,170.466 148.5,169.5C 150.833,168.167 153.167,168.167 155.5,169.5C 157.789,170.466 159.789,171.799 161.5,173.5C 167.116,172.666 167.45,171.832 162.5,171C 164.698,170.627 166.865,170.127 169,169.5C 172.489,169.521 175.989,169.854 179.5,170.5C 179.222,168.654 179.889,167.32 181.5,166.5C 182.711,167.274 182.711,168.107 181.5,169C 183.641,170.308 185.641,171.808 187.5,173.5C 188.415,172.672 189.081,171.672 189.5,170.5C 195.363,169.664 201.196,168.664 207,167.5C 209.944,167.722 212.777,168.389 215.5,169.5C 211.179,171.797 206.512,172.964 201.5,173C 203.608,173.36 205.608,174.027 207.5,175C 206.552,175.483 205.552,175.649 204.5,175.5C 204.425,178.206 204.092,180.873 203.5,183.5C 204.873,183.343 206.207,183.51 207.5,184C 203.833,184.667 200.167,184.667 196.5,184C 197.5,183.667 198.5,183.333 199.5,183C 196.167,182.333 192.833,182.333 189.5,183C 190.5,183.333 191.5,183.667 192.5,184C 190.875,184.853 190.542,185.853 191.5,187C 194.226,187.182 196.893,187.682 199.5,188.5C 197.657,188.755 195.657,188.922 193.5,189C 192.389,191.624 190.389,193.124 187.5,193.5C 190.086,194.48 192.753,194.813 195.5,194.5C 195.5,193.5 195.5,192.5 195.5,191.5C 197.666,191.579 199.666,192.246 201.5,193.5C 205.353,192.496 205.353,191.662 201.5,191C 203.167,189 204.833,189 206.5,191C 205.289,191.893 205.289,192.726 206.5,193.5C 209.338,191.367 212.505,190.034 216,189.5C 219.044,188.742 222.21,188.742 225.5,189.5C 225.896,186.956 225.229,184.789 223.5,183C 223.833,182.833 224.167,182.667 224.5,182.5C 226.713,184.766 228.713,187.266 230.5,190C 233.167,190.333 235.833,190.667 238.5,191C 229.09,191.619 219.757,192.786 210.5,194.5C 210.709,195.086 211.043,195.586 211.5,196C 210.062,196.219 208.729,196.719 207.5,197.5C 209.901,198.451 212.068,199.784 214,201.5C 216.421,200.508 217.088,201.508 216,204.5C 212.05,201.929 208.05,201.929 204,204.5C 201.976,204.2 201.476,203.367 202.5,202C 200.797,201.255 199.13,200.421 197.5,199.5C 195.87,200.421 194.203,201.255 192.5,202C 195.226,202.182 197.893,202.682 200.5,203.5C 201.855,204.675 201.688,205.675 200,206.5C 199.275,204.842 198.108,204.342 196.5,205C 197.88,206.324 198.214,207.657 197.5,209C 199.862,208.496 202.195,208.663 204.5,209.5C 205.167,209.333 205.833,209.167 206.5,209C 205.5,208.167 204.5,207.333 203.5,206.5C 204.167,206.167 204.833,205.833 205.5,205.5C 206.5,206.167 207.5,206.833 208.5,207.5C 210.425,207.41 211.592,206.41 212,204.5C 212.674,205.578 213.674,206.245 215,206.5C 216.551,205.946 218.051,205.28 219.5,204.5C 222.191,206.252 222.858,205.752 221.5,203C 225.108,202.974 228.442,202.141 231.5,200.5C 232.556,202.646 234.056,204.312 236,205.5C 237.63,204.287 239.464,203.454 241.5,203C 242.141,200.87 243.474,199.37 245.5,198.5C 246.998,200.829 248.998,202.663 251.5,204C 250.833,205 250.167,206 249.5,207C 245.822,207.418 242.155,207.918 238.5,208.5C 235.788,208.547 233.622,207.547 232,205.5C 231.517,206.448 231.351,207.448 231.5,208.5C 232.552,208.351 233.552,208.517 234.5,209C 233.416,211.825 232.249,211.992 231,209.5C 223.637,211.229 223.804,212.229 231.5,212.5C 224.469,213.246 217.469,214.246 210.5,215.5C 177.84,216.307 145.173,216.64 112.5,216.5C 94.5921,215.308 76.5921,213.475 58.5,211C 47.9955,209.067 37.6621,206.567 27.5,203.5C 27.3309,198.959 27.9975,198.626 29.5,202.5C 31.503,200.867 32.8363,198.867 33.5,196.5C 30.4359,196.856 27.7693,196.023 25.5,194C 26.1667,193.333 26.8333,192.667 27.5,192C 25.9808,190.782 24.8141,189.282 24,187.5C 23.0853,188.328 22.4186,189.328 22,190.5C 19.5092,189.78 17.0092,189.113 14.5,188.5C 16.7244,185.376 19.7244,183.209 23.5,182C 29.1077,180.014 34.7744,178.181 40.5,176.5C 71.6209,169.342 102.954,163.342 134.5,158.5 Z"/></g>
<g><path style="opacity:1" fill="#0f0f0f" d="M 428.5,177.5 C 430.026,178.105 431.026,179.271 431.5,181C 430.619,190.827 429.786,200.993 429,211.5C 428.205,208.839 426.871,206.505 425,204.5C 424.667,205.167 424.333,205.833 424,206.5C 419.92,205.7 415.753,205.2 411.5,205C 410.167,204.333 408.833,203.667 407.5,203C 401.5,202.667 395.5,202.333 389.5,202C 388.874,201.25 388.374,200.416 388,199.5C 383.304,200.914 382.804,200.414 386.5,198C 384.407,196.073 382.407,196.24 380.5,198.5C 378.104,196.933 375.437,196.1 372.5,196C 373.888,195.111 373.722,194.611 372,194.5C 371.747,195.535 370.914,196.535 369.5,197.5C 368.289,196.726 368.289,195.893 369.5,195C 367.623,194.424 365.789,194.591 364,195.5C 362.316,195.317 362.15,194.65 363.5,193.5C 385.07,187.754 406.736,182.421 428.5,177.5 Z"/></g>
<g><path style="opacity:1" fill="#454545" d="M 27.5,203.5 C 24.1742,203.967 23.8409,205.134 26.5,207C 46.4096,213.207 66.7429,217.04 87.5,218.5C 87.3893,219.117 87.056,219.617 86.5,220C 88.2487,221.292 90.082,222.458 92,223.5C 92.4955,225.473 92.6621,227.473 92.5,229.5C 91.6701,238.658 91.1701,247.991 91,257.5C 90.6667,249.167 90.3333,240.833 90,232.5C 89.2411,230.937 88.0744,229.937 86.5,229.5C 86.8016,226.941 86.4682,224.607 85.5,222.5C 65.6187,220.798 46.2854,216.632 27.5,210C 21.8083,207.239 16.975,203.406 13,198.5C 12.3333,195.5 12.3333,192.5 13,189.5C 13.3826,188.944 13.8826,188.611 14.5,188.5C 17.0092,189.113 19.5092,189.78 22,190.5C 22.4186,189.328 23.0853,188.328 24,187.5C 24.8141,189.282 25.9808,190.782 27.5,192C 26.8333,192.667 26.1667,193.333 25.5,194C 27.7693,196.023 30.4359,196.856 33.5,196.5C 32.8363,198.867 31.503,200.867 29.5,202.5C 27.9975,198.626 27.3309,198.959 27.5,203.5 Z"/></g>
<g><path style="opacity:1" fill="#2b2b2b" d="M 479.5,156.5 C 474.348,162.919 467.681,167.085 459.5,169C 451.876,171.156 444.21,173.156 436.5,175C 435.103,176.31 434.103,177.81 433.5,179.5C 433.767,175.37 432.101,174.704 428.5,177.5C 406.736,182.421 385.07,187.754 363.5,193.5C 356.833,195.167 350.167,196.833 343.5,198.5C 337.548,200.068 331.548,201.735 325.5,203.5C 326.269,206.51 327.103,209.51 328,212.5C 328.563,206.659 329.73,206.326 331.5,211.5C 332.333,209.5 333.167,207.5 334,205.5C 334.667,206.833 335.333,206.833 336,205.5C 336.617,206.449 336.451,207.282 335.5,208C 337.654,209.32 339.154,211.153 340,213.5C 341.395,212.185 342.395,212.519 343,214.5C 344.264,212.393 346.097,211.393 348.5,211.5C 348.5,212.5 348.5,213.5 348.5,214.5C 349.822,214.67 350.989,214.337 352,213.5C 351.647,215.228 351.481,216.894 351.5,218.5C 352.233,219.087 353.233,219.087 354.5,218.5C 353.968,220.63 353.135,222.63 352,224.5C 349.791,222.029 347.458,219.696 345,217.5C 344.29,218.973 343.124,219.64 341.5,219.5C 341.421,220.93 341.754,222.264 342.5,223.5C 342.154,224.696 341.654,224.696 341,223.5C 340.115,220.274 338.781,217.274 337,214.5C 336.683,216.301 336.016,216.634 335,215.5C 334.667,216.833 334.333,218.167 334,219.5C 333.751,218.376 333.251,217.376 332.5,216.5C 331.83,218.291 331.163,219.958 330.5,221.5C 329.698,220.048 329.198,218.382 329,216.5C 328.066,226.174 327.066,235.84 326,245.5C 325.015,243.634 324.515,241.634 324.5,239.5C 325.167,236.5 325.833,233.5 326.5,230.5C 325.347,225.221 324.514,219.888 324,214.5C 322.66,230.48 321.327,230.48 320,214.5C 319.503,221.503 318.837,221.837 318,215.5C 317.82,218.956 317.153,222.289 316,225.5C 315.773,220.103 315.106,214.769 314,209.5C 313.667,213.833 313.333,218.167 313,222.5C 311.826,218.954 311.16,215.287 311,211.5C 310.667,212.167 310.333,212.833 310,213.5C 309.333,212.167 308.667,212.167 308,213.5C 307.333,214.833 306.667,216.167 306,217.5C 305.259,214.438 305.425,211.438 306.5,208.5C 306.167,208.167 305.833,207.833 305.5,207.5C 304.729,209.862 303.895,212.196 303,214.5C 302.506,212.866 302.34,211.199 302.5,209.5C 300.876,209.36 299.71,210.027 299,211.5C 297.605,210.185 296.605,210.519 296,212.5C 292.66,211.845 289.327,211.511 286,211.5C 283.579,212.474 281.079,213.14 278.5,213.5C 275.64,213.445 273.307,212.445 271.5,210.5C 286.648,206.715 301.981,203.549 317.5,201C 314.793,200.605 312.127,200.105 309.5,199.5C 312.167,198.5 314.833,197.5 317.5,196.5C 338.612,192.139 359.612,187.305 380.5,182C 385.311,180.552 389.977,179.052 394.5,177.5C 414.173,173.111 433.839,168.611 453.5,164C 462.129,161.514 470.462,158.347 478.5,154.5C 479.298,154.957 479.631,155.624 479.5,156.5 Z"/></g>
<g><path style="opacity:1" fill="#151515" d="M 433.5,179.5 C 433.5,180.5 433.5,181.5 433.5,182.5C 431.441,199.328 429.607,216.328 428,233.5C 427.667,229.833 427.333,226.167 427,222.5C 426.667,222.833 426.333,223.167 426,223.5C 425.781,222.062 425.281,220.729 424.5,219.5C 423.5,218.167 422.5,218.167 421.5,219.5C 420.186,218.687 419.019,217.687 418,216.5C 416.22,219.6 413.886,219.6 411,216.5C 409.989,217.337 408.822,217.67 407.5,217.5C 407.5,216.5 407.5,215.5 407.5,214.5C 405.266,214.62 403.099,214.287 401,213.5C 400,214.167 399,214.833 398,215.5C 396.037,214.375 394.204,213.041 392.5,211.5C 390.051,211.98 387.885,212.98 386,214.5C 384.55,210.329 381.883,208.995 378,210.5C 375.73,209.273 373.897,207.606 372.5,205.5C 370.253,207.694 368.086,207.361 366,204.5C 364.347,204.82 363.347,205.82 363,207.5C 361.923,205.295 361.257,203.295 361,201.5C 360.667,202.167 360.333,202.833 360,203.5C 354.695,201.12 349.195,199.453 343.5,198.5C 350.167,196.833 356.833,195.167 363.5,193.5C 362.15,194.65 362.316,195.317 364,195.5C 365.789,194.591 367.623,194.424 369.5,195C 368.289,195.893 368.289,196.726 369.5,197.5C 370.914,196.535 371.747,195.535 372,194.5C 373.722,194.611 373.888,195.111 372.5,196C 375.437,196.1 378.104,196.933 380.5,198.5C 382.407,196.24 384.407,196.073 386.5,198C 382.804,200.414 383.304,200.914 388,199.5C 388.374,200.416 388.874,201.25 389.5,202C 395.5,202.333 401.5,202.667 407.5,203C 408.833,203.667 410.167,204.333 411.5,205C 415.753,205.2 419.92,205.7 424,206.5C 424.333,205.833 424.667,205.167 425,204.5C 426.871,206.505 428.205,208.839 429,211.5C 429.786,200.993 430.619,190.827 431.5,181C 431.026,179.271 430.026,178.105 428.5,177.5C 432.101,174.704 433.767,175.37 433.5,179.5 Z"/></g>
<g><path style="opacity:1" fill="#1f1f1f" d="M 433.5,182.5 C 433.713,193.527 433.38,204.527 432.5,215.5C 431.732,216.263 431.232,217.263 431,218.5C 430.497,233.859 429.663,249.193 428.5,264.5C 427.671,256.343 427.171,248.01 427,239.5C 426.794,236.377 426.127,233.377 425,230.5C 424.667,231.833 424.333,233.167 424,234.5C 421.993,231.885 419.493,231.218 416.5,232.5C 414.436,230.385 412.27,228.385 410,226.5C 408.354,228.141 407.354,227.807 407,225.5C 405.097,225.694 403.263,225.694 401.5,225.5C 400.713,224.758 400.047,223.925 399.5,223C 396.518,222.502 393.518,222.335 390.5,222.5C 390.5,221.5 390.5,220.5 390.5,219.5C 386.269,221.632 384.102,220.299 384,215.5C 383.86,218.043 383.194,220.377 382,222.5C 381.439,219.71 380.106,217.377 378,215.5C 377.531,217.108 376.865,218.775 376,220.5C 375.808,218.423 375.308,216.423 374.5,214.5C 371.889,217.523 369.222,217.856 366.5,215.5C 364.537,217.967 363.371,220.967 363,224.5C 362.105,220.79 361.105,217.123 360,213.5C 357.901,215.291 357.401,217.291 358.5,219.5C 356.836,218.051 356.002,216.051 356,213.5C 354.731,214.905 354.231,216.571 354.5,218.5C 353.233,219.087 352.233,219.087 351.5,218.5C 351.481,216.894 351.647,215.228 352,213.5C 350.989,214.337 349.822,214.67 348.5,214.5C 348.5,213.5 348.5,212.5 348.5,211.5C 346.097,211.393 344.264,212.393 343,214.5C 342.395,212.519 341.395,212.185 340,213.5C 339.154,211.153 337.654,209.32 335.5,208C 336.451,207.282 336.617,206.449 336,205.5C 335.333,206.833 334.667,206.833 334,205.5C 333.167,207.5 332.333,209.5 331.5,211.5C 329.73,206.326 328.563,206.659 328,212.5C 327.103,209.51 326.269,206.51 325.5,203.5C 331.548,201.735 337.548,200.068 343.5,198.5C 349.195,199.453 354.695,201.12 360,203.5C 360.333,202.833 360.667,202.167 361,201.5C 361.257,203.295 361.923,205.295 363,207.5C 363.347,205.82 364.347,204.82 366,204.5C 368.086,207.361 370.253,207.694 372.5,205.5C 373.897,207.606 375.73,209.273 378,210.5C 381.883,208.995 384.55,210.329 386,214.5C 387.885,212.98 390.051,211.98 392.5,211.5C 394.204,213.041 396.037,214.375 398,215.5C 399,214.833 400,214.167 401,213.5C 403.099,214.287 405.266,214.62 407.5,214.5C 407.5,215.5 407.5,216.5 407.5,217.5C 408.822,217.67 409.989,217.337 411,216.5C 413.886,219.6 416.22,219.6 418,216.5C 419.019,217.687 420.186,218.687 421.5,219.5C 422.5,218.167 423.5,218.167 424.5,219.5C 425.281,220.729 425.781,222.062 426,223.5C 426.333,223.167 426.667,222.833 427,222.5C 427.333,226.167 427.667,229.833 428,233.5C 429.607,216.328 431.441,199.328 433.5,182.5 Z"/></g>
<g><path style="opacity:0.998" fill="#383838" d="M 330.5,221.5 C 330.334,227.509 330.501,233.509 331,239.5C 331.958,234.877 332.625,230.21 333,225.5C 334,226.833 335,226.833 336,225.5C 336.492,226.549 336.326,227.549 335.5,228.5C 335.808,229.308 336.308,229.975 337,230.5C 337.728,227.77 337.562,225.103 336.5,222.5C 336.808,221.692 337.308,221.025 338,220.5C 338.853,224.469 339.519,228.469 340,232.5C 341.887,234.026 342.887,236.026 343,238.5C 343.333,238.167 343.667,237.833 344,237.5C 343.951,234.655 343.451,231.822 342.5,229C 342.796,227.112 343.296,225.278 344,223.5C 344.361,226.525 344.861,229.525 345.5,232.5C 346.814,233.986 347.814,235.653 348.5,237.5C 347.861,240.475 347.361,243.475 347,246.5C 345.956,244.285 345.29,241.952 345,239.5C 343.83,242.505 342.664,245.505 341.5,248.5C 340.833,247.167 340.167,245.833 339.5,244.5C 339.167,244.833 338.833,245.167 338.5,245.5C 338.294,249.516 336.794,252.849 334,255.5C 333.667,257.5 333.333,259.5 333,261.5C 332.528,257.916 331.361,254.583 329.5,251.5C 331.467,248.807 331.633,246.14 330,243.5C 328.755,249.789 327.755,256.122 327,262.5C 326.308,261.975 325.808,261.308 325.5,260.5C 326.325,256.427 326.492,252.094 326,247.5C 324.898,251.416 324.231,255.416 324,259.5C 321.272,264.786 320.606,264.786 322,259.5C 322.999,254.187 323.332,248.854 323,243.5C 322.092,248.193 321.092,252.86 320,257.5C 317.107,260.619 315.274,264.286 314.5,268.5C 313.762,264.871 313.929,261.204 315,257.5C 317.368,255.316 318.035,252.649 317,249.5C 313.674,255.811 311.341,262.477 310,269.5C 309.667,267.833 309.333,266.167 309,264.5C 307.853,265.458 306.853,265.125 306,263.5C 305.506,265.134 305.34,266.801 305.5,268.5C 303.738,268.643 302.071,268.309 300.5,267.5C 298.69,270.441 296.857,273.441 295,276.5C 294.163,274.993 292.996,274.493 291.5,275C 291.232,277.476 290.898,279.976 290.5,282.5C 289.108,281.395 287.941,280.061 287,278.5C 285.67,282.495 284.337,286.495 283,290.5C 282.667,290.167 282.333,289.833 282,289.5C 281.138,291.087 280.471,292.754 280,294.5C 279.667,293.833 279.333,293.167 279,292.5C 278.667,294.833 278.333,297.167 278,299.5C 277.667,296.833 277.333,294.167 277,291.5C 276.131,296.508 275.464,296.175 275,290.5C 274.667,283.167 274.333,275.833 274,268.5C 273.5,277.827 273.334,287.161 273.5,296.5C 273.5,304.167 273.5,311.833 273.5,319.5C 272.457,285.064 272.457,250.897 273.5,217C 272.975,216.308 272.308,215.808 271.5,215.5C 268.209,216.382 264.876,217.048 261.5,217.5C 261.826,226.349 261.493,235.016 260.5,243.5C 260.5,236.833 260.5,230.167 260.5,223.5C 260.5,221.5 260.5,219.5 260.5,217.5C 259.602,215.373 257.936,214.206 255.5,214C 258.769,212.311 262.103,212.144 265.5,213.5C 267.197,213.101 268.863,212.601 270.5,212C 266.774,210.957 267.107,210.457 271.5,210.5C 273.307,212.445 275.64,213.445 278.5,213.5C 281.079,213.14 283.579,212.474 286,211.5C 289.327,211.511 292.66,211.845 296,212.5C 296.605,210.519 297.605,210.185 299,211.5C 299.71,210.027 300.876,209.36 302.5,209.5C 302.34,211.199 302.506,212.866 303,214.5C 303.895,212.196 304.729,209.862 305.5,207.5C 305.833,207.833 306.167,208.167 306.5,208.5C 305.425,211.438 305.259,214.438 306,217.5C 306.667,216.167 307.333,214.833 308,213.5C 308.667,212.167 309.333,212.167 310,213.5C 310.333,212.833 310.667,212.167 311,211.5C 311.16,215.287 311.826,218.954 313,222.5C 313.333,218.167 313.667,213.833 314,209.5C 315.106,214.769 315.773,220.103 316,225.5C 317.153,222.289 317.82,218.956 318,215.5C 318.837,221.837 319.503,221.503 320,214.5C 321.327,230.48 322.66,230.48 324,214.5C 324.514,219.888 325.347,225.221 326.5,230.5C 325.833,233.5 325.167,236.5 324.5,239.5C 324.515,241.634 325.015,243.634 326,245.5C 327.066,235.84 328.066,226.174 329,216.5C 329.198,218.382 329.698,220.048 330.5,221.5 Z"/></g>
<g><path style="opacity:1" fill="#232323" d="M 309.5,199.5 C 312.127,200.105 314.793,200.605 317.5,201C 301.981,203.549 286.648,206.715 271.5,210.5C 267.107,210.457 266.774,210.957 270.5,212C 268.863,212.601 267.197,213.101 265.5,213.5C 262.103,212.144 258.769,212.311 255.5,214C 257.936,214.206 259.602,215.373 260.5,217.5C 236.279,221.191 211.945,223.858 187.5,225.5C 173.5,225.5 159.5,225.5 145.5,225.5C 146.609,224.71 147.942,224.21 149.5,224C 147.567,223.749 145.734,223.249 144,222.5C 134.152,223.35 124.152,222.684 114,220.5C 112.774,220.645 111.607,220.978 110.5,221.5C 109.751,219.988 108.584,218.988 107,218.5C 100.527,219.405 94.0275,219.405 87.5,218.5C 66.7429,217.04 46.4096,213.207 26.5,207C 23.8409,205.134 24.1742,203.967 27.5,203.5C 37.6621,206.567 47.9955,209.067 58.5,211C 76.5921,213.475 94.5921,215.308 112.5,216.5C 109.482,216.335 106.482,216.502 103.5,217C 146.817,221.553 190.15,221.553 233.5,217C 237.531,216.519 241.531,215.853 245.5,215C 243.567,214.749 241.734,214.249 240,213.5C 235.426,215.835 230.593,216.169 225.5,214.5C 224.304,214.846 224.304,215.346 225.5,216C 220.481,216.498 215.481,216.332 210.5,215.5C 217.469,214.246 224.469,213.246 231.5,212.5C 244.241,211.608 256.908,210.108 269.5,208C 282.746,204.637 296.079,201.804 309.5,199.5 Z"/></g>
<g><path style="opacity:1" fill="#292929" d="M 366.5,215.5 C 366.154,218.602 366.821,221.435 368.5,224C 367.424,225.726 367.257,227.559 368,229.5C 369.35,225.947 370.517,222.281 371.5,218.5C 374.415,222.675 375.915,227.342 376,232.5C 377.428,228.863 378.428,224.529 379,219.5C 381,223.833 383,228.166 385,232.5C 385.743,230.559 385.576,228.726 384.5,227C 385.191,225.933 385.691,224.766 386,223.5C 386.895,225.804 387.729,228.138 388.5,230.5C 389.298,228.922 389.798,227.256 390,225.5C 390.333,225.833 390.667,226.167 391,226.5C 391.182,229.226 391.682,231.893 392.5,234.5C 392.36,232.744 392.86,231.078 394,229.5C 398.067,231.709 400.067,235.709 400,241.5C 400.302,237.943 401.302,234.61 403,231.5C 404.608,240.698 405.608,240.698 406,231.5C 407.092,234.044 407.759,236.711 408,239.5C 408.851,236.388 410.017,236.054 411.5,238.5C 413.833,237.5 414.5,238.167 413.5,240.5C 413.833,241.5 414.5,242.167 415.5,242.5C 417.083,239.006 418.75,238.84 420.5,242C 421.448,242.483 422.448,242.649 423.5,242.5C 423.711,246.217 424.711,249.717 426.5,253C 426.023,255.888 425.356,258.721 424.5,261.5C 424.846,262.696 425.346,262.696 426,261.5C 426.414,266.53 426.081,271.53 425,276.5C 424.755,272.147 424.755,267.813 425,263.5C 424.813,265.891 423.98,267.058 422.5,267C 422.77,269.959 423.103,273.126 423.5,276.5C 420.833,276.5 418.167,276.5 415.5,276.5C 415.557,280.133 414.557,280.3 412.5,277C 410.866,276.506 409.199,276.34 407.5,276.5C 407.657,277.873 407.49,279.207 407,280.5C 406.667,277.5 406.333,274.5 406,271.5C 405.803,276.178 404.803,276.512 403,272.5C 402.251,277.489 401.585,282.489 401,287.5C 400.667,281.5 400.333,275.5 400,269.5C 399.505,271.473 399.338,273.473 399.5,275.5C 396.552,275.223 393.719,275.556 391,276.5C 390.751,275.376 390.251,274.376 389.5,273.5C 387.737,281.287 386.404,281.287 385.5,273.5C 384.682,276.107 384.182,278.774 384,281.5C 383.261,279.779 382.427,278.113 381.5,276.5C 380.167,280.5 378.833,280.5 377.5,276.5C 376.833,277.5 376.167,278.5 375.5,279.5C 374.692,277.577 374.192,275.577 374,273.5C 372.878,276.076 371.878,278.743 371,281.5C 370.212,277.427 369.212,273.427 368,269.5C 367.631,272.877 367.631,276.21 368,279.5C 366.68,279.201 365.18,279.034 363.5,279C 362.874,278.25 362.374,277.416 362,276.5C 360.354,277.779 359.187,279.445 358.5,281.5C 356.869,279.941 356.036,277.941 356,275.5C 355.51,276.793 355.343,278.127 355.5,279.5C 353.738,279.357 352.071,279.691 350.5,280.5C 349.187,273.584 348.02,273.251 347,279.5C 346.174,271.527 345.674,271.527 345.5,279.5C 344.5,279.5 343.5,279.5 342.5,279.5C 342.719,278.325 342.386,277.325 341.5,276.5C 340.253,278.006 340.253,279.506 341.5,281C 337.93,284.656 335.263,284.156 333.5,279.5C 332.702,281.078 332.202,282.744 332,284.5C 331.333,285.833 330.667,285.833 330,284.5C 329.167,285.5 328.333,286.5 327.5,287.5C 326.833,284.833 326.167,282.167 325.5,279.5C 323.583,281.383 322.083,284.05 321,287.5C 319.424,286.987 318.091,287.654 317,289.5C 315.584,287.64 314.084,285.973 312.5,284.5C 312.575,281.794 312.908,279.127 313.5,276.5C 314.5,276.5 315.5,276.5 316.5,276.5C 316.281,275.325 316.614,274.325 317.5,273.5C 318.167,275.5 318.833,277.5 319.5,279.5C 320.327,277.838 321.493,276.505 323,275.5C 323.186,273.1 323.686,270.766 324.5,268.5C 325.842,269.902 326.676,269.569 327,267.5C 326.58,271.614 326.913,275.614 328,279.5C 329.036,276.247 329.703,272.914 330,269.5C 330.333,269.167 330.667,268.833 331,268.5C 331.249,269.624 331.749,270.624 332.5,271.5C 333.944,268.945 335.111,266.279 336,263.5C 337.072,266.218 338.238,268.885 339.5,271.5C 340.527,268.448 341.861,265.615 343.5,263C 342.549,262.282 342.383,261.449 343,260.5C 345.041,263.301 347.041,265.968 349,268.5C 351.147,267.404 351.647,265.904 350.5,264C 351.293,260.589 351.793,257.089 352,253.5C 352.172,257.871 352.672,262.204 353.5,266.5C 354.547,262.888 355.38,259.221 356,255.5C 356.173,260.172 356.006,264.672 355.5,269C 356,269.5 356.5,270 357,270.5C 360.855,256.097 362.188,241.43 361,226.5C 360.302,223.996 359.469,221.663 358.5,219.5C 357.401,217.291 357.901,215.291 360,213.5C 361.105,217.123 362.105,220.79 363,224.5C 363.371,220.967 364.537,217.967 366.5,215.5 Z"/></g>
<g><path style="opacity:0.998" fill="#2f2f2f" d="M 358.5,219.5 C 359.469,221.663 360.302,223.996 361,226.5C 362.188,241.43 360.855,256.097 357,270.5C 356.5,270 356,269.5 355.5,269C 356.006,264.672 356.173,260.172 356,255.5C 355.38,259.221 354.547,262.888 353.5,266.5C 352.672,262.204 352.172,257.871 352,253.5C 351.793,257.089 351.293,260.589 350.5,264C 351.647,265.904 351.147,267.404 349,268.5C 347.041,265.968 345.041,263.301 343,260.5C 342.383,261.449 342.549,262.282 343.5,263C 341.861,265.615 340.527,268.448 339.5,271.5C 338.238,268.885 337.072,266.218 336,263.5C 335.111,266.279 333.944,268.945 332.5,271.5C 331.749,270.624 331.249,269.624 331,268.5C 330.667,268.833 330.333,269.167 330,269.5C 329.703,272.914 329.036,276.247 328,279.5C 326.913,275.614 326.58,271.614 327,267.5C 326.676,269.569 325.842,269.902 324.5,268.5C 323.686,270.766 323.186,273.1 323,275.5C 321.493,276.505 320.327,277.838 319.5,279.5C 318.833,277.5 318.167,275.5 317.5,273.5C 316.614,274.325 316.281,275.325 316.5,276.5C 315.5,276.5 314.5,276.5 313.5,276.5C 312.908,279.127 312.575,281.794 312.5,284.5C 311.675,280.353 311.175,276.019 311,271.5C 310,274.833 309,278.167 308,281.5C 307.311,280.643 306.478,279.977 305.5,279.5C 304.702,281.078 304.202,282.744 304,284.5C 303.667,283.833 303.333,283.167 303,282.5C 301.812,283.563 301.312,284.897 301.5,286.5C 299.143,286.337 296.81,286.503 294.5,287C 295.138,291.857 292.804,294.024 287.5,293.5C 287.799,295.604 287.466,297.604 286.5,299.5C 285.914,299.291 285.414,298.957 285,298.5C 283.872,300.345 283.372,302.345 283.5,304.5C 282.178,304.67 281.011,304.337 280,303.5C 280.195,305.126 280.195,306.793 280,308.5C 279.667,307.833 279.333,307.167 279,306.5C 278.667,308.833 278.333,311.167 278,313.5C 277.586,313.043 277.086,312.709 276.5,312.5C 275.719,313.729 275.219,315.062 275,316.5C 274.828,309.654 274.328,302.987 273.5,296.5C 273.334,287.161 273.5,277.827 274,268.5C 274.333,275.833 274.667,283.167 275,290.5C 275.464,296.175 276.131,296.508 277,291.5C 277.333,294.167 277.667,296.833 278,299.5C 278.333,297.167 278.667,294.833 279,292.5C 279.333,293.167 279.667,293.833 280,294.5C 280.471,292.754 281.138,291.087 282,289.5C 282.333,289.833 282.667,290.167 283,290.5C 284.337,286.495 285.67,282.495 287,278.5C 287.941,280.061 289.108,281.395 290.5,282.5C 290.898,279.976 291.232,277.476 291.5,275C 292.996,274.493 294.163,274.993 295,276.5C 296.857,273.441 298.69,270.441 300.5,267.5C 302.071,268.309 303.738,268.643 305.5,268.5C 305.34,266.801 305.506,265.134 306,263.5C 306.853,265.125 307.853,265.458 309,264.5C 309.333,266.167 309.667,267.833 310,269.5C 311.341,262.477 313.674,255.811 317,249.5C 318.035,252.649 317.368,255.316 315,257.5C 313.929,261.204 313.762,264.871 314.5,268.5C 315.274,264.286 317.107,260.619 320,257.5C 321.092,252.86 322.092,248.193 323,243.5C 323.332,248.854 322.999,254.187 322,259.5C 320.606,264.786 321.272,264.786 324,259.5C 324.231,255.416 324.898,251.416 326,247.5C 326.492,252.094 326.325,256.427 325.5,260.5C 325.808,261.308 326.308,261.975 327,262.5C 327.755,256.122 328.755,249.789 330,243.5C 331.633,246.14 331.467,248.807 329.5,251.5C 331.361,254.583 332.528,257.916 333,261.5C 333.333,259.5 333.667,257.5 334,255.5C 336.794,252.849 338.294,249.516 338.5,245.5C 338.833,245.167 339.167,244.833 339.5,244.5C 340.167,245.833 340.833,247.167 341.5,248.5C 342.664,245.505 343.83,242.505 345,239.5C 345.29,241.952 345.956,244.285 347,246.5C 347.361,243.475 347.861,240.475 348.5,237.5C 347.814,235.653 346.814,233.986 345.5,232.5C 344.861,229.525 344.361,226.525 344,223.5C 343.296,225.278 342.796,227.112 342.5,229C 343.451,231.822 343.951,234.655 344,237.5C 343.667,237.833 343.333,238.167 343,238.5C 342.887,236.026 341.887,234.026 340,232.5C 339.519,228.469 338.853,224.469 338,220.5C 337.308,221.025 336.808,221.692 336.5,222.5C 337.562,225.103 337.728,227.77 337,230.5C 336.308,229.975 335.808,229.308 335.5,228.5C 336.326,227.549 336.492,226.549 336,225.5C 335,226.833 334,226.833 333,225.5C 332.625,230.21 331.958,234.877 331,239.5C 330.501,233.509 330.334,227.509 330.5,221.5C 331.163,219.958 331.83,218.291 332.5,216.5C 333.251,217.376 333.751,218.376 334,219.5C 334.333,218.167 334.667,216.833 335,215.5C 336.016,216.634 336.683,216.301 337,214.5C 338.781,217.274 340.115,220.274 341,223.5C 341.654,224.696 342.154,224.696 342.5,223.5C 341.754,222.264 341.421,220.93 341.5,219.5C 343.124,219.64 344.29,218.973 345,217.5C 347.458,219.696 349.791,222.029 352,224.5C 353.135,222.63 353.968,220.63 354.5,218.5C 354.231,216.571 354.731,214.905 356,213.5C 356.002,216.051 356.836,218.051 358.5,219.5 Z"/></g>
<g><path style="opacity:1" fill="#191919" d="M 112.5,216.5 C 145.173,216.64 177.84,216.307 210.5,215.5C 215.481,216.332 220.481,216.498 225.5,216C 224.304,215.346 224.304,214.846 225.5,214.5C 230.593,216.169 235.426,215.835 240,213.5C 241.734,214.249 243.567,214.749 245.5,215C 241.531,215.853 237.531,216.519 233.5,217C 190.15,221.553 146.817,221.553 103.5,217C 106.482,216.502 109.482,216.335 112.5,216.5 Z"/></g>
<g><path style="opacity:1" fill="#2f2f2f" d="M 87.5,218.5 C 94.0275,219.405 100.527,219.405 107,218.5C 108.584,218.988 109.751,219.988 110.5,221.5C 111.607,220.978 112.774,220.645 114,220.5C 124.152,222.684 134.152,223.35 144,222.5C 145.734,223.249 147.567,223.749 149.5,224C 147.942,224.21 146.609,224.71 145.5,225.5C 144.833,225.5 144.167,225.5 143.5,225.5C 139.15,225.77 134.983,225.103 131,223.5C 130.722,224.416 130.222,225.082 129.5,225.5C 126.101,224.18 122.601,224.18 119,225.5C 118.501,230.823 118.334,236.156 118.5,241.5C 117.521,244.625 117.187,247.958 117.5,251.5C 116.507,242.682 116.173,233.682 116.5,224.5C 115.5,224.5 114.5,224.5 113.5,224.5C 113.775,239.168 114.109,253.835 114.5,268.5C 113.681,265.695 113.181,262.695 113,259.5C 112.502,262.482 112.335,265.482 112.5,268.5C 111.504,253.676 111.171,238.676 111.5,223.5C 110.167,223.5 108.833,223.5 107.5,223.5C 107.976,231.826 108.309,240.16 108.5,248.5C 107.833,245.5 107.167,242.5 106.5,239.5C 106.666,234.489 106.499,229.489 106,224.5C 105.333,223.167 104.667,223.167 104,224.5C 105.028,261.137 106.028,297.804 107,334.5C 107.499,328.509 107.666,322.509 107.5,316.5C 108.493,324.65 108.826,332.983 108.5,341.5C 107.77,345.031 107.104,348.697 106.5,352.5C 107.826,371.628 107.826,390.628 106.5,409.5C 105.508,409.672 104.842,409.338 104.5,408.5C 105.633,397.659 105.633,386.659 104.5,375.5C 105.669,330.317 105.169,284.983 103,239.5C 102.5,248.494 102.334,257.494 102.5,266.5C 101.833,252.328 101.167,237.994 100.5,223.5C 99.5027,230.803 99.1694,238.137 99.5,245.5C 98.5849,275.334 98.5849,305.334 99.5,335.5C 99.665,338.85 99.4983,342.183 99,345.5C 98.8308,332.993 98.3308,320.66 97.5,308.5C 97.6815,280.137 96.8481,251.803 95,223.5C 94.5001,236.829 94.3334,250.163 94.5,263.5C 94.1667,263.5 93.8333,263.5 93.5,263.5C 93.3663,252.159 93.0329,240.826 92.5,229.5C 92.6621,227.473 92.4955,225.473 92,223.5C 90.082,222.458 88.2487,221.292 86.5,220C 87.056,219.617 87.3893,219.117 87.5,218.5 Z"/></g>
<g><path style="opacity:1" fill="#080808" d="M 260.5,217.5 C 260.5,219.5 260.5,221.5 260.5,223.5C 258.28,237.932 257.113,252.599 257,267.5C 254.693,314.136 254.026,360.803 255,407.5C 255.333,411.5 255.667,415.5 256,419.5C 256.48,421.133 257.313,422.466 258.5,423.5C 256.5,423.5 254.5,423.5 252.5,423.5C 252.5,397.833 252.5,372.167 252.5,346.5C 252.5,315.167 252.5,283.833 252.5,252.5C 252.666,248.154 252.499,243.821 252,239.5C 251.055,243.114 250.388,246.781 250,250.5C 249.706,258.848 249.206,267.182 248.5,275.5C 249.223,288.707 248.557,301.874 246.5,315C 246.392,335.351 246.559,355.851 247,376.5C 248.926,391.383 249.926,406.383 250,421.5C 250.374,422.416 250.874,423.25 251.5,424C 249.942,424.21 248.609,424.71 247.5,425.5C 247.167,425.5 246.833,425.5 246.5,425.5C 244.537,409.072 243.87,392.405 244.5,375.5C 244.5,341.833 244.5,308.167 244.5,274.5C 244.634,258.481 244.134,242.481 243,226.5C 242.141,249.517 240.974,272.35 239.5,295C 239.536,297.094 239.869,299.094 240.5,301C 239.874,301.75 239.374,302.584 239,303.5C 238.333,343.5 238.333,383.5 239,423.5C 240.622,424.099 242.122,424.766 243.5,425.5C 243.167,425.5 242.833,425.5 242.5,425.5C 240.167,425.5 237.833,425.5 235.5,425.5C 235.667,367.499 235.5,309.499 235,251.5C 233.793,275.142 232.793,298.809 232,322.5C 231.667,320.833 231.333,319.167 231,317.5C 231.1,338.102 230.933,358.769 230.5,379.5C 230.786,392.393 231.786,405.226 233.5,418C 233.464,420.094 233.131,422.094 232.5,424C 233.381,424.708 234.047,425.542 234.5,426.5C 233.833,426.833 233.167,427.167 232.5,427.5C 231.081,426.549 229.415,426.216 227.5,426.5C 227.89,365.49 227.39,304.49 226,243.5C 224.024,260.54 223.024,277.54 223,294.5C 221.984,293.366 221.317,293.699 221,295.5C 220.229,338.509 220.563,381.509 222,424.5C 222.698,425.691 223.531,426.691 224.5,427.5C 223.5,427.5 222.5,427.5 221.5,427.5C 220.791,426.596 219.791,426.263 218.5,426.5C 218.667,374.499 218.5,322.499 218,270.5C 217.899,267.3 217.232,264.3 216,261.5C 212.902,285.176 211.402,309.009 211.5,333C 211.964,363.403 212.631,393.737 213.5,424C 213.167,424.333 212.833,424.667 212.5,425C 213.381,425.708 214.047,426.542 214.5,427.5C 213.833,427.5 213.167,427.5 212.5,427.5C 211.602,426.842 210.602,426.176 209.5,425.5C 209.709,424.914 210.043,424.414 210.5,424C 209.892,377.226 209.058,330.392 208,283.5C 206.956,282.377 206.29,281.044 206,279.5C 205.333,274.167 204.667,268.833 204,263.5C 203.831,317.404 203.331,371.237 202.5,425C 203.34,426.666 202.84,426.833 201,425.5C 201.937,369.296 201.271,313.296 199,257.5C 198.667,259.833 198.333,262.167 198,264.5C 197.667,264.167 197.333,263.833 197,263.5C 196.776,255.457 196.109,247.457 195,239.5C 194.154,256.49 193.654,273.49 193.5,290.5C 194.151,335.835 194.818,381.169 195.5,426.5C 194.5,426.5 193.5,426.5 192.5,426.5C 192.807,382.814 192.473,339.147 191.5,295.5C 191.667,278.497 191.5,261.497 191,244.5C 190.73,241.776 190.23,239.109 189.5,236.5C 190.59,235.391 190.59,234.391 189.5,233.5C 188.719,234.729 188.219,236.062 188,237.5C 187.501,233.514 187.334,229.514 187.5,225.5C 211.945,223.858 236.279,221.191 260.5,217.5 Z"/></g>
<g><path style="opacity:1" fill="#191919" d="M 102.5,266.5 C 102.5,275.5 102.5,284.5 102.5,293.5C 102.813,297.042 102.479,300.375 101.5,303.5C 101.216,284.134 100.55,264.801 99.5,245.5C 99.1694,238.137 99.5027,230.803 100.5,223.5C 101.167,237.994 101.833,252.328 102.5,266.5 Z"/></g>
<g><path style="opacity:1" fill="#0d0d0d" d="M 117.5,251.5 C 117.5,264.833 117.5,278.167 117.5,291.5C 117.666,299.174 117.5,306.841 117,314.5C 116.83,299.306 115.997,284.306 114.5,269.5C 114.5,269.167 114.5,268.833 114.5,268.5C 114.109,253.835 113.775,239.168 113.5,224.5C 114.5,224.5 115.5,224.5 116.5,224.5C 116.173,233.682 116.507,242.682 117.5,251.5 Z"/></g>
<g><path style="opacity:1" fill="#585858" d="M 97.5,308.5 C 97.6665,320.171 97.4999,331.838 97,343.5C 96.3763,316.665 95.543,289.998 94.5,263.5C 94.3334,250.163 94.5001,236.829 95,223.5C 96.8481,251.803 97.6815,280.137 97.5,308.5 Z"/></g>
<g><path style="opacity:1" fill="#232323" d="M 428.5,264.5 C 428.042,293.498 427.708,322.498 427.5,351.5C 427.158,352.338 426.492,352.672 425.5,352.5C 426.301,350.958 426.634,349.292 426.5,347.5C 425.768,333.368 425.435,319.368 425.5,305.5C 424.749,306.376 424.249,307.376 424,308.5C 421.283,305.602 420.783,302.268 422.5,298.5C 421.758,297.713 420.925,297.047 420,296.5C 415.934,297.464 411.767,297.797 407.5,297.5C 407.881,295.058 407.214,294.391 405.5,295.5C 403.608,292.956 401.775,292.956 400,295.5C 399.167,293.5 398.333,291.5 397.5,289.5C 396.851,291.624 396.017,293.624 395,295.5C 393.632,294.007 393.465,292.507 394.5,291C 393.953,290.075 393.287,289.242 392.5,288.5C 391.92,290.637 390.92,292.47 389.5,294C 385.906,294.136 382.406,294.302 379,294.5C 376.108,293.18 374.775,290.846 375,287.5C 373.505,289.11 373.339,290.776 374.5,292.5C 374.081,293.672 373.415,294.672 372.5,295.5C 370.985,293.453 370.151,291.119 370,288.5C 369,290.5 368,292.5 367,294.5C 364.715,291.123 362.215,290.79 359.5,293.5C 349.517,294.332 339.517,294.832 329.5,295C 329.833,295.333 330.167,295.667 330.5,296C 329.584,296.374 328.75,296.874 328,297.5C 325.205,296.217 322.372,296.217 319.5,297.5C 322.107,298.318 324.774,298.818 327.5,299C 324.443,299.256 321.443,299.756 318.5,300.5C 314.292,299.51 310.292,299.51 306.5,300.5C 301.976,302.513 298.143,305.513 295,309.5C 294.586,309.043 294.086,308.709 293.5,308.5C 291.349,310.258 289.183,311.924 287,313.5C 286.692,312.692 286.192,312.025 285.5,311.5C 284.756,312.991 284.09,314.491 283.5,316C 282.451,316.492 281.451,316.326 280.5,315.5C 279.692,315.808 279.025,316.308 278.5,317C 279.706,321.364 279.206,321.531 277,317.5C 276.29,318.973 275.124,319.64 273.5,319.5C 273.5,311.833 273.5,304.167 273.5,296.5C 274.328,302.987 274.828,309.654 275,316.5C 275.219,315.062 275.719,313.729 276.5,312.5C 277.086,312.709 277.586,313.043 278,313.5C 278.333,311.167 278.667,308.833 279,306.5C 279.333,307.167 279.667,307.833 280,308.5C 280.195,306.793 280.195,305.126 280,303.5C 281.011,304.337 282.178,304.67 283.5,304.5C 283.372,302.345 283.872,300.345 285,298.5C 285.414,298.957 285.914,299.291 286.5,299.5C 287.466,297.604 287.799,295.604 287.5,293.5C 292.804,294.024 295.138,291.857 294.5,287C 296.81,286.503 299.143,286.337 301.5,286.5C 301.312,284.897 301.812,283.563 303,282.5C 303.333,283.167 303.667,283.833 304,284.5C 304.202,282.744 304.702,281.078 305.5,279.5C 306.478,279.977 307.311,280.643 308,281.5C 309,278.167 310,274.833 311,271.5C 311.175,276.019 311.675,280.353 312.5,284.5C 314.084,285.973 315.584,287.64 317,289.5C 318.091,287.654 319.424,286.987 321,287.5C 322.083,284.05 323.583,281.383 325.5,279.5C 326.167,282.167 326.833,284.833 327.5,287.5C 328.333,286.5 329.167,285.5 330,284.5C 330.667,285.833 331.333,285.833 332,284.5C 332.202,282.744 332.702,281.078 333.5,279.5C 335.263,284.156 337.93,284.656 341.5,281C 340.253,279.506 340.253,278.006 341.5,276.5C 342.386,277.325 342.719,278.325 342.5,279.5C 343.5,279.5 344.5,279.5 345.5,279.5C 345.674,271.527 346.174,271.527 347,279.5C 348.02,273.251 349.187,273.584 350.5,280.5C 352.071,279.691 353.738,279.357 355.5,279.5C 355.343,278.127 355.51,276.793 356,275.5C 356.036,277.941 356.869,279.941 358.5,281.5C 359.187,279.445 360.354,277.779 362,276.5C 362.374,277.416 362.874,278.25 363.5,279C 365.18,279.034 366.68,279.201 368,279.5C 367.631,276.21 367.631,272.877 368,269.5C 369.212,273.427 370.212,277.427 371,281.5C 371.878,278.743 372.878,276.076 374,273.5C 374.192,275.577 374.692,277.577 375.5,279.5C 376.167,278.5 376.833,277.5 377.5,276.5C 378.833,280.5 380.167,280.5 381.5,276.5C 382.427,278.113 383.261,279.779 384,281.5C 384.182,278.774 384.682,276.107 385.5,273.5C 386.404,281.287 387.737,281.287 389.5,273.5C 390.251,274.376 390.751,275.376 391,276.5C 393.719,275.556 396.552,275.223 399.5,275.5C 399.338,273.473 399.505,271.473 400,269.5C 400.333,275.5 400.667,281.5 401,287.5C 401.585,282.489 402.251,277.489 403,272.5C 404.803,276.512 405.803,276.178 406,271.5C 406.333,274.5 406.667,277.5 407,280.5C 407.49,279.207 407.657,277.873 407.5,276.5C 409.199,276.34 410.866,276.506 412.5,277C 414.557,280.3 415.557,280.133 415.5,276.5C 418.167,276.5 420.833,276.5 423.5,276.5C 423.103,273.126 422.77,269.959 422.5,267C 423.98,267.058 424.813,265.891 425,263.5C 424.755,267.813 424.755,272.147 425,276.5C 426.081,271.53 426.414,266.53 426,261.5C 425.346,262.696 424.846,262.696 424.5,261.5C 425.356,258.721 426.023,255.888 426.5,253C 424.711,249.717 423.711,246.217 423.5,242.5C 422.448,242.649 421.448,242.483 420.5,242C 418.75,238.84 417.083,239.006 415.5,242.5C 414.5,242.167 413.833,241.5 413.5,240.5C 414.5,238.167 413.833,237.5 411.5,238.5C 410.017,236.054 408.851,236.388 408,239.5C 407.759,236.711 407.092,234.044 406,231.5C 405.608,240.698 404.608,240.698 403,231.5C 401.302,234.61 400.302,237.943 400,241.5C 400.067,235.709 398.067,231.709 394,229.5C 392.86,231.078 392.36,232.744 392.5,234.5C 391.682,231.893 391.182,229.226 391,226.5C 390.667,226.167 390.333,225.833 390,225.5C 389.798,227.256 389.298,228.922 388.5,230.5C 387.729,228.138 386.895,225.804 386,223.5C 385.691,224.766 385.191,225.933 384.5,227C 385.576,228.726 385.743,230.559 385,232.5C 383,228.166 381,223.833 379,219.5C 378.428,224.529 377.428,228.863 376,232.5C 375.915,227.342 374.415,222.675 371.5,218.5C 370.517,222.281 369.35,225.947 368,229.5C 367.257,227.559 367.424,225.726 368.5,224C 366.821,221.435 366.154,218.602 366.5,215.5C 369.222,217.856 371.889,217.523 374.5,214.5C 375.308,216.423 375.808,218.423 376,220.5C 376.865,218.775 377.531,217.108 378,215.5C 380.106,217.377 381.439,219.71 382,222.5C 383.194,220.377 383.86,218.043 384,215.5C 384.102,220.299 386.269,221.632 390.5,219.5C 390.5,220.5 390.5,221.5 390.5,222.5C 393.518,222.335 396.518,222.502 399.5,223C 400.047,223.925 400.713,224.758 401.5,225.5C 403.263,225.694 405.097,225.694 407,225.5C 407.354,227.807 408.354,228.141 410,226.5C 412.27,228.385 414.436,230.385 416.5,232.5C 419.493,231.218 421.993,231.885 424,234.5C 424.333,233.167 424.667,231.833 425,230.5C 426.127,233.377 426.794,236.377 427,239.5C 427.171,248.01 427.671,256.343 428.5,264.5 Z"/></g>
<g><path style="opacity:1" fill="#1d1d1d" d="M 260.5,223.5 C 260.5,230.167 260.5,236.833 260.5,243.5C 260.667,303.168 260.5,362.834 260,422.5C 259.617,423.056 259.117,423.389 258.5,423.5C 257.313,422.466 256.48,421.133 256,419.5C 255.667,415.5 255.333,411.5 255,407.5C 254.026,360.803 254.693,314.136 257,267.5C 257.113,252.599 258.28,237.932 260.5,223.5 Z"/></g>
<g><path style="opacity:1" fill="#4e4e4e" d="M 124.5,240.5 C 124.5,241.5 124.5,242.5 124.5,243.5C 126.457,285.983 126.791,328.316 125.5,370.5C 125.512,357.156 125.179,343.823 124.5,330.5C 124.829,315.99 124.496,301.657 123.5,287.5C 123.5,279.833 123.5,272.167 123.5,264.5C 123.174,256.316 123.508,248.316 124.5,240.5 Z"/></g>
<g><path style="opacity:1" fill="#545454" d="M 99.5,245.5 C 100.55,264.801 101.216,284.134 101.5,303.5C 101.831,325.673 101.497,347.673 100.5,369.5C 100.5,364.833 100.5,360.167 100.5,355.5C 100.824,348.646 100.491,341.979 99.5,335.5C 98.5849,305.334 98.5849,275.334 99.5,245.5 Z"/></g>
<g><path style="opacity:1" fill="#515151" d="M 432.5,215.5 C 431.702,260.175 430.535,304.841 429,349.5C 428.722,350.416 428.222,351.082 427.5,351.5C 427.708,322.498 428.042,293.498 428.5,264.5C 429.663,249.193 430.497,233.859 431,218.5C 431.232,217.263 431.732,216.263 432.5,215.5 Z"/></g>
<g><path style="opacity:0.863" fill="#7a7a7a" d="M 85.5,222.5 C 86.4682,224.607 86.8016,226.941 86.5,229.5C 89.5037,261.329 90.1704,293.329 88.5,325.5C 87.0667,291.339 86.0667,257.006 85.5,222.5 Z"/></g>
<g><path style="opacity:1" fill="#232323" d="M 129.5,225.5 C 127.833,225.5 126.167,225.5 124.5,225.5C 124.5,230.5 124.5,235.5 124.5,240.5C 123.508,248.316 123.174,256.316 123.5,264.5C 122.833,251.66 122.167,238.66 121.5,225.5C 120.549,256.847 121.049,288.18 123,319.5C 123.5,308.839 123.667,298.172 123.5,287.5C 124.496,301.657 124.829,315.99 124.5,330.5C 123.372,358.83 122.372,387.163 121.5,415.5C 121.167,415.5 120.833,415.5 120.5,415.5C 119.834,403.512 119.501,391.512 119.5,379.5C 120.741,333.653 120.407,287.653 118.5,241.5C 118.334,236.156 118.501,230.823 119,225.5C 122.601,224.18 126.101,224.18 129.5,225.5 Z"/></g>
<g><path style="opacity:1" fill="#181818" d="M 221.5,427.5 C 219.167,427.5 216.833,427.5 214.5,427.5C 214.047,426.542 213.381,425.708 212.5,425C 212.833,424.667 213.167,424.333 213.5,424C 212.631,393.737 211.964,363.403 211.5,333C 211.402,309.009 212.902,285.176 216,261.5C 217.232,264.3 217.899,267.3 218,270.5C 218.5,322.499 218.667,374.499 218.5,426.5C 219.791,426.263 220.791,426.596 221.5,427.5 Z"/></g>
<g><path style="opacity:1" fill="#0a0a0a" d="M 123.5,264.5 C 123.5,272.167 123.5,279.833 123.5,287.5C 123.667,298.172 123.5,308.839 123,319.5C 121.049,288.18 120.549,256.847 121.5,225.5C 122.167,238.66 122.833,251.66 123.5,264.5 Z"/></g>
<g><path style="opacity:1" fill="#1c1c1c" d="M 426.5,347.5 C 425.71,346.391 425.21,345.058 425,343.5C 424.667,343.833 424.333,344.167 424,344.5C 423.363,342.697 422.197,341.364 420.5,340.5C 421.5,339.667 422.5,338.833 423.5,338C 421.754,337.529 420.087,336.862 418.5,336C 419.311,333.709 418.477,331.875 416,330.5C 415.506,328.866 415.34,327.199 415.5,325.5C 410.167,325.5 404.833,325.5 399.5,325.5C 399.5,322.5 399.5,319.5 399.5,316.5C 396.272,316.299 393.105,316.633 390,317.5C 388.51,316.683 387.01,315.85 385.5,315C 363.503,314.5 341.503,314.333 319.5,314.5C 320.143,318.401 319.143,321.734 316.5,324.5C 314.647,324.92 312.813,325.253 311,325.5C 310.311,324.643 309.478,323.977 308.5,323.5C 309.044,325.095 308.377,326.429 306.5,327.5C 297.119,325.989 287.786,324.156 278.5,322C 276.347,321.901 274.681,321.067 273.5,319.5C 275.124,319.64 276.29,318.973 277,317.5C 279.206,321.531 279.706,321.364 278.5,317C 279.025,316.308 279.692,315.808 280.5,315.5C 281.451,316.326 282.451,316.492 283.5,316C 284.09,314.491 284.756,312.991 285.5,311.5C 286.192,312.025 286.692,312.692 287,313.5C 289.183,311.924 291.349,310.258 293.5,308.5C 294.086,308.709 294.586,309.043 295,309.5C 298.143,305.513 301.976,302.513 306.5,300.5C 310.292,299.51 314.292,299.51 318.5,300.5C 321.443,299.756 324.443,299.256 327.5,299C 324.774,298.818 322.107,298.318 319.5,297.5C 322.372,296.217 325.205,296.217 328,297.5C 328.75,296.874 329.584,296.374 330.5,296C 330.167,295.667 329.833,295.333 329.5,295C 339.517,294.832 349.517,294.332 359.5,293.5C 362.215,290.79 364.715,291.123 367,294.5C 368,292.5 369,290.5 370,288.5C 370.151,291.119 370.985,293.453 372.5,295.5C 373.415,294.672 374.081,293.672 374.5,292.5C 373.339,290.776 373.505,289.11 375,287.5C 374.775,290.846 376.108,293.18 379,294.5C 382.406,294.302 385.906,294.136 389.5,294C 390.92,292.47 391.92,290.637 392.5,288.5C 393.287,289.242 393.953,290.075 394.5,291C 393.465,292.507 393.632,294.007 395,295.5C 396.017,293.624 396.851,291.624 397.5,289.5C 398.333,291.5 399.167,293.5 400,295.5C 401.775,292.956 403.608,292.956 405.5,295.5C 407.214,294.391 407.881,295.058 407.5,297.5C 411.767,297.797 415.934,297.464 420,296.5C 420.925,297.047 421.758,297.713 422.5,298.5C 420.783,302.268 421.283,305.602 424,308.5C 424.249,307.376 424.749,306.376 425.5,305.5C 425.435,319.368 425.768,333.368 426.5,347.5 Z"/></g>
<g><path style="opacity:1" fill="#181818" d="M 106.5,239.5 C 107.097,265.162 107.43,290.829 107.5,316.5C 107.666,322.509 107.499,328.509 107,334.5C 106.028,297.804 105.028,261.137 104,224.5C 104.667,223.167 105.333,223.167 106,224.5C 106.499,229.489 106.666,234.489 106.5,239.5 Z"/></g>
<g><path style="opacity:1" fill="#575757" d="M 86.5,229.5 C 88.0744,229.937 89.2411,230.937 90,232.5C 90.3333,240.833 90.6667,249.167 91,257.5C 91.1701,247.991 91.6701,238.658 92.5,229.5C 93.0329,240.826 93.3663,252.159 93.5,263.5C 94.8498,299.823 95.3498,336.157 95,372.5C 94.1375,353.174 93.4708,333.84 93,314.5C 92.401,331.172 92.5677,347.839 93.5,364.5C 93.3333,368.833 93.1667,373.167 93,377.5C 92.6667,371.5 92.3333,365.5 92,359.5C 91.4206,370.833 90.9206,382.166 90.5,393.5C 89.1336,371.013 88.4669,348.347 88.5,325.5C 90.1704,293.329 89.5037,261.329 86.5,229.5 Z"/></g>
<g><path style="opacity:1" fill="#1e1e1e" d="M 143.5,225.5 C 144.167,225.5 144.833,225.5 145.5,225.5C 146.769,254.007 148.102,282.507 149.5,311C 149.523,313.432 149.19,315.932 148.5,318.5C 150.781,329.426 151.115,340.259 149.5,351C 150.174,365.803 150.841,380.637 151.5,395.5C 150.998,404.588 149.998,413.588 148.5,422.5C 146.901,422.768 145.568,422.434 144.5,421.5C 145.825,417.724 146.491,413.557 146.5,409C 145.69,390.175 145.356,371.342 145.5,352.5C 146.851,320.321 146.685,287.987 145,255.5C 144.5,262.826 144.334,270.159 144.5,277.5C 143.503,260.341 143.17,243.008 143.5,225.5 Z"/></g>
<g><path style="opacity:1" fill="#565656" d="M 114.5,268.5 C 114.5,268.833 114.5,269.167 114.5,269.5C 114.5,278.833 114.5,288.167 114.5,297.5C 114.83,315.674 114.497,333.674 113.5,351.5C 113.063,323.835 112.73,296.168 112.5,268.5C 112.335,265.482 112.502,262.482 113,259.5C 113.181,262.695 113.681,265.695 114.5,268.5 Z"/></g>
<g><path style="opacity:1" fill="#494949" d="M 145.5,352.5 C 145.184,327.5 144.851,302.5 144.5,277.5C 144.334,270.159 144.5,262.826 145,255.5C 146.685,287.987 146.851,320.321 145.5,352.5 Z"/></g>
<g><path style="opacity:1" fill="#2b2b2b" d="M 252.5,252.5 C 252.5,283.833 252.5,315.167 252.5,346.5C 251.883,346.389 251.383,346.056 251,345.5C 250.333,316.167 250.333,286.833 251,257.5C 251.198,255.618 251.698,253.952 252.5,252.5 Z"/></g>
<g><path style="opacity:0.998" fill="#1f1f1f" d="M 154.5,282.5 C 155.727,306.182 157.061,330.015 158.5,354C 156.793,377.466 156.127,400.966 156.5,424.5C 155.609,423.89 154.609,423.557 153.5,423.5C 153.517,394.495 153.184,365.495 152.5,336.5C 153.33,345.324 153.83,354.324 154,363.5C 154.5,336.502 154.667,309.502 154.5,282.5 Z"/></g>
<g><path style="opacity:1" fill="#4f4f4f" d="M 106.5,239.5 C 107.167,242.5 107.833,245.5 108.5,248.5C 110.189,298.816 110.689,349.15 110,399.5C 109.167,380.174 108.667,360.841 108.5,341.5C 108.826,332.983 108.493,324.65 107.5,316.5C 107.43,290.829 107.097,265.162 106.5,239.5 Z"/></g>
<g><path style="opacity:1" fill="#1e1e1e" d="M 187.5,281.5 C 188.062,302.764 189.396,323.931 191.5,345C 191.368,355.216 190.701,365.383 189.5,375.5C 189.729,377.824 190.396,379.991 191.5,382C 190.258,383.651 189.424,385.485 189,387.5C 188.667,391.5 188.333,395.5 188,399.5C 187.824,395.312 187.324,391.312 186.5,387.5C 185.764,344.168 185.597,300.835 186,257.5C 187.164,265.459 187.664,273.459 187.5,281.5 Z"/></g>
<g><path style="opacity:0.997" fill="#171717" d="M 426.5,347.5 C 426.634,349.292 426.301,350.958 425.5,352.5C 385.582,344.784 345.916,336.451 306.5,327.5C 308.377,326.429 309.044,325.095 308.5,323.5C 309.478,323.977 310.311,324.643 311,325.5C 312.813,325.253 314.647,324.92 316.5,324.5C 319.143,321.734 320.143,318.401 319.5,314.5C 341.503,314.333 363.503,314.5 385.5,315C 387.01,315.85 388.51,316.683 390,317.5C 393.105,316.633 396.272,316.299 399.5,316.5C 399.5,319.5 399.5,322.5 399.5,325.5C 404.833,325.5 410.167,325.5 415.5,325.5C 415.34,327.199 415.506,328.866 416,330.5C 418.477,331.875 419.311,333.709 418.5,336C 420.087,336.862 421.754,337.529 423.5,338C 422.5,338.833 421.5,339.667 420.5,340.5C 422.197,341.364 423.363,342.697 424,344.5C 424.333,344.167 424.667,343.833 425,343.5C 425.21,345.058 425.71,346.391 426.5,347.5 Z"/></g>
<g><path style="opacity:1" fill="#1a1a1a" d="M 252.5,252.5 C 251.698,253.952 251.198,255.618 251,257.5C 250.333,286.833 250.333,316.167 251,345.5C 251.383,346.056 251.883,346.389 252.5,346.5C 252.5,372.167 252.5,397.833 252.5,423.5C 254.5,423.5 256.5,423.5 258.5,423.5C 255.054,424.687 251.387,425.354 247.5,425.5C 248.609,424.71 249.942,424.21 251.5,424C 250.874,423.25 250.374,422.416 250,421.5C 249.926,406.383 248.926,391.383 247,376.5C 246.559,355.851 246.392,335.351 246.5,315C 248.557,301.874 249.223,288.707 248.5,275.5C 249.206,267.182 249.706,258.848 250,250.5C 250.388,246.781 251.055,243.114 252,239.5C 252.499,243.821 252.666,248.154 252.5,252.5 Z"/></g>
<g><path style="opacity:1" fill="#303030" d="M 139.5,291.5 C 140.499,334.663 140.832,377.997 140.5,421.5C 139.833,421.5 139.5,421.167 139.5,420.5C 138.826,399.173 138.492,377.84 138.5,356.5C 139.497,335.006 139.831,313.34 139.5,291.5 Z"/></g>
<g><path style="opacity:1" fill="#4c4c4c" d="M 118.5,241.5 C 120.407,287.653 120.741,333.653 119.5,379.5C 119.068,350 118.401,320.667 117.5,291.5C 117.5,278.167 117.5,264.833 117.5,251.5C 117.187,247.958 117.521,244.625 118.5,241.5 Z"/></g>
<g><path style="opacity:1" fill="#1b1b1b" d="M 112.5,268.5 C 112.73,296.168 113.063,323.835 113.5,351.5C 113.865,371.842 114.532,392.175 115.5,412.5C 116.735,373.995 116.401,335.661 114.5,297.5C 114.5,288.167 114.5,278.833 114.5,269.5C 115.997,284.306 116.83,299.306 117,314.5C 117.5,306.841 117.666,299.174 117.5,291.5C 118.401,320.667 119.068,350 119.5,379.5C 119.501,391.512 119.834,403.512 120.5,415.5C 115.323,414.449 110.657,412.449 106.5,409.5C 107.826,390.628 107.826,371.628 106.5,352.5C 107.104,348.697 107.77,345.031 108.5,341.5C 108.667,360.841 109.167,380.174 110,399.5C 110.689,349.15 110.189,298.816 108.5,248.5C 108.309,240.16 107.976,231.826 107.5,223.5C 108.833,223.5 110.167,223.5 111.5,223.5C 111.171,238.676 111.504,253.676 112.5,268.5 Z"/></g>
<g><path style="opacity:1" fill="#383838" d="M 102.5,293.5 C 103.492,301.316 103.826,309.316 103.5,317.5C 102.502,347.329 102.169,377.329 102.5,407.5C 101.508,407.672 100.842,407.338 100.5,406.5C 101.564,394.329 101.564,381.995 100.5,369.5C 101.497,347.673 101.831,325.673 101.5,303.5C 102.479,300.375 102.813,297.042 102.5,293.5 Z"/></g>
<g><path style="opacity:0.997" fill="#161616" d="M 232.5,427.5 C 229.833,427.5 227.167,427.5 224.5,427.5C 223.531,426.691 222.698,425.691 222,424.5C 220.563,381.509 220.229,338.509 221,295.5C 221.317,293.699 221.984,293.366 223,294.5C 223.024,277.54 224.024,260.54 226,243.5C 227.39,304.49 227.89,365.49 227.5,426.5C 229.415,426.216 231.081,426.549 232.5,427.5 Z"/></g>
<g><path style="opacity:1" fill="#202020" d="M 244.5,274.5 C 244.5,308.167 244.5,341.833 244.5,375.5C 243.67,385.325 243.17,395.325 243,405.5C 242.667,396.167 242.333,386.833 242,377.5C 241.25,376.874 240.416,376.374 239.5,376C 241.762,335.261 242.929,294.428 243,253.5C 243.171,260.679 243.671,267.679 244.5,274.5 Z"/></g>
<g><path style="opacity:1" fill="#161616" d="M 244.5,274.5 C 243.671,267.679 243.171,260.679 243,253.5C 242.929,294.428 241.762,335.261 239.5,376C 240.416,376.374 241.25,376.874 242,377.5C 242.333,386.833 242.667,396.167 243,405.5C 243.17,395.325 243.67,385.325 244.5,375.5C 243.87,392.405 244.537,409.072 246.5,425.5C 245.5,425.5 244.5,425.5 243.5,425.5C 242.122,424.766 240.622,424.099 239,423.5C 238.333,383.5 238.333,343.5 239,303.5C 239.374,302.584 239.874,301.75 240.5,301C 239.869,299.094 239.536,297.094 239.5,295C 240.974,272.35 242.141,249.517 243,226.5C 244.134,242.481 244.634,258.481 244.5,274.5 Z"/></g>
<g><path style="opacity:1" fill="#131313" d="M 143.5,225.5 C 143.17,243.008 143.503,260.341 144.5,277.5C 144.851,302.5 145.184,327.5 145.5,352.5C 145.356,371.342 145.69,390.175 146.5,409C 146.491,413.557 145.825,417.724 144.5,421.5C 143.167,421.5 141.833,421.5 140.5,421.5C 140.832,377.997 140.499,334.663 139.5,291.5C 139.594,274.137 138.928,256.804 137.5,239.5C 137,278.497 137.333,317.497 138.5,356.5C 138.492,377.84 138.826,399.173 139.5,420.5C 135.239,420.102 131.239,419.102 127.5,417.5C 127.667,374.499 127.5,331.499 127,288.5C 126.975,273.295 126.141,258.295 124.5,243.5C 124.5,242.5 124.5,241.5 124.5,240.5C 124.5,235.5 124.5,230.5 124.5,225.5C 126.167,225.5 127.833,225.5 129.5,225.5C 130.222,225.082 130.722,224.416 131,223.5C 134.983,225.103 139.15,225.77 143.5,225.5 Z"/></g>
<g><path style="opacity:1" fill="#484848" d="M 139.5,291.5 C 139.831,313.34 139.497,335.006 138.5,356.5C 137.333,317.497 137,278.497 137.5,239.5C 138.928,256.804 139.594,274.137 139.5,291.5 Z"/></g>
<g><path style="opacity:1" fill="#4f4f4f" d="M 132.5,322.5 C 132.827,332.348 132.494,342.014 131.5,351.5C 130.744,314.165 130.244,276.832 130,239.5C 132.178,267.12 133.011,294.787 132.5,322.5 Z"/></g>
<g><path style="opacity:0.99" fill="#181818" d="M 172.5,426.5 C 168.768,426.016 165.101,425.349 161.5,424.5C 161.5,417.833 161.5,411.167 161.5,404.5C 162.224,402.782 162.891,400.948 163.5,399C 163.625,360.751 163.292,322.251 162.5,283.5C 162.987,289.829 164.154,296.163 166,302.5C 166.346,343.178 167.179,383.844 168.5,424.5C 169.499,409.848 169.833,395.182 169.5,380.5C 170.302,381.952 170.802,383.618 171,385.5C 171.5,376.5 172,367.5 172.5,358.5C 171.956,328.473 170.789,298.473 169,268.5C 168.5,279.828 168.333,291.162 168.5,302.5C 167.834,293.006 167.5,283.339 167.5,273.5C 167.356,263.072 167.856,252.739 169,242.5C 170.132,261.642 171.798,280.642 174,299.5C 174.354,327.67 174.854,355.836 175.5,384C 175.032,398.388 174.032,412.554 172.5,426.5 Z"/></g>
<g><path style="opacity:1" fill="#353535" d="M 132.5,322.5 C 133.17,353.902 133.837,385.402 134.5,417C 134.167,417.167 133.833,417.333 133.5,417.5C 132.453,395.511 131.786,373.511 131.5,351.5C 132.494,342.014 132.827,332.348 132.5,322.5 Z"/></g>
<g><path style="opacity:1" fill="#393939" d="M 93.5,263.5 C 93.8333,263.5 94.1667,263.5 94.5,263.5C 95.543,289.998 96.3763,316.665 97,343.5C 97.4999,331.838 97.6665,320.171 97.5,308.5C 98.3308,320.66 98.8308,332.993 99,345.5C 99.4983,342.183 99.665,338.85 99.5,335.5C 100.491,341.979 100.824,348.646 100.5,355.5C 99.5035,371.992 99.1702,388.658 99.5,405.5C 94.249,403.242 91.249,399.242 90.5,393.5C 90.9206,382.166 91.4206,370.833 92,359.5C 92.3333,365.5 92.6667,371.5 93,377.5C 93.1667,373.167 93.3333,368.833 93.5,364.5C 92.5677,347.839 92.401,331.172 93,314.5C 93.4708,333.84 94.1375,353.174 95,372.5C 95.3498,336.157 94.8498,299.823 93.5,263.5 Z"/></g>
<g><path style="opacity:1" fill="#2d2d2d" d="M 124.5,243.5 C 126.141,258.295 126.975,273.295 127,288.5C 127.5,331.499 127.667,374.499 127.5,417.5C 127.167,417.5 126.833,417.5 126.5,417.5C 125.681,401.848 125.347,386.181 125.5,370.5C 126.791,328.316 126.457,285.983 124.5,243.5 Z"/></g>
<g><path style="opacity:1" fill="#555555" d="M 104.5,375.5 C 104.455,356.161 104.121,336.827 103.5,317.5C 103.826,309.316 103.492,301.316 102.5,293.5C 102.5,284.5 102.5,275.5 102.5,266.5C 102.334,257.494 102.5,248.494 103,239.5C 105.169,284.983 105.669,330.317 104.5,375.5 Z"/></g>
<g><path style="opacity:1" fill="#1b1b1b" d="M 242.5,425.5 C 240.052,426.473 237.385,426.806 234.5,426.5C 234.047,425.542 233.381,424.708 232.5,424C 233.131,422.094 233.464,420.094 233.5,418C 231.786,405.226 230.786,392.393 230.5,379.5C 230.933,358.769 231.1,338.102 231,317.5C 231.333,319.167 231.667,320.833 232,322.5C 232.793,298.809 233.793,275.142 235,251.5C 235.5,309.499 235.667,367.499 235.5,425.5C 237.833,425.5 240.167,425.5 242.5,425.5 Z"/></g>
<g><path style="opacity:1" fill="#1d1d1d" d="M 103.5,317.5 C 104.121,336.827 104.455,356.161 104.5,375.5C 105.633,386.659 105.633,397.659 104.5,408.5C 103.508,408.672 102.842,408.338 102.5,407.5C 102.169,377.329 102.502,347.329 103.5,317.5 Z"/></g>
<g><path style="opacity:1" fill="#1e1e1e" d="M 100.5,355.5 C 100.5,360.167 100.5,364.833 100.5,369.5C 101.564,381.995 101.564,394.329 100.5,406.5C 99.8333,406.5 99.5,406.167 99.5,405.5C 99.1702,388.658 99.5035,371.992 100.5,355.5 Z"/></g>
<g><path style="opacity:0.968" fill="#121212" d="M 124.5,330.5 C 125.179,343.823 125.512,357.156 125.5,370.5C 125.347,386.181 125.681,401.848 126.5,417.5C 124.447,417.598 122.78,416.931 121.5,415.5C 122.372,387.163 123.372,358.83 124.5,330.5 Z"/></g>
<g><path style="opacity:1" fill="#0b0b0b" d="M 145.5,225.5 C 159.5,225.5 173.5,225.5 187.5,225.5C 187.334,229.514 187.501,233.514 188,237.5C 188.219,236.062 188.719,234.729 189.5,233.5C 190.59,234.391 190.59,235.391 189.5,236.5C 190.23,239.109 190.73,241.776 191,244.5C 191.5,261.497 191.667,278.497 191.5,295.5C 189.681,291.091 188.348,286.425 187.5,281.5C 187.664,273.459 187.164,265.459 186,257.5C 185.597,300.835 185.764,344.168 186.5,387.5C 186.178,400.413 186.511,413.246 187.5,426C 184.964,426.186 182.631,426.686 180.5,427.5C 177.946,426.612 175.279,426.279 172.5,426.5C 174.032,412.554 175.032,398.388 175.5,384C 174.854,355.836 174.354,327.67 174,299.5C 171.798,280.642 170.132,261.642 169,242.5C 167.856,252.739 167.356,263.072 167.5,273.5C 167.5,283.339 167.834,293.006 168.5,302.5C 168.709,328.502 169.043,354.502 169.5,380.5C 169.833,395.182 169.499,409.848 168.5,424.5C 167.179,383.844 166.346,343.178 166,302.5C 164.154,296.163 162.987,289.829 162.5,283.5C 162.997,270.404 162.163,257.404 160,244.5C 160,297.835 160.5,351.169 161.5,404.5C 161.5,411.167 161.5,417.833 161.5,424.5C 159.833,424.5 158.167,424.5 156.5,424.5C 156.127,400.966 156.793,377.466 158.5,354C 157.061,330.015 155.727,306.182 154.5,282.5C 154.118,267.466 153.285,252.466 152,237.5C 151.722,270.5 151.889,303.5 152.5,336.5C 153.184,365.495 153.517,394.495 153.5,423.5C 151.708,423.634 150.042,423.301 148.5,422.5C 149.998,413.588 150.998,404.588 151.5,395.5C 150.841,380.637 150.174,365.803 149.5,351C 151.115,340.259 150.781,329.426 148.5,318.5C 149.19,315.932 149.523,313.432 149.5,311C 148.102,282.507 146.769,254.007 145.5,225.5 Z"/></g>
<g><path style="opacity:1" fill="#2b2b2b" d="M 169.5,380.5 C 169.043,354.502 168.709,328.502 168.5,302.5C 168.333,291.162 168.5,279.828 169,268.5C 170.789,298.473 171.956,328.473 172.5,358.5C 172,367.5 171.5,376.5 171,385.5C 170.802,383.618 170.302,381.952 169.5,380.5 Z"/></g>
<g><path style="opacity:1" fill="#3d3d3d" d="M 154.5,282.5 C 154.667,309.502 154.5,336.502 154,363.5C 153.83,354.324 153.33,345.324 152.5,336.5C 151.889,303.5 151.722,270.5 152,237.5C 153.285,252.466 154.118,267.466 154.5,282.5 Z"/></g>
<g><path style="opacity:1" fill="#1c1c1c" d="M 179.5,305.5 C 181.011,318.809 182.011,332.309 182.5,346C 181.339,357.696 181.339,369.196 182.5,380.5C 182,381.5 181.5,382.5 181,383.5C 180.809,389.083 180.309,394.583 179.5,400C 179.476,403.269 179.809,406.603 180.5,410C 179.839,412.464 179.339,414.964 179,417.5C 177.649,395.524 177.149,373.524 177.5,351.5C 178.117,351.389 178.617,351.056 179,350.5C 179.5,335.504 179.667,320.504 179.5,305.5 Z"/></g>
<g><path style="opacity:1" fill="#2d2d2d" d="M 162.5,283.5 C 163.292,322.251 163.625,360.751 163.5,399C 162.891,400.948 162.224,402.782 161.5,404.5C 160.5,351.169 160,297.835 160,244.5C 162.163,257.404 162.997,270.404 162.5,283.5 Z"/></g>
<g><path style="opacity:1" fill="#282828" d="M 179.5,305.5 C 179.667,320.504 179.5,335.504 179,350.5C 178.617,351.056 178.117,351.389 177.5,351.5C 176.63,316.837 176.463,282.17 177,247.5C 178.917,266.764 179.751,286.097 179.5,305.5 Z"/></g>
<g><path style="opacity:1" fill="#343434" d="M 114.5,297.5 C 116.401,335.661 116.735,373.995 115.5,412.5C 114.532,392.175 113.865,371.842 113.5,351.5C 114.497,333.674 114.83,315.674 114.5,297.5 Z"/></g>
<g><path style="opacity:0.912" fill="#151515" d="M 212.5,427.5 C 201.833,427.5 191.167,427.5 180.5,427.5C 182.631,426.686 184.964,426.186 187.5,426C 186.511,413.246 186.178,400.413 186.5,387.5C 187.324,391.312 187.824,395.312 188,399.5C 188.333,395.5 188.667,391.5 189,387.5C 189.424,385.485 190.258,383.651 191.5,382C 190.396,379.991 189.729,377.824 189.5,375.5C 190.701,365.383 191.368,355.216 191.5,345C 189.396,323.931 188.062,302.764 187.5,281.5C 188.348,286.425 189.681,291.091 191.5,295.5C 192.473,339.147 192.807,382.814 192.5,426.5C 193.5,426.5 194.5,426.5 195.5,426.5C 194.818,381.169 194.151,335.835 193.5,290.5C 193.654,273.49 194.154,256.49 195,239.5C 196.109,247.457 196.776,255.457 197,263.5C 197.333,263.833 197.667,264.167 198,264.5C 198.333,262.167 198.667,259.833 199,257.5C 201.271,313.296 201.937,369.296 201,425.5C 202.84,426.833 203.34,426.666 202.5,425C 203.331,371.237 203.831,317.404 204,263.5C 204.667,268.833 205.333,274.167 206,279.5C 206.29,281.044 206.956,282.377 208,283.5C 209.058,330.392 209.892,377.226 210.5,424C 210.043,424.414 209.709,424.914 209.5,425.5C 210.602,426.176 211.602,426.842 212.5,427.5 Z"/></g>
</svg>
